G75*
G70*
%OFA0B0*%
%FSLAX24Y24*%
%IPPOS*%
%LPD*%
%AMOC8*
5,1,8,0,0,1.08239X$1,22.5*
%
%ADD10C,0.0000*%
%ADD11C,0.0591*%
%ADD12C,0.0660*%
%ADD13R,0.0906X0.0374*%
%ADD14R,0.0906X0.1280*%
%ADD15C,0.0740*%
%ADD16R,0.0394X0.0512*%
%ADD17R,0.0472X0.0472*%
%ADD18R,0.0709X0.0787*%
%ADD19C,0.0100*%
%ADD20C,0.0356*%
%ADD21C,0.0120*%
%ADD22C,0.0160*%
%ADD23C,0.0320*%
%ADD24C,0.0500*%
%ADD25C,0.0240*%
D10*
X002425Y003185D02*
X002425Y003185D01*
X002268Y003342D01*
X002268Y003343D02*
X002268Y010626D01*
X002268Y010823D01*
X002425Y010980D01*
X002268Y011138D01*
X002268Y018421D01*
X002268Y018618D01*
X002425Y018775D01*
X021795Y018775D01*
X021953Y018618D01*
X021953Y011138D01*
X021795Y010980D01*
X021953Y010823D01*
X021953Y003342D01*
X021795Y003185D01*
X021794Y003185D02*
X002425Y003185D01*
X002425Y010980D02*
X002425Y010980D01*
X021953Y011137D02*
X021953Y011138D01*
X021953Y003342D02*
X021953Y003342D01*
D11*
X016995Y005485D03*
X015995Y005485D03*
X014995Y005485D03*
X013995Y005485D03*
X012995Y005485D03*
X011995Y005485D03*
X010995Y005485D03*
X009995Y005485D03*
X008995Y005485D03*
X007995Y005485D03*
X006995Y005485D03*
X005995Y005485D03*
X004995Y005485D03*
X003995Y005485D03*
X003995Y008485D03*
X004995Y008485D03*
X005995Y008485D03*
X006995Y008485D03*
X007995Y008485D03*
X008995Y008485D03*
X009995Y008485D03*
X010995Y008485D03*
X011995Y008485D03*
X012995Y008485D03*
X013995Y008485D03*
X014995Y008485D03*
X015995Y008485D03*
X016995Y008485D03*
X016995Y013280D03*
X015995Y013280D03*
X014995Y013280D03*
X013995Y013280D03*
X012995Y013280D03*
X011995Y013280D03*
X010995Y013280D03*
X009995Y013280D03*
X008995Y013280D03*
X007995Y013280D03*
X006995Y013280D03*
X005995Y013280D03*
X004995Y013280D03*
X003995Y013280D03*
X003995Y016280D03*
X004995Y016280D03*
X005995Y016280D03*
X006995Y016280D03*
X007995Y016280D03*
X008995Y016280D03*
X009995Y016280D03*
X010995Y016280D03*
X011995Y016280D03*
X012995Y016280D03*
X013995Y016280D03*
X014995Y016280D03*
X015995Y016280D03*
X016995Y016280D03*
D12*
X019053Y014362D03*
X019053Y012441D03*
X019053Y006567D03*
X019053Y004646D03*
D13*
X019050Y008321D03*
X019050Y009227D03*
X019050Y010132D03*
X019050Y016116D03*
X019050Y017022D03*
X019050Y017927D03*
D14*
X021372Y017022D03*
X021372Y009227D03*
D15*
X015995Y009935D03*
X014995Y010035D03*
X013995Y009935D03*
X012995Y010035D03*
X011995Y009935D03*
X010995Y010035D03*
X009995Y009935D03*
X008995Y010035D03*
X007995Y009935D03*
X006995Y010035D03*
X005995Y009935D03*
X004995Y010035D03*
X004995Y011830D03*
X005995Y011730D03*
X006995Y011830D03*
X007995Y011730D03*
X008995Y011830D03*
X009995Y011730D03*
X010995Y011830D03*
X011995Y011730D03*
X012995Y011830D03*
X013995Y011730D03*
X014995Y011830D03*
X015995Y011730D03*
X015995Y017730D03*
X014995Y017830D03*
X013995Y017730D03*
X012995Y017830D03*
X011995Y017730D03*
X010995Y017830D03*
X009995Y017730D03*
X008995Y017830D03*
X007995Y017730D03*
X006995Y017830D03*
X005995Y017730D03*
X004995Y017830D03*
X002881Y017280D03*
X002781Y016280D03*
X002881Y015280D03*
X002781Y014280D03*
X002881Y013280D03*
X002781Y012280D03*
X002881Y009485D03*
X002781Y008485D03*
X002881Y007485D03*
X002781Y006485D03*
X002881Y005485D03*
X002781Y004485D03*
X004995Y004035D03*
X005995Y003935D03*
X006995Y004035D03*
X007995Y003935D03*
X008995Y004035D03*
X009995Y003935D03*
X010995Y004035D03*
X011995Y003935D03*
X012995Y004035D03*
X013995Y003935D03*
X014995Y004035D03*
X015995Y003935D03*
D16*
X020500Y004346D03*
X020500Y005094D03*
X020500Y006354D03*
X020500Y007102D03*
X020500Y012142D03*
X020500Y012890D03*
X020500Y014149D03*
X020500Y014897D03*
D17*
X012783Y014738D03*
X011996Y014738D03*
X009358Y014684D03*
X008571Y014684D03*
X005894Y014681D03*
X005106Y014681D03*
X011996Y006943D03*
X012783Y006943D03*
X009358Y006889D03*
X008571Y006889D03*
X005894Y006886D03*
X005106Y006886D03*
D18*
X017902Y008698D03*
X017902Y009958D03*
X021446Y012291D03*
X021446Y013551D03*
X017902Y016493D03*
X017902Y017753D03*
X021446Y005756D03*
X021446Y004496D03*
D19*
X020500Y004346D02*
X019053Y004646D01*
X019053Y006567D02*
X020500Y007102D01*
X020500Y012142D02*
X019053Y012441D01*
X019053Y014362D02*
X020500Y014897D01*
D20*
X020500Y013539D03*
X021439Y011652D03*
X019870Y010114D03*
X020500Y005744D03*
X021439Y003857D03*
X013395Y007022D03*
X008020Y006889D03*
X008020Y014684D03*
X013395Y014817D03*
X019870Y017909D03*
D21*
X016995Y016280D02*
X016559Y013815D01*
X016995Y013280D02*
X016913Y012476D01*
X016599Y011492D02*
X016574Y011452D01*
X016546Y011414D01*
X016516Y011378D01*
X016483Y011344D01*
X016447Y011314D01*
X016409Y011285D01*
X016370Y011260D01*
X016328Y011238D01*
X016285Y011219D01*
X016241Y011203D01*
X016195Y011191D01*
X016149Y011182D01*
X016102Y011177D01*
X016055Y011175D01*
X016008Y011177D01*
X014551Y011177D01*
X014505Y011179D01*
X014460Y011185D01*
X014415Y011194D01*
X014371Y011207D01*
X014328Y011224D01*
X014287Y011244D01*
X014248Y011267D01*
X014210Y011294D01*
X014175Y011323D01*
X014143Y011355D01*
X014113Y011390D01*
X014086Y011427D01*
X014063Y011467D01*
X014043Y011508D01*
X014026Y011550D01*
X014013Y011594D01*
X014003Y011639D01*
X013997Y011684D01*
X013995Y011730D01*
X013881Y012280D02*
X013814Y012272D01*
X013747Y012261D01*
X013681Y012246D01*
X013615Y012228D01*
X013551Y012207D01*
X013487Y012183D01*
X013425Y012155D01*
X013365Y012124D01*
X013306Y012091D01*
X013249Y012054D01*
X013194Y012015D01*
X013140Y011972D01*
X013089Y011928D01*
X013041Y011880D01*
X012995Y011830D01*
X012937Y012437D02*
X012870Y012424D01*
X012804Y012408D01*
X012739Y012388D01*
X012675Y012364D01*
X012613Y012338D01*
X012552Y012308D01*
X012492Y012275D01*
X012435Y012238D01*
X012379Y012199D01*
X012326Y012157D01*
X012275Y012112D01*
X012227Y012064D01*
X012181Y012014D01*
X012138Y011961D01*
X012098Y011906D01*
X012060Y011849D01*
X012026Y011790D01*
X011995Y011730D01*
X010995Y010035D02*
X011029Y009968D01*
X011066Y009903D01*
X011106Y009840D01*
X011149Y009779D01*
X011196Y009720D01*
X011245Y009664D01*
X011297Y009610D01*
X011352Y009559D01*
X011409Y009511D01*
X011469Y009466D01*
X011531Y009424D01*
X011595Y009385D01*
X012295Y008985D01*
X012995Y008485D01*
X013295Y008985D02*
X012695Y009385D01*
X010996Y011830D02*
X011108Y011934D01*
X011225Y012032D01*
X011347Y012124D01*
X011472Y012210D01*
X011602Y012290D01*
X011736Y012364D01*
X011873Y012432D01*
X012012Y012492D01*
X012155Y012547D01*
X012300Y012594D01*
X012447Y012634D01*
X012596Y012668D01*
X012747Y012694D01*
X012898Y012713D01*
X013882Y004485D02*
X014226Y004523D01*
X014567Y004575D01*
X014906Y004642D01*
X014709Y005153D02*
X014995Y005485D01*
X015890Y004562D02*
X015944Y004589D01*
X015997Y004619D01*
X016048Y004651D01*
X016097Y004687D01*
X016144Y004725D01*
X016188Y004766D01*
X016231Y004810D01*
X016270Y004855D01*
X016307Y004904D01*
X016341Y004954D01*
X016371Y005006D01*
X016399Y005060D01*
X016424Y005115D01*
X016445Y005172D01*
X016463Y005230D01*
X016477Y005288D01*
X016489Y005348D01*
X016496Y005408D01*
X016500Y005468D01*
X016995Y005485D02*
X016913Y004681D01*
X016599Y003697D02*
X016574Y003657D01*
X016546Y003619D01*
X016516Y003583D01*
X016483Y003549D01*
X016447Y003519D01*
X016409Y003490D01*
X016370Y003465D01*
X016328Y003443D01*
X016285Y003424D01*
X016241Y003408D01*
X016195Y003396D01*
X016149Y003387D01*
X016102Y003382D01*
X016055Y003380D01*
X016008Y003382D01*
X014551Y003382D01*
X014505Y003384D01*
X014460Y003390D01*
X014415Y003399D01*
X014371Y003412D01*
X014328Y003429D01*
X014287Y003449D01*
X014248Y003472D01*
X014210Y003499D01*
X014175Y003528D01*
X014143Y003560D01*
X014113Y003595D01*
X014086Y003632D01*
X014063Y003672D01*
X014043Y003713D01*
X014026Y003755D01*
X014013Y003799D01*
X014003Y003844D01*
X013997Y003889D01*
X013995Y003935D01*
X013881Y004485D02*
X013814Y004477D01*
X013747Y004466D01*
X013681Y004451D01*
X013615Y004433D01*
X013551Y004412D01*
X013487Y004388D01*
X013425Y004360D01*
X013365Y004329D01*
X013306Y004296D01*
X013249Y004259D01*
X013194Y004220D01*
X013140Y004177D01*
X013089Y004133D01*
X013041Y004085D01*
X012995Y004035D01*
X012937Y004642D02*
X012870Y004629D01*
X012804Y004613D01*
X012739Y004593D01*
X012675Y004569D01*
X012613Y004543D01*
X012552Y004513D01*
X012492Y004480D01*
X012435Y004443D01*
X012379Y004404D01*
X012326Y004362D01*
X012275Y004317D01*
X012227Y004269D01*
X012181Y004219D01*
X012138Y004166D01*
X012098Y004111D01*
X012060Y004054D01*
X012026Y003995D01*
X011995Y003935D01*
X013528Y005153D02*
X013995Y005485D01*
X014236Y004879D02*
X014290Y004891D01*
X014344Y004908D01*
X014396Y004927D01*
X014446Y004951D01*
X014495Y004977D01*
X014542Y005007D01*
X014587Y005039D01*
X014630Y005075D01*
X014671Y005113D01*
X014708Y005154D01*
X016913Y004681D02*
X016899Y004566D01*
X016879Y004452D01*
X016854Y004339D01*
X016824Y004227D01*
X016789Y004117D01*
X016748Y004009D01*
X016703Y003902D01*
X016653Y003798D01*
X016598Y003696D01*
X015772Y005193D02*
X015995Y005485D01*
X016559Y006020D02*
X016995Y008485D01*
X014995Y011830D02*
X015164Y011951D01*
X015339Y012065D01*
X015518Y012171D01*
X015702Y012268D01*
X015890Y012358D01*
X013695Y009385D02*
X013583Y009464D01*
X013474Y009548D01*
X013370Y009636D01*
X013269Y009729D01*
X013173Y009827D01*
X013082Y009929D01*
X012995Y010035D01*
X013695Y009385D02*
X014295Y008985D01*
X014995Y008485D01*
X015295Y008985D02*
X015995Y008485D01*
X013995Y008485D02*
X013295Y008985D01*
X013528Y005154D02*
X013471Y005116D01*
X013413Y005081D01*
X013353Y005049D01*
X013291Y005020D01*
X013228Y004995D01*
X013164Y004973D01*
X013099Y004954D01*
X013032Y004938D01*
X012965Y004926D01*
X012898Y004918D01*
X014905Y004642D02*
X014978Y004660D01*
X015050Y004681D01*
X015120Y004706D01*
X015189Y004735D01*
X015257Y004767D01*
X015323Y004802D01*
X015387Y004841D01*
X015449Y004882D01*
X015509Y004927D01*
X015567Y004975D01*
X015622Y005025D01*
X015675Y005079D01*
X015724Y005135D01*
X015771Y005193D01*
X012898Y004917D02*
X012747Y004898D01*
X012596Y004872D01*
X012447Y004838D01*
X012300Y004798D01*
X012155Y004751D01*
X012012Y004696D01*
X011873Y004636D01*
X011736Y004568D01*
X011602Y004494D01*
X011472Y004414D01*
X011347Y004328D01*
X011225Y004236D01*
X011108Y004138D01*
X010996Y004034D01*
X009995Y003935D02*
X009495Y004585D01*
X008995Y005485D01*
X007995Y005485D02*
X008495Y004585D01*
X008995Y004035D01*
X007995Y003935D02*
X007495Y004685D01*
X006995Y005485D01*
X006595Y004585D02*
X006995Y004035D01*
X006595Y004585D02*
X005995Y005485D01*
X004472Y004603D02*
X004511Y004535D01*
X004553Y004470D01*
X004598Y004406D01*
X004647Y004345D01*
X004698Y004286D01*
X004752Y004230D01*
X004809Y004177D01*
X004869Y004127D01*
X004931Y004080D01*
X004995Y004036D01*
X005395Y004685D02*
X005995Y003935D01*
X005395Y004685D02*
X004995Y005485D01*
X003995Y005485D02*
X004472Y004602D01*
X003995Y005485D02*
X002781Y004485D01*
X003995Y005485D02*
X005106Y006886D01*
X005894Y006886D02*
X005894Y007585D01*
X005995Y008485D02*
X006495Y009185D01*
X006995Y008485D02*
X007495Y009185D01*
X007995Y008485D02*
X008495Y009285D01*
X008995Y008485D02*
X009495Y009185D01*
X009995Y011730D02*
X009495Y012380D01*
X008995Y013280D01*
X004395Y016980D02*
X004529Y017203D01*
X004674Y017420D01*
X004830Y017629D01*
X004995Y017830D01*
X005495Y016980D02*
X004995Y016280D01*
X004395Y016980D02*
X003995Y016280D01*
X005106Y014681D02*
X003995Y013280D01*
X004472Y012397D01*
X005395Y012480D02*
X004995Y013280D01*
X004472Y012398D02*
X004511Y012330D01*
X004553Y012265D01*
X004598Y012201D01*
X004647Y012140D01*
X004698Y012081D01*
X004752Y012025D01*
X004809Y011972D01*
X004869Y011922D01*
X004931Y011875D01*
X004995Y011831D01*
X005395Y012480D02*
X005995Y011730D01*
X006595Y012380D02*
X006995Y011830D01*
X006595Y012380D02*
X005995Y013280D01*
X006995Y013280D02*
X007495Y012480D01*
X007995Y011730D01*
X008495Y012380D02*
X008995Y011830D01*
X008495Y012380D02*
X007995Y013280D01*
X005894Y014681D02*
X005894Y015380D01*
X005995Y016280D02*
X006495Y016980D01*
X006995Y016280D02*
X007495Y016980D01*
X007995Y016280D02*
X008495Y017080D01*
X008995Y016280D02*
X009495Y016980D01*
X011595Y017180D02*
X012295Y016780D01*
X012995Y016280D01*
X013295Y016780D02*
X012695Y017180D01*
X013295Y016780D02*
X013995Y016280D01*
X014295Y016780D02*
X013695Y017180D01*
X014295Y016780D02*
X014995Y016280D01*
X015295Y016780D02*
X015995Y016280D01*
X011995Y009935D02*
X012162Y009787D01*
X012334Y009646D01*
X012512Y009512D01*
X012695Y009385D01*
X013528Y012949D02*
X013995Y013280D01*
X014236Y012674D02*
X014290Y012686D01*
X014344Y012703D01*
X014396Y012722D01*
X014446Y012746D01*
X014495Y012772D01*
X014542Y012802D01*
X014587Y012834D01*
X014630Y012870D01*
X014671Y012908D01*
X014708Y012949D01*
X014709Y012949D02*
X014995Y013280D01*
X015890Y012357D02*
X015944Y012384D01*
X015997Y012414D01*
X016048Y012446D01*
X016097Y012482D01*
X016144Y012520D01*
X016188Y012561D01*
X016231Y012605D01*
X016270Y012650D01*
X016307Y012699D01*
X016341Y012749D01*
X016371Y012801D01*
X016399Y012855D01*
X016424Y012910D01*
X016445Y012967D01*
X016463Y013025D01*
X016477Y013083D01*
X016489Y013143D01*
X016496Y013203D01*
X016500Y013263D01*
X015995Y013280D02*
X015772Y012988D01*
X015771Y012988D02*
X015724Y012930D01*
X015675Y012874D01*
X015622Y012820D01*
X015567Y012770D01*
X015509Y012722D01*
X015449Y012677D01*
X015387Y012636D01*
X015323Y012597D01*
X015257Y012562D01*
X015189Y012530D01*
X015120Y012501D01*
X015050Y012476D01*
X014978Y012455D01*
X014905Y012437D01*
X016598Y011492D02*
X016653Y011594D01*
X016703Y011698D01*
X016748Y011805D01*
X016789Y011913D01*
X016824Y012023D01*
X016854Y012135D01*
X016879Y012248D01*
X016899Y012362D01*
X016913Y012477D01*
X020500Y012890D02*
X020500Y013539D01*
X020500Y014149D01*
X016559Y013815D02*
X016531Y013632D01*
X016511Y013448D01*
X016500Y013263D01*
X013528Y012949D02*
X013471Y012911D01*
X013413Y012876D01*
X013353Y012844D01*
X013291Y012815D01*
X013228Y012790D01*
X013164Y012768D01*
X013099Y012749D01*
X013032Y012733D01*
X012965Y012721D01*
X012898Y012713D01*
X011595Y017180D02*
X011531Y017219D01*
X011469Y017261D01*
X011409Y017306D01*
X011352Y017354D01*
X011297Y017405D01*
X011245Y017459D01*
X011196Y017515D01*
X011149Y017574D01*
X011106Y017635D01*
X011066Y017698D01*
X011029Y017763D01*
X010995Y017830D01*
X013882Y012280D02*
X014226Y012318D01*
X014567Y012370D01*
X014906Y012437D01*
X020500Y006354D02*
X020500Y005744D01*
X020500Y005094D01*
X016500Y005468D02*
X016511Y005653D01*
X016531Y005837D01*
X016559Y006020D01*
X008495Y017080D02*
X008740Y017459D01*
X008995Y017830D01*
X003995Y013280D02*
X002781Y012280D01*
X006995Y010035D02*
X006884Y009815D01*
X006764Y009599D01*
X006634Y009389D01*
X006495Y009185D01*
X005495Y009185D02*
X004995Y008485D01*
X004395Y009185D02*
X003995Y008485D01*
X004395Y009185D02*
X004529Y009408D01*
X004674Y009625D01*
X004830Y009834D01*
X004995Y010035D01*
X009495Y009185D02*
X009751Y009556D01*
X009995Y009935D01*
X013695Y017180D02*
X013583Y017259D01*
X013474Y017343D01*
X013370Y017431D01*
X013269Y017524D01*
X013173Y017622D01*
X013082Y017724D01*
X012995Y017830D01*
X012695Y017180D02*
X012512Y017307D01*
X012334Y017441D01*
X012162Y017582D01*
X011995Y017730D01*
X014236Y004878D02*
X012937Y004642D01*
X014995Y004035D02*
X015164Y004156D01*
X015339Y004270D01*
X015518Y004376D01*
X015702Y004473D01*
X015890Y004563D01*
X008495Y009285D02*
X008740Y009664D01*
X008995Y010035D01*
X007995Y009935D02*
X007751Y009556D01*
X007495Y009185D01*
X005995Y009935D02*
X005751Y009556D01*
X005495Y009185D01*
X006495Y016980D02*
X006634Y017184D01*
X006764Y017394D01*
X006884Y017610D01*
X006995Y017830D01*
X009495Y016980D02*
X009751Y017351D01*
X009995Y017730D01*
X012937Y012437D02*
X014236Y012673D01*
X007495Y016980D02*
X007751Y017351D01*
X007995Y017730D01*
X005995Y017730D02*
X005751Y017351D01*
X005495Y016980D01*
X013996Y009936D02*
X015296Y008986D01*
X015296Y016781D02*
X013996Y017731D01*
D22*
X014995Y018300D02*
X015006Y018319D01*
X015020Y018337D01*
X015036Y018352D01*
X015054Y018364D01*
X015074Y018374D01*
X015095Y018380D01*
X020653Y018380D01*
X020500Y018067D02*
X019850Y018380D01*
X021773Y018380D01*
X021773Y013314D01*
X021053Y013314D01*
X021053Y015459D01*
X020253Y015459D01*
X019755Y015884D01*
X019755Y016684D01*
X019153Y016880D01*
X019153Y017180D01*
X019653Y017380D01*
X020500Y017752D01*
X020500Y018067D01*
X020456Y018088D02*
X021773Y018088D01*
X021773Y018246D02*
X020127Y018246D01*
X020500Y017929D02*
X021773Y017929D01*
X021773Y017771D02*
X020500Y017771D01*
X020182Y017612D02*
X021773Y017612D01*
X021773Y017454D02*
X019821Y017454D01*
X019440Y017295D02*
X021773Y017295D01*
X021773Y017137D02*
X019153Y017137D01*
X019153Y016978D02*
X021773Y016978D01*
X021773Y016820D02*
X019339Y016820D01*
X019755Y016661D02*
X021773Y016661D01*
X021773Y016503D02*
X019755Y016503D01*
X019755Y016344D02*
X021773Y016344D01*
X021773Y016185D02*
X019755Y016185D01*
X019755Y016027D02*
X021773Y016027D01*
X021773Y015868D02*
X019774Y015868D01*
X019959Y015710D02*
X021773Y015710D01*
X021773Y015551D02*
X020145Y015551D01*
X021053Y015393D02*
X021773Y015393D01*
X021773Y015234D02*
X021053Y015234D01*
X021053Y015076D02*
X021773Y015076D01*
X021773Y014917D02*
X021053Y014917D01*
X021053Y014759D02*
X021773Y014759D01*
X021773Y014600D02*
X021053Y014600D01*
X021053Y014441D02*
X021773Y014441D01*
X021773Y014283D02*
X021053Y014283D01*
X021053Y014124D02*
X021773Y014124D01*
X021773Y013966D02*
X021053Y013966D01*
X021053Y013807D02*
X021773Y013807D01*
X021773Y013649D02*
X021053Y013649D01*
X021053Y013490D02*
X021773Y013490D01*
X021773Y013332D02*
X021053Y013332D01*
X020653Y010585D02*
X015095Y010585D01*
X003495Y010585D01*
X003495Y007585D01*
X003449Y007594D01*
X002881Y007485D01*
X003495Y007585D02*
X005894Y007585D01*
X007875Y007585D01*
X009358Y007594D01*
X011484Y007022D01*
X011996Y006943D01*
X011995Y008485D01*
X010995Y008485D01*
X009358Y007594D02*
X009358Y006889D01*
X009995Y005485D01*
X008571Y006889D02*
X008020Y006889D01*
X012783Y006943D02*
X013395Y007022D01*
X014995Y010505D02*
X015006Y010524D01*
X015020Y010542D01*
X015036Y010557D01*
X015054Y010569D01*
X015074Y010579D01*
X015095Y010585D01*
X019153Y009385D02*
X019153Y009085D01*
X019755Y008889D01*
X019755Y008089D01*
X020253Y007664D01*
X021053Y007664D01*
X021053Y005519D01*
X021773Y005519D01*
X021773Y010585D01*
X019850Y010585D01*
X020500Y010271D01*
X020500Y009957D01*
X019653Y009585D01*
X019153Y009385D01*
X019153Y009368D02*
X021773Y009368D01*
X021773Y009210D02*
X019153Y009210D01*
X019257Y009051D02*
X021773Y009051D01*
X021773Y008892D02*
X019744Y008892D01*
X019755Y008734D02*
X021773Y008734D01*
X021773Y008575D02*
X019755Y008575D01*
X019755Y008417D02*
X021773Y008417D01*
X021773Y008258D02*
X019755Y008258D01*
X019755Y008100D02*
X021773Y008100D01*
X021773Y007941D02*
X019928Y007941D01*
X020113Y007783D02*
X021773Y007783D01*
X021773Y007624D02*
X021053Y007624D01*
X021053Y007466D02*
X021773Y007466D01*
X021773Y007307D02*
X021053Y007307D01*
X021053Y007148D02*
X021773Y007148D01*
X021773Y006990D02*
X021053Y006990D01*
X021053Y006831D02*
X021773Y006831D01*
X021773Y006673D02*
X021053Y006673D01*
X021053Y006514D02*
X021773Y006514D01*
X021773Y006356D02*
X021053Y006356D01*
X021053Y006197D02*
X021773Y006197D01*
X021773Y006039D02*
X021053Y006039D01*
X021053Y005880D02*
X021773Y005880D01*
X021773Y005722D02*
X021053Y005722D01*
X021053Y005563D02*
X021773Y005563D01*
X021773Y009527D02*
X019507Y009527D01*
X019881Y009685D02*
X021773Y009685D01*
X021773Y009844D02*
X020243Y009844D01*
X020500Y010002D02*
X021773Y010002D01*
X021773Y010161D02*
X020500Y010161D01*
X020401Y010319D02*
X021773Y010319D01*
X021773Y010478D02*
X020072Y010478D01*
X013395Y014817D02*
X012783Y014738D01*
X011996Y014738D02*
X011484Y014817D01*
X009358Y015390D01*
X009358Y014684D01*
X009995Y013280D01*
X008571Y014684D02*
X008020Y014684D01*
X007875Y015380D02*
X009358Y015390D01*
X007875Y015380D02*
X005894Y015380D01*
X003495Y015380D01*
X003449Y015390D01*
X002881Y015280D01*
X003495Y015380D02*
X003495Y018380D01*
X015095Y018380D01*
X011995Y016280D02*
X011996Y014738D01*
X011995Y016280D02*
X010995Y016280D01*
D23*
X014995Y017830D02*
X014995Y018300D01*
X017902Y016493D02*
X018295Y016413D01*
X019050Y016116D01*
X019050Y017927D02*
X019870Y017909D01*
X014995Y010505D02*
X014995Y010035D01*
X017902Y008698D02*
X018295Y008618D01*
X019050Y008321D01*
X019050Y010132D02*
X019870Y010114D01*
D24*
X019050Y010132D02*
X018093Y010093D01*
X017902Y009958D01*
X021439Y011652D02*
X021439Y012267D01*
X021446Y012291D01*
X019050Y017927D02*
X018093Y017888D01*
X017902Y017753D01*
X021446Y004496D02*
X021439Y004471D01*
X021439Y003857D01*
D25*
X016756Y009523D02*
X015995Y009935D01*
X017902Y016493D02*
X017756Y016634D01*
X017604Y016767D01*
X017445Y016894D01*
X017281Y017012D01*
X017111Y017123D01*
X016935Y017225D01*
X016756Y017318D01*
X016756Y017319D02*
X015995Y017730D01*
X016756Y009523D02*
X016935Y009430D01*
X017111Y009328D01*
X017281Y009217D01*
X017445Y009099D01*
X017604Y008972D01*
X017756Y008839D01*
X017902Y008698D01*
M02*
