G75*
G70*
%OFA0B0*%
%FSLAX24Y24*%
%IPPOS*%
%LPD*%
%AMOC8*
5,1,8,0,0,1.08239X$1,22.5*
%
%ADD10C,0.0000*%
%ADD11C,0.0591*%
%ADD12C,0.0660*%
%ADD13R,0.0906X0.0374*%
%ADD14R,0.0906X0.1280*%
%ADD15C,0.0740*%
%ADD16R,0.0394X0.0512*%
%ADD17R,0.0472X0.0472*%
%ADD18R,0.0709X0.0787*%
%ADD19C,0.0100*%
%ADD20C,0.0356*%
%ADD21C,0.0120*%
%ADD22C,0.0160*%
%ADD23C,0.0320*%
%ADD24C,0.0500*%
%ADD25C,0.0240*%
D10*
X002429Y003185D02*
X021676Y003185D01*
X021677Y003184D02*
X021706Y003181D01*
X021735Y003182D01*
X021764Y003186D01*
X021792Y003193D01*
X021820Y003204D01*
X021845Y003218D01*
X021869Y003235D01*
X021891Y003255D01*
X021910Y003278D01*
X021926Y003302D01*
X021939Y003328D01*
X021949Y003356D01*
X021956Y003385D01*
X021955Y003385D02*
X021955Y018380D01*
X021955Y018381D02*
X021957Y018416D01*
X021956Y018451D01*
X021951Y018486D01*
X021943Y018521D01*
X021931Y018554D01*
X021916Y018586D01*
X021899Y018617D01*
X021878Y018645D01*
X021854Y018672D01*
X021829Y018696D01*
X021800Y018717D01*
X021770Y018736D01*
X021739Y018751D01*
X021705Y018763D01*
X021671Y018772D01*
X021636Y018778D01*
X021637Y018777D02*
X002497Y018777D01*
X002467Y018769D01*
X002438Y018757D01*
X002410Y018743D01*
X002385Y018725D01*
X002361Y018705D01*
X002340Y018682D01*
X002321Y018658D01*
X002305Y018631D01*
X002292Y018603D01*
X002283Y018573D01*
X002276Y018543D01*
X002273Y018512D01*
X002274Y018481D01*
X002277Y018450D01*
X002268Y003394D01*
X002266Y003370D01*
X002267Y003345D01*
X002272Y003321D01*
X002279Y003298D01*
X002290Y003276D01*
X002304Y003255D01*
X002320Y003237D01*
X002338Y003221D01*
X002359Y003207D01*
X002381Y003197D01*
X002404Y003189D01*
X002428Y003185D01*
D11*
X003995Y005485D03*
X004995Y005485D03*
X005995Y005485D03*
X006995Y005485D03*
X007995Y005485D03*
X008995Y005485D03*
X009995Y005485D03*
X010995Y005485D03*
X011995Y005485D03*
X012995Y005485D03*
X013995Y005485D03*
X014995Y005485D03*
X015995Y005485D03*
X016995Y005485D03*
X016995Y008485D03*
X015995Y008485D03*
X014995Y008485D03*
X013995Y008485D03*
X012995Y008485D03*
X011995Y008485D03*
X010995Y008485D03*
X009995Y008485D03*
X008995Y008485D03*
X007995Y008485D03*
X006995Y008485D03*
X005995Y008485D03*
X004995Y008485D03*
X003995Y008485D03*
X007224Y013496D03*
X008224Y013496D03*
X009224Y013496D03*
X010224Y013496D03*
X011224Y013496D03*
X012224Y013496D03*
X013224Y013496D03*
X014224Y013496D03*
X015224Y013496D03*
X016224Y013496D03*
X017224Y013496D03*
X018224Y013496D03*
X019224Y013496D03*
X020224Y013496D03*
X020224Y016496D03*
X019224Y016496D03*
X018224Y016496D03*
X017224Y016496D03*
X016224Y016496D03*
X015224Y016496D03*
X014224Y016496D03*
X013224Y016496D03*
X012224Y016496D03*
X011224Y016496D03*
X010224Y016496D03*
X009224Y016496D03*
X008224Y016496D03*
X007224Y016496D03*
D12*
X005378Y017334D03*
X005378Y015413D03*
X019053Y006567D03*
X019053Y004646D03*
D13*
X019050Y008321D03*
X019050Y009227D03*
X019050Y010132D03*
X005220Y011807D03*
X005220Y012712D03*
X005220Y013618D03*
D14*
X002898Y012712D03*
X021372Y009227D03*
D15*
X019197Y011914D03*
X018197Y012014D03*
X017197Y011914D03*
X016197Y012014D03*
X015197Y011914D03*
X014197Y012014D03*
X013197Y011914D03*
X012197Y012014D03*
X011197Y011914D03*
X010197Y012014D03*
X009197Y011914D03*
X008197Y012014D03*
X007995Y009935D03*
X006995Y010035D03*
X005995Y009935D03*
X004995Y010035D03*
X002881Y009485D03*
X002781Y008485D03*
X002881Y007485D03*
X002781Y006485D03*
X002881Y005485D03*
X002781Y004485D03*
X004995Y004035D03*
X005995Y003935D03*
X006995Y004035D03*
X007995Y003935D03*
X008995Y004035D03*
X009995Y003935D03*
X010995Y004035D03*
X011995Y003935D03*
X012995Y004035D03*
X013995Y003935D03*
X014995Y004035D03*
X015995Y003935D03*
X015995Y009935D03*
X014995Y010035D03*
X013995Y009935D03*
X012995Y010035D03*
X011995Y009935D03*
X010995Y010035D03*
X009995Y009935D03*
X008995Y010035D03*
X009197Y017938D03*
X010197Y018038D03*
X011197Y017938D03*
X012197Y018038D03*
X013197Y017938D03*
X014197Y018038D03*
X015197Y017938D03*
X016197Y018038D03*
X017197Y017938D03*
X018197Y018038D03*
X019197Y017938D03*
X021452Y017476D03*
X021352Y016476D03*
X021452Y015476D03*
X021352Y014476D03*
X021452Y013476D03*
X021352Y012476D03*
X008197Y018038D03*
D16*
X003843Y017811D03*
X003843Y017063D03*
X003843Y015646D03*
X003843Y014897D03*
X020500Y007102D03*
X020500Y006354D03*
X020500Y005094D03*
X020500Y004346D03*
D17*
X012783Y006943D03*
X011996Y006943D03*
X009358Y006889D03*
X008571Y006889D03*
X005894Y006886D03*
X005106Y006886D03*
X011717Y014996D03*
X012504Y014996D03*
X014984Y015035D03*
X015772Y015035D03*
X018449Y014996D03*
X019236Y014996D03*
D18*
X017902Y009958D03*
X017902Y008698D03*
X021446Y006779D03*
X021446Y005520D03*
X006341Y012043D03*
X006341Y013303D03*
X002819Y015823D03*
X002819Y017083D03*
D19*
X019053Y006567D02*
X020500Y007102D01*
X020500Y004346D02*
X019053Y004646D01*
D20*
X020500Y005744D03*
X021439Y004644D03*
X019870Y010114D03*
X016362Y015035D03*
X011087Y014996D03*
X004354Y011807D03*
X003803Y016374D03*
X002819Y017831D03*
X013395Y007022D03*
X008020Y006889D03*
D21*
X004395Y009185D02*
X004529Y009408D01*
X004674Y009625D01*
X004830Y009834D01*
X004995Y010035D01*
X005495Y009185D02*
X004995Y008485D01*
X004395Y009185D02*
X003995Y008485D01*
X005894Y007585D02*
X005894Y006886D01*
X005106Y006886D02*
X003995Y005485D01*
X004472Y004602D01*
X005395Y004685D02*
X004995Y005485D01*
X004472Y004603D02*
X004511Y004535D01*
X004553Y004470D01*
X004598Y004406D01*
X004647Y004345D01*
X004698Y004286D01*
X004752Y004230D01*
X004809Y004177D01*
X004869Y004127D01*
X004931Y004080D01*
X004995Y004036D01*
X005395Y004685D02*
X005995Y003935D01*
X006595Y004585D02*
X006995Y004035D01*
X006595Y004585D02*
X005995Y005485D01*
X006995Y005485D02*
X007495Y004685D01*
X007995Y003935D01*
X008495Y004585D02*
X008995Y004035D01*
X008495Y004585D02*
X007995Y005485D01*
X008995Y005485D02*
X009495Y004585D01*
X009995Y003935D01*
X011995Y003935D02*
X012026Y003995D01*
X012060Y004054D01*
X012098Y004111D01*
X012138Y004166D01*
X012181Y004219D01*
X012227Y004269D01*
X012275Y004317D01*
X012326Y004362D01*
X012379Y004404D01*
X012435Y004443D01*
X012492Y004480D01*
X012552Y004513D01*
X012613Y004543D01*
X012675Y004569D01*
X012739Y004593D01*
X012804Y004613D01*
X012870Y004629D01*
X012937Y004642D01*
X013528Y005153D02*
X013995Y005485D01*
X014236Y004879D02*
X014290Y004891D01*
X014344Y004908D01*
X014396Y004927D01*
X014446Y004951D01*
X014495Y004977D01*
X014542Y005007D01*
X014587Y005039D01*
X014630Y005075D01*
X014671Y005113D01*
X014708Y005154D01*
X014709Y005153D02*
X014995Y005485D01*
X015890Y004562D02*
X015944Y004589D01*
X015997Y004619D01*
X016048Y004651D01*
X016097Y004687D01*
X016144Y004725D01*
X016188Y004766D01*
X016231Y004810D01*
X016270Y004855D01*
X016307Y004904D01*
X016341Y004954D01*
X016371Y005006D01*
X016399Y005060D01*
X016424Y005115D01*
X016445Y005172D01*
X016463Y005230D01*
X016477Y005288D01*
X016489Y005348D01*
X016496Y005408D01*
X016500Y005468D01*
X016995Y005485D02*
X016913Y004681D01*
X016599Y003697D02*
X016574Y003657D01*
X016546Y003619D01*
X016516Y003583D01*
X016483Y003549D01*
X016447Y003519D01*
X016409Y003490D01*
X016370Y003465D01*
X016328Y003443D01*
X016285Y003424D01*
X016241Y003408D01*
X016195Y003396D01*
X016149Y003387D01*
X016102Y003382D01*
X016055Y003380D01*
X016008Y003382D01*
X014551Y003382D01*
X014505Y003384D01*
X014460Y003390D01*
X014415Y003399D01*
X014371Y003412D01*
X014328Y003429D01*
X014287Y003449D01*
X014248Y003472D01*
X014210Y003499D01*
X014175Y003528D01*
X014143Y003560D01*
X014113Y003595D01*
X014086Y003632D01*
X014063Y003672D01*
X014043Y003713D01*
X014026Y003755D01*
X014013Y003799D01*
X014003Y003844D01*
X013997Y003889D01*
X013995Y003935D01*
X013881Y004485D02*
X013814Y004477D01*
X013747Y004466D01*
X013681Y004451D01*
X013615Y004433D01*
X013551Y004412D01*
X013487Y004388D01*
X013425Y004360D01*
X013365Y004329D01*
X013306Y004296D01*
X013249Y004259D01*
X013194Y004220D01*
X013140Y004177D01*
X013089Y004133D01*
X013041Y004085D01*
X012995Y004035D01*
X016598Y003696D02*
X016653Y003798D01*
X016703Y003902D01*
X016748Y004009D01*
X016789Y004117D01*
X016824Y004227D01*
X016854Y004339D01*
X016879Y004452D01*
X016899Y004566D01*
X016913Y004681D01*
X015995Y005485D02*
X015772Y005193D01*
X016559Y006020D02*
X016995Y008485D01*
X015995Y008485D02*
X015295Y008985D01*
X014995Y008485D02*
X014295Y008985D01*
X013695Y009385D01*
X013295Y008985D02*
X012695Y009385D01*
X012295Y008985D02*
X011595Y009385D01*
X012295Y008985D02*
X012995Y008485D01*
X013295Y008985D02*
X013995Y008485D01*
X013528Y005154D02*
X013471Y005116D01*
X013413Y005081D01*
X013353Y005049D01*
X013291Y005020D01*
X013228Y004995D01*
X013164Y004973D01*
X013099Y004954D01*
X013032Y004938D01*
X012965Y004926D01*
X012898Y004918D01*
X014905Y004642D02*
X014978Y004660D01*
X015050Y004681D01*
X015120Y004706D01*
X015189Y004735D01*
X015257Y004767D01*
X015323Y004802D01*
X015387Y004841D01*
X015449Y004882D01*
X015509Y004927D01*
X015567Y004975D01*
X015622Y005025D01*
X015675Y005079D01*
X015724Y005135D01*
X015771Y005193D01*
X012898Y004917D02*
X012747Y004898D01*
X012596Y004872D01*
X012447Y004838D01*
X012300Y004798D01*
X012155Y004751D01*
X012012Y004696D01*
X011873Y004636D01*
X011736Y004568D01*
X011602Y004494D01*
X011472Y004414D01*
X011347Y004328D01*
X011225Y004236D01*
X011108Y004138D01*
X010996Y004034D01*
X008995Y008485D02*
X009495Y009185D01*
X008495Y009285D02*
X007995Y008485D01*
X007495Y009185D02*
X006995Y008485D01*
X006495Y009185D02*
X005995Y008485D01*
X003995Y005485D02*
X002781Y004485D01*
X010995Y010035D02*
X011029Y009968D01*
X011066Y009903D01*
X011106Y009840D01*
X011149Y009779D01*
X011196Y009720D01*
X011245Y009664D01*
X011297Y009610D01*
X011352Y009559D01*
X011409Y009511D01*
X011469Y009466D01*
X011531Y009424D01*
X011595Y009385D01*
X012995Y010035D02*
X013082Y009929D01*
X013173Y009827D01*
X013269Y009729D01*
X013370Y009636D01*
X013474Y009548D01*
X013583Y009464D01*
X013695Y009385D01*
X014906Y004642D02*
X014567Y004575D01*
X014226Y004523D01*
X013882Y004485D01*
X014995Y004035D02*
X015164Y004156D01*
X015339Y004270D01*
X015518Y004376D01*
X015702Y004473D01*
X015890Y004563D01*
X020500Y005094D02*
X020500Y005744D01*
X020500Y006354D01*
X016559Y006020D02*
X016531Y005837D01*
X016511Y005653D01*
X016500Y005468D01*
X008995Y010035D02*
X008740Y009664D01*
X008495Y009285D01*
X006995Y010035D02*
X006884Y009815D01*
X006764Y009599D01*
X006634Y009389D01*
X006495Y009185D01*
X011995Y009935D02*
X012162Y009787D01*
X012334Y009646D01*
X012512Y009512D01*
X012695Y009385D01*
X009995Y009935D02*
X009751Y009556D01*
X009495Y009185D01*
X007995Y009935D02*
X007751Y009556D01*
X007495Y009185D01*
X005995Y009935D02*
X005751Y009556D01*
X005495Y009185D01*
X012937Y004642D02*
X014236Y004878D01*
X015296Y008986D02*
X013996Y009936D01*
D22*
X013370Y010585D02*
X013370Y011334D01*
X020811Y011334D01*
X020811Y014476D01*
X018450Y014463D01*
X018449Y014996D01*
X018450Y014463D02*
X015142Y014484D01*
X012504Y014996D01*
X012224Y013496D01*
X013224Y013496D01*
X012197Y012014D02*
X012105Y012050D01*
X012014Y012091D01*
X011926Y012136D01*
X011840Y012186D01*
X011757Y012239D01*
X011676Y012297D01*
X011598Y012358D01*
X010224Y013496D01*
X007937Y017083D02*
X008077Y017189D01*
X008220Y017290D01*
X008368Y017385D01*
X009197Y017938D01*
X009367Y018584D02*
X009418Y018585D01*
X009468Y018581D01*
X009518Y018574D01*
X009567Y018563D01*
X009616Y018548D01*
X009662Y018529D01*
X009708Y018507D01*
X009751Y018481D01*
X009792Y018452D01*
X009831Y018420D01*
X009867Y018384D01*
X009868Y018385D02*
X010197Y018038D01*
X010299Y017477D02*
X010368Y017484D01*
X010436Y017494D01*
X010504Y017509D01*
X010571Y017527D01*
X010636Y017548D01*
X010701Y017573D01*
X010764Y017601D01*
X010825Y017633D01*
X010885Y017668D01*
X010943Y017706D01*
X010998Y017747D01*
X011052Y017791D01*
X011103Y017837D01*
X011151Y017887D01*
X011197Y017938D01*
X011008Y016925D02*
X010224Y016496D01*
X009748Y017476D02*
X009701Y017478D01*
X009654Y017476D01*
X009608Y017472D01*
X009562Y017463D01*
X009516Y017452D01*
X009472Y017437D01*
X009551Y016807D02*
X009224Y016496D01*
X008567Y016846D02*
X008224Y016496D01*
X007740Y016689D02*
X007743Y016730D01*
X007749Y016771D01*
X007759Y016811D01*
X007771Y016851D01*
X007787Y016889D01*
X007805Y016926D01*
X007826Y016961D01*
X007850Y016995D01*
X007877Y017027D01*
X007906Y017056D01*
X007937Y017083D01*
X007701Y016295D02*
X007224Y013496D01*
X008224Y013496D02*
X008961Y012831D01*
X009224Y013496D02*
X011197Y011914D01*
X012661Y012397D02*
X011224Y013496D01*
X011087Y014996D02*
X011717Y014996D01*
X010197Y012014D02*
X010045Y012079D01*
X009895Y012151D01*
X009749Y012229D01*
X009607Y012314D01*
X009469Y012406D01*
X009335Y012503D01*
X009205Y012606D01*
X009080Y012716D01*
X008961Y012830D01*
X009197Y011531D02*
X009157Y011334D01*
X013370Y011334D01*
X011008Y016925D02*
X011265Y017059D01*
X011528Y017181D01*
X011796Y017291D01*
X012069Y017390D01*
X012346Y017476D01*
X014197Y018038D02*
X015224Y016496D01*
X014224Y016496D02*
X014984Y015035D01*
X015142Y014484D01*
X015772Y015035D02*
X016362Y015035D01*
X016224Y013496D02*
X015197Y011914D01*
X016197Y012014D02*
X017224Y013496D01*
X018224Y013496D02*
X017197Y011914D01*
X018197Y012014D02*
X019224Y013496D01*
X020224Y013496D02*
X019197Y011914D01*
X019850Y010585D02*
X021775Y010585D01*
X021775Y006385D01*
X021053Y006385D01*
X021053Y007664D01*
X020253Y007664D01*
X019653Y008085D01*
X019653Y008885D01*
X019153Y009085D01*
X019153Y009385D01*
X019653Y009585D01*
X020500Y009957D01*
X020500Y010271D01*
X019850Y010585D01*
X020072Y010478D02*
X021775Y010478D01*
X021775Y010319D02*
X020401Y010319D01*
X020500Y010161D02*
X021775Y010161D01*
X021775Y010002D02*
X020500Y010002D01*
X020243Y009844D02*
X021775Y009844D01*
X021775Y009685D02*
X019881Y009685D01*
X019507Y009527D02*
X021775Y009527D01*
X021775Y009368D02*
X019153Y009368D01*
X019153Y009210D02*
X021775Y009210D01*
X021775Y009051D02*
X019238Y009051D01*
X019634Y008892D02*
X021775Y008892D01*
X021775Y008734D02*
X019653Y008734D01*
X019653Y008575D02*
X021775Y008575D01*
X021775Y008417D02*
X019653Y008417D01*
X019653Y008258D02*
X021775Y008258D01*
X021775Y008100D02*
X019653Y008100D01*
X019857Y007941D02*
X021775Y007941D01*
X021775Y007783D02*
X020083Y007783D01*
X021053Y007624D02*
X021775Y007624D01*
X021775Y007466D02*
X021053Y007466D01*
X021053Y007307D02*
X021775Y007307D01*
X021775Y007148D02*
X021053Y007148D01*
X021053Y006990D02*
X021775Y006990D01*
X021775Y006831D02*
X021053Y006831D01*
X021053Y006673D02*
X021775Y006673D01*
X021775Y006514D02*
X021053Y006514D01*
X020653Y010585D02*
X015095Y010585D01*
X013370Y010585D01*
X003495Y010585D01*
X003495Y007585D01*
X003449Y007594D01*
X002881Y007485D01*
X003495Y007585D02*
X005894Y007585D01*
X007875Y007585D01*
X009358Y007594D01*
X011484Y007022D01*
X011996Y006943D01*
X011995Y008485D01*
X010995Y008485D01*
X013197Y011914D02*
X013070Y012043D01*
X012939Y012167D01*
X012802Y012285D01*
X012661Y012398D01*
X014197Y012014D02*
X015224Y013496D01*
X016224Y016496D02*
X015197Y017938D01*
X016197Y018038D02*
X017224Y016496D01*
X018224Y016496D02*
X017197Y017938D01*
X018197Y018038D02*
X019224Y016496D01*
X020224Y016496D02*
X019236Y014996D01*
X020811Y014476D02*
X021352Y014476D01*
X020224Y016496D02*
X021452Y017476D01*
X020224Y016496D02*
X019197Y017938D01*
X013196Y017938D02*
X013113Y017869D01*
X013026Y017804D01*
X012936Y017744D01*
X012844Y017687D01*
X012749Y017636D01*
X012651Y017589D01*
X012551Y017546D01*
X012449Y017509D01*
X012346Y017476D01*
X010339Y017122D02*
X010272Y017120D01*
X010205Y017114D01*
X010139Y017104D01*
X010074Y017091D01*
X010009Y017073D01*
X009946Y017052D01*
X009884Y017027D01*
X009823Y016999D01*
X009764Y016967D01*
X009708Y016932D01*
X009653Y016893D01*
X009601Y016852D01*
X009551Y016807D01*
X007968Y018585D02*
X007921Y018583D01*
X007874Y018578D01*
X007828Y018568D01*
X007783Y018556D01*
X007738Y018539D01*
X007696Y018520D01*
X007655Y018497D01*
X007615Y018470D01*
X007578Y018441D01*
X007544Y018409D01*
X007512Y018375D01*
X007483Y018338D01*
X007456Y018298D01*
X007433Y018257D01*
X007414Y018215D01*
X007397Y018170D01*
X007385Y018125D01*
X007375Y018079D01*
X007370Y018032D01*
X007368Y017985D01*
X007968Y018585D02*
X009368Y018585D01*
X010339Y017122D02*
X010436Y017124D01*
X010533Y017131D01*
X010629Y017142D01*
X010724Y017158D01*
X010819Y017178D01*
X010913Y017203D01*
X011005Y017232D01*
X011096Y017266D01*
X011185Y017304D01*
X011273Y017346D01*
X011358Y017392D01*
X011441Y017443D01*
X011521Y017497D01*
X011599Y017555D01*
X010300Y017476D02*
X010162Y017469D01*
X010024Y017466D01*
X009886Y017469D01*
X009748Y017476D01*
X009472Y017437D02*
X009360Y017392D01*
X009250Y017341D01*
X009142Y017285D01*
X009038Y017224D01*
X008936Y017158D01*
X008838Y017087D01*
X008744Y017011D01*
X008653Y016931D01*
X008566Y016847D01*
X005378Y017334D02*
X003843Y017811D01*
X007741Y016689D02*
X007734Y016557D01*
X007720Y016425D01*
X007701Y016295D01*
X005378Y015413D02*
X003843Y014897D01*
X003207Y014917D02*
X002468Y014917D01*
X002468Y014759D02*
X003207Y014759D01*
X003207Y014600D02*
X002468Y014600D01*
X002468Y014441D02*
X003207Y014441D01*
X003207Y014283D02*
X002468Y014283D01*
X002468Y014124D02*
X004196Y014124D01*
X004007Y014257D02*
X004607Y013836D01*
X004607Y013036D01*
X005107Y012836D01*
X005107Y012536D01*
X004607Y012336D01*
X003760Y011964D01*
X003760Y011649D01*
X004410Y011336D01*
X002468Y011336D01*
X002468Y015536D01*
X003207Y015536D01*
X003207Y014257D01*
X004007Y014257D01*
X004422Y013966D02*
X002468Y013966D01*
X002468Y013807D02*
X004607Y013807D01*
X004607Y013649D02*
X002468Y013649D01*
X002468Y013490D02*
X004607Y013490D01*
X004607Y013332D02*
X002468Y013332D01*
X002468Y013173D02*
X004607Y013173D01*
X004661Y013015D02*
X002468Y013015D01*
X002468Y012856D02*
X005057Y012856D01*
X005107Y012697D02*
X002468Y012697D01*
X002468Y012539D02*
X005107Y012539D01*
X004718Y012380D02*
X002468Y012380D01*
X002468Y012222D02*
X004347Y012222D01*
X003985Y012063D02*
X002468Y012063D01*
X002468Y011905D02*
X003760Y011905D01*
X003760Y011746D02*
X002468Y011746D01*
X002468Y011588D02*
X003888Y011588D01*
X004217Y011429D02*
X002468Y011429D01*
X002740Y011334D02*
X002898Y011334D01*
X002898Y012712D01*
X002898Y011334D02*
X009157Y011334D01*
X009358Y007594D02*
X009358Y006889D01*
X009995Y005485D01*
X008571Y006889D02*
X008020Y006889D01*
X012783Y006943D02*
X013395Y007022D01*
X014995Y010505D02*
X015006Y010524D01*
X015020Y010542D01*
X015036Y010557D01*
X015054Y010569D01*
X015074Y010579D01*
X015095Y010585D01*
X003207Y015076D02*
X002468Y015076D01*
X002468Y015234D02*
X003207Y015234D01*
X003207Y015393D02*
X002468Y015393D01*
X007225Y016496D02*
X007287Y016865D01*
X007332Y017237D01*
X007359Y017611D01*
X007368Y017985D01*
X011599Y017554D02*
X012197Y018037D01*
D23*
X006968Y012685D02*
X006341Y013303D01*
X005220Y013618D01*
X006968Y012685D02*
X008197Y012014D01*
X009197Y011914D02*
X009197Y011531D01*
X009197Y011413D01*
X006402Y011807D02*
X005220Y011807D01*
X014995Y010505D02*
X014995Y010035D01*
X017902Y008698D02*
X018295Y008618D01*
X019050Y008321D01*
X019050Y010132D02*
X019870Y010114D01*
D24*
X019050Y010132D02*
X018093Y010093D01*
X017902Y009958D01*
X021446Y005520D02*
X021439Y005220D01*
X021439Y004644D01*
D25*
X017902Y008698D02*
X017756Y008839D01*
X017604Y008972D01*
X017445Y009099D01*
X017281Y009217D01*
X017111Y009328D01*
X016935Y009430D01*
X016756Y009523D01*
X015995Y009935D01*
X006402Y011807D02*
X006341Y012043D01*
X005220Y011807D02*
X004354Y011807D01*
X003843Y015646D02*
X003803Y016374D01*
X003843Y017063D01*
X002819Y017083D02*
X002819Y017831D01*
M02*
