G75*
G70*
%OFA0B0*%
%FSLAX24Y24*%
%IPPOS*%
%LPD*%
%AMOC8*
5,1,8,0,0,1.08239X$1,22.5*
%
%ADD10C,0.0000*%
%ADD11R,0.0906X0.0374*%
%ADD12R,0.0906X0.1280*%
%ADD13R,0.0394X0.0512*%
%ADD14R,0.0472X0.0472*%
%ADD15R,0.0709X0.0787*%
D10*
X002425Y003185D02*
X002425Y003185D01*
X002268Y003342D01*
X002268Y003343D02*
X002268Y010626D01*
X002268Y010823D01*
X002425Y010980D01*
X002268Y011138D01*
X002268Y018421D01*
X002268Y018618D01*
X002425Y018775D01*
X021795Y018775D01*
X021953Y018618D01*
X021953Y011138D01*
X021795Y010980D01*
X021953Y010823D01*
X021953Y003342D01*
X021795Y003185D01*
X021794Y003185D02*
X002425Y003185D01*
X002425Y010980D02*
X002425Y010980D01*
X021953Y011137D02*
X021953Y011138D01*
X021953Y003342D02*
X021953Y003342D01*
D11*
X019050Y008321D03*
X019050Y009227D03*
X019050Y010132D03*
X019050Y016116D03*
X019050Y017022D03*
X019050Y017927D03*
D12*
X021372Y017022D03*
X021372Y009227D03*
D13*
X020500Y007102D03*
X020500Y006354D03*
X020500Y005094D03*
X020500Y004346D03*
X020500Y012142D03*
X020500Y012890D03*
X020500Y014149D03*
X020500Y014897D03*
D14*
X012783Y014738D03*
X011996Y014738D03*
X009358Y014684D03*
X008571Y014684D03*
X005894Y014681D03*
X005106Y014681D03*
X011996Y006943D03*
X012783Y006943D03*
X009358Y006889D03*
X008571Y006889D03*
X005894Y006886D03*
X005106Y006886D03*
D15*
X017902Y008698D03*
X017902Y009958D03*
X021446Y012291D03*
X021446Y013551D03*
X017902Y016493D03*
X017902Y017753D03*
X021446Y005756D03*
X021446Y004496D03*
M02*
