%
M48
M72
T01C0.0120
T02C0.0236
T03C0.0320
T04C0.0354
T05C0.0400
%
T01
X5133Y3416
X4385Y6369
X5133Y11015
X4385Y13967
X16038Y11054
X16491Y13337
X16668Y14637
X16668Y7038
X16491Y5739
X16038Y3456
T02
X13268Y7174
X8089Y6884
X8089Y14482
X13268Y14773
X19861Y17708
X20452Y13180
X21430Y11450
X19861Y10109
X20452Y5582
X21430Y3852
T03
X16986Y5480
X15986Y5480
X14986Y5480
X13986Y5480
X12986Y5480
X11986Y5480
X10986Y5480
X9986Y5480
X8986Y5480
X7986Y5480
X6986Y5480
X5986Y5480
X4986Y5480
X3986Y5480
X3986Y8480
X4986Y8480
X5986Y8480
X6986Y8480
X7986Y8480
X8986Y8480
X9986Y8480
X10986Y8480
X11986Y8480
X12986Y8480
X13986Y8480
X14986Y8480
X15986Y8480
X16986Y8480
X16986Y13078
X15986Y13078
X14986Y13078
X13986Y13078
X12986Y13078
X11986Y13078
X10986Y13078
X9986Y13078
X8986Y13078
X7986Y13078
X6986Y13078
X5986Y13078
X4986Y13078
X3986Y13078
X3986Y16078
X4986Y16078
X5986Y16078
X6986Y16078
X7986Y16078
X8986Y16078
X9986Y16078
X10986Y16078
X11986Y16078
X12986Y16078
X13986Y16078
X14986Y16078
X15986Y16078
X16986Y16078
T04
X19044Y14160
X19044Y12239
X19044Y6562
X19044Y4641
T05
X2773Y4480
X2873Y5480
X2773Y6480
X2873Y7480
X2773Y8480
X2873Y9480
X4632Y10030
X5632Y9930
X6632Y10030
X7632Y9930
X8632Y10030
X9632Y9930
X10632Y10030
X11632Y9930
X12632Y10030
X13632Y9930
X14632Y10030
X15632Y9930
X15632Y11528
X16632Y11628
X14632Y11628
X13632Y11528
X12632Y11628
X11632Y11528
X10632Y11628
X9632Y11528
X8632Y11628
X7632Y11528
X6632Y11628
X5632Y11528
X4632Y11628
X2773Y12078
X2873Y13078
X2773Y14078
X2873Y15078
X2773Y16078
X2873Y17078
X4632Y17628
X5632Y17528
X6632Y17628
X7632Y17528
X8632Y17628
X9632Y17528
X10632Y17628
X11632Y17528
X12632Y17628
X13632Y17528
X14632Y17628
X15632Y17528
X16632Y4030
X15632Y3930
X14632Y4030
X13632Y3930
X12632Y4030
X11632Y3930
X10632Y4030
X9632Y3930
X8632Y4030
X7632Y3930
X6632Y4030
X5632Y3930
X4632Y4030
M30
