%
M48
M72
T01C0.0236
T02C0.0276
T03C0.0320
T04C0.0400
%
T01
X8020Y6889
X13395Y7022
X19870Y10114
X20500Y5744
X21439Y3857
X16362Y15035
X11087Y14996
X4354Y11807
X3803Y16374
X2819Y18067
T02
X5378Y17334
X5378Y15413
X19053Y6567
X19053Y4646
T03
X16995Y5485
X15995Y5485
X14995Y5485
X13995Y5485
X12995Y5485
X11995Y5485
X10995Y5485
X9995Y5485
X8995Y5485
X7995Y5485
X6995Y5485
X5995Y5485
X4995Y5485
X3995Y5485
X3995Y8485
X4995Y8485
X5995Y8485
X6995Y8485
X7995Y8485
X8995Y8485
X9995Y8485
X10995Y8485
X11995Y8485
X12995Y8485
X13995Y8485
X14995Y8485
X15995Y8485
X16995Y8485
X17224Y13496
X16224Y13496
X15224Y13496
X14224Y13496
X13224Y13496
X12224Y13496
X11224Y13496
X10224Y13496
X9224Y13496
X8224Y13496
X7224Y13496
X7224Y16496
X8224Y16496
X9224Y16496
X10224Y16496
X11224Y16496
X12224Y16496
X13224Y16496
X14224Y16496
X15224Y16496
X16224Y16496
X17224Y16496
X18224Y16496
X19224Y16496
X20224Y16496
X20224Y13496
X19224Y13496
X18224Y13496
T04
X4995Y4035
X5995Y3935
X6995Y4035
X7995Y3935
X8995Y4035
X9995Y3935
X10995Y4035
X11995Y3935
X12995Y4035
X13995Y3935
X14995Y4035
X15995Y3935
X15995Y9935
X14995Y10035
X13995Y9935
X12995Y10035
X11995Y9935
X10995Y10035
X9995Y9935
X8995Y10035
X7995Y9935
X6995Y10035
X5995Y9935
X4995Y10035
X2881Y9485
X2781Y8485
X2881Y7485
X2781Y6485
X2881Y5485
X2781Y4485
X9197Y11914
X10197Y12014
X11197Y11914
X12197Y12014
X13197Y11914
X14197Y12014
X15197Y11914
X16197Y12014
X17197Y11914
X18197Y12014
X19197Y11914
X21352Y12476
X21452Y13476
X21352Y14476
X21452Y15476
X21352Y16476
X21452Y17476
X19197Y17938
X18197Y18038
X17197Y17938
X16197Y18038
X15197Y17938
X14197Y18038
X13197Y17938
X12197Y18038
X11197Y17938
X10197Y18038
X9197Y17938
X8197Y18038
X8197Y12014
M30
