%
M48
M72
T01C0.0236
T02C0.0276
T03C0.0320
T04C0.0400
%
T01
X8020Y6889
X13395Y7022
X19870Y10114
X21439Y11652
X20500Y13539
X19870Y17909
X13395Y14817
X8020Y14684
X20500Y5744
X21439Y3857
T02
X19053Y4646
X19053Y6567
X19053Y12441
X19053Y14362
T03
X16995Y13280
X15995Y13280
X14995Y13280
X13995Y13280
X12995Y13280
X11995Y13280
X10995Y13280
X9995Y13280
X8995Y13280
X7995Y13280
X6995Y13280
X5995Y13280
X4995Y13280
X3995Y13280
X3995Y16280
X4995Y16280
X5995Y16280
X6995Y16280
X7995Y16280
X8995Y16280
X9995Y16280
X10995Y16280
X11995Y16280
X12995Y16280
X13995Y16280
X14995Y16280
X15995Y16280
X16995Y16280
X16995Y8485
X15995Y8485
X14995Y8485
X13995Y8485
X12995Y8485
X11995Y8485
X10995Y8485
X9995Y8485
X8995Y8485
X7995Y8485
X6995Y8485
X5995Y8485
X4995Y8485
X3995Y8485
X3995Y5485
X4995Y5485
X5995Y5485
X6995Y5485
X7995Y5485
X8995Y5485
X9995Y5485
X10995Y5485
X11995Y5485
X12995Y5485
X13995Y5485
X14995Y5485
X15995Y5485
X16995Y5485
T04
X2781Y4485
X2881Y5485
X2781Y6485
X2881Y7485
X2781Y8485
X2881Y9485
X4995Y10035
X5995Y9935
X6995Y10035
X7995Y9935
X8995Y10035
X9995Y9935
X10995Y10035
X11995Y9935
X12995Y10035
X13995Y9935
X14995Y10035
X15995Y9935
X15995Y11730
X14995Y11830
X13995Y11730
X12995Y11830
X11995Y11730
X10995Y11830
X9995Y11730
X8995Y11830
X7995Y11730
X6995Y11830
X5995Y11730
X4995Y11830
X2781Y12280
X2881Y13280
X2781Y14280
X2881Y15280
X2781Y16280
X2881Y17280
X4995Y17830
X5995Y17730
X6995Y17830
X7995Y17730
X8995Y17830
X9995Y17730
X10995Y17830
X11995Y17730
X12995Y17830
X13995Y17730
X14995Y17830
X15995Y17730
X14995Y4035
X13995Y3935
X12995Y4035
X11995Y3935
X10995Y4035
X9995Y3935
X8995Y4035
X7995Y3935
X6995Y4035
X5995Y3935
X4995Y4035
X15995Y3935
M30
