G75*
G70*
%OFA0B0*%
%FSLAX24Y24*%
%IPPOS*%
%LPD*%
%AMOC8*
5,1,8,0,0,1.08239X$1,22.5*
%
%ADD10C,0.0000*%
%ADD11C,0.0631*%
%ADD12C,0.0700*%
%ADD13C,0.0780*%
D10*
X002425Y003185D02*
X002425Y003185D01*
X002268Y003342D01*
X002268Y003343D02*
X002268Y010626D01*
X002268Y010823D01*
X002425Y010980D01*
X002268Y011138D01*
X002268Y018421D01*
X002268Y018618D01*
X002425Y018775D01*
X021795Y018775D01*
X021953Y018618D01*
X021953Y011138D01*
X021795Y010980D01*
X021953Y010823D01*
X021953Y003342D01*
X021795Y003185D01*
X021794Y003185D02*
X002425Y003185D01*
X002425Y010980D02*
X002425Y010980D01*
X021953Y011137D02*
X021953Y011138D01*
X021953Y003342D02*
X021953Y003342D01*
D11*
X016995Y005485D03*
X015995Y005485D03*
X014995Y005485D03*
X013995Y005485D03*
X012995Y005485D03*
X011995Y005485D03*
X010995Y005485D03*
X009995Y005485D03*
X008995Y005485D03*
X007995Y005485D03*
X006995Y005485D03*
X005995Y005485D03*
X004995Y005485D03*
X003995Y005485D03*
X003995Y008485D03*
X004995Y008485D03*
X005995Y008485D03*
X006995Y008485D03*
X007995Y008485D03*
X008995Y008485D03*
X009995Y008485D03*
X010995Y008485D03*
X011995Y008485D03*
X012995Y008485D03*
X013995Y008485D03*
X014995Y008485D03*
X015995Y008485D03*
X016995Y008485D03*
X016995Y013280D03*
X015995Y013280D03*
X014995Y013280D03*
X013995Y013280D03*
X012995Y013280D03*
X011995Y013280D03*
X010995Y013280D03*
X009995Y013280D03*
X008995Y013280D03*
X007995Y013280D03*
X006995Y013280D03*
X005995Y013280D03*
X004995Y013280D03*
X003995Y013280D03*
X003995Y016280D03*
X004995Y016280D03*
X005995Y016280D03*
X006995Y016280D03*
X007995Y016280D03*
X008995Y016280D03*
X009995Y016280D03*
X010995Y016280D03*
X011995Y016280D03*
X012995Y016280D03*
X013995Y016280D03*
X014995Y016280D03*
X015995Y016280D03*
X016995Y016280D03*
D12*
X019053Y014362D03*
X019053Y012441D03*
X019053Y006567D03*
X019053Y004646D03*
D13*
X015995Y003935D03*
X014995Y004035D03*
X013995Y003935D03*
X012995Y004035D03*
X011995Y003935D03*
X010995Y004035D03*
X009995Y003935D03*
X008995Y004035D03*
X007995Y003935D03*
X006995Y004035D03*
X005995Y003935D03*
X004995Y004035D03*
X002781Y004485D03*
X002881Y005485D03*
X002781Y006485D03*
X002881Y007485D03*
X002781Y008485D03*
X002881Y009485D03*
X004995Y010035D03*
X005995Y009935D03*
X006995Y010035D03*
X007995Y009935D03*
X008995Y010035D03*
X009995Y009935D03*
X010995Y010035D03*
X011995Y009935D03*
X012995Y010035D03*
X013995Y009935D03*
X014995Y010035D03*
X015995Y009935D03*
X015995Y011730D03*
X014995Y011830D03*
X013995Y011730D03*
X012995Y011830D03*
X011995Y011730D03*
X010995Y011830D03*
X009995Y011730D03*
X008995Y011830D03*
X007995Y011730D03*
X006995Y011830D03*
X005995Y011730D03*
X004995Y011830D03*
X002781Y012280D03*
X002881Y013280D03*
X002781Y014280D03*
X002881Y015280D03*
X002781Y016280D03*
X002881Y017280D03*
X004995Y017830D03*
X005995Y017730D03*
X006995Y017830D03*
X007995Y017730D03*
X008995Y017830D03*
X009995Y017730D03*
X010995Y017830D03*
X011995Y017730D03*
X012995Y017830D03*
X013995Y017730D03*
X014995Y017830D03*
X015995Y017730D03*
M02*
