<?xml version="1.0" encoding="UTF-8" standalone="no"?>
<!-- Created with Inkscape (http://www.inkscape.org/) -->

<svg
   xmlns:dc="http://purl.org/dc/elements/1.1/"
   xmlns:cc="http://creativecommons.org/ns#"
   xmlns:rdf="http://www.w3.org/1999/02/22-rdf-syntax-ns#"
   xmlns:svg="http://www.w3.org/2000/svg"
   xmlns="http://www.w3.org/2000/svg"
   xmlns:sodipodi="http://sodipodi.sourceforge.net/DTD/sodipodi-0.dtd"
   xmlns:inkscape="http://www.inkscape.org/namespaces/inkscape"
   width="744.09448819"
   height="1052.3622047"
   id="svg2"
   version="1.1"
   inkscape:version="0.48.0 r9654"
   sodipodi:docname="New document 1">
  <defs
     id="defs4" />
  <sodipodi:namedview
     id="base"
     pagecolor="#ffffff"
     bordercolor="#666666"
     borderopacity="1.0"
     inkscape:pageopacity="0.0"
     inkscape:pageshadow="2"
     inkscape:zoom="1.979899"
     inkscape:cx="174.93317"
     inkscape:cy="497.04404"
     inkscape:document-units="px"
     inkscape:current-layer="layer1"
     showgrid="false"
     inkscape:window-width="1280"
     inkscape:window-height="748"
     inkscape:window-x="-8"
     inkscape:window-y="-8"
     inkscape:window-maximized="1" />
  <metadata
     id="metadata7">
    <rdf:RDF>
      <cc:Work
         rdf:about="">
        <dc:format>image/svg+xml</dc:format>
        <dc:type
           rdf:resource="http://purl.org/dc/dcmitype/StillImage" />
        <dc:title></dc:title>
      </cc:Work>
    </rdf:RDF>
  </metadata>
  <g
     inkscape:label="Layer 1"
     inkscape:groupmode="layer"
     id="layer1">
    <path
       id="path2997"
       style="fill:#000000;fill-opacity:1;fill-rule:nonzero;stroke:none"
       d="m 169.94485,561.7819 7.42968,0 0,-2.64609 -7.42968,0 0,2.64609 z"
       inkscape:connector-curvature="0" />
    <path
       id="path2999"
       style="fill:#000000;fill-opacity:1;fill-rule:nonzero;stroke:none"
       d="m 169.94485,553.6315 7.42968,0 0,-2.64609 -7.42968,0 0,2.64609 z"
       inkscape:connector-curvature="0" />
    <path
       id="path3001"
       style="fill:#000000;fill-opacity:1;fill-rule:nonzero;stroke:none"
       d="m 169.94485,569.9311 7.42968,0 0,-2.64609 -7.42968,0 0,2.64609 z"
       inkscape:connector-curvature="0" />
    <path
       id="path3003"
       style="fill:#000000;fill-opacity:1;fill-rule:nonzero;stroke:none"
       d="m 190.85005,565.8565 7.42968,0 0,-10.79649 -7.42968,0 0,10.79649 z"
       inkscape:connector-curvature="0" />
    <path
       id="path3005"
       style="fill:#000000;fill-opacity:1;fill-rule:nonzero;stroke:none"
       d="m 185.30125,599.5924 2.82421,0 0,-3.8871 -2.82421,0 0,3.8871 z"
       inkscape:connector-curvature="0" />
    <path
       id="path3007"
       style="fill:#000000;fill-opacity:1;fill-rule:nonzero;stroke:none"
       d="m 185.30125,606.325 2.82421,0 0,-3.8871 -2.82421,0 0,3.8871 z"
       inkscape:connector-curvature="0" />
    <path
       id="path3009"
       style="fill:#000000;fill-opacity:1;fill-rule:nonzero;stroke:none"
       d="m 185.30125,588.2536 2.82421,0 0,-3.88593 -2.82421,0 0,3.88593 z"
       inkscape:connector-curvature="0" />
    <path
       id="path3011"
       style="fill:#000000;fill-opacity:1;fill-rule:nonzero;stroke:none"
       d="m 185.30125,581.521 2.82421,0 0,-3.88593 -2.82421,0 0,3.88593 z"
       inkscape:connector-curvature="0" />
    <path
       id="path3013"
       style="fill:#000000;fill-opacity:1;fill-rule:nonzero;stroke:none"
       d="m 115.49845,582.7762 3.53202,0 0,-3.53202 -3.53202,0 0,3.53202 z"
       inkscape:connector-curvature="0" />
    <path
       id="path3015"
       style="fill:#000000;fill-opacity:1;fill-rule:nonzero;stroke:none"
       d="m 108.41215,582.7762 3.53202,0 0,-3.53202 -3.53202,0 0,3.53202 z"
       inkscape:connector-curvature="0" />
    <path
       id="path3017"
       style="fill:#000000;fill-opacity:1;fill-rule:nonzero;stroke:none"
       d="m 84.672246,583.2649 3.53085,0 0,-3.53202 -3.53085,0 0,3.53202 z"
       inkscape:connector-curvature="0" />
    <path
       id="path3019"
       style="fill:#000000;fill-opacity:1;fill-rule:nonzero;stroke:none"
       d="m 77.584746,583.2649 3.53202,0 0,-3.53202 -3.53202,0 0,3.53202 z"
       inkscape:connector-curvature="0" />
    <path
       id="path3021"
       style="fill:#000000;fill-opacity:1;fill-rule:nonzero;stroke:none"
       d="m 192.40285,585.667 5.65782,0 0,-6.36681 -5.65782,0 0,6.36681 z"
       inkscape:connector-curvature="0" />
    <path
       id="path3023"
       style="fill:#000000;fill-opacity:1;fill-rule:nonzero;stroke:none"
       d="m 192.40285,597.0049 5.65782,0 0,-6.36564 -5.65782,0 0,6.36564 z"
       inkscape:connector-curvature="0" />
    <path
       id="path3025"
       style="fill:#000000;fill-opacity:1;fill-rule:nonzero;stroke:none"
       d="m 160.50445,568.3984 5.65782,0 0,-6.36681 -5.65782,0 0,6.36681 z"
       inkscape:connector-curvature="0" />
    <path
       id="path3027"
       style="fill:#000000;fill-opacity:1;fill-rule:nonzero;stroke:none"
       d="m 160.50445,557.0593 5.65782,0 0,-6.36564 -5.65782,0 0,6.36564 z"
       inkscape:connector-curvature="0" />
    <path
       id="path3029"
       style="fill:#000000;fill-opacity:1;fill-rule:nonzero;stroke:none"
       d="m 53.491146,583.2928 3.53202,0 0,-3.53202 -3.53202,0 0,3.53202 z"
       inkscape:connector-curvature="0" />
    <path
       id="path3031"
       style="fill:#000000;fill-opacity:1;fill-rule:nonzero;stroke:none"
       d="m 46.403646,583.2928 3.53202,0 0,-3.53202 -3.53202,0 0,3.53202 z"
       inkscape:connector-curvature="0" />
  </g>
</svg>
