G75*
G70*
%OFA0B0*%
%FSLAX24Y24*%
%IPPOS*%
%LPD*%
%AMOC8*
5,1,8,0,0,1.08239X$1,22.5*
%
%ADD10C,0.0000*%
%ADD11C,0.0030*%
%ADD12C,0.0020*%
%ADD13C,0.0100*%
%ADD14C,0.0060*%
%ADD15C,0.0050*%
%ADD16C,0.0039*%
D10*
X002416Y003180D02*
X002416Y003180D01*
X002259Y003337D01*
X002259Y003338D02*
X002259Y010621D01*
X002416Y010778D01*
X002259Y010936D01*
X002259Y010937D02*
X002259Y018219D01*
X002416Y018377D01*
X021786Y018377D01*
X021944Y018219D01*
X021944Y010936D01*
X021786Y010778D01*
X021944Y010621D01*
X021944Y003337D01*
X021944Y003337D01*
X021786Y003180D01*
X021785Y003180D02*
X002416Y003180D01*
X002416Y010778D02*
X002416Y010778D01*
X021944Y010935D02*
X021944Y010936D01*
D11*
X020943Y011082D02*
X020894Y011034D01*
X020798Y011034D01*
X020749Y011082D01*
X020749Y011179D02*
X020846Y011228D01*
X020894Y011228D01*
X020943Y011179D01*
X020943Y011082D01*
X020749Y011179D02*
X020749Y011324D01*
X020943Y011324D01*
X020650Y011082D02*
X020650Y011034D01*
X020602Y011034D01*
X020602Y011082D01*
X020650Y011082D01*
X020501Y011034D02*
X020307Y011034D01*
X020404Y011034D02*
X020404Y011324D01*
X020307Y011228D01*
X020206Y011324D02*
X020206Y011131D01*
X020109Y011034D01*
X020013Y011131D01*
X020013Y011324D01*
X017989Y011367D02*
X017699Y011367D01*
X017796Y011415D02*
X017796Y011512D01*
X017844Y011560D01*
X017989Y011560D01*
X017941Y011661D02*
X017844Y011661D01*
X017796Y011710D01*
X017796Y011807D01*
X017844Y011855D01*
X017893Y011855D01*
X017893Y011661D01*
X017941Y011661D02*
X017989Y011710D01*
X017989Y011807D01*
X017941Y012004D02*
X017748Y012004D01*
X017796Y011956D02*
X017796Y012053D01*
X017796Y012153D02*
X017796Y012249D01*
X017748Y012201D02*
X017941Y012201D01*
X017989Y012249D01*
X017941Y012349D02*
X017989Y012397D01*
X017989Y012494D01*
X017941Y012542D01*
X017844Y012542D01*
X017796Y012494D01*
X017796Y012397D01*
X017844Y012349D01*
X017941Y012349D01*
X017989Y012644D02*
X017699Y012644D01*
X017699Y012789D01*
X017748Y012837D01*
X017941Y012837D01*
X017989Y012789D01*
X017989Y012644D01*
X017941Y012938D02*
X017989Y012987D01*
X017989Y013132D01*
X017796Y013132D01*
X017796Y013233D02*
X017796Y013281D01*
X017989Y013281D01*
X017989Y013233D02*
X017989Y013330D01*
X017989Y013429D02*
X017796Y013429D01*
X017796Y013575D01*
X017844Y013623D01*
X017989Y013623D01*
X017941Y013724D02*
X017989Y013772D01*
X017989Y013869D01*
X017941Y013918D01*
X017844Y013918D01*
X017796Y013869D01*
X017796Y013772D01*
X017844Y013724D01*
X017941Y013724D01*
X017699Y013281D02*
X017651Y013281D01*
X017608Y012977D02*
X017462Y012977D01*
X017414Y012929D01*
X017414Y012832D01*
X017462Y012784D01*
X017414Y012683D02*
X017414Y012538D01*
X017462Y012489D01*
X017559Y012489D01*
X017608Y012538D01*
X017608Y012683D01*
X017608Y012784D02*
X017317Y012784D01*
X017462Y012388D02*
X017511Y012388D01*
X017511Y012195D01*
X017559Y012195D02*
X017462Y012195D01*
X017414Y012243D01*
X017414Y012340D01*
X017462Y012388D01*
X017608Y012340D02*
X017608Y012243D01*
X017559Y012195D01*
X017608Y011997D02*
X017317Y011997D01*
X017317Y012093D02*
X017317Y011900D01*
X017317Y011799D02*
X017608Y011799D01*
X017608Y011605D02*
X017317Y011605D01*
X017414Y011702D01*
X017317Y011799D01*
X016988Y012193D02*
X017037Y012241D01*
X017037Y012435D01*
X016988Y012483D01*
X016843Y012483D01*
X016843Y012193D01*
X016988Y012193D01*
X016742Y012193D02*
X016742Y012483D01*
X016549Y012483D02*
X016549Y012193D01*
X016448Y012241D02*
X016448Y012338D01*
X016351Y012338D01*
X016448Y012435D02*
X016399Y012483D01*
X016302Y012483D01*
X016254Y012435D01*
X016254Y012241D01*
X016302Y012193D01*
X016399Y012193D01*
X016448Y012241D01*
X016549Y012483D02*
X016742Y012193D01*
X016053Y012241D02*
X016053Y012435D01*
X016004Y012483D01*
X015859Y012483D01*
X015859Y012193D01*
X016004Y012193D01*
X016053Y012241D01*
X015758Y012193D02*
X015758Y012483D01*
X015564Y012483D02*
X015564Y012193D01*
X015463Y012241D02*
X015463Y012338D01*
X015367Y012338D01*
X015463Y012435D02*
X015415Y012483D01*
X015318Y012483D01*
X015270Y012435D01*
X015270Y012241D01*
X015318Y012193D01*
X015415Y012193D01*
X015463Y012241D01*
X015564Y012483D02*
X015758Y012193D01*
X014931Y012241D02*
X014931Y012435D01*
X014883Y012483D01*
X014786Y012483D01*
X014738Y012435D01*
X014738Y012386D01*
X014786Y012338D01*
X014931Y012338D01*
X014931Y012241D02*
X014883Y012193D01*
X014786Y012193D01*
X014738Y012241D01*
X014637Y012241D02*
X014637Y012435D01*
X014588Y012483D01*
X014443Y012483D01*
X014443Y012193D01*
X014588Y012193D01*
X014637Y012241D01*
X013868Y012241D02*
X013820Y012193D01*
X013723Y012193D01*
X013675Y012241D01*
X013675Y012289D01*
X013723Y012338D01*
X013820Y012338D01*
X013868Y012289D01*
X013868Y012241D01*
X013820Y012338D02*
X013868Y012386D01*
X013868Y012435D01*
X013820Y012483D01*
X013723Y012483D01*
X013675Y012435D01*
X013675Y012386D01*
X013723Y012338D01*
X013574Y012435D02*
X013525Y012483D01*
X013380Y012483D01*
X013380Y012193D01*
X013525Y012193D01*
X013574Y012241D01*
X013574Y012435D01*
X012923Y012435D02*
X012730Y012241D01*
X012730Y012193D01*
X012629Y012241D02*
X012629Y012435D01*
X012580Y012483D01*
X012435Y012483D01*
X012435Y012193D01*
X012580Y012193D01*
X012629Y012241D01*
X012730Y012483D02*
X012923Y012483D01*
X012923Y012435D01*
X011860Y012483D02*
X011764Y012435D01*
X011667Y012338D01*
X011812Y012338D01*
X011860Y012289D01*
X011860Y012241D01*
X011812Y012193D01*
X011715Y012193D01*
X011667Y012241D01*
X011667Y012338D01*
X011566Y012241D02*
X011566Y012435D01*
X011517Y012483D01*
X011372Y012483D01*
X011372Y012193D01*
X011517Y012193D01*
X011566Y012241D01*
X010894Y012241D02*
X010846Y012193D01*
X010749Y012193D01*
X010701Y012241D01*
X010701Y012338D02*
X010797Y012386D01*
X010846Y012386D01*
X010894Y012338D01*
X010894Y012241D01*
X010701Y012338D02*
X010701Y012483D01*
X010894Y012483D01*
X010600Y012435D02*
X010600Y012241D01*
X010551Y012193D01*
X010406Y012193D01*
X010406Y012483D01*
X010551Y012483D01*
X010600Y012435D01*
X009892Y012338D02*
X009698Y012338D01*
X009843Y012483D01*
X009843Y012193D01*
X009597Y012241D02*
X009597Y012435D01*
X009549Y012483D01*
X009404Y012483D01*
X009404Y012193D01*
X009549Y012193D01*
X009597Y012241D01*
X008908Y012241D02*
X008859Y012193D01*
X008762Y012193D01*
X008714Y012241D01*
X008613Y012241D02*
X008613Y012435D01*
X008565Y012483D01*
X008419Y012483D01*
X008419Y012193D01*
X008565Y012193D01*
X008613Y012241D01*
X008714Y012435D02*
X008762Y012483D01*
X008859Y012483D01*
X008908Y012435D01*
X008908Y012386D01*
X008859Y012338D01*
X008908Y012289D01*
X008908Y012241D01*
X008859Y012338D02*
X008811Y012338D01*
X007902Y012386D02*
X007902Y012435D01*
X007854Y012483D01*
X007757Y012483D01*
X007709Y012435D01*
X007607Y012435D02*
X007559Y012483D01*
X007414Y012483D01*
X007414Y012193D01*
X007559Y012193D01*
X007607Y012241D01*
X007607Y012435D01*
X007709Y012193D02*
X007902Y012386D01*
X007902Y012193D02*
X007709Y012193D01*
X006900Y012193D02*
X006706Y012193D01*
X006803Y012193D02*
X006803Y012483D01*
X006706Y012386D01*
X006605Y012435D02*
X006557Y012483D01*
X006412Y012483D01*
X006412Y012193D01*
X006557Y012193D01*
X006605Y012241D01*
X006605Y012435D01*
X005915Y012435D02*
X005722Y012241D01*
X005770Y012193D01*
X005867Y012193D01*
X005915Y012241D01*
X005915Y012435D01*
X005867Y012483D01*
X005770Y012483D01*
X005722Y012435D01*
X005722Y012241D01*
X005621Y012241D02*
X005621Y012435D01*
X005572Y012483D01*
X005427Y012483D01*
X005427Y012193D01*
X005572Y012193D01*
X005621Y012241D01*
X005060Y012480D02*
X004867Y012480D01*
X004964Y012480D02*
X004964Y012189D01*
X004766Y012238D02*
X004766Y012286D01*
X004717Y012335D01*
X004621Y012335D01*
X004572Y012383D01*
X004572Y012431D01*
X004621Y012480D01*
X004717Y012480D01*
X004766Y012431D01*
X004766Y012238D02*
X004717Y012189D01*
X004621Y012189D01*
X004572Y012238D01*
X004471Y012189D02*
X004374Y012286D01*
X004423Y012286D02*
X004278Y012286D01*
X004278Y012189D02*
X004278Y012480D01*
X004423Y012480D01*
X004471Y012431D01*
X004471Y012335D01*
X004423Y012286D01*
X004344Y011241D02*
X004199Y011241D01*
X004199Y010951D01*
X004199Y011048D02*
X004344Y011048D01*
X004393Y011096D01*
X004393Y011193D01*
X004344Y011241D01*
X004296Y011048D02*
X004393Y010951D01*
X004411Y010645D02*
X004557Y010645D01*
X004605Y010597D01*
X004605Y010500D01*
X004557Y010452D01*
X004411Y010452D01*
X004310Y010355D02*
X004262Y010355D01*
X004262Y010645D01*
X004310Y010645D02*
X004214Y010645D01*
X004001Y010951D02*
X004001Y011241D01*
X003904Y011241D02*
X004098Y011241D01*
X003803Y011193D02*
X003803Y010999D01*
X003755Y010951D01*
X003610Y010951D01*
X003610Y011241D01*
X003755Y011241D01*
X003803Y011193D01*
X003509Y011241D02*
X003315Y010951D01*
X003214Y010999D02*
X003214Y011048D01*
X003166Y011096D01*
X003069Y011096D01*
X003021Y011144D01*
X003021Y011193D01*
X003069Y011241D01*
X003166Y011241D01*
X003214Y011193D01*
X003214Y010999D02*
X003166Y010951D01*
X003069Y010951D01*
X003021Y010999D01*
X002823Y010951D02*
X002823Y011241D01*
X002919Y011241D02*
X002726Y011241D01*
X002625Y011193D02*
X002625Y011096D01*
X002576Y011048D01*
X002431Y011048D01*
X002528Y011048D02*
X002625Y010951D01*
X002431Y010951D02*
X002431Y011241D01*
X002576Y011241D01*
X002625Y011193D01*
X002598Y010414D02*
X002549Y010366D01*
X002549Y010173D01*
X002598Y010124D01*
X002694Y010124D01*
X002743Y010173D01*
X002743Y010269D01*
X002646Y010269D01*
X002743Y010366D02*
X002694Y010414D01*
X002598Y010414D01*
X002844Y010414D02*
X003037Y010124D01*
X003037Y010414D01*
X003139Y010414D02*
X003284Y010414D01*
X003332Y010366D01*
X003332Y010173D01*
X003284Y010124D01*
X003139Y010124D01*
X003139Y010414D01*
X002844Y010414D02*
X002844Y010124D01*
X004358Y009337D02*
X004406Y009385D01*
X004503Y009385D01*
X004551Y009337D01*
X004551Y009240D02*
X004455Y009192D01*
X004406Y009192D01*
X004358Y009240D01*
X004358Y009337D01*
X004551Y009240D02*
X004551Y009095D01*
X004358Y009095D01*
X004653Y009192D02*
X004653Y009385D01*
X004653Y009240D02*
X004846Y009240D01*
X004846Y009192D02*
X004846Y009385D01*
X004846Y009192D02*
X004749Y009095D01*
X004653Y009192D01*
X005342Y009240D02*
X005536Y009240D01*
X005391Y009095D01*
X005391Y009385D01*
X005637Y009385D02*
X005637Y009192D01*
X005734Y009095D01*
X005830Y009192D01*
X005830Y009385D01*
X005830Y009240D02*
X005637Y009240D01*
X006326Y009192D02*
X006375Y009240D01*
X006326Y009289D01*
X006326Y009337D01*
X006375Y009385D01*
X006472Y009385D01*
X006520Y009337D01*
X006621Y009385D02*
X006621Y009192D01*
X006718Y009095D01*
X006815Y009192D01*
X006815Y009385D01*
X006815Y009240D02*
X006621Y009240D01*
X006520Y009144D02*
X006472Y009095D01*
X006375Y009095D01*
X006326Y009144D01*
X006326Y009192D01*
X006375Y009240D02*
X006423Y009240D01*
X005693Y010355D02*
X005693Y010645D01*
X005838Y010645D01*
X005886Y010597D01*
X005886Y010500D01*
X005838Y010452D01*
X005693Y010452D01*
X005543Y010452D02*
X005446Y010452D01*
X005398Y010500D01*
X005398Y010645D01*
X005543Y010645D01*
X005591Y010597D01*
X005543Y010549D01*
X005398Y010549D01*
X005463Y010872D02*
X005463Y011066D01*
X005559Y011066D02*
X005608Y011066D01*
X005559Y011066D02*
X005463Y010969D01*
X005708Y011066D02*
X005902Y010872D01*
X005708Y010872D02*
X005902Y011066D01*
X006036Y010645D02*
X005987Y010597D01*
X006036Y010549D01*
X006132Y010549D01*
X006181Y010500D01*
X006132Y010452D01*
X005987Y010452D01*
X006036Y010645D02*
X006181Y010645D01*
X006495Y010921D02*
X006495Y011114D01*
X006447Y011066D02*
X006544Y011066D01*
X006643Y011066D02*
X006837Y010872D01*
X006643Y010872D02*
X006837Y011066D01*
X006544Y010872D02*
X006495Y010921D01*
X007195Y010872D02*
X007292Y010872D01*
X007243Y010872D02*
X007243Y011066D01*
X007195Y011066D01*
X007243Y011162D02*
X007243Y011211D01*
X007391Y011066D02*
X007391Y010872D01*
X007391Y011066D02*
X007537Y011066D01*
X007585Y011017D01*
X007585Y010872D01*
X007734Y010921D02*
X007783Y010872D01*
X007734Y010921D02*
X007734Y011114D01*
X007686Y011066D02*
X007783Y011066D01*
X007883Y011114D02*
X007883Y010921D01*
X008076Y011114D01*
X008076Y010921D01*
X008028Y010872D01*
X007931Y010872D01*
X007883Y010921D01*
X007883Y011114D02*
X007931Y011162D01*
X008028Y011162D01*
X008076Y011114D01*
X008337Y011066D02*
X008385Y011066D01*
X008385Y010872D01*
X008337Y010872D02*
X008433Y010872D01*
X008533Y010872D02*
X008533Y011066D01*
X008678Y011066D01*
X008727Y011017D01*
X008727Y010872D01*
X008876Y010921D02*
X008925Y010872D01*
X008876Y010921D02*
X008876Y011114D01*
X008828Y011066D02*
X008925Y011066D01*
X009024Y011066D02*
X009121Y011162D01*
X009121Y010872D01*
X009024Y010872D02*
X009218Y010872D01*
X008385Y011162D02*
X008385Y011211D01*
X008392Y009385D02*
X008392Y009095D01*
X008488Y009192D01*
X008590Y009192D02*
X008590Y009385D01*
X008488Y009385D02*
X008295Y009385D01*
X008590Y009240D02*
X008783Y009240D01*
X008783Y009192D02*
X008783Y009385D01*
X008783Y009192D02*
X008686Y009095D01*
X008590Y009192D01*
X007838Y009192D02*
X007741Y009095D01*
X007645Y009192D01*
X007645Y009385D01*
X007544Y009385D02*
X007350Y009192D01*
X007350Y009144D01*
X007398Y009095D01*
X007495Y009095D01*
X007544Y009144D01*
X007645Y009240D02*
X007838Y009240D01*
X007838Y009192D02*
X007838Y009385D01*
X007544Y009385D02*
X007350Y009385D01*
X009319Y009337D02*
X009319Y009144D01*
X009512Y009337D01*
X009464Y009385D01*
X009367Y009385D01*
X009319Y009337D01*
X009512Y009337D02*
X009512Y009144D01*
X009464Y009095D01*
X009367Y009095D01*
X009319Y009144D01*
X009613Y009192D02*
X009613Y009385D01*
X009613Y009240D02*
X009807Y009240D01*
X009807Y009192D02*
X009807Y009385D01*
X009807Y009192D02*
X009710Y009095D01*
X009613Y009192D01*
X010166Y009192D02*
X010214Y009240D01*
X010166Y009289D01*
X010166Y009337D01*
X010214Y009385D01*
X010311Y009385D01*
X010359Y009337D01*
X010460Y009385D02*
X010654Y009385D01*
X010557Y009385D02*
X010557Y009095D01*
X010654Y009192D01*
X010755Y009144D02*
X010803Y009095D01*
X010948Y009095D01*
X010948Y009385D01*
X010803Y009385D01*
X010755Y009337D01*
X010755Y009144D01*
X010359Y009144D02*
X010311Y009095D01*
X010214Y009095D01*
X010166Y009144D01*
X010166Y009192D01*
X010214Y009240D02*
X010262Y009240D01*
X011189Y009192D02*
X011189Y009144D01*
X011238Y009095D01*
X011334Y009095D01*
X011383Y009144D01*
X011189Y009192D02*
X011383Y009385D01*
X011189Y009385D01*
X011484Y009385D02*
X011677Y009385D01*
X011581Y009385D02*
X011581Y009095D01*
X011677Y009192D01*
X011779Y009144D02*
X011827Y009095D01*
X011972Y009095D01*
X011972Y009385D01*
X011827Y009385D01*
X011779Y009337D01*
X011779Y009144D01*
X012213Y009385D02*
X012406Y009385D01*
X012310Y009385D02*
X012310Y009095D01*
X012406Y009192D01*
X012508Y009385D02*
X012701Y009385D01*
X012604Y009385D02*
X012604Y009095D01*
X012701Y009192D01*
X012802Y009144D02*
X012851Y009095D01*
X012996Y009095D01*
X012996Y009385D01*
X012851Y009385D01*
X012802Y009337D01*
X012802Y009144D01*
X013237Y009144D02*
X013430Y009337D01*
X013382Y009385D01*
X013285Y009385D01*
X013237Y009337D01*
X013237Y009144D01*
X013285Y009095D01*
X013382Y009095D01*
X013430Y009144D01*
X013430Y009337D01*
X013531Y009385D02*
X013725Y009385D01*
X013628Y009385D02*
X013628Y009095D01*
X013725Y009192D01*
X013826Y009144D02*
X013826Y009337D01*
X013874Y009385D01*
X014019Y009385D01*
X014019Y009095D01*
X013874Y009095D01*
X013826Y009144D01*
X014437Y009095D02*
X014437Y009289D01*
X014533Y009385D01*
X014630Y009289D01*
X014630Y009095D01*
X014731Y009095D02*
X014925Y009095D01*
X014925Y009240D01*
X014828Y009192D01*
X014780Y009192D01*
X014731Y009240D01*
X014731Y009337D01*
X014780Y009385D01*
X014876Y009385D01*
X014925Y009337D01*
X015303Y009385D02*
X015303Y009240D01*
X015352Y009192D01*
X015497Y009192D01*
X015497Y009385D01*
X015596Y009385D02*
X015693Y009385D01*
X015645Y009385D02*
X015645Y009192D01*
X015693Y009192D01*
X015645Y009095D02*
X015645Y009047D01*
X015794Y009095D02*
X015794Y009289D01*
X015891Y009385D01*
X015988Y009289D01*
X015988Y009095D01*
X017748Y011072D02*
X017941Y011072D01*
X017989Y011121D01*
X017989Y011217D01*
X017941Y011266D01*
X017844Y011266D01*
X017844Y011169D01*
X017748Y011266D02*
X017699Y011217D01*
X017699Y011121D01*
X017748Y011072D01*
X017844Y011367D02*
X017796Y011415D01*
X017941Y012004D02*
X017989Y012053D01*
X017941Y012938D02*
X017796Y012938D01*
X015576Y014898D02*
X015576Y015092D01*
X015527Y015140D01*
X015431Y015140D01*
X015382Y015092D01*
X015382Y015044D01*
X015431Y014995D01*
X015576Y014995D01*
X015576Y014898D02*
X015527Y014850D01*
X015431Y014850D01*
X015382Y014898D01*
X015281Y014898D02*
X015281Y015092D01*
X015088Y014898D01*
X015136Y014850D01*
X015233Y014850D01*
X015281Y014898D01*
X015088Y014898D02*
X015088Y015092D01*
X015136Y015140D01*
X015233Y015140D01*
X015281Y015092D01*
X014986Y015092D02*
X014938Y015140D01*
X014841Y015140D01*
X014793Y015092D01*
X014692Y015140D02*
X014595Y015092D01*
X014498Y014995D01*
X014643Y014995D01*
X014692Y014947D01*
X014692Y014898D01*
X014643Y014850D01*
X014547Y014850D01*
X014498Y014898D01*
X014498Y014995D01*
X014397Y014995D02*
X014204Y014995D01*
X014349Y015140D01*
X014349Y014850D01*
X014793Y014850D02*
X014986Y015044D01*
X014986Y015092D01*
X014986Y014850D02*
X014793Y014850D01*
X014731Y016694D02*
X014925Y016694D01*
X014925Y016839D01*
X014828Y016790D01*
X014780Y016790D01*
X014731Y016839D01*
X014731Y016936D01*
X014780Y016984D01*
X014876Y016984D01*
X014925Y016936D01*
X014630Y016887D02*
X014630Y016694D01*
X014630Y016887D02*
X014533Y016984D01*
X014437Y016887D01*
X014437Y016694D01*
X014019Y016694D02*
X014019Y016984D01*
X013874Y016984D01*
X013826Y016936D01*
X013826Y016742D01*
X013874Y016694D01*
X014019Y016694D01*
X013725Y016790D02*
X013628Y016694D01*
X013628Y016984D01*
X013725Y016984D02*
X013531Y016984D01*
X013430Y016936D02*
X013237Y016742D01*
X013237Y016936D01*
X013285Y016984D01*
X013382Y016984D01*
X013430Y016936D01*
X013430Y016742D01*
X013382Y016694D01*
X013285Y016694D01*
X013237Y016742D01*
X012996Y016694D02*
X012996Y016984D01*
X012851Y016984D01*
X012802Y016936D01*
X012802Y016742D01*
X012851Y016694D01*
X012996Y016694D01*
X012701Y016790D02*
X012604Y016694D01*
X012604Y016984D01*
X012508Y016984D02*
X012701Y016984D01*
X012406Y016984D02*
X012213Y016984D01*
X012310Y016984D02*
X012310Y016694D01*
X012406Y016790D01*
X011972Y016694D02*
X011827Y016694D01*
X011779Y016742D01*
X011779Y016936D01*
X011827Y016984D01*
X011972Y016984D01*
X011972Y016694D01*
X011677Y016790D02*
X011581Y016694D01*
X011581Y016984D01*
X011677Y016984D02*
X011484Y016984D01*
X011383Y016984D02*
X011189Y016790D01*
X011189Y016742D01*
X011238Y016694D01*
X011334Y016694D01*
X011383Y016742D01*
X011383Y016984D02*
X011189Y016984D01*
X010948Y016984D02*
X010948Y016694D01*
X010803Y016694D01*
X010755Y016742D01*
X010755Y016936D01*
X010803Y016984D01*
X010948Y016984D01*
X010654Y016984D02*
X010460Y016984D01*
X010557Y016984D02*
X010557Y016694D01*
X010654Y016790D01*
X010359Y016742D02*
X010311Y016694D01*
X010214Y016694D01*
X010166Y016742D01*
X010166Y016790D01*
X010214Y016839D01*
X010166Y016887D01*
X010166Y016936D01*
X010214Y016984D01*
X010311Y016984D01*
X010359Y016936D01*
X010262Y016839D02*
X010214Y016839D01*
X009807Y016839D02*
X009613Y016839D01*
X009613Y016790D02*
X009613Y016984D01*
X009512Y016936D02*
X009319Y016742D01*
X009319Y016936D01*
X009367Y016984D01*
X009464Y016984D01*
X009512Y016936D01*
X009512Y016742D01*
X009464Y016694D01*
X009367Y016694D01*
X009319Y016742D01*
X009613Y016790D02*
X009710Y016694D01*
X009807Y016790D01*
X009807Y016984D01*
X010316Y017953D02*
X010316Y018244D01*
X010316Y018147D02*
X010171Y018050D01*
X010316Y018147D02*
X010171Y018244D01*
X010417Y018244D02*
X010562Y018244D01*
X010611Y018195D01*
X010611Y018099D01*
X010562Y018050D01*
X010417Y018050D01*
X010712Y018050D02*
X010857Y018050D01*
X010905Y018099D01*
X010857Y018147D01*
X010760Y018147D01*
X010712Y018195D01*
X010760Y018244D01*
X010905Y018244D01*
X011186Y018195D02*
X011186Y018099D01*
X011234Y018050D01*
X011331Y018050D01*
X011379Y018099D01*
X011379Y018195D01*
X011331Y018244D01*
X011234Y018244D01*
X011186Y018195D01*
X011480Y018195D02*
X011529Y018147D01*
X011626Y018147D01*
X011674Y018099D01*
X011626Y018050D01*
X011480Y018050D01*
X011480Y018195D02*
X011529Y018244D01*
X011674Y018244D01*
X011774Y018244D02*
X011870Y018244D01*
X011822Y018244D02*
X011822Y018050D01*
X011870Y018050D01*
X011822Y017953D02*
X011822Y017905D01*
X011972Y018099D02*
X011972Y018244D01*
X012068Y018244D02*
X012068Y018099D01*
X012020Y018050D01*
X011972Y018099D01*
X012068Y018099D02*
X012117Y018050D01*
X012165Y018050D01*
X012165Y018244D01*
X012265Y018244D02*
X012362Y018244D01*
X012314Y018244D02*
X012314Y018050D01*
X012362Y018050D01*
X012463Y018050D02*
X012608Y018050D01*
X012657Y018099D01*
X012608Y018147D01*
X012512Y018147D01*
X012463Y018195D01*
X012512Y018244D01*
X012657Y018244D01*
X012758Y018195D02*
X012758Y018099D01*
X012806Y018050D01*
X012903Y018050D01*
X012951Y018099D01*
X012951Y018195D01*
X012903Y018244D01*
X012806Y018244D01*
X012758Y018195D01*
X013053Y018244D02*
X013053Y018099D01*
X013101Y018050D01*
X013149Y018099D01*
X013149Y018244D01*
X013246Y018244D02*
X013246Y018050D01*
X013198Y018050D01*
X013149Y018099D01*
X012314Y017953D02*
X012314Y017905D01*
X015303Y016984D02*
X015303Y016839D01*
X015352Y016790D01*
X015497Y016790D01*
X015497Y016984D01*
X015596Y016984D02*
X015693Y016984D01*
X015645Y016984D02*
X015645Y016790D01*
X015693Y016790D01*
X015645Y016694D02*
X015645Y016645D01*
X015794Y016694D02*
X015794Y016887D01*
X015891Y016984D01*
X015988Y016887D01*
X015988Y016694D01*
X013246Y010645D02*
X013246Y010452D01*
X013198Y010452D01*
X013149Y010500D01*
X013101Y010452D01*
X013053Y010500D01*
X013053Y010645D01*
X013149Y010645D02*
X013149Y010500D01*
X012951Y010500D02*
X012951Y010597D01*
X012903Y010645D01*
X012806Y010645D01*
X012758Y010597D01*
X012758Y010500D01*
X012806Y010452D01*
X012903Y010452D01*
X012951Y010500D01*
X012657Y010500D02*
X012608Y010452D01*
X012463Y010452D01*
X012362Y010452D02*
X012314Y010452D01*
X012314Y010645D01*
X012362Y010645D02*
X012265Y010645D01*
X012165Y010645D02*
X012165Y010452D01*
X012117Y010452D01*
X012068Y010500D01*
X012020Y010452D01*
X011972Y010500D01*
X011972Y010645D01*
X012068Y010645D02*
X012068Y010500D01*
X011870Y010452D02*
X011822Y010452D01*
X011822Y010645D01*
X011870Y010645D02*
X011774Y010645D01*
X011674Y010645D02*
X011529Y010645D01*
X011480Y010597D01*
X011529Y010549D01*
X011626Y010549D01*
X011674Y010500D01*
X011626Y010452D01*
X011480Y010452D01*
X011379Y010500D02*
X011379Y010597D01*
X011331Y010645D01*
X011234Y010645D01*
X011186Y010597D01*
X011186Y010500D01*
X011234Y010452D01*
X011331Y010452D01*
X011379Y010500D01*
X011822Y010355D02*
X011822Y010307D01*
X012314Y010307D02*
X012314Y010355D01*
X012512Y010549D02*
X012608Y010549D01*
X012657Y010500D01*
X012657Y010645D02*
X012512Y010645D01*
X012463Y010597D01*
X012512Y010549D01*
X010905Y010500D02*
X010857Y010452D01*
X010712Y010452D01*
X010760Y010549D02*
X010857Y010549D01*
X010905Y010500D01*
X010905Y010645D02*
X010760Y010645D01*
X010712Y010597D01*
X010760Y010549D01*
X010611Y010597D02*
X010562Y010645D01*
X010417Y010645D01*
X010316Y010645D02*
X010316Y010355D01*
X010417Y010452D02*
X010562Y010452D01*
X010611Y010500D01*
X010611Y010597D01*
X010316Y010549D02*
X010171Y010452D01*
X010316Y010549D02*
X010171Y010645D01*
X004900Y010645D02*
X004755Y010645D01*
X004706Y010597D01*
X004755Y010549D01*
X004851Y010549D01*
X004900Y010500D01*
X004851Y010452D01*
X004706Y010452D01*
X004717Y004881D02*
X004621Y004881D01*
X004572Y004833D01*
X004572Y004785D01*
X004621Y004736D01*
X004717Y004736D01*
X004766Y004688D01*
X004766Y004639D01*
X004717Y004591D01*
X004621Y004591D01*
X004572Y004639D01*
X004471Y004591D02*
X004374Y004688D01*
X004423Y004688D02*
X004278Y004688D01*
X004278Y004591D02*
X004278Y004881D01*
X004423Y004881D01*
X004471Y004833D01*
X004471Y004736D01*
X004423Y004688D01*
X004717Y004881D02*
X004766Y004833D01*
X004867Y004881D02*
X005060Y004881D01*
X004964Y004881D02*
X004964Y004591D01*
X005427Y004594D02*
X005572Y004594D01*
X005621Y004643D01*
X005621Y004836D01*
X005572Y004884D01*
X005427Y004884D01*
X005427Y004594D01*
X005722Y004643D02*
X005915Y004836D01*
X005915Y004643D01*
X005867Y004594D01*
X005770Y004594D01*
X005722Y004643D01*
X005722Y004836D01*
X005770Y004884D01*
X005867Y004884D01*
X005915Y004836D01*
X006412Y004884D02*
X006412Y004594D01*
X006557Y004594D01*
X006605Y004643D01*
X006605Y004836D01*
X006557Y004884D01*
X006412Y004884D01*
X006706Y004788D02*
X006803Y004884D01*
X006803Y004594D01*
X006706Y004594D02*
X006900Y004594D01*
X007414Y004594D02*
X007559Y004594D01*
X007607Y004643D01*
X007607Y004836D01*
X007559Y004884D01*
X007414Y004884D01*
X007414Y004594D01*
X007709Y004594D02*
X007902Y004788D01*
X007902Y004836D01*
X007854Y004884D01*
X007757Y004884D01*
X007709Y004836D01*
X007709Y004594D02*
X007902Y004594D01*
X008419Y004594D02*
X008565Y004594D01*
X008613Y004643D01*
X008613Y004836D01*
X008565Y004884D01*
X008419Y004884D01*
X008419Y004594D01*
X008714Y004643D02*
X008762Y004594D01*
X008859Y004594D01*
X008908Y004643D01*
X008908Y004691D01*
X008859Y004739D01*
X008811Y004739D01*
X008859Y004739D02*
X008908Y004788D01*
X008908Y004836D01*
X008859Y004884D01*
X008762Y004884D01*
X008714Y004836D01*
X009404Y004884D02*
X009404Y004594D01*
X009549Y004594D01*
X009597Y004643D01*
X009597Y004836D01*
X009549Y004884D01*
X009404Y004884D01*
X009698Y004739D02*
X009892Y004739D01*
X009843Y004594D02*
X009843Y004884D01*
X009698Y004739D01*
X010406Y004594D02*
X010551Y004594D01*
X010600Y004643D01*
X010600Y004836D01*
X010551Y004884D01*
X010406Y004884D01*
X010406Y004594D01*
X010701Y004643D02*
X010749Y004594D01*
X010846Y004594D01*
X010894Y004643D01*
X010894Y004739D01*
X010846Y004788D01*
X010797Y004788D01*
X010701Y004739D01*
X010701Y004884D01*
X010894Y004884D01*
X011372Y004884D02*
X011372Y004594D01*
X011517Y004594D01*
X011566Y004643D01*
X011566Y004836D01*
X011517Y004884D01*
X011372Y004884D01*
X011667Y004739D02*
X011812Y004739D01*
X011860Y004691D01*
X011860Y004643D01*
X011812Y004594D01*
X011715Y004594D01*
X011667Y004643D01*
X011667Y004739D01*
X011764Y004836D01*
X011860Y004884D01*
X012435Y004884D02*
X012435Y004594D01*
X012580Y004594D01*
X012629Y004643D01*
X012629Y004836D01*
X012580Y004884D01*
X012435Y004884D01*
X012730Y004884D02*
X012923Y004884D01*
X012923Y004836D01*
X012730Y004643D01*
X012730Y004594D01*
X013380Y004594D02*
X013525Y004594D01*
X013574Y004643D01*
X013574Y004836D01*
X013525Y004884D01*
X013380Y004884D01*
X013380Y004594D01*
X013675Y004643D02*
X013675Y004691D01*
X013723Y004739D01*
X013820Y004739D01*
X013868Y004691D01*
X013868Y004643D01*
X013820Y004594D01*
X013723Y004594D01*
X013675Y004643D01*
X013723Y004739D02*
X013675Y004788D01*
X013675Y004836D01*
X013723Y004884D01*
X013820Y004884D01*
X013868Y004836D01*
X013868Y004788D01*
X013820Y004739D01*
X014443Y004594D02*
X014588Y004594D01*
X014637Y004643D01*
X014637Y004836D01*
X014588Y004884D01*
X014443Y004884D01*
X014443Y004594D01*
X014738Y004643D02*
X014786Y004594D01*
X014883Y004594D01*
X014931Y004643D01*
X014931Y004836D01*
X014883Y004884D01*
X014786Y004884D01*
X014738Y004836D01*
X014738Y004788D01*
X014786Y004739D01*
X014931Y004739D01*
X015270Y004643D02*
X015318Y004594D01*
X015415Y004594D01*
X015463Y004643D01*
X015463Y004739D01*
X015367Y004739D01*
X015463Y004836D02*
X015415Y004884D01*
X015318Y004884D01*
X015270Y004836D01*
X015270Y004643D01*
X015564Y004594D02*
X015564Y004884D01*
X015758Y004594D01*
X015758Y004884D01*
X015859Y004884D02*
X016004Y004884D01*
X016053Y004836D01*
X016053Y004643D01*
X016004Y004594D01*
X015859Y004594D01*
X015859Y004884D01*
X016254Y004836D02*
X016254Y004643D01*
X016302Y004594D01*
X016399Y004594D01*
X016448Y004643D01*
X016448Y004739D01*
X016351Y004739D01*
X016448Y004836D02*
X016399Y004884D01*
X016302Y004884D01*
X016254Y004836D01*
X016549Y004884D02*
X016549Y004594D01*
X016742Y004594D02*
X016549Y004884D01*
X016742Y004884D02*
X016742Y004594D01*
X016843Y004594D02*
X016988Y004594D01*
X017037Y004643D01*
X017037Y004836D01*
X016988Y004884D01*
X016843Y004884D01*
X016843Y004594D01*
X017317Y004495D02*
X017317Y004301D01*
X017317Y004398D02*
X017608Y004398D01*
X017748Y004406D02*
X017941Y004406D01*
X017989Y004454D01*
X017941Y004603D02*
X017748Y004603D01*
X017796Y004651D02*
X017796Y004554D01*
X017796Y004454D02*
X017796Y004358D01*
X017844Y004257D02*
X017893Y004257D01*
X017893Y004063D01*
X017941Y004063D02*
X017844Y004063D01*
X017796Y004111D01*
X017796Y004208D01*
X017844Y004257D01*
X017989Y004208D02*
X017989Y004111D01*
X017941Y004063D01*
X017989Y003962D02*
X017844Y003962D01*
X017796Y003914D01*
X017796Y003817D01*
X017844Y003768D01*
X017844Y003667D02*
X017844Y003570D01*
X017844Y003667D02*
X017941Y003667D01*
X017989Y003619D01*
X017989Y003522D01*
X017941Y003474D01*
X017748Y003474D01*
X017699Y003522D01*
X017699Y003619D01*
X017748Y003667D01*
X017699Y003768D02*
X017989Y003768D01*
X017608Y004007D02*
X017317Y004007D01*
X017414Y004104D01*
X017317Y004200D01*
X017608Y004200D01*
X017559Y004596D02*
X017462Y004596D01*
X017414Y004644D01*
X017414Y004741D01*
X017462Y004790D01*
X017511Y004790D01*
X017511Y004596D01*
X017559Y004596D02*
X017608Y004644D01*
X017608Y004741D01*
X017559Y004891D02*
X017608Y004939D01*
X017608Y005084D01*
X017699Y005045D02*
X017699Y005190D01*
X017748Y005239D01*
X017941Y005239D01*
X017989Y005190D01*
X017989Y005045D01*
X017699Y005045D01*
X017608Y005185D02*
X017317Y005185D01*
X017414Y005234D02*
X017462Y005185D01*
X017414Y005234D02*
X017414Y005331D01*
X017462Y005379D01*
X017608Y005379D01*
X017796Y005340D02*
X017941Y005340D01*
X017989Y005388D01*
X017989Y005533D01*
X017796Y005533D01*
X017796Y005635D02*
X017796Y005683D01*
X017989Y005683D01*
X017989Y005635D02*
X017989Y005731D01*
X017989Y005831D02*
X017796Y005831D01*
X017796Y005976D01*
X017844Y006024D01*
X017989Y006024D01*
X017941Y006126D02*
X017989Y006174D01*
X017989Y006271D01*
X017941Y006319D01*
X017844Y006319D01*
X017796Y006271D01*
X017796Y006174D01*
X017844Y006126D01*
X017941Y006126D01*
X017699Y005683D02*
X017651Y005683D01*
X017414Y005084D02*
X017414Y004939D01*
X017462Y004891D01*
X017559Y004891D01*
X017796Y004896D02*
X017844Y004944D01*
X017941Y004944D01*
X017989Y004896D01*
X017989Y004799D01*
X017941Y004751D01*
X017844Y004751D01*
X017796Y004799D01*
X017796Y004896D01*
X017989Y004651D02*
X017941Y004603D01*
X020013Y003726D02*
X020013Y003532D01*
X020109Y003436D01*
X020206Y003532D01*
X020206Y003726D01*
X020307Y003629D02*
X020404Y003726D01*
X020404Y003436D01*
X020307Y003436D02*
X020501Y003436D01*
X020602Y003436D02*
X020650Y003436D01*
X020650Y003484D01*
X020602Y003484D01*
X020602Y003436D01*
X020749Y003484D02*
X020798Y003436D01*
X020894Y003436D01*
X020943Y003484D01*
X020943Y003581D01*
X020894Y003629D01*
X020846Y003629D01*
X020749Y003581D01*
X020749Y003726D01*
X020943Y003726D01*
X009218Y003274D02*
X009024Y003274D01*
X009121Y003274D02*
X009121Y003564D01*
X009024Y003467D01*
X008925Y003467D02*
X008828Y003467D01*
X008876Y003516D02*
X008876Y003322D01*
X008925Y003274D01*
X008727Y003274D02*
X008727Y003419D01*
X008678Y003467D01*
X008533Y003467D01*
X008533Y003274D01*
X008433Y003274D02*
X008337Y003274D01*
X008385Y003274D02*
X008385Y003467D01*
X008337Y003467D01*
X008385Y003564D02*
X008385Y003612D01*
X008076Y003516D02*
X007883Y003322D01*
X007931Y003274D01*
X008028Y003274D01*
X008076Y003322D01*
X008076Y003516D01*
X008028Y003564D01*
X007931Y003564D01*
X007883Y003516D01*
X007883Y003322D01*
X007783Y003274D02*
X007734Y003322D01*
X007734Y003516D01*
X007686Y003467D02*
X007783Y003467D01*
X007585Y003419D02*
X007585Y003274D01*
X007585Y003419D02*
X007537Y003467D01*
X007391Y003467D01*
X007391Y003274D01*
X007292Y003274D02*
X007195Y003274D01*
X007243Y003274D02*
X007243Y003467D01*
X007195Y003467D01*
X007243Y003564D02*
X007243Y003612D01*
X006837Y003467D02*
X006643Y003274D01*
X006544Y003274D02*
X006495Y003322D01*
X006495Y003516D01*
X006447Y003467D02*
X006544Y003467D01*
X006643Y003467D02*
X006837Y003274D01*
X005902Y003274D02*
X005708Y003467D01*
X005608Y003467D02*
X005559Y003467D01*
X005463Y003370D01*
X005463Y003274D02*
X005463Y003467D01*
X005708Y003274D02*
X005902Y003467D01*
X004393Y003498D02*
X004344Y003449D01*
X004199Y003449D01*
X004199Y003352D02*
X004199Y003643D01*
X004344Y003643D01*
X004393Y003594D01*
X004393Y003498D01*
X004296Y003449D02*
X004393Y003352D01*
X004098Y003643D02*
X003904Y003643D01*
X004001Y003643D02*
X004001Y003352D01*
X003803Y003401D02*
X003803Y003594D01*
X003755Y003643D01*
X003610Y003643D01*
X003610Y003352D01*
X003755Y003352D01*
X003803Y003401D01*
X003509Y003643D02*
X003315Y003352D01*
X003214Y003401D02*
X003166Y003352D01*
X003069Y003352D01*
X003021Y003401D01*
X003069Y003498D02*
X003166Y003498D01*
X003214Y003449D01*
X003214Y003401D01*
X003069Y003498D02*
X003021Y003546D01*
X003021Y003594D01*
X003069Y003643D01*
X003166Y003643D01*
X003214Y003594D01*
X002919Y003643D02*
X002726Y003643D01*
X002823Y003643D02*
X002823Y003352D01*
X002625Y003352D02*
X002528Y003449D01*
X002576Y003449D02*
X002431Y003449D01*
X002431Y003352D02*
X002431Y003643D01*
X002576Y003643D01*
X002625Y003594D01*
X002625Y003498D01*
X002576Y003449D01*
X004358Y016694D02*
X004551Y016694D01*
X004551Y016839D01*
X004455Y016790D01*
X004406Y016790D01*
X004358Y016839D01*
X004358Y016936D01*
X004406Y016984D01*
X004503Y016984D01*
X004551Y016936D01*
X004653Y016984D02*
X004653Y016790D01*
X004749Y016694D01*
X004846Y016790D01*
X004846Y016984D01*
X004846Y016839D02*
X004653Y016839D01*
X005342Y016839D02*
X005536Y016839D01*
X005391Y016694D01*
X005391Y016984D01*
X005637Y016984D02*
X005637Y016790D01*
X005734Y016694D01*
X005830Y016790D01*
X005830Y016984D01*
X005830Y016839D02*
X005637Y016839D01*
X006326Y016887D02*
X006375Y016839D01*
X006423Y016839D01*
X006375Y016839D02*
X006326Y016790D01*
X006326Y016742D01*
X006375Y016694D01*
X006472Y016694D01*
X006520Y016742D01*
X006621Y016790D02*
X006621Y016984D01*
X006520Y016936D02*
X006472Y016984D01*
X006375Y016984D01*
X006326Y016936D01*
X006326Y016887D01*
X006621Y016839D02*
X006815Y016839D01*
X006815Y016790D02*
X006718Y016694D01*
X006621Y016790D01*
X006815Y016790D02*
X006815Y016984D01*
X007350Y016984D02*
X007544Y016984D01*
X007350Y016790D01*
X007350Y016742D01*
X007398Y016694D01*
X007495Y016694D01*
X007544Y016742D01*
X007645Y016790D02*
X007645Y016984D01*
X007645Y016839D02*
X007838Y016839D01*
X007838Y016790D02*
X007741Y016694D01*
X007645Y016790D01*
X007838Y016790D02*
X007838Y016984D01*
X008295Y016984D02*
X008488Y016984D01*
X008392Y016984D02*
X008392Y016694D01*
X008488Y016790D01*
X008590Y016790D02*
X008590Y016984D01*
X008590Y016839D02*
X008783Y016839D01*
X008783Y016790D02*
X008686Y016694D01*
X008590Y016790D01*
X008783Y016790D02*
X008783Y016984D01*
X006181Y018099D02*
X006132Y018050D01*
X005987Y018050D01*
X006036Y018147D02*
X006132Y018147D01*
X006181Y018099D01*
X006181Y018244D02*
X006036Y018244D01*
X005987Y018195D01*
X006036Y018147D01*
X005886Y018195D02*
X005886Y018099D01*
X005838Y018050D01*
X005693Y018050D01*
X005693Y017953D02*
X005693Y018244D01*
X005838Y018244D01*
X005886Y018195D01*
X005591Y018195D02*
X005543Y018147D01*
X005398Y018147D01*
X005398Y018099D02*
X005398Y018244D01*
X005543Y018244D01*
X005591Y018195D01*
X005543Y018050D02*
X005446Y018050D01*
X005398Y018099D01*
X004900Y018099D02*
X004851Y018050D01*
X004706Y018050D01*
X004755Y018147D02*
X004851Y018147D01*
X004900Y018099D01*
X004900Y018244D02*
X004755Y018244D01*
X004706Y018195D01*
X004755Y018147D01*
X004605Y018195D02*
X004557Y018244D01*
X004411Y018244D01*
X004310Y018244D02*
X004214Y018244D01*
X004262Y018244D02*
X004262Y017953D01*
X004310Y017953D01*
X004411Y018050D02*
X004557Y018050D01*
X004605Y018099D01*
X004605Y018195D01*
X003332Y017964D02*
X003332Y017771D01*
X003284Y017723D01*
X003139Y017723D01*
X003139Y018013D01*
X003284Y018013D01*
X003332Y017964D01*
X003037Y018013D02*
X003037Y017723D01*
X002844Y018013D01*
X002844Y017723D01*
X002743Y017771D02*
X002743Y017868D01*
X002646Y017868D01*
X002549Y017964D02*
X002549Y017771D01*
X002598Y017723D01*
X002694Y017723D01*
X002743Y017771D01*
X002743Y017964D02*
X002694Y018013D01*
X002598Y018013D01*
X002549Y017964D01*
D12*
X003349Y014975D02*
X003496Y014975D01*
X003569Y014902D01*
X003496Y014828D01*
X003349Y014828D01*
X003349Y014754D02*
X003349Y014607D01*
X003459Y014607D01*
X003422Y014681D01*
X003422Y014717D01*
X003459Y014754D01*
X003533Y014754D01*
X003569Y014717D01*
X003569Y014644D01*
X003533Y014607D01*
X003370Y013908D02*
X003223Y013762D01*
X003223Y013687D02*
X003223Y013651D01*
X003297Y013577D01*
X003370Y013577D02*
X003223Y013577D01*
X003370Y013762D02*
X003223Y013908D01*
X003323Y012856D02*
X003470Y012709D01*
X003470Y012635D02*
X003433Y012598D01*
X003287Y012598D01*
X003323Y012562D02*
X003323Y012635D01*
X003323Y012709D02*
X003470Y012856D01*
X003332Y012181D02*
X003332Y012034D01*
X003332Y012108D02*
X003553Y012108D01*
X003516Y011960D02*
X003553Y011923D01*
X003553Y011850D01*
X003516Y011813D01*
X003443Y011850D02*
X003443Y011923D01*
X003479Y011960D01*
X003516Y011960D01*
X003443Y011850D02*
X003406Y011813D01*
X003369Y011813D01*
X003332Y011850D01*
X003332Y011923D01*
X003369Y011960D01*
X003369Y011739D02*
X003443Y011739D01*
X003479Y011702D01*
X003479Y011592D01*
X003553Y011592D02*
X003332Y011592D01*
X003332Y011702D01*
X003369Y011739D01*
X003479Y011666D02*
X003553Y011739D01*
X006291Y014360D02*
X006448Y014360D01*
X006370Y014360D02*
X006370Y014596D01*
X006291Y014517D01*
X006527Y014556D02*
X006527Y014399D01*
X006684Y014556D01*
X006684Y014399D01*
X006645Y014360D01*
X006566Y014360D01*
X006527Y014399D01*
X006527Y014556D02*
X006566Y014596D01*
X006645Y014596D01*
X006684Y014556D01*
X006762Y014596D02*
X006762Y014360D01*
X006762Y014438D02*
X006880Y014360D01*
X006762Y014438D02*
X006880Y014517D01*
X007950Y014905D02*
X007990Y014905D01*
X007990Y014944D01*
X007950Y014944D01*
X007950Y014905D01*
X008068Y014905D02*
X008226Y014905D01*
X008147Y014905D02*
X008147Y015141D01*
X008068Y015062D01*
X008304Y015062D02*
X008304Y014944D01*
X008343Y014905D01*
X008461Y014905D01*
X008461Y015062D01*
X008539Y015023D02*
X008618Y015023D01*
X008539Y015141D02*
X008697Y015141D01*
X008539Y015141D02*
X008539Y014905D01*
X008518Y012704D02*
X008371Y012557D01*
X008444Y012557D02*
X008444Y012704D01*
X008371Y012704D02*
X008518Y012557D01*
X008518Y012631D02*
X008371Y012631D01*
X010218Y012630D02*
X010218Y012703D01*
X010291Y012776D01*
X010365Y012740D02*
X010512Y012593D01*
X010512Y012666D02*
X010365Y012666D01*
X010365Y012593D02*
X010512Y012740D01*
X010438Y012740D02*
X010438Y012593D01*
X010291Y012556D02*
X010218Y012630D01*
X010586Y012556D02*
X010659Y012630D01*
X010659Y012703D01*
X010586Y012776D01*
X011281Y012703D02*
X011354Y012776D01*
X011428Y012740D02*
X011575Y012593D01*
X011575Y012666D02*
X011428Y012666D01*
X011428Y012593D02*
X011575Y012740D01*
X011501Y012740D02*
X011501Y012593D01*
X011354Y012556D02*
X011281Y012630D01*
X011281Y012703D01*
X011649Y012776D02*
X011722Y012703D01*
X011722Y012630D01*
X011649Y012556D01*
X011346Y014514D02*
X011346Y014750D01*
X011504Y014750D01*
X011425Y014632D02*
X011346Y014632D01*
X011268Y014671D02*
X011268Y014514D01*
X011150Y014514D01*
X011111Y014553D01*
X011111Y014671D01*
X011033Y014514D02*
X010875Y014514D01*
X010797Y014514D02*
X010757Y014514D01*
X010757Y014553D01*
X010797Y014553D01*
X010797Y014514D01*
X010954Y014514D02*
X010954Y014750D01*
X010875Y014671D01*
X012623Y016494D02*
X012770Y016641D01*
X012770Y016568D02*
X012623Y016568D01*
X012623Y016641D02*
X012770Y016494D01*
X012696Y016494D02*
X012696Y016641D01*
X013441Y016637D02*
X013588Y016491D01*
X013588Y016564D02*
X013441Y016564D01*
X013441Y016491D02*
X013588Y016637D01*
X013514Y016637D02*
X013514Y016491D01*
X013662Y016491D02*
X013809Y016637D01*
X013809Y016564D02*
X013662Y016564D01*
X013662Y016637D02*
X013809Y016491D01*
X013735Y016491D02*
X013735Y016637D01*
X014268Y012700D02*
X014414Y012554D01*
X014341Y012554D02*
X014341Y012700D01*
X014414Y012700D02*
X014268Y012554D01*
X014268Y012627D02*
X014414Y012627D01*
X014489Y012627D02*
X014635Y012627D01*
X014635Y012554D02*
X014489Y012700D01*
X014562Y012700D02*
X014562Y012554D01*
X014489Y012554D02*
X014635Y012700D01*
X017730Y015708D02*
X017887Y015708D01*
X017809Y015708D02*
X017809Y015944D01*
X017730Y015865D01*
X017965Y015905D02*
X018005Y015944D01*
X018083Y015944D01*
X018123Y015905D01*
X017965Y015747D01*
X018005Y015708D01*
X018083Y015708D01*
X018123Y015747D01*
X018123Y015905D01*
X018201Y015865D02*
X018201Y015747D01*
X018240Y015708D01*
X018358Y015708D01*
X018358Y015865D01*
X018437Y015826D02*
X018515Y015826D01*
X018437Y015708D02*
X018437Y015944D01*
X018594Y015944D01*
X017965Y015905D02*
X017965Y015747D01*
X020936Y013999D02*
X021015Y014078D01*
X021015Y013842D01*
X020936Y013842D02*
X021094Y013842D01*
X021172Y013881D02*
X021329Y014038D01*
X021329Y013881D01*
X021290Y013842D01*
X021211Y013842D01*
X021172Y013881D01*
X021172Y014038D01*
X021211Y014078D01*
X021290Y014078D01*
X021329Y014038D01*
X021408Y013999D02*
X021408Y013881D01*
X021447Y013842D01*
X021565Y013842D01*
X021565Y013999D01*
X021643Y013960D02*
X021722Y013960D01*
X021643Y014078D02*
X021801Y014078D01*
X021643Y014078D02*
X021643Y013842D01*
X018594Y008346D02*
X018437Y008346D01*
X018437Y008109D01*
X018358Y008109D02*
X018358Y008267D01*
X018437Y008228D02*
X018515Y008228D01*
X018358Y008109D02*
X018240Y008109D01*
X018201Y008149D01*
X018201Y008267D01*
X018123Y008306D02*
X018123Y008149D01*
X018083Y008109D01*
X018005Y008109D01*
X017965Y008149D01*
X018123Y008306D01*
X018083Y008346D01*
X018005Y008346D01*
X017965Y008306D01*
X017965Y008149D01*
X017887Y008109D02*
X017730Y008109D01*
X017809Y008109D02*
X017809Y008346D01*
X017730Y008267D01*
X014635Y005102D02*
X014489Y004955D01*
X014562Y004955D02*
X014562Y005102D01*
X014489Y005102D02*
X014635Y004955D01*
X014635Y005029D02*
X014489Y005029D01*
X014414Y005029D02*
X014268Y005029D01*
X014268Y005102D02*
X014414Y004955D01*
X014341Y004955D02*
X014341Y005102D01*
X014414Y005102D02*
X014268Y004955D01*
X011722Y005031D02*
X011722Y005105D01*
X011649Y005178D01*
X011575Y005141D02*
X011428Y004995D01*
X011428Y005068D02*
X011575Y005068D01*
X011575Y004995D02*
X011428Y005141D01*
X011501Y005141D02*
X011501Y004995D01*
X011354Y004958D02*
X011281Y005031D01*
X011281Y005105D01*
X011354Y005178D01*
X011649Y004958D02*
X011722Y005031D01*
X010659Y005031D02*
X010659Y005105D01*
X010586Y005178D01*
X010512Y005141D02*
X010365Y004995D01*
X010365Y005068D02*
X010512Y005068D01*
X010512Y004995D02*
X010365Y005141D01*
X010438Y005141D02*
X010438Y004995D01*
X010291Y004958D02*
X010218Y005031D01*
X010218Y005105D01*
X010291Y005178D01*
X010586Y004958D02*
X010659Y005031D01*
X010757Y006916D02*
X010797Y006916D01*
X010797Y006955D01*
X010757Y006955D01*
X010757Y006916D01*
X010875Y006916D02*
X011033Y006916D01*
X010954Y006916D02*
X010954Y007152D01*
X010875Y007073D01*
X011111Y007073D02*
X011111Y006955D01*
X011150Y006916D01*
X011268Y006916D01*
X011268Y007073D01*
X011346Y007034D02*
X011425Y007034D01*
X011346Y006916D02*
X011346Y007152D01*
X011504Y007152D01*
X012623Y008896D02*
X012770Y009043D01*
X012696Y009043D02*
X012696Y008896D01*
X012770Y008896D02*
X012623Y009043D01*
X012623Y008969D02*
X012770Y008969D01*
X013441Y008966D02*
X013588Y008966D01*
X013588Y009039D02*
X013441Y008892D01*
X013514Y008892D02*
X013514Y009039D01*
X013441Y009039D02*
X013588Y008892D01*
X013662Y008892D02*
X013809Y009039D01*
X013809Y008966D02*
X013662Y008966D01*
X013662Y009039D02*
X013809Y008892D01*
X013735Y008892D02*
X013735Y009039D01*
X008697Y007542D02*
X008539Y007542D01*
X008539Y007306D01*
X008461Y007306D02*
X008461Y007464D01*
X008539Y007424D02*
X008618Y007424D01*
X008461Y007306D02*
X008343Y007306D01*
X008304Y007345D01*
X008304Y007464D01*
X008147Y007542D02*
X008147Y007306D01*
X008068Y007306D02*
X008226Y007306D01*
X008068Y007464D02*
X008147Y007542D01*
X007990Y007345D02*
X007990Y007306D01*
X007950Y007306D01*
X007950Y007345D01*
X007990Y007345D01*
X006880Y006919D02*
X006762Y006840D01*
X006880Y006761D01*
X006762Y006761D02*
X006762Y006997D01*
X006684Y006958D02*
X006527Y006801D01*
X006566Y006761D01*
X006645Y006761D01*
X006684Y006801D01*
X006684Y006958D01*
X006645Y006997D01*
X006566Y006997D01*
X006527Y006958D01*
X006527Y006801D01*
X006448Y006761D02*
X006291Y006761D01*
X006370Y006761D02*
X006370Y006997D01*
X006291Y006919D01*
X008371Y005106D02*
X008518Y004959D01*
X008518Y005032D02*
X008371Y005032D01*
X008371Y004959D02*
X008518Y005106D01*
X008444Y005106D02*
X008444Y004959D01*
X003553Y004509D02*
X003332Y004509D01*
X003332Y004436D02*
X003332Y004583D01*
X003369Y004362D02*
X003332Y004325D01*
X003332Y004252D01*
X003369Y004215D01*
X003406Y004215D01*
X003443Y004252D01*
X003443Y004325D01*
X003479Y004362D01*
X003516Y004362D01*
X003553Y004325D01*
X003553Y004252D01*
X003516Y004215D01*
X003553Y004141D02*
X003479Y004067D01*
X003479Y004104D02*
X003479Y003994D01*
X003553Y003994D02*
X003332Y003994D01*
X003332Y004104D01*
X003369Y004141D01*
X003443Y004141D01*
X003479Y004104D01*
X003323Y004963D02*
X003323Y005037D01*
X003287Y005000D02*
X003433Y005000D01*
X003470Y005037D01*
X003470Y005111D02*
X003323Y005257D01*
X003323Y005111D02*
X003470Y005257D01*
X003370Y005979D02*
X003223Y005979D01*
X003223Y006052D02*
X003223Y006089D01*
X003223Y006052D02*
X003297Y005979D01*
X003370Y006163D02*
X003223Y006310D01*
X003223Y006163D02*
X003370Y006310D01*
X003349Y007009D02*
X003459Y007009D01*
X003422Y007082D01*
X003422Y007119D01*
X003459Y007156D01*
X003533Y007156D01*
X003569Y007119D01*
X003569Y007046D01*
X003533Y007009D01*
X003349Y007009D02*
X003349Y007156D01*
X003349Y007230D02*
X003496Y007230D01*
X003569Y007303D01*
X003496Y007377D01*
X003349Y007377D01*
X020936Y006401D02*
X021015Y006479D01*
X021015Y006243D01*
X020936Y006243D02*
X021094Y006243D01*
X021172Y006283D02*
X021329Y006440D01*
X021329Y006283D01*
X021290Y006243D01*
X021211Y006243D01*
X021172Y006283D01*
X021172Y006440D01*
X021211Y006479D01*
X021290Y006479D01*
X021329Y006440D01*
X021408Y006401D02*
X021408Y006283D01*
X021447Y006243D01*
X021565Y006243D01*
X021565Y006401D01*
X021643Y006361D02*
X021722Y006361D01*
X021643Y006243D02*
X021643Y006479D01*
X021801Y006479D01*
D13*
X021787Y010780D02*
X002417Y010780D01*
D14*
X003486Y013428D02*
X003486Y014178D01*
X003525Y014180D01*
X003564Y014186D01*
X003602Y014195D01*
X003639Y014208D01*
X003675Y014225D01*
X003708Y014245D01*
X003740Y014269D01*
X003769Y014295D01*
X003795Y014324D01*
X003819Y014356D01*
X003839Y014389D01*
X003856Y014425D01*
X003869Y014462D01*
X003878Y014500D01*
X003884Y014539D01*
X003886Y014578D01*
X003884Y014617D01*
X003878Y014656D01*
X003869Y014694D01*
X003856Y014731D01*
X003839Y014767D01*
X003819Y014800D01*
X003795Y014832D01*
X003769Y014861D01*
X003740Y014887D01*
X003708Y014911D01*
X003675Y014931D01*
X003639Y014948D01*
X003602Y014961D01*
X003564Y014970D01*
X003525Y014976D01*
X003486Y014978D01*
X003486Y015728D01*
X003636Y015728D01*
X004345Y015720D02*
X004660Y015720D01*
X005329Y015720D02*
X005644Y015720D01*
X006313Y015720D02*
X006628Y015720D01*
X007337Y015720D02*
X007652Y015720D01*
X008719Y014797D02*
X009192Y014797D01*
X009192Y014167D02*
X008719Y014167D01*
X005727Y014164D02*
X005255Y014164D01*
X005255Y014794D02*
X005727Y014794D01*
X003636Y013428D02*
X003486Y013428D01*
X003486Y008130D02*
X003486Y007380D01*
X003525Y007378D01*
X003564Y007372D01*
X003602Y007363D01*
X003639Y007350D01*
X003675Y007333D01*
X003708Y007313D01*
X003740Y007289D01*
X003769Y007263D01*
X003795Y007234D01*
X003819Y007202D01*
X003839Y007169D01*
X003856Y007133D01*
X003869Y007096D01*
X003878Y007058D01*
X003884Y007019D01*
X003886Y006980D01*
X003884Y006941D01*
X003878Y006902D01*
X003869Y006864D01*
X003856Y006827D01*
X003839Y006791D01*
X003819Y006758D01*
X003795Y006726D01*
X003769Y006697D01*
X003740Y006671D01*
X003708Y006647D01*
X003675Y006627D01*
X003639Y006610D01*
X003602Y006597D01*
X003564Y006588D01*
X003525Y006582D01*
X003486Y006580D01*
X003486Y005830D01*
X003636Y005830D01*
X005255Y006566D02*
X005727Y006566D01*
X005727Y007196D02*
X005255Y007196D01*
X005329Y008122D02*
X005644Y008122D01*
X006313Y008122D02*
X006628Y008122D01*
X007337Y008122D02*
X007652Y008122D01*
X008719Y007199D02*
X009192Y007199D01*
X009192Y006569D02*
X008719Y006569D01*
X012145Y006820D02*
X012617Y006820D01*
X012617Y007450D02*
X012145Y007450D01*
X017486Y008130D02*
X017486Y005830D01*
X017486Y013428D02*
X017486Y015728D01*
X012617Y015049D02*
X012145Y015049D01*
X012145Y014419D02*
X012617Y014419D01*
X004660Y008122D02*
X004345Y008122D01*
X003636Y008130D02*
X003486Y008130D01*
D15*
X004345Y005838D02*
X004620Y005838D01*
X005329Y005838D02*
X005644Y005838D01*
X006352Y005838D02*
X006628Y005838D01*
X007337Y005838D02*
X007652Y005838D01*
X008321Y005838D02*
X008636Y005838D01*
X009345Y005838D02*
X009660Y005838D01*
X010329Y005838D02*
X010644Y005838D01*
X011313Y005838D02*
X011628Y005838D01*
X012337Y005838D02*
X012652Y005838D01*
X013360Y005838D02*
X013636Y005838D01*
X014345Y005838D02*
X014660Y005838D01*
X015329Y005838D02*
X015644Y005838D01*
X016352Y005838D02*
X016628Y005838D01*
X017337Y005838D02*
X017455Y005838D01*
X018099Y006979D02*
X018099Y004263D01*
X018101Y004202D01*
X018107Y004142D01*
X018116Y004082D01*
X018130Y004023D01*
X018147Y003965D01*
X018168Y003908D01*
X018193Y003853D01*
X018221Y003799D01*
X018252Y003747D01*
X018287Y003698D01*
X018324Y003650D01*
X018365Y003606D01*
X018409Y003563D01*
X018455Y003524D01*
X018503Y003488D01*
X018554Y003455D01*
X018607Y003425D01*
X018661Y003399D01*
X018718Y003376D01*
X018775Y003357D01*
X018834Y003342D01*
X018893Y003330D01*
X018953Y003322D01*
X019014Y003318D01*
X019074Y003318D01*
X019135Y003322D01*
X019195Y003330D01*
X019254Y003342D01*
X019313Y003357D01*
X019370Y003376D01*
X019427Y003399D01*
X019481Y003425D01*
X019534Y003455D01*
X019585Y003488D01*
X019633Y003524D01*
X019679Y003563D01*
X019723Y003606D01*
X019764Y003650D01*
X019801Y003698D01*
X019836Y003747D01*
X019867Y003799D01*
X019895Y003853D01*
X019920Y003908D01*
X019941Y003965D01*
X019958Y004023D01*
X019972Y004082D01*
X019981Y004142D01*
X019987Y004202D01*
X019989Y004263D01*
X019989Y006940D01*
X019789Y007962D02*
X019789Y010482D01*
X021009Y010482D01*
X021009Y007962D01*
X019789Y007962D01*
X019989Y006940D02*
X019987Y007001D01*
X019981Y007061D01*
X019972Y007121D01*
X019958Y007180D01*
X019941Y007238D01*
X019920Y007295D01*
X019895Y007350D01*
X019867Y007404D01*
X019836Y007456D01*
X019801Y007505D01*
X019764Y007553D01*
X019723Y007597D01*
X019679Y007640D01*
X019633Y007679D01*
X019585Y007715D01*
X019534Y007748D01*
X019481Y007778D01*
X019427Y007804D01*
X019370Y007827D01*
X019313Y007846D01*
X019254Y007861D01*
X019195Y007873D01*
X019135Y007881D01*
X019074Y007885D01*
X019014Y007885D01*
X018953Y007881D01*
X018893Y007873D01*
X018834Y007861D01*
X018775Y007846D01*
X018718Y007827D01*
X018661Y007804D01*
X018607Y007778D01*
X018554Y007748D01*
X018503Y007715D01*
X018455Y007679D01*
X018409Y007640D01*
X018365Y007597D01*
X018324Y007553D01*
X018287Y007505D01*
X018252Y007456D01*
X018221Y007404D01*
X018193Y007350D01*
X018168Y007295D01*
X018147Y007238D01*
X018130Y007180D01*
X018116Y007121D01*
X018107Y007061D01*
X018101Y007001D01*
X018099Y006940D01*
X017494Y008122D02*
X017337Y008122D01*
X016628Y008122D02*
X016352Y008122D01*
X015644Y008122D02*
X015329Y008122D01*
X014620Y008122D02*
X014345Y008122D01*
X013636Y008122D02*
X013321Y008122D01*
X012652Y008122D02*
X012337Y008122D01*
X011628Y008122D02*
X011352Y008122D01*
X010644Y008122D02*
X010329Y008122D01*
X009620Y008122D02*
X009345Y008122D01*
X008636Y008122D02*
X008360Y008122D01*
X008321Y013437D02*
X008636Y013437D01*
X009345Y013437D02*
X009660Y013437D01*
X010329Y013437D02*
X010644Y013437D01*
X011313Y013437D02*
X011628Y013437D01*
X012337Y013437D02*
X012652Y013437D01*
X013360Y013437D02*
X013636Y013437D01*
X014345Y013437D02*
X014660Y013437D01*
X015329Y013437D02*
X015644Y013437D01*
X016352Y013437D02*
X016628Y013437D01*
X017337Y013437D02*
X017455Y013437D01*
X018099Y014578D02*
X018099Y011861D01*
X018101Y011800D01*
X018107Y011740D01*
X018116Y011680D01*
X018130Y011621D01*
X018147Y011563D01*
X018168Y011506D01*
X018193Y011451D01*
X018221Y011397D01*
X018252Y011345D01*
X018287Y011296D01*
X018324Y011248D01*
X018365Y011204D01*
X018409Y011161D01*
X018455Y011122D01*
X018503Y011086D01*
X018554Y011053D01*
X018607Y011023D01*
X018661Y010997D01*
X018718Y010974D01*
X018775Y010955D01*
X018834Y010940D01*
X018893Y010928D01*
X018953Y010920D01*
X019014Y010916D01*
X019074Y010916D01*
X019135Y010920D01*
X019195Y010928D01*
X019254Y010940D01*
X019313Y010955D01*
X019370Y010974D01*
X019427Y010997D01*
X019481Y011023D01*
X019534Y011053D01*
X019585Y011086D01*
X019633Y011122D01*
X019679Y011161D01*
X019723Y011204D01*
X019764Y011248D01*
X019801Y011296D01*
X019836Y011345D01*
X019867Y011397D01*
X019895Y011451D01*
X019920Y011506D01*
X019941Y011563D01*
X019958Y011621D01*
X019972Y011680D01*
X019981Y011740D01*
X019987Y011800D01*
X019989Y011861D01*
X019989Y014538D01*
X019789Y015560D02*
X019789Y018080D01*
X021009Y018080D01*
X021009Y015560D01*
X019789Y015560D01*
X019989Y014538D02*
X019987Y014599D01*
X019981Y014659D01*
X019972Y014719D01*
X019958Y014778D01*
X019941Y014836D01*
X019920Y014893D01*
X019895Y014948D01*
X019867Y015002D01*
X019836Y015054D01*
X019801Y015103D01*
X019764Y015151D01*
X019723Y015195D01*
X019679Y015238D01*
X019633Y015277D01*
X019585Y015313D01*
X019534Y015346D01*
X019481Y015376D01*
X019427Y015402D01*
X019370Y015425D01*
X019313Y015444D01*
X019254Y015459D01*
X019195Y015471D01*
X019135Y015479D01*
X019074Y015483D01*
X019014Y015483D01*
X018953Y015479D01*
X018893Y015471D01*
X018834Y015459D01*
X018775Y015444D01*
X018718Y015425D01*
X018661Y015402D01*
X018607Y015376D01*
X018554Y015346D01*
X018503Y015313D01*
X018455Y015277D01*
X018409Y015238D01*
X018365Y015195D01*
X018324Y015151D01*
X018287Y015103D01*
X018252Y015054D01*
X018221Y015002D01*
X018193Y014948D01*
X018168Y014893D01*
X018147Y014836D01*
X018130Y014778D01*
X018116Y014719D01*
X018107Y014659D01*
X018101Y014599D01*
X018099Y014538D01*
X017494Y015720D02*
X017337Y015720D01*
X016628Y015720D02*
X016352Y015720D01*
X015644Y015720D02*
X015329Y015720D01*
X014620Y015720D02*
X014345Y015720D01*
X013636Y015720D02*
X013321Y015720D01*
X012652Y015720D02*
X012337Y015720D01*
X011628Y015720D02*
X011352Y015720D01*
X010644Y015720D02*
X010329Y015720D01*
X009620Y015720D02*
X009345Y015720D01*
X008636Y015720D02*
X008360Y015720D01*
X007652Y013437D02*
X007337Y013437D01*
X006628Y013437D02*
X006352Y013437D01*
X005644Y013437D02*
X005329Y013437D01*
X004620Y013437D02*
X004345Y013437D01*
D16*
X016511Y016605D02*
X017062Y016605D01*
X017062Y016999D01*
X017062Y017393D02*
X017062Y017786D01*
X016511Y017786D01*
X016511Y017353D02*
X016511Y017038D01*
X016511Y010188D02*
X017062Y010188D01*
X017062Y009794D01*
X017062Y009400D02*
X017062Y009007D01*
X016511Y009007D01*
X016511Y009440D02*
X016511Y009755D01*
M02*
