G75*
G70*
%OFA0B0*%
%FSLAX24Y24*%
%IPPOS*%
%LPD*%
%AMOC8*
5,1,8,0,0,1.08239X$1,22.5*
%
%ADD10C,0.0000*%
%ADD11C,0.0591*%
%ADD12C,0.0660*%
%ADD13R,0.0906X0.0374*%
%ADD14R,0.0906X0.1280*%
%ADD15C,0.0740*%
%ADD16R,0.0394X0.0512*%
%ADD17R,0.0472X0.0472*%
%ADD18R,0.0709X0.0787*%
%ADD19C,0.0100*%
%ADD20C,0.0160*%
%ADD21C,0.0320*%
%ADD22C,0.0500*%
%ADD23C,0.0356*%
%ADD24C,0.0240*%
%ADD25C,0.0120*%
%ADD26C,0.0240*%
D10*
X002416Y003180D02*
X002416Y003180D01*
X002259Y003337D01*
X002259Y003338D02*
X002259Y010621D01*
X002416Y010778D01*
X002259Y010936D01*
X002259Y010937D02*
X002259Y018219D01*
X002416Y018377D01*
X021786Y018377D01*
X021944Y018219D01*
X021944Y010936D01*
X021786Y010778D01*
X021944Y010621D01*
X021944Y003337D01*
X021944Y003337D01*
X021786Y003180D01*
X021785Y003180D02*
X002416Y003180D01*
X002416Y010778D02*
X002416Y010778D01*
X021944Y010935D02*
X021944Y010936D01*
D11*
X016986Y013078D03*
X015986Y013078D03*
X014986Y013078D03*
X013986Y013078D03*
X012986Y013078D03*
X011986Y013078D03*
X010986Y013078D03*
X009986Y013078D03*
X008986Y013078D03*
X007986Y013078D03*
X006986Y013078D03*
X005986Y013078D03*
X004986Y013078D03*
X003986Y013078D03*
X003986Y016078D03*
X004986Y016078D03*
X005986Y016078D03*
X006986Y016078D03*
X007986Y016078D03*
X008986Y016078D03*
X009986Y016078D03*
X010986Y016078D03*
X011986Y016078D03*
X012986Y016078D03*
X013986Y016078D03*
X014986Y016078D03*
X015986Y016078D03*
X016986Y016078D03*
X016986Y008480D03*
X015986Y008480D03*
X014986Y008480D03*
X013986Y008480D03*
X012986Y008480D03*
X011986Y008480D03*
X010986Y008480D03*
X009986Y008480D03*
X008986Y008480D03*
X007986Y008480D03*
X006986Y008480D03*
X005986Y008480D03*
X004986Y008480D03*
X003986Y008480D03*
X003986Y005480D03*
X004986Y005480D03*
X005986Y005480D03*
X006986Y005480D03*
X007986Y005480D03*
X008986Y005480D03*
X009986Y005480D03*
X010986Y005480D03*
X011986Y005480D03*
X012986Y005480D03*
X013986Y005480D03*
X014986Y005480D03*
X015986Y005480D03*
X016986Y005480D03*
D12*
X019044Y004641D03*
X019044Y006562D03*
X019044Y012239D03*
X019044Y014160D03*
D13*
X019041Y015915D03*
X019041Y016820D03*
X019041Y017726D03*
X019041Y010127D03*
X019041Y009222D03*
X019041Y008316D03*
D14*
X021363Y009222D03*
X021363Y016820D03*
D15*
X015986Y017528D03*
X014986Y017628D03*
X013986Y017528D03*
X012986Y017628D03*
X011986Y017528D03*
X010986Y017628D03*
X009986Y017528D03*
X008986Y017628D03*
X007986Y017528D03*
X006986Y017628D03*
X005986Y017528D03*
X004986Y017628D03*
X002873Y017078D03*
X002773Y016078D03*
X002873Y015078D03*
X002773Y014078D03*
X002873Y013078D03*
X002773Y012078D03*
X004986Y011628D03*
X005986Y011528D03*
X006986Y011628D03*
X007986Y011528D03*
X008986Y011628D03*
X009986Y011528D03*
X010986Y011628D03*
X011986Y011528D03*
X012986Y011628D03*
X013986Y011528D03*
X014986Y011628D03*
X015986Y011528D03*
X015986Y009930D03*
X014986Y010030D03*
X013986Y009930D03*
X012986Y010030D03*
X011986Y009930D03*
X010986Y010030D03*
X009986Y009930D03*
X008986Y010030D03*
X007986Y009930D03*
X006986Y010030D03*
X005986Y009930D03*
X004986Y010030D03*
X002873Y009480D03*
X002773Y008480D03*
X002873Y007480D03*
X002773Y006480D03*
X002873Y005480D03*
X002773Y004480D03*
X004986Y004030D03*
X005986Y003930D03*
X006986Y004030D03*
X007986Y003930D03*
X008986Y004030D03*
X009986Y003930D03*
X010986Y004030D03*
X011986Y003930D03*
X012986Y004030D03*
X013986Y003930D03*
X014986Y004030D03*
X015986Y003930D03*
D16*
X020491Y004263D03*
X020491Y005011D03*
X020491Y006192D03*
X020491Y006940D03*
X020491Y011861D03*
X020491Y012609D03*
X020491Y013790D03*
X020491Y014538D03*
D17*
X012774Y014734D03*
X011987Y014734D03*
X009349Y014482D03*
X008562Y014482D03*
X005885Y014479D03*
X005097Y014479D03*
X011987Y007135D03*
X012774Y007135D03*
X009349Y006884D03*
X008562Y006884D03*
X005885Y006881D03*
X005097Y006881D03*
D18*
X017893Y008693D03*
X017893Y009953D03*
X021437Y012089D03*
X021437Y013349D03*
X017893Y016292D03*
X017893Y017551D03*
X021437Y005751D03*
X021437Y004491D03*
D19*
X018282Y012117D02*
X017573Y013220D01*
X016986Y013078D02*
X016904Y012274D01*
X017573Y013219D02*
X017550Y013266D01*
X017524Y013312D01*
X017494Y013355D01*
X017461Y013396D01*
X017426Y013435D01*
X017387Y013471D01*
X017346Y013505D01*
X017303Y013535D01*
X017258Y013562D01*
X017211Y013585D01*
X017162Y013606D01*
X017112Y013622D01*
X017061Y013635D01*
X017009Y013645D01*
X016957Y013650D01*
X016904Y013652D01*
X013479Y013652D01*
X013558Y013889D02*
X017337Y013889D01*
X016668Y014637D02*
X016986Y016078D01*
X015986Y016078D02*
X015286Y016578D01*
X014986Y016078D02*
X014286Y016578D01*
X013686Y016978D01*
X013286Y016578D02*
X012686Y016978D01*
X012286Y016578D02*
X011586Y016978D01*
X012286Y016578D02*
X012986Y016078D01*
X013286Y016578D02*
X013986Y016078D01*
X011986Y009930D02*
X012153Y009782D01*
X012325Y009641D01*
X012503Y009507D01*
X012686Y009380D01*
X013286Y008980D01*
X013986Y008480D01*
X014286Y008980D02*
X013686Y009380D01*
X012889Y012511D02*
X012738Y012492D01*
X012587Y012466D01*
X012438Y012432D01*
X012291Y012392D01*
X012146Y012345D01*
X012003Y012290D01*
X011864Y012230D01*
X011727Y012162D01*
X011593Y012088D01*
X011463Y012008D01*
X011338Y011922D01*
X011216Y011830D01*
X011099Y011732D01*
X010987Y011628D01*
X009986Y011528D02*
X009486Y012178D01*
X008986Y013078D01*
X007986Y013078D02*
X008486Y012178D01*
X008986Y011628D01*
X007986Y011528D02*
X007486Y012278D01*
X006986Y013078D01*
X006586Y012178D02*
X006986Y011628D01*
X006586Y012178D02*
X005986Y013078D01*
X004463Y012196D02*
X004502Y012128D01*
X004544Y012063D01*
X004589Y011999D01*
X004638Y011938D01*
X004689Y011879D01*
X004743Y011823D01*
X004800Y011770D01*
X004860Y011720D01*
X004922Y011673D01*
X004986Y011629D01*
X005386Y012278D02*
X005986Y011528D01*
X005386Y012278D02*
X004986Y013078D01*
X004385Y013574D01*
X004385Y013967D02*
X005097Y014479D01*
X005885Y014479D02*
X005885Y015178D01*
X005986Y016078D02*
X006486Y016778D01*
X006986Y016078D02*
X007486Y016778D01*
X007986Y016078D02*
X008486Y016878D01*
X008986Y016078D02*
X009486Y016778D01*
X004986Y017628D02*
X004821Y017427D01*
X004665Y017218D01*
X004520Y017001D01*
X004386Y016778D01*
X003986Y016078D01*
X004986Y016078D02*
X005486Y016778D01*
X006486Y016778D02*
X006625Y016982D01*
X006755Y017192D01*
X006875Y017408D01*
X006986Y017628D01*
X003986Y013078D02*
X004463Y012196D01*
X004857Y011054D02*
X004925Y011036D01*
X004994Y011022D01*
X005064Y011011D01*
X005134Y011004D01*
X005205Y010999D01*
X005276Y010998D01*
X005346Y011000D01*
X005417Y011006D01*
X005487Y011015D01*
X004857Y011054D02*
X004787Y011080D01*
X004718Y011110D01*
X004650Y011144D01*
X004585Y011180D01*
X004521Y011220D01*
X004460Y011264D01*
X004400Y011310D01*
X004343Y011359D01*
X004289Y011411D01*
X004237Y011466D01*
X004189Y011523D01*
X004143Y011582D01*
X004100Y011644D01*
X004060Y011708D01*
X004024Y011774D01*
X003991Y011841D01*
X003361Y012668D02*
X002873Y013078D01*
X006986Y010030D02*
X006875Y009810D01*
X006755Y009594D01*
X006625Y009384D01*
X006486Y009180D01*
X005986Y008480D01*
X005486Y009180D02*
X004986Y008480D01*
X004386Y009180D02*
X003986Y008480D01*
X005097Y006881D02*
X004385Y006369D01*
X004385Y005975D02*
X004986Y005480D01*
X005386Y004680D01*
X005986Y003930D01*
X006586Y004580D02*
X006986Y004030D01*
X006586Y004580D02*
X005986Y005480D01*
X004463Y004598D02*
X004502Y004530D01*
X004544Y004465D01*
X004589Y004401D01*
X004638Y004340D01*
X004689Y004281D01*
X004743Y004225D01*
X004800Y004172D01*
X004860Y004122D01*
X004922Y004075D01*
X004986Y004031D01*
X004463Y004597D02*
X003986Y005480D01*
X003361Y005070D02*
X002873Y005480D01*
X002773Y006480D02*
X002881Y006487D01*
X002989Y006488D01*
X003097Y006484D01*
X003205Y006474D01*
X003313Y006460D01*
X003419Y006440D01*
X003524Y006415D01*
X003628Y006385D01*
X003731Y006351D01*
X003831Y006311D01*
X003930Y006266D01*
X004027Y006217D01*
X004120Y006163D01*
X004212Y006105D01*
X004300Y006042D01*
X004385Y005976D01*
X004857Y003456D02*
X004925Y003438D01*
X004994Y003424D01*
X005064Y003413D01*
X005134Y003406D01*
X005205Y003401D01*
X005276Y003400D01*
X005346Y003402D01*
X005417Y003408D01*
X005487Y003417D01*
X004857Y003456D02*
X004787Y003482D01*
X004718Y003512D01*
X004650Y003546D01*
X004585Y003582D01*
X004521Y003622D01*
X004460Y003666D01*
X004400Y003712D01*
X004343Y003761D01*
X004289Y003813D01*
X004237Y003868D01*
X004189Y003925D01*
X004143Y003984D01*
X004100Y004046D01*
X004060Y004110D01*
X004024Y004176D01*
X003991Y004243D01*
X003945Y004337D01*
X003895Y004429D01*
X003841Y004519D01*
X003783Y004606D01*
X003722Y004691D01*
X003656Y004773D01*
X003587Y004852D01*
X003515Y004928D01*
X003439Y005000D01*
X003361Y005070D01*
X005885Y006881D02*
X005885Y007580D01*
X006986Y008480D02*
X007486Y009180D01*
X007986Y008480D02*
X008486Y009280D01*
X008986Y008480D02*
X009486Y009180D01*
X011586Y009380D02*
X012286Y008980D01*
X012986Y008480D01*
X014286Y008980D02*
X014986Y008480D01*
X015286Y008980D02*
X015986Y008480D01*
X016986Y008480D02*
X016668Y007038D01*
X017337Y006290D02*
X013558Y006290D01*
X013479Y006054D02*
X016904Y006054D01*
X016986Y005480D02*
X016904Y004676D01*
X017573Y005621D02*
X017550Y005668D01*
X017524Y005714D01*
X017494Y005757D01*
X017461Y005798D01*
X017426Y005837D01*
X017387Y005873D01*
X017346Y005907D01*
X017303Y005937D01*
X017258Y005964D01*
X017211Y005987D01*
X017162Y006008D01*
X017112Y006024D01*
X017061Y006037D01*
X017009Y006047D01*
X016957Y006052D01*
X016904Y006054D01*
X016491Y005739D02*
X016495Y005669D01*
X016494Y005599D01*
X016490Y005529D01*
X016482Y005460D01*
X016470Y005391D01*
X016454Y005323D01*
X016435Y005255D01*
X016411Y005189D01*
X016385Y005125D01*
X016354Y005062D01*
X016320Y005000D01*
X016283Y004941D01*
X016243Y004884D01*
X016199Y004829D01*
X016153Y004777D01*
X016103Y004727D01*
X016051Y004680D01*
X015997Y004636D01*
X015940Y004596D01*
X015881Y004558D01*
X016668Y003535D02*
X016662Y003514D01*
X016653Y003494D01*
X016641Y003475D01*
X016626Y003459D01*
X016610Y003444D01*
X016591Y003432D01*
X016571Y003423D01*
X016550Y003417D01*
X018283Y004519D02*
X018310Y004488D01*
X018339Y004461D01*
X018371Y004436D01*
X018406Y004414D01*
X018442Y004396D01*
X018479Y004381D01*
X018518Y004369D01*
X018557Y004361D01*
X018598Y004356D01*
X018638Y004355D01*
X018679Y004358D01*
X018719Y004364D01*
X018758Y004374D01*
X018796Y004388D01*
X018833Y004405D01*
X018868Y004425D01*
X018901Y004448D01*
X018932Y004474D01*
X018960Y004503D01*
X018986Y004535D01*
X019008Y004568D01*
X019028Y004604D01*
X019044Y004641D01*
X020491Y004263D01*
X020491Y005011D02*
X020452Y005582D01*
X020491Y006192D01*
X020491Y006940D02*
X019044Y006562D01*
X015881Y012157D02*
X015693Y012067D01*
X015509Y011970D01*
X015330Y011864D01*
X015155Y011750D01*
X014986Y011629D01*
X012986Y010030D02*
X013073Y009924D01*
X013164Y009822D01*
X013260Y009724D01*
X013361Y009631D01*
X013465Y009543D01*
X013574Y009459D01*
X013686Y009380D01*
X012986Y011628D02*
X013032Y011678D01*
X013080Y011726D01*
X013131Y011770D01*
X013185Y011813D01*
X013240Y011852D01*
X013297Y011889D01*
X013356Y011923D01*
X013416Y011953D01*
X013478Y011981D01*
X013542Y012005D01*
X013606Y012026D01*
X013672Y012044D01*
X013738Y012059D01*
X013805Y012070D01*
X013872Y012078D01*
X016668Y011133D02*
X016717Y011254D01*
X016761Y011377D01*
X016799Y011502D01*
X016832Y011628D01*
X016858Y011756D01*
X016878Y011885D01*
X016893Y012014D01*
X016902Y012144D01*
X016904Y012275D01*
X016668Y011133D02*
X016662Y011112D01*
X016653Y011092D01*
X016641Y011073D01*
X016626Y011057D01*
X016610Y011042D01*
X016591Y011030D01*
X016571Y011021D01*
X016550Y011015D01*
X017337Y006290D02*
X017530Y006287D01*
X017724Y006292D01*
X017916Y006306D01*
X018108Y006328D01*
X018299Y006358D01*
X018488Y006397D01*
X018676Y006444D01*
X018861Y006499D01*
X019043Y006562D01*
X008486Y016878D02*
X008731Y017257D01*
X008986Y017628D01*
X010986Y017628D02*
X011020Y017561D01*
X011057Y017496D01*
X011097Y017433D01*
X011140Y017372D01*
X011187Y017313D01*
X011236Y017257D01*
X011288Y017203D01*
X011343Y017152D01*
X011400Y017104D01*
X011460Y017059D01*
X011522Y017017D01*
X011586Y016978D01*
X013873Y012078D02*
X014217Y012116D01*
X014558Y012168D01*
X014897Y012235D01*
X015881Y012156D02*
X015940Y012194D01*
X015997Y012234D01*
X016051Y012278D01*
X016103Y012325D01*
X016153Y012375D01*
X016199Y012427D01*
X016243Y012482D01*
X016283Y012539D01*
X016320Y012598D01*
X016354Y012660D01*
X016385Y012723D01*
X016411Y012787D01*
X016435Y012853D01*
X016454Y012921D01*
X016470Y012989D01*
X016482Y013058D01*
X016490Y013127D01*
X016494Y013197D01*
X016495Y013267D01*
X016491Y013337D01*
X015762Y012786D02*
X015715Y012728D01*
X015666Y012672D01*
X015613Y012618D01*
X015558Y012568D01*
X015500Y012520D01*
X015440Y012475D01*
X015378Y012434D01*
X015314Y012395D01*
X015248Y012360D01*
X015180Y012328D01*
X015111Y012299D01*
X015041Y012274D01*
X014969Y012253D01*
X014896Y012235D01*
X013986Y013078D02*
X013519Y012747D01*
X014897Y004637D02*
X014558Y004570D01*
X014217Y004518D01*
X013873Y004480D01*
X016668Y003534D02*
X016717Y003655D01*
X016761Y003778D01*
X016799Y003903D01*
X016832Y004029D01*
X016858Y004157D01*
X016878Y004286D01*
X016893Y004415D01*
X016902Y004545D01*
X016904Y004676D01*
X015762Y005188D02*
X015715Y005130D01*
X015666Y005074D01*
X015613Y005020D01*
X015558Y004970D01*
X015500Y004922D01*
X015440Y004877D01*
X015378Y004836D01*
X015314Y004797D01*
X015248Y004762D01*
X015180Y004730D01*
X015111Y004701D01*
X015041Y004676D01*
X014969Y004655D01*
X014896Y004637D01*
X013986Y005480D02*
X013519Y005149D01*
X012986Y005480D02*
X012981Y005522D01*
X012980Y005565D01*
X012983Y005608D01*
X012989Y005651D01*
X012999Y005692D01*
X013013Y005733D01*
X013030Y005773D01*
X013050Y005810D01*
X013074Y005846D01*
X013100Y005880D01*
X013130Y005911D01*
X013162Y005940D01*
X013196Y005966D01*
X013232Y005989D01*
X013271Y006008D01*
X013310Y006025D01*
X013351Y006037D01*
X013393Y006047D01*
X013436Y006052D01*
X013479Y006054D01*
X014227Y004874D02*
X014281Y004886D01*
X014335Y004903D01*
X014387Y004922D01*
X014437Y004946D01*
X014486Y004972D01*
X014533Y005002D01*
X014578Y005034D01*
X014621Y005070D01*
X014662Y005108D01*
X014699Y005149D01*
X013558Y006290D02*
X013466Y006288D01*
X013375Y006281D01*
X013283Y006270D01*
X013193Y006255D01*
X013103Y006236D01*
X013015Y006212D01*
X012927Y006184D01*
X012841Y006152D01*
X012757Y006116D01*
X012674Y006076D01*
X012594Y006032D01*
X012515Y005984D01*
X012439Y005932D01*
X012366Y005877D01*
X012295Y005819D01*
X012227Y005757D01*
X012162Y005692D01*
X012100Y005624D01*
X012042Y005553D01*
X011987Y005480D01*
X012889Y004913D02*
X012956Y004921D01*
X013023Y004933D01*
X013090Y004949D01*
X013155Y004968D01*
X013219Y004990D01*
X013282Y005015D01*
X013344Y005044D01*
X013404Y005076D01*
X013462Y005111D01*
X013519Y005149D01*
X012928Y004637D02*
X012861Y004624D01*
X012795Y004607D01*
X012730Y004588D01*
X012666Y004564D01*
X012604Y004538D01*
X012543Y004508D01*
X012483Y004475D01*
X012426Y004438D01*
X012370Y004399D01*
X012317Y004357D01*
X012266Y004312D01*
X012218Y004264D01*
X012172Y004214D01*
X012129Y004161D01*
X012089Y004106D01*
X012051Y004049D01*
X012017Y003990D01*
X011986Y003930D01*
X009986Y003930D02*
X009486Y004580D01*
X008986Y005480D01*
X004386Y009180D02*
X004520Y009403D01*
X004665Y009620D01*
X004821Y009829D01*
X004986Y010030D01*
X004385Y013574D02*
X004300Y013640D01*
X004212Y013703D01*
X004120Y013761D01*
X004027Y013815D01*
X003930Y013864D01*
X003831Y013909D01*
X003731Y013949D01*
X003628Y013983D01*
X003524Y014013D01*
X003419Y014038D01*
X003313Y014058D01*
X003205Y014072D01*
X003097Y014082D01*
X002989Y014086D01*
X002881Y014085D01*
X002773Y014078D01*
X003361Y012669D02*
X003439Y012599D01*
X003515Y012527D01*
X003587Y012451D01*
X003656Y012372D01*
X003722Y012290D01*
X003783Y012205D01*
X003841Y012118D01*
X003895Y012028D01*
X003945Y011936D01*
X003991Y011842D01*
X009486Y009180D02*
X009742Y009551D01*
X009986Y009930D01*
X010986Y010030D02*
X011020Y009963D01*
X011057Y009898D01*
X011097Y009835D01*
X011140Y009774D01*
X011187Y009715D01*
X011236Y009659D01*
X011288Y009605D01*
X011343Y009554D01*
X011400Y009506D01*
X011460Y009461D01*
X011522Y009419D01*
X011586Y009380D01*
X011986Y011529D02*
X012017Y011589D01*
X012051Y011648D01*
X012089Y011705D01*
X012129Y011760D01*
X012172Y011813D01*
X012218Y011863D01*
X012266Y011911D01*
X012317Y011956D01*
X012370Y011998D01*
X012426Y012037D01*
X012483Y012074D01*
X012543Y012107D01*
X012604Y012137D01*
X012666Y012163D01*
X012730Y012187D01*
X012795Y012206D01*
X012861Y012223D01*
X012928Y012236D01*
X011987Y013078D02*
X012042Y013151D01*
X012100Y013222D01*
X012162Y013290D01*
X012227Y013355D01*
X012295Y013417D01*
X012366Y013475D01*
X012439Y013530D01*
X012515Y013582D01*
X012594Y013630D01*
X012674Y013674D01*
X012757Y013714D01*
X012841Y013750D01*
X012927Y013782D01*
X013015Y013810D01*
X013103Y013834D01*
X013193Y013853D01*
X013283Y013868D01*
X013375Y013879D01*
X013466Y013886D01*
X013558Y013888D01*
X013479Y013653D02*
X013436Y013651D01*
X013393Y013646D01*
X013351Y013636D01*
X013310Y013624D01*
X013271Y013607D01*
X013232Y013588D01*
X013196Y013565D01*
X013162Y013539D01*
X013130Y013510D01*
X013100Y013479D01*
X013074Y013445D01*
X013050Y013409D01*
X013030Y013372D01*
X013013Y013332D01*
X012999Y013291D01*
X012989Y013250D01*
X012983Y013207D01*
X012980Y013164D01*
X012981Y013121D01*
X012986Y013079D01*
X012889Y012511D02*
X012956Y012519D01*
X013023Y012531D01*
X013090Y012547D01*
X013155Y012566D01*
X013219Y012588D01*
X013282Y012613D01*
X013344Y012642D01*
X013404Y012674D01*
X013462Y012709D01*
X013519Y012747D01*
X014227Y012472D02*
X014281Y012484D01*
X014335Y012501D01*
X014387Y012520D01*
X014437Y012544D01*
X014486Y012570D01*
X014533Y012600D01*
X014578Y012632D01*
X014621Y012668D01*
X014662Y012706D01*
X014699Y012747D01*
X018283Y012117D02*
X018310Y012086D01*
X018339Y012059D01*
X018371Y012034D01*
X018406Y012012D01*
X018442Y011994D01*
X018479Y011979D01*
X018518Y011967D01*
X018557Y011959D01*
X018598Y011954D01*
X018638Y011953D01*
X018679Y011956D01*
X018719Y011962D01*
X018758Y011972D01*
X018796Y011986D01*
X018833Y012003D01*
X018868Y012023D01*
X018901Y012046D01*
X018932Y012072D01*
X018960Y012101D01*
X018986Y012133D01*
X019008Y012166D01*
X019028Y012202D01*
X019044Y012239D01*
X020491Y011861D01*
X020491Y012609D02*
X020452Y013180D01*
X020491Y013790D01*
X020491Y014538D02*
X019044Y014160D01*
X019043Y014161D02*
X018861Y014098D01*
X018676Y014043D01*
X018488Y013996D01*
X018299Y013957D01*
X018108Y013927D01*
X017916Y013905D01*
X017724Y013891D01*
X017530Y013886D01*
X017337Y013889D01*
X013686Y016978D02*
X013574Y017057D01*
X013465Y017141D01*
X013361Y017229D01*
X013260Y017322D01*
X013164Y017420D01*
X013073Y017522D01*
X012986Y017628D01*
X012686Y016978D02*
X012503Y017105D01*
X012325Y017239D01*
X012153Y017380D01*
X011986Y017528D01*
X014227Y004873D02*
X012928Y004637D01*
X012986Y004030D02*
X013032Y004080D01*
X013080Y004128D01*
X013131Y004172D01*
X013185Y004215D01*
X013240Y004254D01*
X013297Y004291D01*
X013356Y004325D01*
X013416Y004355D01*
X013478Y004383D01*
X013542Y004407D01*
X013606Y004428D01*
X013672Y004446D01*
X013738Y004461D01*
X013805Y004472D01*
X013872Y004480D01*
X012889Y004913D02*
X012738Y004894D01*
X012587Y004868D01*
X012438Y004834D01*
X012291Y004794D01*
X012146Y004747D01*
X012003Y004692D01*
X011864Y004632D01*
X011727Y004564D01*
X011593Y004490D01*
X011463Y004410D01*
X011338Y004324D01*
X011216Y004232D01*
X011099Y004134D01*
X010987Y004030D01*
X008986Y004030D02*
X008486Y004580D01*
X007986Y005480D01*
X007486Y004680D02*
X007986Y003930D01*
X007486Y004680D02*
X006986Y005480D01*
X017573Y005621D02*
X018282Y004518D01*
X008986Y010030D02*
X008731Y009659D01*
X008486Y009280D01*
X007986Y009930D02*
X007742Y009551D01*
X007486Y009180D01*
X005986Y009930D02*
X005742Y009551D01*
X005486Y009180D01*
X014986Y004030D02*
X015155Y004151D01*
X015330Y004265D01*
X015509Y004371D01*
X015693Y004468D01*
X015881Y004558D01*
X009486Y016778D02*
X009742Y017149D01*
X009986Y017528D01*
X012928Y012235D02*
X014227Y012471D01*
X007486Y016778D02*
X007742Y017149D01*
X007986Y017528D01*
X005986Y017528D02*
X005742Y017149D01*
X005486Y016778D01*
X013987Y009931D02*
X015287Y008981D01*
X015287Y016579D02*
X013987Y017529D01*
D20*
X014986Y018098D02*
X014997Y018117D01*
X015011Y018135D01*
X015027Y018150D01*
X015045Y018162D01*
X015065Y018172D01*
X015086Y018178D01*
X020526Y018180D01*
X021363Y016820D01*
X021764Y016811D02*
X019144Y016811D01*
X019144Y016678D02*
X019144Y016978D01*
X019644Y017178D01*
X020491Y017550D01*
X020491Y017865D01*
X019841Y018178D01*
X021730Y018178D01*
X021764Y018145D01*
X021764Y013112D01*
X021044Y013112D01*
X021044Y015257D01*
X020244Y015257D01*
X019746Y015682D01*
X019746Y016482D01*
X019144Y016678D01*
X019223Y016653D02*
X021764Y016653D01*
X021764Y016494D02*
X019710Y016494D01*
X019746Y016336D02*
X021764Y016336D01*
X021764Y016177D02*
X019746Y016177D01*
X019746Y016019D02*
X021764Y016019D01*
X021764Y015860D02*
X019746Y015860D01*
X019746Y015702D02*
X021764Y015702D01*
X021764Y015543D02*
X019909Y015543D01*
X019936Y015542D02*
X019030Y015542D01*
X020095Y015385D02*
X021764Y015385D01*
X021764Y015226D02*
X021044Y015226D01*
X021044Y015068D02*
X021764Y015068D01*
X021764Y014909D02*
X021044Y014909D01*
X021044Y014751D02*
X021764Y014751D01*
X021764Y014592D02*
X021044Y014592D01*
X021044Y014434D02*
X021764Y014434D01*
X021764Y014275D02*
X021044Y014275D01*
X021044Y014117D02*
X021764Y014117D01*
X021764Y013958D02*
X021044Y013958D01*
X021044Y013800D02*
X021764Y013800D01*
X021764Y013641D02*
X021044Y013641D01*
X021044Y013483D02*
X021764Y013483D01*
X021764Y013324D02*
X021044Y013324D01*
X021044Y013166D02*
X021764Y013166D01*
X020841Y015306D02*
X020251Y016802D01*
X019890Y017287D02*
X021764Y017287D01*
X021764Y017445D02*
X020252Y017445D01*
X020491Y017604D02*
X021764Y017604D01*
X021764Y017762D02*
X020491Y017762D01*
X020376Y017921D02*
X021764Y017921D01*
X021764Y018079D02*
X020047Y018079D01*
X019518Y017128D02*
X021764Y017128D01*
X021764Y016970D02*
X019144Y016970D01*
X019030Y015542D02*
X018967Y015540D01*
X018903Y015535D01*
X018841Y015526D01*
X018778Y015513D01*
X018717Y015497D01*
X018657Y015478D01*
X018598Y015455D01*
X018540Y015429D01*
X018484Y015399D01*
X018429Y015366D01*
X018377Y015331D01*
X018327Y015292D01*
X018279Y015251D01*
X018233Y015207D01*
X018190Y015160D01*
X018150Y015111D01*
X018112Y015060D01*
X018078Y015007D01*
X018046Y014952D01*
X018011Y014889D01*
X017972Y014828D01*
X017929Y014769D01*
X017884Y014713D01*
X017835Y014659D01*
X017784Y014608D01*
X017730Y014560D01*
X017674Y014515D01*
X017615Y014473D01*
X017554Y014434D01*
X017491Y014398D01*
X017426Y014366D01*
X017360Y014338D01*
X017292Y014313D01*
X017222Y014292D01*
X017152Y014274D01*
X017081Y014261D01*
X017009Y014251D01*
X016937Y014245D01*
X016865Y014243D01*
X012101Y014243D01*
X011908Y014261D01*
X009349Y015188D01*
X009349Y014482D01*
X009986Y013078D01*
X008562Y014482D02*
X008089Y014482D01*
X007866Y015178D02*
X009349Y015188D01*
X007866Y015178D02*
X005885Y015178D01*
X003486Y015178D01*
X003440Y015188D01*
X002873Y015078D01*
X003440Y007589D02*
X002873Y007480D01*
X003440Y007589D02*
X003486Y007580D01*
X005885Y007580D01*
X007866Y007580D01*
X009349Y007589D01*
X011908Y006663D01*
X012101Y006645D01*
X016865Y006645D01*
X016865Y006644D02*
X016937Y006646D01*
X017009Y006652D01*
X017081Y006662D01*
X017152Y006675D01*
X017222Y006693D01*
X017292Y006714D01*
X017360Y006739D01*
X017426Y006767D01*
X017491Y006799D01*
X017554Y006835D01*
X017615Y006874D01*
X017674Y006916D01*
X017730Y006961D01*
X017784Y007009D01*
X017835Y007060D01*
X017884Y007114D01*
X017929Y007170D01*
X017972Y007229D01*
X018011Y007290D01*
X018046Y007353D01*
X018078Y007408D01*
X018112Y007461D01*
X018150Y007512D01*
X018190Y007561D01*
X018233Y007608D01*
X018279Y007652D01*
X018327Y007693D01*
X018377Y007732D01*
X018429Y007767D01*
X018484Y007800D01*
X018540Y007830D01*
X018598Y007856D01*
X018657Y007879D01*
X018717Y007898D01*
X018778Y007914D01*
X018841Y007927D01*
X018903Y007936D01*
X018967Y007941D01*
X019030Y007943D01*
X019030Y007944D02*
X019936Y007944D01*
X019920Y007935D02*
X021764Y007935D01*
X021764Y007777D02*
X020106Y007777D01*
X020244Y007659D02*
X019746Y008084D01*
X019746Y008884D01*
X019144Y009080D01*
X019144Y009380D01*
X019644Y009580D01*
X020491Y009952D01*
X020491Y010267D01*
X019841Y010580D01*
X021730Y010580D01*
X021764Y010546D01*
X021764Y005514D01*
X021044Y005514D01*
X021044Y007659D01*
X020244Y007659D01*
X020841Y007708D02*
X020251Y009204D01*
X019740Y008886D02*
X021764Y008886D01*
X021764Y008728D02*
X019746Y008728D01*
X019746Y008569D02*
X021764Y008569D01*
X021764Y008411D02*
X019746Y008411D01*
X019746Y008252D02*
X021764Y008252D01*
X021764Y008094D02*
X019746Y008094D01*
X019253Y009045D02*
X021764Y009045D01*
X021764Y009203D02*
X019144Y009203D01*
X019144Y009362D02*
X021764Y009362D01*
X021764Y009520D02*
X019494Y009520D01*
X019868Y009679D02*
X021764Y009679D01*
X021764Y009837D02*
X020230Y009837D01*
X020491Y009996D02*
X021764Y009996D01*
X021764Y010154D02*
X020491Y010154D01*
X020396Y010313D02*
X021764Y010313D01*
X021764Y010471D02*
X020067Y010471D01*
X020526Y010582D02*
X021363Y009222D01*
X020526Y010582D02*
X015086Y010580D01*
X015065Y010574D01*
X015045Y010564D01*
X015027Y010552D01*
X015011Y010537D01*
X014997Y010519D01*
X014986Y010500D01*
X011986Y008480D02*
X011987Y007135D01*
X011908Y006663D01*
X012774Y007135D02*
X013268Y007174D01*
X011986Y008480D02*
X010986Y008480D01*
X009349Y007589D02*
X009349Y006884D01*
X009986Y005480D01*
X008562Y006884D02*
X008089Y006884D01*
X011908Y014261D02*
X011987Y014734D01*
X011986Y016078D01*
X010986Y016078D01*
X012774Y014734D02*
X013268Y014773D01*
X021044Y007618D02*
X021764Y007618D01*
X021764Y007460D02*
X021044Y007460D01*
X021044Y007301D02*
X021764Y007301D01*
X021764Y007143D02*
X021044Y007143D01*
X021044Y006984D02*
X021764Y006984D01*
X021764Y006826D02*
X021044Y006826D01*
X021044Y006667D02*
X021764Y006667D01*
X021764Y006509D02*
X021044Y006509D01*
X021044Y006350D02*
X021764Y006350D01*
X021764Y006192D02*
X021044Y006192D01*
X021044Y006033D02*
X021764Y006033D01*
X021764Y005875D02*
X021044Y005875D01*
X021044Y005716D02*
X021764Y005716D01*
X021764Y005558D02*
X021044Y005558D01*
D21*
X019041Y008316D02*
X018286Y008613D01*
X017893Y008693D01*
X019041Y010127D02*
X019861Y010109D01*
X014986Y010030D02*
X014986Y010500D01*
X018286Y016211D02*
X019041Y015915D01*
X018286Y016211D02*
X017893Y016292D01*
X019041Y017726D02*
X019861Y017708D01*
X014986Y017628D02*
X014986Y018098D01*
D22*
X017893Y017551D02*
X018084Y017686D01*
X019041Y017726D01*
X021437Y012089D02*
X021430Y012065D01*
X021430Y011450D01*
X019041Y010127D02*
X018084Y010088D01*
X017893Y009953D01*
X021437Y004491D02*
X021430Y004467D01*
X021430Y003852D01*
D23*
X021430Y003852D03*
X020452Y005582D03*
X019861Y010109D03*
X021430Y011450D03*
X020452Y013180D03*
X019861Y017708D03*
X013268Y014773D03*
X008089Y014482D03*
X013268Y007174D03*
X008089Y006884D03*
D24*
X016747Y009518D02*
X016926Y009425D01*
X017102Y009323D01*
X017272Y009212D01*
X017436Y009094D01*
X017595Y008967D01*
X017747Y008834D01*
X017893Y008693D01*
X016747Y009519D02*
X015986Y009930D01*
X017893Y016292D02*
X017747Y016433D01*
X017595Y016566D01*
X017436Y016693D01*
X017272Y016811D01*
X017102Y016922D01*
X016926Y017024D01*
X016747Y017117D01*
X015986Y017528D01*
D25*
X015986Y013078D02*
X015763Y012786D01*
X014986Y013078D02*
X014700Y012747D01*
X014986Y005480D02*
X014700Y005149D01*
X015763Y005188D02*
X015986Y005480D01*
D26*
X016491Y005739D03*
X016668Y007038D03*
X016550Y003416D03*
X016550Y011015D03*
X016491Y013337D03*
X016668Y014637D03*
X005487Y011015D03*
X004385Y013967D03*
X004385Y006369D03*
X005487Y003416D03*
M02*
