%
M48
M72
T01C0.0120
T02C0.0236
T03C0.0276
T04C0.0320
T05C0.0400
%
T01
X5487Y3416
X4385Y6369
X5487Y11015
X4385Y13967
X16491Y13337
X16668Y14637
X16550Y11015
X16668Y7038
X16491Y5739
X16550Y3416
T02
X20452Y5582
X21430Y3852
X19861Y10109
X21430Y11450
X20452Y13180
X19861Y17708
X13268Y14773
X8089Y14482
X13268Y7174
X8089Y6884
T03
X19044Y6562
X19044Y4641
X19044Y12239
X19044Y14160
T04
X16986Y13078
X15986Y13078
X14986Y13078
X13986Y13078
X12986Y13078
X11986Y13078
X10986Y13078
X9986Y13078
X8986Y13078
X7986Y13078
X6986Y13078
X5986Y13078
X4986Y13078
X3986Y13078
X3986Y16078
X4986Y16078
X5986Y16078
X6986Y16078
X7986Y16078
X8986Y16078
X9986Y16078
X10986Y16078
X11986Y16078
X12986Y16078
X13986Y16078
X14986Y16078
X15986Y16078
X16986Y16078
X16986Y8480
X15986Y8480
X14986Y8480
X13986Y8480
X12986Y8480
X11986Y8480
X10986Y8480
X9986Y8480
X8986Y8480
X7986Y8480
X6986Y8480
X5986Y8480
X4986Y8480
X3986Y8480
X3986Y5480
X4986Y5480
X5986Y5480
X6986Y5480
X7986Y5480
X8986Y5480
X9986Y5480
X10986Y5480
X11986Y5480
X12986Y5480
X13986Y5480
X14986Y5480
X15986Y5480
X16986Y5480
T05
X2773Y4480
X2873Y5480
X2773Y6480
X2873Y7480
X2773Y8480
X2873Y9480
X4986Y10030
X5986Y9930
X6986Y10030
X7986Y9930
X8986Y10030
X9986Y9930
X10986Y10030
X11986Y9930
X12986Y10030
X13986Y9930
X14986Y10030
X15986Y9930
X15986Y11528
X14986Y11628
X13986Y11528
X12986Y11628
X11986Y11528
X10986Y11628
X9986Y11528
X8986Y11628
X7986Y11528
X6986Y11628
X5986Y11528
X4986Y11628
X2773Y12078
X2873Y13078
X2773Y14078
X2873Y15078
X2773Y16078
X2873Y17078
X4986Y17628
X5986Y17528
X6986Y17628
X7986Y17528
X8986Y17628
X9986Y17528
X10986Y17628
X11986Y17528
X12986Y17628
X13986Y17528
X14986Y17628
X15986Y17528
X14986Y4030
X13986Y3930
X12986Y4030
X11986Y3930
X10986Y4030
X9986Y3930
X8986Y4030
X7986Y3930
X6986Y4030
X5986Y3930
X4986Y4030
X15986Y3930
M30
