G75*
G70*
%OFA0B0*%
%FSLAX24Y24*%
%IPPOS*%
%LPD*%
%AMOC8*
5,1,8,0,0,1.08239X$1,22.5*
%
%ADD10C,0.0000*%
%ADD11C,0.0591*%
%ADD12C,0.0660*%
%ADD13C,0.0740*%
%ADD14C,0.0356*%
%ADD15C,0.0160*%
%ADD16C,0.0100*%
%ADD17C,0.0240*%
D10*
X002416Y003180D02*
X002416Y003180D01*
X002259Y003337D01*
X002259Y003338D02*
X002259Y010621D01*
X002416Y010778D01*
X002259Y010936D01*
X002259Y010937D02*
X002259Y018219D01*
X002416Y018377D01*
X021786Y018377D01*
X021944Y018219D01*
X021944Y010936D01*
X021786Y010778D01*
X021944Y010621D01*
X021944Y003337D01*
X021944Y003337D01*
X021786Y003180D01*
X021785Y003180D02*
X002416Y003180D01*
X002416Y010778D02*
X002416Y010778D01*
X021944Y010935D02*
X021944Y010936D01*
D11*
X016986Y013078D03*
X015986Y013078D03*
X014986Y013078D03*
X013986Y013078D03*
X012986Y013078D03*
X011986Y013078D03*
X010986Y013078D03*
X009986Y013078D03*
X008986Y013078D03*
X007986Y013078D03*
X006986Y013078D03*
X005986Y013078D03*
X004986Y013078D03*
X003986Y013078D03*
X003986Y016078D03*
X004986Y016078D03*
X005986Y016078D03*
X006986Y016078D03*
X007986Y016078D03*
X008986Y016078D03*
X009986Y016078D03*
X010986Y016078D03*
X011986Y016078D03*
X012986Y016078D03*
X013986Y016078D03*
X014986Y016078D03*
X015986Y016078D03*
X016986Y016078D03*
X016986Y008480D03*
X015986Y008480D03*
X014986Y008480D03*
X013986Y008480D03*
X012986Y008480D03*
X011986Y008480D03*
X010986Y008480D03*
X009986Y008480D03*
X008986Y008480D03*
X007986Y008480D03*
X006986Y008480D03*
X005986Y008480D03*
X004986Y008480D03*
X003986Y008480D03*
X003986Y005480D03*
X004986Y005480D03*
X005986Y005480D03*
X006986Y005480D03*
X007986Y005480D03*
X008986Y005480D03*
X009986Y005480D03*
X010986Y005480D03*
X011986Y005480D03*
X012986Y005480D03*
X013986Y005480D03*
X014986Y005480D03*
X015986Y005480D03*
X016986Y005480D03*
D12*
X019044Y004641D03*
X019044Y006562D03*
X019044Y012239D03*
X019044Y014160D03*
D13*
X015986Y011528D03*
X014986Y011628D03*
X013986Y011528D03*
X012986Y011628D03*
X011986Y011528D03*
X010986Y011628D03*
X009986Y011528D03*
X008986Y011628D03*
X007986Y011528D03*
X006986Y011628D03*
X005986Y011528D03*
X004986Y011628D03*
X004986Y010030D03*
X005986Y009930D03*
X006986Y010030D03*
X007986Y009930D03*
X008986Y010030D03*
X009986Y009930D03*
X010986Y010030D03*
X011986Y009930D03*
X012986Y010030D03*
X013986Y009930D03*
X014986Y010030D03*
X015986Y009930D03*
X014986Y004030D03*
X013986Y003930D03*
X012986Y004030D03*
X011986Y003930D03*
X010986Y004030D03*
X009986Y003930D03*
X008986Y004030D03*
X007986Y003930D03*
X006986Y004030D03*
X005986Y003930D03*
X004986Y004030D03*
X002773Y004480D03*
X002873Y005480D03*
X002773Y006480D03*
X002873Y007480D03*
X002773Y008480D03*
X002873Y009480D03*
X002773Y012078D03*
X002873Y013078D03*
X002773Y014078D03*
X002873Y015078D03*
X002773Y016078D03*
X002873Y017078D03*
X004986Y017628D03*
X005986Y017528D03*
X006986Y017628D03*
X007986Y017528D03*
X008986Y017628D03*
X009986Y017528D03*
X010986Y017628D03*
X011986Y017528D03*
X012986Y017628D03*
X013986Y017528D03*
X014986Y017628D03*
X015986Y017528D03*
X015986Y003930D03*
D14*
X013268Y007174D03*
X008089Y006884D03*
X008089Y014482D03*
X013268Y014773D03*
X019861Y017708D03*
X020452Y013180D03*
X021430Y011450D03*
X019861Y010109D03*
X020452Y005582D03*
X021430Y003852D03*
D15*
X000259Y000180D02*
X000180Y019593D01*
X026680Y019593D01*
X026759Y000180D01*
X000259Y000180D01*
X000258Y000327D02*
X026758Y000327D01*
X026758Y000485D02*
X000258Y000485D01*
X000257Y000644D02*
X026757Y000644D01*
X026756Y000802D02*
X000256Y000802D01*
X000256Y000961D02*
X026756Y000961D01*
X026755Y001119D02*
X000255Y001119D01*
X000254Y001278D02*
X026754Y001278D01*
X026754Y001436D02*
X000254Y001436D01*
X000253Y001595D02*
X026753Y001595D01*
X026752Y001753D02*
X000252Y001753D01*
X000252Y001912D02*
X026752Y001912D01*
X026751Y002070D02*
X000251Y002070D01*
X000250Y002229D02*
X026750Y002229D01*
X026750Y002387D02*
X000250Y002387D01*
X000249Y002546D02*
X026749Y002546D01*
X026749Y002704D02*
X000249Y002704D01*
X000248Y002863D02*
X026748Y002863D01*
X026747Y003021D02*
X021882Y003021D01*
X021861Y003000D02*
X022018Y003157D01*
X022124Y003262D01*
X022124Y010696D01*
X022041Y010778D01*
X022124Y010861D01*
X022124Y018294D01*
X021966Y018451D01*
X021861Y018557D01*
X002342Y018557D01*
X002236Y018451D01*
X002184Y018399D01*
X002139Y018354D01*
X002079Y018294D01*
X002079Y018294D01*
X002079Y018294D01*
X002139Y018354D01*
X002184Y018399D01*
X002184Y018399D01*
X002184Y018399D01*
X002236Y018451D01*
X002236Y018451D01*
X002236Y018451D01*
X002342Y018557D01*
X021861Y018557D01*
X021966Y018451D01*
X022124Y018294D01*
X022124Y010861D01*
X022041Y010778D01*
X022124Y010696D01*
X022124Y007778D01*
X026759Y007778D01*
X026680Y027192D01*
X000180Y027192D01*
X000259Y007778D01*
X002079Y007778D01*
X002079Y010546D01*
X002079Y010546D01*
X002079Y003412D01*
X002079Y003263D01*
X002236Y003106D01*
X002236Y003105D01*
X002341Y003000D01*
X021861Y003000D01*
X022018Y003157D02*
X022018Y003157D01*
X022042Y003180D02*
X026747Y003180D01*
X026746Y003339D02*
X022124Y003339D01*
X022124Y003497D02*
X026745Y003497D01*
X026745Y003656D02*
X022124Y003656D01*
X022124Y003814D02*
X026744Y003814D01*
X026743Y003973D02*
X022124Y003973D01*
X022124Y004131D02*
X026743Y004131D01*
X026742Y004290D02*
X022124Y004290D01*
X022124Y004448D02*
X026741Y004448D01*
X026741Y004607D02*
X022124Y004607D01*
X022124Y004765D02*
X026740Y004765D01*
X026740Y004924D02*
X022124Y004924D01*
X022124Y005082D02*
X026739Y005082D01*
X026738Y005241D02*
X022124Y005241D01*
X022124Y005399D02*
X026738Y005399D01*
X026737Y005558D02*
X022124Y005558D01*
X022124Y005716D02*
X026736Y005716D01*
X026736Y005875D02*
X022124Y005875D01*
X022124Y006033D02*
X026735Y006033D01*
X026734Y006192D02*
X022124Y006192D01*
X022124Y006350D02*
X026734Y006350D01*
X026733Y006509D02*
X022124Y006509D01*
X022124Y006667D02*
X026732Y006667D01*
X026732Y006826D02*
X022124Y006826D01*
X022124Y006984D02*
X026731Y006984D01*
X026730Y007143D02*
X022124Y007143D01*
X022124Y007301D02*
X026730Y007301D01*
X026729Y007460D02*
X022124Y007460D01*
X022124Y007618D02*
X026729Y007618D01*
X026728Y007777D02*
X022124Y007777D01*
X022124Y007935D02*
X026758Y007935D01*
X026727Y007935D02*
X022124Y007935D01*
X022124Y008094D02*
X026757Y008094D01*
X026727Y008094D02*
X022124Y008094D01*
X022124Y008252D02*
X026757Y008252D01*
X026726Y008252D02*
X022124Y008252D01*
X022124Y008411D02*
X026756Y008411D01*
X026725Y008411D02*
X022124Y008411D01*
X022124Y008569D02*
X026756Y008569D01*
X026725Y008569D02*
X022124Y008569D01*
X022124Y008728D02*
X026755Y008728D01*
X026724Y008728D02*
X022124Y008728D01*
X022124Y008886D02*
X026754Y008886D01*
X026723Y008886D02*
X022124Y008886D01*
X022124Y009045D02*
X026754Y009045D01*
X026723Y009045D02*
X022124Y009045D01*
X022124Y009203D02*
X026753Y009203D01*
X026722Y009203D02*
X022124Y009203D01*
X022124Y009362D02*
X026752Y009362D01*
X026721Y009362D02*
X022124Y009362D01*
X022124Y009520D02*
X026752Y009520D01*
X026721Y009520D02*
X022124Y009520D01*
X022124Y009679D02*
X026751Y009679D01*
X026720Y009679D02*
X022124Y009679D01*
X022124Y009837D02*
X026750Y009837D01*
X026720Y009837D02*
X022124Y009837D01*
X022124Y009996D02*
X026750Y009996D01*
X026719Y009996D02*
X022124Y009996D01*
X022124Y010154D02*
X026749Y010154D01*
X026718Y010154D02*
X022124Y010154D01*
X022124Y010313D02*
X026748Y010313D01*
X026718Y010313D02*
X022124Y010313D01*
X022124Y010471D02*
X026748Y010471D01*
X026717Y010471D02*
X022124Y010471D01*
X022124Y010630D02*
X026747Y010630D01*
X026716Y010630D02*
X022124Y010630D01*
X022051Y010788D02*
X026747Y010788D01*
X026716Y010788D02*
X022051Y010788D01*
X022124Y010947D02*
X026746Y010947D01*
X026715Y010947D02*
X022124Y010947D01*
X022124Y011105D02*
X026745Y011105D01*
X026714Y011105D02*
X022124Y011105D01*
X022124Y011264D02*
X026745Y011264D01*
X026714Y011264D02*
X022124Y011264D01*
X022124Y011422D02*
X026744Y011422D01*
X026713Y011422D02*
X022124Y011422D01*
X022124Y011581D02*
X026743Y011581D01*
X026712Y011581D02*
X022124Y011581D01*
X022124Y011739D02*
X026743Y011739D01*
X026712Y011739D02*
X022124Y011739D01*
X022124Y011898D02*
X026742Y011898D01*
X026711Y011898D02*
X022124Y011898D01*
X022124Y012056D02*
X026741Y012056D01*
X026711Y012056D02*
X022124Y012056D01*
X022124Y012215D02*
X026741Y012215D01*
X026710Y012215D02*
X022124Y012215D01*
X022124Y012373D02*
X026740Y012373D01*
X026709Y012373D02*
X022124Y012373D01*
X022124Y012532D02*
X026739Y012532D01*
X026709Y012532D02*
X022124Y012532D01*
X022124Y012690D02*
X026739Y012690D01*
X026708Y012690D02*
X022124Y012690D01*
X022124Y012849D02*
X026738Y012849D01*
X026707Y012849D02*
X022124Y012849D01*
X022124Y013007D02*
X026738Y013007D01*
X026707Y013007D02*
X022124Y013007D01*
X022124Y013166D02*
X026737Y013166D01*
X026706Y013166D02*
X022124Y013166D01*
X022124Y013324D02*
X026736Y013324D01*
X026705Y013324D02*
X022124Y013324D01*
X022124Y013483D02*
X026736Y013483D01*
X026705Y013483D02*
X022124Y013483D01*
X022124Y013641D02*
X026735Y013641D01*
X026704Y013641D02*
X022124Y013641D01*
X022124Y013800D02*
X026734Y013800D01*
X026703Y013800D02*
X022124Y013800D01*
X022124Y013958D02*
X026734Y013958D01*
X026703Y013958D02*
X022124Y013958D01*
X022124Y014117D02*
X026733Y014117D01*
X026702Y014117D02*
X022124Y014117D01*
X022124Y014275D02*
X026732Y014275D01*
X026702Y014275D02*
X022124Y014275D01*
X022124Y014434D02*
X026732Y014434D01*
X026701Y014434D02*
X022124Y014434D01*
X022124Y014592D02*
X026731Y014592D01*
X026700Y014592D02*
X022124Y014592D01*
X022124Y014751D02*
X026730Y014751D01*
X026700Y014751D02*
X022124Y014751D01*
X022124Y014909D02*
X026730Y014909D01*
X026699Y014909D02*
X022124Y014909D01*
X022124Y015068D02*
X026729Y015068D01*
X026698Y015068D02*
X022124Y015068D01*
X022124Y015226D02*
X026729Y015226D01*
X026698Y015226D02*
X022124Y015226D01*
X022124Y015385D02*
X026728Y015385D01*
X026697Y015385D02*
X022124Y015385D01*
X022124Y015543D02*
X026727Y015543D01*
X026696Y015543D02*
X022124Y015543D01*
X022124Y015702D02*
X026727Y015702D01*
X026696Y015702D02*
X022124Y015702D01*
X022124Y015860D02*
X026726Y015860D01*
X026695Y015860D02*
X022124Y015860D01*
X022124Y016019D02*
X026725Y016019D01*
X026694Y016019D02*
X022124Y016019D01*
X022124Y016177D02*
X026725Y016177D01*
X026694Y016177D02*
X022124Y016177D01*
X022124Y016336D02*
X026724Y016336D01*
X026693Y016336D02*
X022124Y016336D01*
X022124Y016494D02*
X026723Y016494D01*
X026693Y016494D02*
X022124Y016494D01*
X022124Y016653D02*
X026723Y016653D01*
X026692Y016653D02*
X022124Y016653D01*
X022124Y016811D02*
X026722Y016811D01*
X026691Y016811D02*
X022124Y016811D01*
X022124Y016970D02*
X026721Y016970D01*
X026691Y016970D02*
X022124Y016970D01*
X022124Y017128D02*
X026721Y017128D01*
X026690Y017128D02*
X022124Y017128D01*
X022124Y017287D02*
X026720Y017287D01*
X026689Y017287D02*
X022124Y017287D01*
X022124Y017445D02*
X026720Y017445D01*
X026689Y017445D02*
X022124Y017445D01*
X022124Y017604D02*
X026719Y017604D01*
X026688Y017604D02*
X022124Y017604D01*
X022124Y017762D02*
X026718Y017762D01*
X026687Y017762D02*
X022124Y017762D01*
X022124Y017921D02*
X026718Y017921D01*
X026687Y017921D02*
X022124Y017921D01*
X022124Y018079D02*
X026717Y018079D01*
X026686Y018079D02*
X022124Y018079D01*
X022124Y018238D02*
X026716Y018238D01*
X026685Y018238D02*
X022124Y018238D01*
X022022Y018396D02*
X026716Y018396D01*
X026685Y018396D02*
X022022Y018396D01*
X021863Y018555D02*
X026715Y018555D01*
X026684Y018555D02*
X021863Y018555D01*
X021712Y018197D02*
X021764Y018145D01*
X021764Y011010D01*
X021606Y010853D01*
X021606Y010704D01*
X021712Y010598D01*
X021764Y010546D01*
X021764Y007778D01*
X003344Y007778D01*
X003339Y007792D01*
X003184Y007946D01*
X003053Y008001D01*
X003084Y008014D01*
X003239Y008168D01*
X003323Y008371D01*
X003323Y008589D01*
X003239Y008792D01*
X003084Y008946D01*
X003053Y008959D01*
X003184Y009014D01*
X003339Y009168D01*
X003423Y009371D01*
X003423Y009589D01*
X003339Y009792D01*
X003184Y009946D01*
X002982Y010030D01*
X002763Y010030D01*
X002561Y009946D01*
X002439Y009824D01*
X002439Y010546D01*
X002491Y010598D01*
X002596Y010704D01*
X002596Y010853D01*
X002439Y011010D01*
X002439Y011634D01*
X002461Y011612D01*
X002663Y011528D01*
X002882Y011528D01*
X003084Y011612D01*
X003239Y011767D01*
X003323Y011969D01*
X003323Y012188D01*
X003308Y012222D01*
X003811Y012636D01*
X003892Y012603D01*
X004081Y012603D01*
X004256Y012676D01*
X004389Y012809D01*
X004462Y012984D01*
X004462Y013173D01*
X004389Y013348D01*
X004368Y013369D01*
X004516Y013697D01*
X004555Y013713D01*
X004639Y013797D01*
X004685Y013908D01*
X004685Y014027D01*
X004639Y014137D01*
X004555Y014222D01*
X004444Y014267D01*
X004325Y014267D01*
X004215Y014222D01*
X004130Y014137D01*
X004085Y014027D01*
X004085Y013908D01*
X004095Y013883D01*
X003947Y013554D01*
X003892Y013554D01*
X003717Y013481D01*
X003583Y013348D01*
X003511Y013173D01*
X003511Y012985D01*
X003387Y012882D01*
X003423Y012969D01*
X003423Y013188D01*
X003339Y013390D01*
X003184Y013545D01*
X003053Y013599D01*
X003084Y013612D01*
X003239Y013767D01*
X003323Y013969D01*
X003323Y014188D01*
X003239Y014390D01*
X003084Y014545D01*
X003053Y014558D01*
X003184Y014612D01*
X003339Y014767D01*
X003423Y014969D01*
X003423Y015188D01*
X003339Y015390D01*
X003184Y015545D01*
X002982Y015628D01*
X002763Y015628D01*
X002561Y015545D01*
X002439Y015423D01*
X002439Y018145D01*
X002491Y018197D01*
X021712Y018197D01*
X021764Y018145D01*
X021764Y011581D01*
X021734Y011653D01*
X021633Y011754D01*
X021502Y011808D01*
X021359Y011808D01*
X021228Y011754D01*
X021127Y011653D01*
X021072Y011521D01*
X021072Y011379D01*
X021127Y011247D01*
X021228Y011146D01*
X021359Y011092D01*
X021502Y011092D01*
X021633Y011146D01*
X021734Y011247D01*
X021764Y011319D01*
X021764Y011010D01*
X021606Y010853D01*
X021606Y010704D01*
X021712Y010598D01*
X021712Y010598D01*
X021764Y010546D01*
X021764Y003412D01*
X021712Y003360D01*
X016850Y003360D01*
X016850Y003476D01*
X016804Y003586D01*
X016720Y003671D01*
X016610Y003716D01*
X016490Y003716D01*
X016380Y003671D01*
X016326Y003617D01*
X016258Y003607D01*
X015341Y003607D01*
X015453Y003718D01*
X015536Y003921D01*
X015536Y004139D01*
X015453Y004342D01*
X015298Y004496D01*
X015096Y004580D01*
X014877Y004580D01*
X014675Y004496D01*
X014520Y004342D01*
X014466Y004210D01*
X014453Y004242D01*
X014298Y004396D01*
X014096Y004480D01*
X013877Y004480D01*
X013675Y004396D01*
X013520Y004242D01*
X013507Y004210D01*
X013453Y004342D01*
X013298Y004496D01*
X013096Y004580D01*
X012877Y004580D01*
X012675Y004496D01*
X012520Y004342D01*
X012466Y004210D01*
X012453Y004242D01*
X012298Y004396D01*
X012096Y004480D01*
X011877Y004480D01*
X011675Y004396D01*
X011520Y004242D01*
X011507Y004210D01*
X011453Y004342D01*
X011298Y004496D01*
X011096Y004580D01*
X010877Y004580D01*
X010675Y004496D01*
X010520Y004342D01*
X010466Y004210D01*
X010453Y004242D01*
X010298Y004396D01*
X010096Y004480D01*
X009877Y004480D01*
X009675Y004396D01*
X009520Y004242D01*
X009507Y004210D01*
X009453Y004342D01*
X009298Y004496D01*
X009096Y004580D01*
X008877Y004580D01*
X008675Y004496D01*
X008520Y004342D01*
X008466Y004210D01*
X008453Y004242D01*
X008298Y004396D01*
X008096Y004480D01*
X007877Y004480D01*
X007675Y004396D01*
X007520Y004242D01*
X007507Y004210D01*
X007453Y004342D01*
X007298Y004496D01*
X007096Y004580D01*
X006877Y004580D01*
X006675Y004496D01*
X006520Y004342D01*
X006466Y004210D01*
X006453Y004242D01*
X006298Y004396D01*
X006096Y004480D01*
X005877Y004480D01*
X005675Y004396D01*
X005520Y004242D01*
X005507Y004210D01*
X005453Y004342D01*
X005298Y004496D01*
X005096Y004580D01*
X004877Y004580D01*
X004675Y004496D01*
X004520Y004342D01*
X004436Y004139D01*
X004436Y003921D01*
X004520Y003718D01*
X004675Y003564D01*
X004877Y003480D01*
X005096Y003480D01*
X005208Y003527D01*
X005187Y003476D01*
X005187Y003360D01*
X002491Y003360D01*
X002439Y003412D01*
X002439Y004036D01*
X002461Y004014D01*
X002663Y003930D01*
X002882Y003930D01*
X003084Y004014D01*
X003239Y004168D01*
X003323Y004371D01*
X003323Y004589D01*
X003308Y004623D01*
X003811Y005038D01*
X003892Y005005D01*
X004081Y005005D01*
X004256Y005077D01*
X004389Y005211D01*
X004462Y005385D01*
X004462Y005575D01*
X004389Y005749D01*
X004368Y005770D01*
X004516Y006098D01*
X004555Y006115D01*
X004639Y006199D01*
X004685Y006309D01*
X004685Y006429D01*
X004639Y006539D01*
X004555Y006623D01*
X004444Y006669D01*
X004325Y006669D01*
X004215Y006623D01*
X004130Y006539D01*
X004085Y006429D01*
X004085Y006309D01*
X004095Y006285D01*
X003947Y005955D01*
X003892Y005955D01*
X003717Y005883D01*
X003583Y005749D01*
X003511Y005575D01*
X003511Y005386D01*
X003387Y005284D01*
X003423Y005371D01*
X003423Y005589D01*
X003339Y005792D01*
X003184Y005946D01*
X003053Y006001D01*
X003084Y006014D01*
X003239Y006168D01*
X003323Y006371D01*
X003323Y006589D01*
X003239Y006792D01*
X003084Y006946D01*
X003053Y006959D01*
X003184Y007014D01*
X003339Y007168D01*
X003423Y007371D01*
X003423Y007589D01*
X003339Y007792D01*
X003184Y007946D01*
X002982Y008030D01*
X002763Y008030D01*
X002561Y007946D01*
X002439Y007824D01*
X002439Y010546D01*
X002491Y010598D01*
X002491Y010598D01*
X002596Y010704D01*
X002596Y010853D01*
X002439Y011010D01*
X002439Y011634D01*
X002461Y011612D01*
X002663Y011528D01*
X002882Y011528D01*
X003084Y011612D01*
X003239Y011767D01*
X003323Y011969D01*
X003323Y012188D01*
X003308Y012222D01*
X003811Y012636D01*
X003892Y012603D01*
X004081Y012603D01*
X004256Y012676D01*
X004389Y012809D01*
X004462Y012984D01*
X004462Y013173D01*
X004389Y013348D01*
X004368Y013369D01*
X004516Y013697D01*
X004555Y013713D01*
X004639Y013797D01*
X004685Y013908D01*
X004685Y014027D01*
X004639Y014137D01*
X004555Y014222D01*
X004444Y014267D01*
X004325Y014267D01*
X004215Y014222D01*
X004130Y014137D01*
X004085Y014027D01*
X004085Y013908D01*
X004095Y013883D01*
X003947Y013554D01*
X003892Y013554D01*
X003717Y013481D01*
X003583Y013348D01*
X003511Y013173D01*
X003511Y012985D01*
X003387Y012882D01*
X003423Y012969D01*
X003423Y013188D01*
X003339Y013390D01*
X003184Y013545D01*
X003053Y013599D01*
X003084Y013612D01*
X003239Y013767D01*
X003323Y013969D01*
X003323Y014188D01*
X003239Y014390D01*
X003084Y014545D01*
X003053Y014558D01*
X003184Y014612D01*
X003339Y014767D01*
X003423Y014969D01*
X003423Y015188D01*
X003339Y015390D01*
X003184Y015545D01*
X003053Y015599D01*
X003084Y015612D01*
X003239Y015767D01*
X003323Y015969D01*
X003323Y016188D01*
X003239Y016390D01*
X003084Y016545D01*
X003053Y016558D01*
X003184Y016612D01*
X003339Y016767D01*
X003423Y016969D01*
X003423Y017188D01*
X003339Y017390D01*
X003184Y017545D01*
X002982Y017628D01*
X002763Y017628D01*
X002561Y017545D01*
X002439Y017422D01*
X002439Y018145D01*
X002491Y018197D01*
X021712Y018197D01*
X021764Y018079D02*
X015314Y018079D01*
X021764Y018079D01*
X021764Y017921D02*
X016372Y017921D01*
X019568Y017921D01*
X019558Y017910D02*
X019503Y017779D01*
X019503Y017636D01*
X019558Y017505D01*
X019658Y017404D01*
X019790Y017349D01*
X019932Y017349D01*
X020064Y017404D01*
X020165Y017505D01*
X020219Y017636D01*
X020219Y017779D01*
X020165Y017910D01*
X020064Y018011D01*
X019932Y018066D01*
X019790Y018066D01*
X019658Y018011D01*
X019558Y017910D01*
X019503Y017762D02*
X016485Y017762D01*
X021764Y017762D01*
X020219Y017762D01*
X020206Y017604D02*
X021764Y017604D01*
X016536Y017604D01*
X019517Y017604D01*
X019617Y017445D02*
X016536Y017445D01*
X021764Y017445D01*
X020105Y017445D01*
X020155Y017921D02*
X021764Y017921D01*
X021764Y017287D02*
X016481Y017287D01*
X021764Y017287D01*
X021764Y017128D02*
X016364Y017128D01*
X021764Y017128D01*
X021764Y016970D02*
X002439Y016970D01*
X002439Y017128D02*
X004757Y017128D01*
X003423Y017128D01*
X003423Y016970D02*
X021764Y016970D01*
X021764Y016811D02*
X002439Y016811D01*
X002439Y016653D02*
X021764Y016653D01*
X003224Y016653D01*
X003135Y016494D02*
X003748Y016494D01*
X002439Y016494D01*
X002439Y016336D02*
X003578Y016336D01*
X003261Y016336D01*
X003323Y016177D02*
X003513Y016177D01*
X002439Y016177D01*
X002439Y016019D02*
X003511Y016019D01*
X003323Y016019D01*
X003277Y015860D02*
X003562Y015860D01*
X002439Y015860D01*
X002439Y015702D02*
X003691Y015702D01*
X003173Y015702D01*
X003186Y015543D02*
X021764Y015543D01*
X003186Y015543D01*
X003341Y015385D02*
X021764Y015385D01*
X003341Y015385D01*
X003407Y015226D02*
X021764Y015226D01*
X003407Y015226D01*
X003423Y015068D02*
X021764Y015068D01*
X013480Y015068D01*
X013471Y015077D02*
X013339Y015131D01*
X013197Y015131D01*
X013065Y015077D01*
X012965Y014976D01*
X012910Y014844D01*
X012910Y014702D01*
X012965Y014570D01*
X013065Y014469D01*
X013197Y014415D01*
X013339Y014415D01*
X013471Y014469D01*
X013572Y014570D01*
X013626Y014702D01*
X013626Y014844D01*
X013572Y014976D01*
X013471Y015077D01*
X013599Y014909D02*
X016542Y014909D01*
X003398Y014909D01*
X012937Y014909D01*
X012910Y014751D02*
X008328Y014751D01*
X008292Y014786D02*
X008161Y014840D01*
X008018Y014840D01*
X007887Y014786D01*
X007786Y014685D01*
X007731Y014554D01*
X007731Y014411D01*
X007786Y014280D01*
X007887Y014179D01*
X008018Y014124D01*
X008161Y014124D01*
X008292Y014179D01*
X008393Y014280D01*
X008448Y014411D01*
X008448Y014554D01*
X008393Y014685D01*
X008292Y014786D01*
X008432Y014592D02*
X012956Y014592D01*
X013152Y014434D02*
X008448Y014434D01*
X008389Y014275D02*
X016364Y014275D01*
X003286Y014275D01*
X007790Y014275D01*
X007731Y014434D02*
X003195Y014434D01*
X016391Y014434D01*
X013385Y014434D01*
X013581Y014592D02*
X016368Y014592D01*
X003135Y014592D01*
X007747Y014592D01*
X007851Y014751D02*
X003322Y014751D01*
X016391Y014751D01*
X013626Y014751D01*
X013056Y015068D02*
X003423Y015068D01*
X003717Y015676D02*
X003892Y015603D01*
X004081Y015603D01*
X004256Y015676D01*
X004389Y015809D01*
X004462Y015984D01*
X004462Y016173D01*
X004389Y016348D01*
X004256Y016481D01*
X004081Y016554D01*
X003892Y016554D01*
X003717Y016481D01*
X003583Y016348D01*
X003511Y016173D01*
X003511Y015984D01*
X003583Y015809D01*
X003717Y015676D01*
X003892Y015603D01*
X004081Y015603D01*
X004256Y015676D01*
X004389Y015809D01*
X004462Y015984D01*
X004462Y016173D01*
X004389Y016348D01*
X004256Y016481D01*
X004081Y016554D01*
X003892Y016554D01*
X003717Y016481D01*
X003583Y016348D01*
X003511Y016173D01*
X003511Y015984D01*
X003583Y015809D01*
X003717Y015676D01*
X004282Y015702D02*
X004691Y015702D01*
X004282Y015702D01*
X004410Y015860D02*
X004562Y015860D01*
X004410Y015860D01*
X004511Y015984D02*
X004583Y015809D01*
X004717Y015676D01*
X004892Y015603D01*
X005081Y015603D01*
X005256Y015676D01*
X005389Y015809D01*
X005462Y015984D01*
X005462Y016173D01*
X005389Y016348D01*
X005256Y016481D01*
X005081Y016554D01*
X004892Y016554D01*
X004717Y016481D01*
X004583Y016348D01*
X004511Y016173D01*
X004511Y015984D01*
X004583Y015809D01*
X004717Y015676D01*
X004892Y015603D01*
X005081Y015603D01*
X005256Y015676D01*
X005389Y015809D01*
X005462Y015984D01*
X005462Y016173D01*
X005389Y016348D01*
X005256Y016481D01*
X005081Y016554D01*
X004892Y016554D01*
X004717Y016481D01*
X004583Y016348D01*
X004511Y016173D01*
X004511Y015984D01*
X004511Y016019D02*
X004462Y016019D01*
X004511Y016019D01*
X004513Y016177D02*
X004460Y016177D01*
X004513Y016177D01*
X004578Y016336D02*
X004394Y016336D01*
X004578Y016336D01*
X004748Y016494D02*
X004225Y016494D01*
X004748Y016494D01*
X005225Y016494D02*
X005748Y016494D01*
X005225Y016494D01*
X005394Y016336D02*
X005578Y016336D01*
X005394Y016336D01*
X005460Y016177D02*
X005513Y016177D01*
X005460Y016177D01*
X005511Y016173D02*
X005511Y015984D01*
X005583Y015809D01*
X005717Y015676D01*
X005892Y015603D01*
X006081Y015603D01*
X006256Y015676D01*
X006389Y015809D01*
X006462Y015984D01*
X006462Y016173D01*
X006389Y016348D01*
X006256Y016481D01*
X006081Y016554D01*
X005892Y016554D01*
X005717Y016481D01*
X005583Y016348D01*
X005511Y016173D01*
X005511Y015984D01*
X005583Y015809D01*
X005717Y015676D01*
X005892Y015603D01*
X006081Y015603D01*
X006256Y015676D01*
X006389Y015809D01*
X006462Y015984D01*
X006462Y016173D01*
X006389Y016348D01*
X006256Y016481D01*
X006081Y016554D01*
X005892Y016554D01*
X005717Y016481D01*
X005583Y016348D01*
X005511Y016173D01*
X005511Y016019D02*
X005462Y016019D01*
X005511Y016019D01*
X005562Y015860D02*
X005410Y015860D01*
X005562Y015860D01*
X005691Y015702D02*
X005282Y015702D01*
X005691Y015702D01*
X006282Y015702D02*
X006691Y015702D01*
X006282Y015702D01*
X006410Y015860D02*
X006562Y015860D01*
X006410Y015860D01*
X006511Y015984D02*
X006583Y015809D01*
X006717Y015676D01*
X006892Y015603D01*
X007081Y015603D01*
X007256Y015676D01*
X007389Y015809D01*
X007462Y015984D01*
X007462Y016173D01*
X007389Y016348D01*
X007256Y016481D01*
X007081Y016554D01*
X006892Y016554D01*
X006717Y016481D01*
X006583Y016348D01*
X006511Y016173D01*
X006511Y015984D01*
X006583Y015809D01*
X006717Y015676D01*
X006892Y015603D01*
X007081Y015603D01*
X007256Y015676D01*
X007389Y015809D01*
X007462Y015984D01*
X007462Y016173D01*
X007389Y016348D01*
X007256Y016481D01*
X007081Y016554D01*
X006892Y016554D01*
X006717Y016481D01*
X006583Y016348D01*
X006511Y016173D01*
X006511Y015984D01*
X006511Y016019D02*
X006462Y016019D01*
X006511Y016019D01*
X006513Y016177D02*
X006460Y016177D01*
X006513Y016177D01*
X006578Y016336D02*
X006394Y016336D01*
X006578Y016336D01*
X006748Y016494D02*
X006225Y016494D01*
X006748Y016494D01*
X007225Y016494D02*
X007748Y016494D01*
X007225Y016494D01*
X007394Y016336D02*
X007578Y016336D01*
X007394Y016336D01*
X007460Y016177D02*
X007513Y016177D01*
X007460Y016177D01*
X007511Y016173D02*
X007511Y015984D01*
X007583Y015809D01*
X007717Y015676D01*
X007892Y015603D01*
X008081Y015603D01*
X008256Y015676D01*
X008389Y015809D01*
X008462Y015984D01*
X008462Y016173D01*
X008389Y016348D01*
X008256Y016481D01*
X008081Y016554D01*
X007892Y016554D01*
X007717Y016481D01*
X007583Y016348D01*
X007511Y016173D01*
X007511Y015984D01*
X007583Y015809D01*
X007717Y015676D01*
X007892Y015603D01*
X008081Y015603D01*
X008256Y015676D01*
X008389Y015809D01*
X008462Y015984D01*
X008462Y016173D01*
X008389Y016348D01*
X008256Y016481D01*
X008081Y016554D01*
X007892Y016554D01*
X007717Y016481D01*
X007583Y016348D01*
X007511Y016173D01*
X007511Y016019D02*
X007462Y016019D01*
X007511Y016019D01*
X007562Y015860D02*
X007410Y015860D01*
X007562Y015860D01*
X007691Y015702D02*
X007282Y015702D01*
X007691Y015702D01*
X008282Y015702D02*
X008691Y015702D01*
X008282Y015702D01*
X008410Y015860D02*
X008562Y015860D01*
X008410Y015860D01*
X008511Y015984D02*
X008583Y015809D01*
X008717Y015676D01*
X008892Y015603D01*
X009081Y015603D01*
X009256Y015676D01*
X009389Y015809D01*
X009462Y015984D01*
X009462Y016173D01*
X009389Y016348D01*
X009256Y016481D01*
X009081Y016554D01*
X008892Y016554D01*
X008717Y016481D01*
X008583Y016348D01*
X008511Y016173D01*
X008511Y015984D01*
X008583Y015809D01*
X008717Y015676D01*
X008892Y015603D01*
X009081Y015603D01*
X009256Y015676D01*
X009389Y015809D01*
X009462Y015984D01*
X009462Y016173D01*
X009389Y016348D01*
X009256Y016481D01*
X009081Y016554D01*
X008892Y016554D01*
X008717Y016481D01*
X008583Y016348D01*
X008511Y016173D01*
X008511Y015984D01*
X008511Y016019D02*
X008462Y016019D01*
X008511Y016019D01*
X008513Y016177D02*
X008460Y016177D01*
X008513Y016177D01*
X008578Y016336D02*
X008394Y016336D01*
X008578Y016336D01*
X008748Y016494D02*
X008225Y016494D01*
X008748Y016494D01*
X009225Y016494D02*
X010748Y016494D01*
X010225Y016494D01*
X010256Y016481D02*
X010081Y016554D01*
X009892Y016554D01*
X009717Y016481D01*
X009583Y016348D01*
X009511Y016173D01*
X009511Y015984D01*
X009583Y015809D01*
X009717Y015676D01*
X009892Y015603D01*
X010081Y015603D01*
X010256Y015676D01*
X010389Y015809D01*
X010462Y015984D01*
X010462Y016173D01*
X010389Y016348D01*
X010256Y016481D01*
X010394Y016336D02*
X010578Y016336D01*
X009394Y016336D01*
X009578Y016336D01*
X009513Y016177D02*
X009460Y016177D01*
X010513Y016177D01*
X010460Y016177D01*
X010511Y016173D02*
X010511Y015984D01*
X010583Y015809D01*
X010717Y015676D01*
X010892Y015603D01*
X011081Y015603D01*
X011256Y015676D01*
X011389Y015809D01*
X011462Y015984D01*
X011462Y016173D01*
X011389Y016348D01*
X011256Y016481D01*
X011081Y016554D01*
X010892Y016554D01*
X010717Y016481D01*
X010583Y016348D01*
X010511Y016173D01*
X010511Y015984D01*
X010583Y015809D01*
X010717Y015676D01*
X010892Y015603D01*
X011081Y015603D01*
X011256Y015676D01*
X011389Y015809D01*
X011462Y015984D01*
X011462Y016173D01*
X011389Y016348D01*
X011256Y016481D01*
X011081Y016554D01*
X010892Y016554D01*
X010717Y016481D01*
X010583Y016348D01*
X010511Y016173D01*
X010511Y016019D02*
X010462Y016019D01*
X010511Y016019D02*
X009462Y016019D01*
X009511Y016019D01*
X009562Y015860D02*
X009410Y015860D01*
X010562Y015860D01*
X010410Y015860D01*
X010282Y015702D02*
X010691Y015702D01*
X009282Y015702D01*
X009691Y015702D01*
X009748Y016494D02*
X009225Y016494D01*
X009096Y017078D02*
X008877Y017078D01*
X008675Y017162D01*
X008520Y017317D01*
X008507Y017348D01*
X008453Y017217D01*
X008298Y017062D01*
X008096Y016978D01*
X007877Y016978D01*
X007675Y017062D01*
X007520Y017217D01*
X007466Y017348D01*
X007453Y017317D01*
X007298Y017162D01*
X007096Y017078D01*
X006877Y017078D01*
X006675Y017162D01*
X006520Y017317D01*
X006507Y017348D01*
X006453Y017217D01*
X006298Y017062D01*
X006096Y016978D01*
X005877Y016978D01*
X005675Y017062D01*
X005520Y017217D01*
X005466Y017348D01*
X005453Y017317D01*
X005298Y017162D01*
X005096Y017078D01*
X004877Y017078D01*
X004675Y017162D01*
X004520Y017317D01*
X004436Y017519D01*
X004436Y017738D01*
X004520Y017940D01*
X004675Y018095D01*
X004877Y018178D01*
X005096Y018178D01*
X005298Y018095D01*
X005453Y017940D01*
X005507Y017809D01*
X005520Y017840D01*
X005675Y017995D01*
X005877Y018078D01*
X006096Y018078D01*
X006298Y017995D01*
X006453Y017840D01*
X006466Y017809D01*
X006520Y017940D01*
X006675Y018095D01*
X006877Y018178D01*
X007096Y018178D01*
X007298Y018095D01*
X007453Y017940D01*
X007507Y017809D01*
X007520Y017840D01*
X007675Y017995D01*
X007877Y018078D01*
X008096Y018078D01*
X008298Y017995D01*
X008453Y017840D01*
X008466Y017809D01*
X008520Y017940D01*
X008675Y018095D01*
X008877Y018178D01*
X009096Y018178D01*
X009298Y018095D01*
X009453Y017940D01*
X009507Y017809D01*
X009520Y017840D01*
X009675Y017995D01*
X009877Y018078D01*
X010096Y018078D01*
X010298Y017995D01*
X010453Y017840D01*
X010466Y017809D01*
X010520Y017940D01*
X010675Y018095D01*
X010877Y018178D01*
X011096Y018178D01*
X011298Y018095D01*
X011453Y017940D01*
X011507Y017809D01*
X011520Y017840D01*
X011675Y017995D01*
X011877Y018078D01*
X012096Y018078D01*
X012298Y017995D01*
X012453Y017840D01*
X012466Y017809D01*
X012520Y017940D01*
X012675Y018095D01*
X012877Y018178D01*
X013096Y018178D01*
X013298Y018095D01*
X013453Y017940D01*
X013507Y017809D01*
X013520Y017840D01*
X013675Y017995D01*
X013877Y018078D01*
X014096Y018078D01*
X014298Y017995D01*
X014453Y017840D01*
X014466Y017809D01*
X014520Y017940D01*
X014675Y018095D01*
X014877Y018178D01*
X015096Y018178D01*
X015298Y018095D01*
X015453Y017940D01*
X015507Y017809D01*
X015520Y017840D01*
X015675Y017995D01*
X015877Y018078D01*
X016096Y018078D01*
X016298Y017995D01*
X016453Y017840D01*
X016536Y017638D01*
X016536Y017419D01*
X016453Y017217D01*
X016298Y017062D01*
X016096Y016978D01*
X015877Y016978D01*
X015675Y017062D01*
X015520Y017217D01*
X015466Y017348D01*
X015453Y017317D01*
X015298Y017162D01*
X015096Y017078D01*
X014877Y017078D01*
X014675Y017162D01*
X014520Y017317D01*
X014507Y017348D01*
X014453Y017217D01*
X014298Y017062D01*
X014096Y016978D01*
X013877Y016978D01*
X013675Y017062D01*
X013520Y017217D01*
X013466Y017348D01*
X013453Y017317D01*
X013298Y017162D01*
X013096Y017078D01*
X012877Y017078D01*
X012675Y017162D01*
X012520Y017317D01*
X012507Y017348D01*
X012453Y017217D01*
X012298Y017062D01*
X012096Y016978D01*
X011877Y016978D01*
X011675Y017062D01*
X011520Y017217D01*
X011466Y017348D01*
X011453Y017317D01*
X011298Y017162D01*
X011096Y017078D01*
X010877Y017078D01*
X010675Y017162D01*
X010520Y017317D01*
X010507Y017348D01*
X010453Y017217D01*
X010298Y017062D01*
X010096Y016978D01*
X009877Y016978D01*
X009675Y017062D01*
X009520Y017217D01*
X009466Y017348D01*
X009453Y017317D01*
X009298Y017162D01*
X009096Y017078D01*
X009298Y017162D01*
X009453Y017317D01*
X009466Y017348D01*
X009520Y017217D01*
X009675Y017062D01*
X009877Y016978D01*
X010096Y016978D01*
X010298Y017062D01*
X010453Y017217D01*
X010507Y017348D01*
X010520Y017317D01*
X010675Y017162D01*
X010877Y017078D01*
X011096Y017078D01*
X011298Y017162D01*
X011453Y017317D01*
X011466Y017348D01*
X011520Y017217D01*
X011675Y017062D01*
X011877Y016978D01*
X012096Y016978D01*
X012298Y017062D01*
X012453Y017217D01*
X012507Y017348D01*
X012520Y017317D01*
X012675Y017162D01*
X012877Y017078D01*
X013096Y017078D01*
X013298Y017162D01*
X013453Y017317D01*
X013466Y017348D01*
X013520Y017217D01*
X013675Y017062D01*
X013877Y016978D01*
X014096Y016978D01*
X014298Y017062D01*
X014453Y017217D01*
X014507Y017348D01*
X014520Y017317D01*
X014675Y017162D01*
X014877Y017078D01*
X015096Y017078D01*
X015298Y017162D01*
X015453Y017317D01*
X015466Y017348D01*
X015520Y017217D01*
X015675Y017062D01*
X015877Y016978D01*
X016096Y016978D01*
X016298Y017062D01*
X016453Y017217D01*
X016536Y017419D01*
X016536Y017638D01*
X016453Y017840D01*
X016298Y017995D01*
X016096Y018078D01*
X015877Y018078D01*
X015675Y017995D01*
X015520Y017840D01*
X015507Y017809D01*
X015453Y017940D01*
X015298Y018095D01*
X015096Y018178D01*
X014877Y018178D01*
X014675Y018095D01*
X014520Y017940D01*
X014466Y017809D01*
X014453Y017840D01*
X014298Y017995D01*
X014096Y018078D01*
X013877Y018078D01*
X013675Y017995D01*
X013520Y017840D01*
X013507Y017809D01*
X013453Y017940D01*
X013298Y018095D01*
X013096Y018178D01*
X012877Y018178D01*
X012675Y018095D01*
X012520Y017940D01*
X012466Y017809D01*
X012453Y017840D01*
X012298Y017995D01*
X012096Y018078D01*
X011877Y018078D01*
X011675Y017995D01*
X011520Y017840D01*
X011507Y017809D01*
X011453Y017940D01*
X011298Y018095D01*
X011096Y018178D01*
X010877Y018178D01*
X010675Y018095D01*
X010520Y017940D01*
X010466Y017809D01*
X010453Y017840D01*
X010298Y017995D01*
X010096Y018078D01*
X009877Y018078D01*
X009675Y017995D01*
X009520Y017840D01*
X009507Y017809D01*
X009453Y017940D01*
X009298Y018095D01*
X009096Y018178D01*
X008877Y018178D01*
X008675Y018095D01*
X008520Y017940D01*
X008466Y017809D01*
X008453Y017840D01*
X008298Y017995D01*
X008096Y018078D01*
X007877Y018078D01*
X007675Y017995D01*
X007520Y017840D01*
X007507Y017809D01*
X007453Y017940D01*
X007298Y018095D01*
X007096Y018178D01*
X006877Y018178D01*
X006675Y018095D01*
X006520Y017940D01*
X006466Y017809D01*
X006453Y017840D01*
X006298Y017995D01*
X006096Y018078D01*
X005877Y018078D01*
X005675Y017995D01*
X005520Y017840D01*
X005507Y017809D01*
X005453Y017940D01*
X005298Y018095D01*
X005096Y018178D01*
X004877Y018178D01*
X004675Y018095D01*
X004520Y017940D01*
X004436Y017738D01*
X004436Y017519D01*
X004520Y017317D01*
X004675Y017162D01*
X004877Y017078D01*
X005096Y017078D01*
X005298Y017162D01*
X005453Y017317D01*
X005466Y017348D01*
X005520Y017217D01*
X005675Y017062D01*
X005877Y016978D01*
X006096Y016978D01*
X006298Y017062D01*
X006453Y017217D01*
X006507Y017348D01*
X006520Y017317D01*
X006675Y017162D01*
X006877Y017078D01*
X007096Y017078D01*
X007298Y017162D01*
X007453Y017317D01*
X007466Y017348D01*
X007520Y017217D01*
X007675Y017062D01*
X007877Y016978D01*
X008096Y016978D01*
X008298Y017062D01*
X008453Y017217D01*
X008507Y017348D01*
X008520Y017317D01*
X008675Y017162D01*
X008877Y017078D01*
X009096Y017078D01*
X009215Y017128D02*
X009609Y017128D01*
X009215Y017128D01*
X009422Y017287D02*
X009491Y017287D01*
X009422Y017287D01*
X009461Y017921D02*
X009601Y017921D01*
X009461Y017921D01*
X009314Y018079D02*
X010659Y018079D01*
X009314Y018079D01*
X008659Y018079D02*
X007314Y018079D01*
X008659Y018079D01*
X008512Y017921D02*
X008372Y017921D01*
X008512Y017921D01*
X008481Y017287D02*
X008550Y017287D01*
X008481Y017287D01*
X008364Y017128D02*
X008757Y017128D01*
X008364Y017128D01*
X007609Y017128D02*
X007215Y017128D01*
X007609Y017128D01*
X007491Y017287D02*
X007422Y017287D01*
X007491Y017287D01*
X007461Y017921D02*
X007601Y017921D01*
X007461Y017921D01*
X006659Y018079D02*
X005314Y018079D01*
X006659Y018079D01*
X006512Y017921D02*
X006372Y017921D01*
X006512Y017921D01*
X006481Y017287D02*
X006550Y017287D01*
X006481Y017287D01*
X006364Y017128D02*
X006757Y017128D01*
X006364Y017128D01*
X005609Y017128D02*
X005215Y017128D01*
X005609Y017128D01*
X005491Y017287D02*
X005422Y017287D01*
X005491Y017287D01*
X005461Y017921D02*
X005601Y017921D01*
X005461Y017921D01*
X004659Y018079D02*
X002439Y018079D01*
X004659Y018079D01*
X004512Y017921D02*
X002439Y017921D01*
X004512Y017921D01*
X004446Y017762D02*
X002439Y017762D01*
X004446Y017762D01*
X004436Y017604D02*
X002439Y017604D01*
X002703Y017604D01*
X002461Y017445D02*
X002439Y017445D01*
X004467Y017445D01*
X003284Y017445D01*
X003382Y017287D02*
X004550Y017287D01*
X002439Y017287D01*
X002079Y017287D02*
X000220Y017287D01*
X000189Y017287D02*
X002079Y017287D01*
X002079Y017445D02*
X000220Y017445D01*
X000189Y017445D02*
X002079Y017445D01*
X002079Y017604D02*
X000219Y017604D01*
X000188Y017604D02*
X002079Y017604D01*
X002079Y017762D02*
X000218Y017762D01*
X000187Y017762D02*
X002079Y017762D01*
X002079Y017921D02*
X000218Y017921D01*
X000187Y017921D02*
X002079Y017921D01*
X002079Y018079D02*
X000217Y018079D01*
X000186Y018079D02*
X002079Y018079D01*
X002079Y018145D02*
X002079Y011011D01*
X002079Y011010D01*
X002079Y010861D01*
X002162Y010778D01*
X002139Y010756D01*
X002079Y010696D01*
X002079Y010695D01*
X002079Y010630D01*
X002079Y010546D01*
X002079Y010546D01*
X002079Y010630D01*
X002079Y010695D01*
X002079Y010695D01*
X002079Y010695D01*
X002079Y010696D01*
X002139Y010756D01*
X002162Y010778D01*
X002079Y010861D01*
X002079Y011010D01*
X002079Y011011D01*
X002079Y018145D01*
X002079Y018145D01*
X002079Y018145D01*
X002079Y018228D01*
X002079Y018294D01*
X002079Y018294D01*
X002079Y018294D01*
X002079Y018228D01*
X002079Y018145D01*
X002079Y018238D02*
X000216Y018238D01*
X000185Y018238D02*
X002079Y018238D01*
X002181Y018396D02*
X000216Y018396D01*
X000185Y018396D02*
X002181Y018396D01*
X002339Y018555D02*
X000215Y018555D01*
X000184Y018555D02*
X002339Y018555D01*
X003042Y017604D02*
X004436Y017604D01*
X003357Y016811D02*
X021764Y016811D01*
X021764Y016494D02*
X017225Y016494D01*
X021764Y016494D01*
X021764Y016336D02*
X017394Y016336D01*
X021764Y016336D01*
X021764Y016177D02*
X017460Y016177D01*
X021764Y016177D01*
X021764Y016019D02*
X017462Y016019D01*
X021764Y016019D01*
X021764Y015860D02*
X017410Y015860D01*
X021764Y015860D01*
X021764Y015702D02*
X017282Y015702D01*
X021764Y015702D01*
X021764Y014909D02*
X016795Y014909D01*
X021764Y014909D01*
X021764Y014751D02*
X016946Y014751D01*
X021764Y014751D01*
X021764Y014592D02*
X019333Y014592D01*
X021764Y014592D01*
X021764Y014434D02*
X019483Y014434D01*
X021764Y014434D01*
X021764Y014275D02*
X019548Y014275D01*
X021764Y014275D01*
X021764Y014117D02*
X019554Y014117D01*
X021764Y014117D01*
X021764Y013958D02*
X019512Y013958D01*
X021764Y013958D01*
X021764Y013800D02*
X019404Y013800D01*
X021764Y013800D01*
X021764Y013641D02*
X016747Y013641D01*
X021764Y013641D01*
X021764Y013483D02*
X017253Y013483D01*
X020248Y013483D01*
X020249Y013484D02*
X020148Y013383D01*
X020094Y013251D01*
X020094Y013109D01*
X020148Y012977D01*
X020249Y012876D01*
X020380Y012822D01*
X020523Y012822D01*
X020655Y012876D01*
X020755Y012977D01*
X020810Y013109D01*
X020810Y013251D01*
X020755Y013383D01*
X020655Y013484D01*
X020523Y013538D01*
X020380Y013538D01*
X020249Y013484D01*
X020124Y013324D02*
X017399Y013324D01*
X021764Y013324D01*
X020780Y013324D01*
X020810Y013166D02*
X021764Y013166D01*
X017462Y013166D01*
X020094Y013166D01*
X020136Y013007D02*
X017462Y013007D01*
X021764Y013007D01*
X020768Y013007D01*
X020587Y012849D02*
X021764Y012849D01*
X017406Y012849D01*
X020316Y012849D01*
X020656Y013483D02*
X021764Y013483D01*
X021764Y012690D02*
X019288Y012690D01*
X021764Y012690D01*
X021764Y012532D02*
X019473Y012532D01*
X021764Y012532D01*
X021764Y012373D02*
X019540Y012373D01*
X021764Y012373D01*
X021764Y012215D02*
X019554Y012215D01*
X021764Y012215D01*
X021764Y012056D02*
X019520Y012056D01*
X021764Y012056D01*
X021764Y011898D02*
X019423Y011898D01*
X021764Y011898D01*
X021764Y011739D02*
X019169Y011739D01*
X021213Y011739D01*
X021097Y011581D02*
X016536Y011581D01*
X016536Y011638D02*
X016453Y011840D01*
X016298Y011995D01*
X016096Y012078D01*
X015877Y012078D01*
X015675Y011995D01*
X015520Y011840D01*
X015507Y011809D01*
X015453Y011940D01*
X015298Y012095D01*
X015096Y012178D01*
X014877Y012178D01*
X014675Y012095D01*
X014520Y011940D01*
X014466Y011809D01*
X014453Y011840D01*
X014298Y011995D01*
X014096Y012078D01*
X013877Y012078D01*
X013675Y011995D01*
X013520Y011840D01*
X013507Y011809D01*
X013453Y011940D01*
X013298Y012095D01*
X013096Y012178D01*
X012877Y012178D01*
X012675Y012095D01*
X012520Y011940D01*
X012466Y011809D01*
X012453Y011840D01*
X012298Y011995D01*
X012096Y012078D01*
X011877Y012078D01*
X011675Y011995D01*
X011520Y011840D01*
X011507Y011809D01*
X011453Y011940D01*
X011298Y012095D01*
X011096Y012178D01*
X010877Y012178D01*
X010675Y012095D01*
X010520Y011940D01*
X010466Y011809D01*
X010453Y011840D01*
X010298Y011995D01*
X010096Y012078D01*
X009877Y012078D01*
X009675Y011995D01*
X009520Y011840D01*
X009507Y011809D01*
X009453Y011940D01*
X009298Y012095D01*
X009096Y012178D01*
X008877Y012178D01*
X008675Y012095D01*
X008520Y011940D01*
X008466Y011809D01*
X008453Y011840D01*
X008298Y011995D01*
X008096Y012078D01*
X007877Y012078D01*
X007675Y011995D01*
X007520Y011840D01*
X007507Y011809D01*
X007453Y011940D01*
X007298Y012095D01*
X007096Y012178D01*
X006877Y012178D01*
X006675Y012095D01*
X006520Y011940D01*
X006466Y011809D01*
X006453Y011840D01*
X006298Y011995D01*
X006096Y012078D01*
X005877Y012078D01*
X005675Y011995D01*
X005520Y011840D01*
X005507Y011809D01*
X005453Y011940D01*
X005298Y012095D01*
X005096Y012178D01*
X004877Y012178D01*
X004675Y012095D01*
X004520Y011940D01*
X004436Y011738D01*
X004436Y011519D01*
X004520Y011317D01*
X004675Y011162D01*
X004877Y011078D01*
X005096Y011078D01*
X005208Y011125D01*
X005187Y011074D01*
X005187Y010955D01*
X005233Y010845D01*
X005317Y010760D01*
X005427Y010715D01*
X005547Y010715D01*
X005657Y010760D01*
X005681Y010785D01*
X006560Y010785D01*
X006868Y010915D01*
X006868Y010915D01*
X006868Y010915D01*
X006560Y010785D01*
X005681Y010785D01*
X005657Y010760D01*
X005547Y010715D01*
X005427Y010715D01*
X005317Y010760D01*
X005233Y010845D01*
X005187Y010955D01*
X005187Y011074D01*
X005208Y011125D01*
X005096Y011078D01*
X004877Y011078D01*
X004675Y011162D01*
X004520Y011317D01*
X004436Y011519D01*
X004436Y011738D01*
X004520Y011940D01*
X004675Y012095D01*
X004877Y012178D01*
X005096Y012178D01*
X005298Y012095D01*
X005453Y011940D01*
X005507Y011809D01*
X005520Y011840D01*
X005675Y011995D01*
X005877Y012078D01*
X006096Y012078D01*
X006298Y011995D01*
X006453Y011840D01*
X006466Y011809D01*
X006520Y011940D01*
X006675Y012095D01*
X006877Y012178D01*
X007096Y012178D01*
X007298Y012095D01*
X007453Y011940D01*
X007507Y011809D01*
X007520Y011840D01*
X007675Y011995D01*
X007877Y012078D01*
X008096Y012078D01*
X008298Y011995D01*
X008453Y011840D01*
X008466Y011809D01*
X008520Y011940D01*
X008675Y012095D01*
X008877Y012178D01*
X009096Y012178D01*
X009298Y012095D01*
X009453Y011940D01*
X009507Y011809D01*
X009520Y011840D01*
X009675Y011995D01*
X009877Y012078D01*
X010096Y012078D01*
X010298Y011995D01*
X010453Y011840D01*
X010466Y011809D01*
X010520Y011940D01*
X010675Y012095D01*
X010877Y012178D01*
X011096Y012178D01*
X011298Y012095D01*
X011453Y011940D01*
X011507Y011809D01*
X011520Y011840D01*
X011675Y011995D01*
X011877Y012078D01*
X012096Y012078D01*
X012298Y011995D01*
X012453Y011840D01*
X012466Y011809D01*
X012520Y011940D01*
X012675Y012095D01*
X012877Y012178D01*
X013096Y012178D01*
X013298Y012095D01*
X013453Y011940D01*
X013507Y011809D01*
X013520Y011840D01*
X013675Y011995D01*
X013877Y012078D01*
X014096Y012078D01*
X014298Y011995D01*
X014453Y011840D01*
X014466Y011809D01*
X014520Y011940D01*
X014675Y012095D01*
X014877Y012178D01*
X015096Y012178D01*
X015298Y012095D01*
X015453Y011940D01*
X015536Y011738D01*
X015536Y011519D01*
X015453Y011317D01*
X015341Y011205D01*
X016258Y011205D01*
X016326Y011215D01*
X016380Y011269D01*
X016490Y011315D01*
X016610Y011315D01*
X016720Y011269D01*
X016804Y011185D01*
X016850Y011074D01*
X016850Y010955D01*
X016804Y010845D01*
X016720Y010760D01*
X016610Y010715D01*
X016490Y010715D01*
X016384Y010759D01*
X016383Y010758D01*
X016370Y010745D01*
X016291Y010745D01*
X016213Y010734D01*
X016198Y010745D01*
X014542Y010745D01*
X014386Y010745D01*
X014386Y010745D01*
X014098Y010864D01*
X014098Y010864D01*
X013983Y010978D01*
X013877Y010978D01*
X013675Y011062D01*
X013520Y011217D01*
X013466Y011348D01*
X013453Y011317D01*
X013298Y011162D01*
X013096Y011078D01*
X012877Y011078D01*
X012675Y011162D01*
X012520Y011317D01*
X012507Y011348D01*
X012453Y011217D01*
X012298Y011062D01*
X012096Y010978D01*
X011877Y010978D01*
X011675Y011062D01*
X011520Y011217D01*
X011466Y011348D01*
X011453Y011317D01*
X011298Y011162D01*
X011096Y011078D01*
X010877Y011078D01*
X010675Y011162D01*
X010520Y011317D01*
X010507Y011348D01*
X010453Y011217D01*
X010298Y011062D01*
X010096Y010978D01*
X009877Y010978D01*
X009675Y011062D01*
X009520Y011217D01*
X009466Y011348D01*
X009520Y011217D01*
X009675Y011062D01*
X009877Y010978D01*
X010096Y010978D01*
X010298Y011062D01*
X010453Y011217D01*
X010507Y011348D01*
X010520Y011317D01*
X010675Y011162D01*
X010877Y011078D01*
X011096Y011078D01*
X011298Y011162D01*
X011453Y011317D01*
X011466Y011348D01*
X011520Y011217D01*
X011675Y011062D01*
X011877Y010978D01*
X012096Y010978D01*
X012298Y011062D01*
X012453Y011217D01*
X012507Y011348D01*
X012520Y011317D01*
X012675Y011162D01*
X012877Y011078D01*
X013096Y011078D01*
X013298Y011162D01*
X013453Y011317D01*
X013466Y011348D01*
X013520Y011217D01*
X013675Y011062D01*
X013877Y010978D01*
X013983Y010978D01*
X014098Y010864D01*
X014098Y010864D01*
X014386Y010745D01*
X014386Y010745D01*
X014542Y010745D01*
X016198Y010745D01*
X016213Y010734D01*
X016291Y010745D01*
X016370Y010745D01*
X016383Y010758D01*
X016384Y010759D01*
X016490Y010715D01*
X016610Y010715D01*
X016720Y010760D01*
X016804Y010845D01*
X016850Y010955D01*
X016850Y011074D01*
X016804Y011185D01*
X016720Y011269D01*
X016610Y011315D01*
X016493Y011315D01*
X016536Y011419D01*
X016536Y011638D01*
X016494Y011739D02*
X018918Y011739D01*
X015536Y011739D01*
X015536Y011581D02*
X021764Y011581D01*
X021764Y011739D02*
X021648Y011739D01*
X021764Y011422D02*
X015496Y011422D01*
X015399Y011264D02*
X016375Y011264D01*
X016536Y011422D02*
X021072Y011422D01*
X021120Y011264D02*
X016725Y011264D01*
X021764Y011264D01*
X021741Y011264D01*
X021764Y011105D02*
X021533Y011105D01*
X021328Y011105D02*
X016837Y011105D01*
X021764Y011105D01*
X021700Y010947D02*
X016847Y010947D01*
X021700Y010947D01*
X021606Y010788D02*
X016748Y010788D01*
X021606Y010788D01*
X021681Y010630D02*
X002522Y010630D01*
X021681Y010630D01*
X021712Y010598D02*
X021712Y010598D01*
X021764Y010471D02*
X016117Y010471D01*
X021764Y010471D01*
X021764Y010313D02*
X020164Y010313D01*
X020165Y010312D02*
X020064Y010413D01*
X019932Y010467D01*
X019790Y010467D01*
X019658Y010413D01*
X019558Y010312D01*
X019503Y010180D01*
X019503Y010038D01*
X019558Y009906D01*
X019658Y009806D01*
X019790Y009751D01*
X019932Y009751D01*
X020064Y009806D01*
X020165Y009906D01*
X020219Y010038D01*
X020219Y010180D01*
X020165Y010312D01*
X020219Y010154D02*
X021764Y010154D01*
X016489Y010154D01*
X019503Y010154D01*
X019521Y009996D02*
X016536Y009996D01*
X021764Y009996D01*
X020202Y009996D01*
X020095Y009837D02*
X021764Y009837D01*
X016536Y009837D01*
X019627Y009837D01*
X019558Y010313D02*
X016382Y010313D01*
X021764Y010313D01*
X021764Y009679D02*
X016477Y009679D01*
X021764Y009679D01*
X021764Y009520D02*
X016354Y009520D01*
X021764Y009520D01*
X021764Y009362D02*
X003419Y009362D01*
X003423Y009520D02*
X004780Y009520D01*
X002439Y009520D01*
X002439Y009362D02*
X021764Y009362D01*
X021764Y009203D02*
X003353Y009203D01*
X003215Y009045D02*
X021764Y009045D01*
X002439Y009045D01*
X002439Y009203D02*
X021764Y009203D01*
X021764Y008886D02*
X017248Y008886D01*
X021764Y008886D01*
X021764Y008728D02*
X017398Y008728D01*
X021764Y008728D01*
X021764Y008569D02*
X017462Y008569D01*
X021764Y008569D01*
X021764Y008411D02*
X017462Y008411D01*
X021764Y008411D01*
X021764Y008252D02*
X017406Y008252D01*
X021764Y008252D01*
X021764Y008094D02*
X017272Y008094D01*
X021764Y008094D01*
X021764Y007935D02*
X003195Y007935D01*
X021764Y007935D01*
X021764Y007777D02*
X003345Y007777D01*
X003411Y007618D02*
X021764Y007618D01*
X021764Y007460D02*
X003423Y007460D01*
X003394Y007301D02*
X016519Y007301D01*
X016498Y007293D02*
X016414Y007208D01*
X016368Y007098D01*
X016368Y006979D01*
X016403Y006894D01*
X016375Y006756D01*
X016284Y006090D01*
X016274Y005947D01*
X016237Y005909D01*
X016230Y005893D01*
X016081Y005955D01*
X015892Y005955D01*
X015717Y005883D01*
X015583Y005749D01*
X015511Y005575D01*
X015511Y005385D01*
X015583Y005211D01*
X015717Y005077D01*
X015892Y005005D01*
X016081Y005005D01*
X016256Y005077D01*
X016389Y005211D01*
X016462Y005385D01*
X016462Y005439D01*
X016511Y005439D01*
X016511Y005385D01*
X016583Y005211D01*
X016717Y005077D01*
X016892Y005005D01*
X017081Y005005D01*
X017256Y005077D01*
X017389Y005211D01*
X017462Y005385D01*
X017462Y005575D01*
X017389Y005749D01*
X017256Y005883D01*
X017081Y005955D01*
X016892Y005955D01*
X016750Y005897D01*
X016745Y005909D01*
X016737Y005917D01*
X016747Y006043D01*
X016834Y006677D01*
X016858Y006804D01*
X016923Y006868D01*
X016968Y006979D01*
X016968Y007098D01*
X016923Y007208D01*
X016838Y007293D01*
X016728Y007338D01*
X016609Y007338D01*
X016498Y007293D01*
X016387Y007143D02*
X003313Y007143D01*
X003112Y006984D02*
X016368Y006984D01*
X016389Y006826D02*
X003205Y006826D01*
X003290Y006667D02*
X004320Y006667D01*
X004449Y006667D02*
X016363Y006667D01*
X016341Y006509D02*
X004652Y006509D01*
X004685Y006350D02*
X016320Y006350D01*
X016298Y006192D02*
X004632Y006192D01*
X004486Y006033D02*
X016280Y006033D01*
X016747Y006033D02*
X021764Y006033D01*
X021764Y005875D02*
X017264Y005875D01*
X017403Y005716D02*
X021764Y005716D01*
X021764Y005558D02*
X017462Y005558D01*
X017462Y005399D02*
X021764Y005399D01*
X021764Y005241D02*
X017402Y005241D01*
X017260Y005082D02*
X018777Y005082D01*
X018755Y005073D02*
X018611Y004930D01*
X018534Y004742D01*
X018534Y004539D01*
X018611Y004352D01*
X018755Y004208D01*
X018942Y004131D01*
X019145Y004131D01*
X019333Y004208D01*
X019476Y004352D01*
X019554Y004539D01*
X019554Y004742D01*
X019476Y004930D01*
X019333Y005073D01*
X019145Y005151D01*
X018942Y005151D01*
X018755Y005073D01*
X018609Y004924D02*
X003673Y004924D01*
X003480Y004765D02*
X018543Y004765D01*
X018534Y004607D02*
X003315Y004607D01*
X003323Y004448D02*
X004626Y004448D01*
X004498Y004290D02*
X003289Y004290D01*
X003201Y004131D02*
X004436Y004131D01*
X004436Y003973D02*
X002985Y003973D01*
X002561Y003973D02*
X002439Y003973D01*
X002439Y003814D02*
X004480Y003814D01*
X004583Y003656D02*
X002439Y003656D01*
X002439Y003497D02*
X004836Y003497D01*
X005137Y003497D02*
X005196Y003497D01*
X005474Y004290D02*
X005568Y004290D01*
X005346Y004448D02*
X005800Y004448D01*
X006173Y004448D02*
X006626Y004448D01*
X006498Y004290D02*
X006405Y004290D01*
X006081Y005005D02*
X005892Y005005D01*
X005717Y005077D01*
X005583Y005211D01*
X005511Y005385D01*
X005511Y005575D01*
X005583Y005749D01*
X005717Y005883D01*
X005892Y005955D01*
X006081Y005955D01*
X006256Y005883D01*
X006389Y005749D01*
X006462Y005575D01*
X006462Y005385D01*
X006389Y005211D01*
X006256Y005077D01*
X006081Y005005D01*
X006260Y005082D02*
X006712Y005082D01*
X006717Y005077D02*
X006892Y005005D01*
X007081Y005005D01*
X007256Y005077D01*
X007389Y005211D01*
X007462Y005385D01*
X007462Y005575D01*
X007389Y005749D01*
X007256Y005883D01*
X007081Y005955D01*
X006892Y005955D01*
X006717Y005883D01*
X006583Y005749D01*
X006511Y005575D01*
X006511Y005385D01*
X006583Y005211D01*
X006717Y005077D01*
X006571Y005241D02*
X006402Y005241D01*
X006462Y005399D02*
X006511Y005399D01*
X006511Y005558D02*
X006462Y005558D01*
X006403Y005716D02*
X006570Y005716D01*
X006709Y005875D02*
X006264Y005875D01*
X005709Y005875D02*
X005264Y005875D01*
X005256Y005883D02*
X005081Y005955D01*
X004892Y005955D01*
X004717Y005883D01*
X004583Y005749D01*
X004511Y005575D01*
X004511Y005385D01*
X004583Y005211D01*
X004717Y005077D01*
X004892Y005005D01*
X005081Y005005D01*
X005256Y005077D01*
X005389Y005211D01*
X005462Y005385D01*
X005462Y005575D01*
X005389Y005749D01*
X005256Y005883D01*
X005403Y005716D02*
X005570Y005716D01*
X005511Y005558D02*
X005462Y005558D01*
X005462Y005399D02*
X005511Y005399D01*
X005571Y005241D02*
X005402Y005241D01*
X005260Y005082D02*
X005712Y005082D01*
X004712Y005082D02*
X004260Y005082D01*
X004402Y005241D02*
X004571Y005241D01*
X004511Y005399D02*
X004462Y005399D01*
X004462Y005558D02*
X004511Y005558D01*
X004570Y005716D02*
X004403Y005716D01*
X004415Y005875D02*
X004709Y005875D01*
X004053Y006192D02*
X003248Y006192D01*
X003314Y006350D02*
X004085Y006350D01*
X004118Y006509D02*
X003323Y006509D01*
X003103Y006033D02*
X003982Y006033D01*
X003709Y005875D02*
X003256Y005875D01*
X003370Y005716D02*
X003570Y005716D01*
X003511Y005558D02*
X003423Y005558D01*
X003423Y005399D02*
X003511Y005399D01*
X002079Y005399D02*
X000238Y005399D01*
X000238Y005241D02*
X002079Y005241D01*
X002079Y005082D02*
X000239Y005082D01*
X000240Y004924D02*
X002079Y004924D01*
X002079Y004765D02*
X000240Y004765D01*
X000241Y004607D02*
X002079Y004607D01*
X002079Y004448D02*
X000241Y004448D01*
X000242Y004290D02*
X002079Y004290D01*
X002079Y004131D02*
X000243Y004131D01*
X000243Y003973D02*
X002079Y003973D01*
X002079Y003814D02*
X000244Y003814D01*
X000245Y003656D02*
X002079Y003656D01*
X002079Y003497D02*
X000245Y003497D01*
X000246Y003339D02*
X002079Y003339D01*
X002079Y003412D02*
X002079Y003412D01*
X002162Y003180D02*
X000247Y003180D01*
X000247Y003021D02*
X002320Y003021D01*
X002079Y005558D02*
X000237Y005558D01*
X000236Y005716D02*
X002079Y005716D01*
X002079Y005875D02*
X000236Y005875D01*
X000235Y006033D02*
X002079Y006033D01*
X002079Y006192D02*
X000234Y006192D01*
X000234Y006350D02*
X002079Y006350D01*
X002079Y006509D02*
X000233Y006509D01*
X000232Y006667D02*
X002079Y006667D01*
X002079Y006826D02*
X000232Y006826D01*
X000231Y006984D02*
X002079Y006984D01*
X002079Y007143D02*
X000231Y007143D01*
X000230Y007301D02*
X002079Y007301D01*
X002079Y007460D02*
X000229Y007460D01*
X000229Y007618D02*
X002079Y007618D01*
X002079Y007777D02*
X000228Y007777D01*
X000227Y007935D02*
X002079Y007935D01*
X000258Y007935D01*
X000257Y008094D02*
X002079Y008094D01*
X000227Y008094D01*
X000226Y008252D02*
X002079Y008252D01*
X000257Y008252D01*
X000256Y008411D02*
X002079Y008411D01*
X000225Y008411D01*
X000225Y008569D02*
X002079Y008569D01*
X000256Y008569D01*
X000255Y008728D02*
X002079Y008728D01*
X000224Y008728D01*
X000223Y008886D02*
X002079Y008886D01*
X000254Y008886D01*
X000254Y009045D02*
X002079Y009045D01*
X000223Y009045D01*
X000222Y009203D02*
X002079Y009203D01*
X000253Y009203D01*
X000252Y009362D02*
X002079Y009362D01*
X000222Y009362D01*
X000221Y009520D02*
X002079Y009520D01*
X000252Y009520D01*
X000251Y009679D02*
X002079Y009679D01*
X000220Y009679D01*
X000220Y009837D02*
X002079Y009837D01*
X000250Y009837D01*
X000250Y009996D02*
X002079Y009996D01*
X000219Y009996D01*
X000218Y010154D02*
X002079Y010154D01*
X000249Y010154D01*
X000248Y010313D02*
X002079Y010313D01*
X000218Y010313D01*
X000217Y010471D02*
X002079Y010471D01*
X000248Y010471D01*
X000247Y010630D02*
X002079Y010630D01*
X000216Y010630D01*
X000216Y010788D02*
X002152Y010788D01*
X000247Y010788D01*
X000246Y010947D02*
X002079Y010947D01*
X000215Y010947D01*
X000214Y011105D02*
X002079Y011105D01*
X000245Y011105D01*
X000245Y011264D02*
X002079Y011264D01*
X000214Y011264D01*
X000213Y011422D02*
X002079Y011422D01*
X000244Y011422D01*
X000243Y011581D02*
X002079Y011581D01*
X000213Y011581D01*
X000212Y011739D02*
X002079Y011739D01*
X000243Y011739D01*
X000242Y011898D02*
X002079Y011898D01*
X000211Y011898D01*
X000211Y012056D02*
X002079Y012056D01*
X000241Y012056D01*
X000241Y012215D02*
X002079Y012215D01*
X000210Y012215D01*
X000209Y012373D02*
X002079Y012373D01*
X000240Y012373D01*
X000239Y012532D02*
X002079Y012532D01*
X000209Y012532D01*
X000208Y012690D02*
X002079Y012690D01*
X000239Y012690D01*
X000238Y012849D02*
X002079Y012849D01*
X000207Y012849D01*
X000207Y013007D02*
X002079Y013007D01*
X000238Y013007D01*
X000237Y013166D02*
X002079Y013166D01*
X000206Y013166D01*
X000205Y013324D02*
X002079Y013324D01*
X000236Y013324D01*
X000236Y013483D02*
X002079Y013483D01*
X000205Y013483D01*
X000204Y013641D02*
X002079Y013641D01*
X000235Y013641D01*
X000234Y013800D02*
X002079Y013800D01*
X000204Y013800D01*
X000203Y013958D02*
X002079Y013958D01*
X000234Y013958D01*
X000233Y014117D02*
X002079Y014117D01*
X000202Y014117D01*
X000202Y014275D02*
X002079Y014275D01*
X000232Y014275D01*
X000232Y014434D02*
X002079Y014434D01*
X000201Y014434D01*
X000200Y014592D02*
X002079Y014592D01*
X000231Y014592D01*
X000230Y014751D02*
X002079Y014751D01*
X000200Y014751D01*
X000199Y014909D02*
X002079Y014909D01*
X000230Y014909D01*
X000229Y015068D02*
X002079Y015068D01*
X000198Y015068D01*
X000198Y015226D02*
X002079Y015226D01*
X000229Y015226D01*
X000228Y015385D02*
X002079Y015385D01*
X000197Y015385D01*
X000196Y015543D02*
X002079Y015543D01*
X000227Y015543D01*
X000227Y015702D02*
X002079Y015702D01*
X000196Y015702D01*
X000195Y015860D02*
X002079Y015860D01*
X000226Y015860D01*
X000225Y016019D02*
X002079Y016019D01*
X000195Y016019D01*
X000194Y016177D02*
X002079Y016177D01*
X000225Y016177D01*
X000224Y016336D02*
X002079Y016336D01*
X000193Y016336D01*
X000193Y016494D02*
X002079Y016494D01*
X000223Y016494D01*
X000223Y016653D02*
X002079Y016653D01*
X000192Y016653D01*
X000191Y016811D02*
X002079Y016811D01*
X000222Y016811D01*
X000221Y016970D02*
X002079Y016970D01*
X000191Y016970D01*
X000190Y017128D02*
X002079Y017128D01*
X000221Y017128D01*
X000214Y018713D02*
X026714Y018713D01*
X026684Y018713D02*
X000184Y018713D01*
X000183Y018872D02*
X026683Y018872D01*
X026714Y018872D02*
X000214Y018872D01*
X000213Y019030D02*
X026713Y019030D01*
X026682Y019030D02*
X000182Y019030D01*
X000182Y019189D02*
X026682Y019189D01*
X026712Y019189D02*
X000212Y019189D01*
X000212Y019347D02*
X026712Y019347D01*
X026681Y019347D02*
X000181Y019347D01*
X000180Y019506D02*
X026680Y019506D01*
X026711Y019506D02*
X000211Y019506D01*
X000211Y019664D02*
X026711Y019664D01*
X026710Y019823D02*
X000210Y019823D01*
X000209Y019981D02*
X026709Y019981D01*
X026709Y020140D02*
X000209Y020140D01*
X000208Y020298D02*
X026708Y020298D01*
X026707Y020457D02*
X000207Y020457D01*
X000207Y020615D02*
X026707Y020615D01*
X026706Y020774D02*
X000206Y020774D01*
X000205Y020932D02*
X026705Y020932D01*
X026705Y021091D02*
X000205Y021091D01*
X000204Y021249D02*
X026704Y021249D01*
X026703Y021408D02*
X000203Y021408D01*
X000203Y021566D02*
X026703Y021566D01*
X026702Y021725D02*
X000202Y021725D01*
X000202Y021883D02*
X026702Y021883D01*
X026701Y022042D02*
X000201Y022042D01*
X000200Y022200D02*
X026700Y022200D01*
X026700Y022359D02*
X000200Y022359D01*
X000199Y022517D02*
X026699Y022517D01*
X026698Y022676D02*
X000198Y022676D01*
X000198Y022834D02*
X026698Y022834D01*
X026697Y022993D02*
X000197Y022993D01*
X000196Y023151D02*
X026696Y023151D01*
X026696Y023310D02*
X000196Y023310D01*
X000195Y023468D02*
X026695Y023468D01*
X026694Y023627D02*
X000194Y023627D01*
X000194Y023785D02*
X026694Y023785D01*
X026693Y023944D02*
X000193Y023944D01*
X000193Y024102D02*
X026693Y024102D01*
X026692Y024261D02*
X000192Y024261D01*
X000191Y024419D02*
X026691Y024419D01*
X026691Y024578D02*
X000191Y024578D01*
X000190Y024736D02*
X026690Y024736D01*
X026689Y024895D02*
X000189Y024895D01*
X000189Y025053D02*
X026689Y025053D01*
X026688Y025212D02*
X000188Y025212D01*
X000187Y025370D02*
X026687Y025370D01*
X026687Y025529D02*
X000187Y025529D01*
X000186Y025687D02*
X026686Y025687D01*
X026685Y025846D02*
X000185Y025846D01*
X000185Y026004D02*
X026685Y026004D01*
X026684Y026163D02*
X000184Y026163D01*
X000184Y026321D02*
X026684Y026321D01*
X026683Y026480D02*
X000183Y026480D01*
X000182Y026638D02*
X026682Y026638D01*
X026682Y026797D02*
X000182Y026797D01*
X000181Y026955D02*
X026681Y026955D01*
X026680Y027114D02*
X000180Y027114D01*
X010372Y017921D02*
X010512Y017921D01*
X010372Y017921D01*
X010481Y017287D02*
X010550Y017287D01*
X010481Y017287D01*
X010364Y017128D02*
X010757Y017128D01*
X010364Y017128D01*
X011215Y017128D02*
X011609Y017128D01*
X011215Y017128D01*
X011422Y017287D02*
X011491Y017287D01*
X011422Y017287D01*
X011461Y017921D02*
X011601Y017921D01*
X011461Y017921D01*
X011314Y018079D02*
X012659Y018079D01*
X011314Y018079D01*
X012372Y017921D02*
X012512Y017921D01*
X012372Y017921D01*
X012481Y017287D02*
X012550Y017287D01*
X012481Y017287D01*
X012364Y017128D02*
X012757Y017128D01*
X012364Y017128D01*
X012081Y016554D02*
X011892Y016554D01*
X011717Y016481D01*
X011583Y016348D01*
X011511Y016173D01*
X011511Y015984D01*
X011583Y015809D01*
X011717Y015676D01*
X011892Y015603D01*
X012081Y015603D01*
X012256Y015676D01*
X012389Y015809D01*
X012462Y015984D01*
X012462Y016173D01*
X012389Y016348D01*
X012256Y016481D01*
X012081Y016554D01*
X011892Y016554D01*
X011717Y016481D01*
X011583Y016348D01*
X011511Y016173D01*
X011511Y015984D01*
X011583Y015809D01*
X011717Y015676D01*
X011892Y015603D01*
X012081Y015603D01*
X012256Y015676D01*
X012389Y015809D01*
X012462Y015984D01*
X012462Y016173D01*
X012389Y016348D01*
X012256Y016481D01*
X012081Y016554D01*
X012225Y016494D02*
X012748Y016494D01*
X012225Y016494D01*
X012394Y016336D02*
X012578Y016336D01*
X012394Y016336D01*
X012460Y016177D02*
X012513Y016177D01*
X012460Y016177D01*
X012511Y016173D02*
X012511Y015984D01*
X012583Y015809D01*
X012717Y015676D01*
X012892Y015603D01*
X013081Y015603D01*
X013256Y015676D01*
X013389Y015809D01*
X013462Y015984D01*
X013462Y016173D01*
X013389Y016348D01*
X013256Y016481D01*
X013081Y016554D01*
X012892Y016554D01*
X012717Y016481D01*
X012583Y016348D01*
X012511Y016173D01*
X012511Y015984D01*
X012583Y015809D01*
X012717Y015676D01*
X012892Y015603D01*
X013081Y015603D01*
X013256Y015676D01*
X013389Y015809D01*
X013462Y015984D01*
X013462Y016173D01*
X013389Y016348D01*
X013256Y016481D01*
X013081Y016554D01*
X012892Y016554D01*
X012717Y016481D01*
X012583Y016348D01*
X012511Y016173D01*
X012511Y016019D02*
X012462Y016019D01*
X012511Y016019D01*
X012562Y015860D02*
X012410Y015860D01*
X012562Y015860D01*
X012691Y015702D02*
X012282Y015702D01*
X012691Y015702D01*
X013282Y015702D02*
X013691Y015702D01*
X013282Y015702D01*
X013410Y015860D02*
X013562Y015860D01*
X013410Y015860D01*
X013511Y015984D02*
X013583Y015809D01*
X013717Y015676D01*
X013892Y015603D01*
X014081Y015603D01*
X014256Y015676D01*
X014389Y015809D01*
X014462Y015984D01*
X014462Y016173D01*
X014389Y016348D01*
X014256Y016481D01*
X014081Y016554D01*
X013892Y016554D01*
X013717Y016481D01*
X013583Y016348D01*
X013511Y016173D01*
X013511Y015984D01*
X013583Y015809D01*
X013717Y015676D01*
X013892Y015603D01*
X014081Y015603D01*
X014256Y015676D01*
X014389Y015809D01*
X014462Y015984D01*
X014462Y016173D01*
X014389Y016348D01*
X014256Y016481D01*
X014081Y016554D01*
X013892Y016554D01*
X013717Y016481D01*
X013583Y016348D01*
X013511Y016173D01*
X013511Y015984D01*
X013511Y016019D02*
X013462Y016019D01*
X013511Y016019D01*
X013513Y016177D02*
X013460Y016177D01*
X013513Y016177D01*
X013578Y016336D02*
X013394Y016336D01*
X013578Y016336D01*
X013748Y016494D02*
X013225Y016494D01*
X013748Y016494D01*
X014225Y016494D02*
X014748Y016494D01*
X014225Y016494D01*
X014394Y016336D02*
X014578Y016336D01*
X014394Y016336D01*
X014460Y016177D02*
X014513Y016177D01*
X014460Y016177D01*
X014511Y016173D02*
X014511Y015984D01*
X014583Y015809D01*
X014717Y015676D01*
X014892Y015603D01*
X015081Y015603D01*
X015256Y015676D01*
X015389Y015809D01*
X015462Y015984D01*
X015462Y016173D01*
X015389Y016348D01*
X015256Y016481D01*
X015081Y016554D01*
X014892Y016554D01*
X014717Y016481D01*
X014583Y016348D01*
X014511Y016173D01*
X014511Y015984D01*
X014583Y015809D01*
X014717Y015676D01*
X014892Y015603D01*
X015081Y015603D01*
X015256Y015676D01*
X015389Y015809D01*
X015462Y015984D01*
X015462Y016173D01*
X015389Y016348D01*
X015256Y016481D01*
X015081Y016554D01*
X014892Y016554D01*
X014717Y016481D01*
X014583Y016348D01*
X014511Y016173D01*
X014511Y016019D02*
X014462Y016019D01*
X014511Y016019D01*
X014562Y015860D02*
X014410Y015860D01*
X014562Y015860D01*
X014691Y015702D02*
X014282Y015702D01*
X014691Y015702D01*
X015282Y015702D02*
X015691Y015702D01*
X015282Y015702D01*
X015410Y015860D02*
X015562Y015860D01*
X015410Y015860D01*
X015511Y015984D02*
X015583Y015809D01*
X015717Y015676D01*
X015892Y015603D01*
X016081Y015603D01*
X016256Y015676D01*
X016389Y015809D01*
X016462Y015984D01*
X016462Y016173D01*
X016389Y016348D01*
X016256Y016481D01*
X016081Y016554D01*
X015892Y016554D01*
X015717Y016481D01*
X015583Y016348D01*
X015511Y016173D01*
X015511Y015984D01*
X015583Y015809D01*
X015717Y015676D01*
X015892Y015603D01*
X016081Y015603D01*
X016256Y015676D01*
X016389Y015809D01*
X016462Y015984D01*
X016462Y016173D01*
X016389Y016348D01*
X016256Y016481D01*
X016081Y016554D01*
X015892Y016554D01*
X015717Y016481D01*
X015583Y016348D01*
X015511Y016173D01*
X015511Y015984D01*
X015511Y016019D02*
X015462Y016019D01*
X015511Y016019D01*
X015513Y016177D02*
X015460Y016177D01*
X015513Y016177D01*
X015578Y016336D02*
X015394Y016336D01*
X015578Y016336D01*
X015748Y016494D02*
X015225Y016494D01*
X015748Y016494D01*
X016225Y016494D02*
X016748Y016494D01*
X016225Y016494D01*
X016394Y016336D02*
X016578Y016336D01*
X016394Y016336D01*
X016460Y016177D02*
X016513Y016177D01*
X016460Y016177D01*
X016511Y016173D02*
X016511Y015984D01*
X016583Y015809D01*
X016717Y015676D01*
X016892Y015603D01*
X017081Y015603D01*
X017256Y015676D01*
X017389Y015809D01*
X017462Y015984D01*
X017462Y016173D01*
X017389Y016348D01*
X017256Y016481D01*
X017081Y016554D01*
X016892Y016554D01*
X016717Y016481D01*
X016583Y016348D01*
X016511Y016173D01*
X016511Y015984D01*
X016583Y015809D01*
X016717Y015676D01*
X016892Y015603D01*
X017081Y015603D01*
X017256Y015676D01*
X017389Y015809D01*
X017462Y015984D01*
X017462Y016173D01*
X017389Y016348D01*
X017256Y016481D01*
X017081Y016554D01*
X016892Y016554D01*
X016717Y016481D01*
X016583Y016348D01*
X016511Y016173D01*
X016511Y016019D02*
X016462Y016019D01*
X016511Y016019D01*
X016562Y015860D02*
X016410Y015860D01*
X016562Y015860D01*
X016691Y015702D02*
X016282Y015702D01*
X016691Y015702D01*
X016728Y014937D02*
X016609Y014937D01*
X016498Y014891D01*
X016414Y014807D01*
X016368Y014696D01*
X016368Y014577D01*
X016403Y014492D01*
X016375Y014354D01*
X016284Y013688D01*
X016274Y013545D01*
X016237Y013507D01*
X016230Y013492D01*
X016081Y013554D01*
X015892Y013554D01*
X015717Y013481D01*
X015583Y013348D01*
X015511Y013173D01*
X015511Y012984D01*
X015583Y012809D01*
X015717Y012676D01*
X015892Y012603D01*
X016081Y012603D01*
X016256Y012676D01*
X016389Y012809D01*
X016462Y012984D01*
X016462Y013037D01*
X016511Y013037D01*
X016511Y012984D01*
X016583Y012809D01*
X016717Y012676D01*
X016892Y012603D01*
X017081Y012603D01*
X017256Y012676D01*
X017389Y012809D01*
X017462Y012984D01*
X017462Y013173D01*
X017389Y013348D01*
X017256Y013481D01*
X017081Y013554D01*
X016892Y013554D01*
X016750Y013495D01*
X016745Y013507D01*
X016737Y013516D01*
X016747Y013641D01*
X016834Y014276D01*
X016858Y014402D01*
X016923Y014467D01*
X016968Y014577D01*
X016968Y014696D01*
X016923Y014807D01*
X016838Y014891D01*
X016728Y014937D01*
X016609Y014937D01*
X016498Y014891D01*
X016414Y014807D01*
X016368Y014696D01*
X016368Y014577D01*
X016403Y014492D01*
X016375Y014354D01*
X016375Y014354D01*
X016284Y013688D01*
X016284Y013688D01*
X016274Y013545D01*
X016237Y013507D01*
X016230Y013492D01*
X016081Y013554D01*
X015892Y013554D01*
X015717Y013481D01*
X015583Y013348D01*
X015511Y013173D01*
X015511Y012984D01*
X015583Y012809D01*
X015717Y012676D01*
X015892Y012603D01*
X016081Y012603D01*
X016256Y012676D01*
X016389Y012809D01*
X016462Y012984D01*
X016462Y013037D01*
X016511Y013037D01*
X016511Y012984D01*
X016583Y012809D01*
X016717Y012676D01*
X016892Y012603D01*
X017081Y012603D01*
X017256Y012676D01*
X017389Y012809D01*
X017462Y012984D01*
X017462Y013173D01*
X017389Y013348D01*
X017256Y013481D01*
X017081Y013554D01*
X016892Y013554D01*
X016750Y013495D01*
X016745Y013507D01*
X016737Y013516D01*
X016747Y013641D01*
X016834Y014276D01*
X016858Y014402D01*
X016923Y014467D01*
X016968Y014577D01*
X016968Y014696D01*
X016923Y014807D01*
X016838Y014891D01*
X016728Y014937D01*
X016968Y014592D02*
X018754Y014592D01*
X016968Y014592D01*
X016889Y014434D02*
X018605Y014434D01*
X016889Y014434D01*
X016834Y014275D02*
X018539Y014275D01*
X016834Y014275D01*
X016812Y014117D02*
X018534Y014117D01*
X016812Y014117D01*
X016791Y013958D02*
X018576Y013958D01*
X016791Y013958D01*
X016769Y013800D02*
X018683Y013800D01*
X016769Y013800D01*
X016299Y013800D02*
X004640Y013800D01*
X016299Y013800D01*
X016284Y013688D02*
X016284Y013688D01*
X016281Y013641D02*
X004490Y013641D01*
X016281Y013641D01*
X016321Y013958D02*
X004685Y013958D01*
X016321Y013958D01*
X016342Y014117D02*
X004648Y014117D01*
X016342Y014117D01*
X016375Y014354D02*
X016375Y014354D01*
X015720Y013483D02*
X015253Y013483D01*
X015720Y013483D01*
X015574Y013324D02*
X015399Y013324D01*
X015574Y013324D01*
X015511Y013166D02*
X015462Y013166D01*
X015511Y013166D01*
X015462Y013173D02*
X015389Y013348D01*
X015256Y013481D01*
X015081Y013554D01*
X014892Y013554D01*
X014717Y013481D01*
X014583Y013348D01*
X014511Y013173D01*
X014511Y012984D01*
X014583Y012809D01*
X014717Y012676D01*
X014892Y012603D01*
X015081Y012603D01*
X015256Y012676D01*
X015389Y012809D01*
X015462Y012984D01*
X015462Y013173D01*
X015389Y013348D01*
X015256Y013481D01*
X015081Y013554D01*
X014892Y013554D01*
X014717Y013481D01*
X014583Y013348D01*
X014511Y013173D01*
X014511Y012984D01*
X014583Y012809D01*
X014717Y012676D01*
X014892Y012603D01*
X015081Y012603D01*
X015256Y012676D01*
X015389Y012809D01*
X015462Y012984D01*
X015462Y013173D01*
X015462Y013007D02*
X015511Y013007D01*
X015462Y013007D01*
X015406Y012849D02*
X015567Y012849D01*
X015406Y012849D01*
X015270Y012690D02*
X015703Y012690D01*
X015270Y012690D01*
X014703Y012690D02*
X014270Y012690D01*
X014703Y012690D01*
X014567Y012849D02*
X014406Y012849D01*
X014567Y012849D01*
X014511Y013007D02*
X014462Y013007D01*
X014511Y013007D01*
X014462Y012984D02*
X014389Y012809D01*
X014256Y012676D01*
X014081Y012603D01*
X013892Y012603D01*
X013717Y012676D01*
X013583Y012809D01*
X013511Y012984D01*
X013511Y013173D01*
X013583Y013348D01*
X013717Y013481D01*
X013892Y013554D01*
X014081Y013554D01*
X014256Y013481D01*
X014389Y013348D01*
X014462Y013173D01*
X014462Y012984D01*
X014389Y012809D01*
X014256Y012676D01*
X014081Y012603D01*
X013892Y012603D01*
X013717Y012676D01*
X013583Y012809D01*
X013511Y012984D01*
X013511Y013173D01*
X013583Y013348D01*
X013717Y013481D01*
X013892Y013554D01*
X014081Y013554D01*
X014256Y013481D01*
X014389Y013348D01*
X014462Y013173D01*
X014462Y012984D01*
X014462Y013166D02*
X014511Y013166D01*
X014462Y013166D01*
X014399Y013324D02*
X014574Y013324D01*
X014399Y013324D01*
X014253Y013483D02*
X014720Y013483D01*
X014253Y013483D01*
X013720Y013483D02*
X013253Y013483D01*
X013720Y013483D01*
X013574Y013324D02*
X013399Y013324D01*
X013574Y013324D01*
X013511Y013166D02*
X013462Y013166D01*
X013511Y013166D01*
X013462Y013173D02*
X013462Y012984D01*
X013389Y012809D01*
X013256Y012676D01*
X013081Y012603D01*
X012892Y012603D01*
X012717Y012676D01*
X012583Y012809D01*
X012511Y012984D01*
X012511Y013173D01*
X012583Y013348D01*
X012717Y013481D01*
X012892Y013554D01*
X013081Y013554D01*
X013256Y013481D01*
X013389Y013348D01*
X013462Y013173D01*
X013389Y013348D01*
X013256Y013481D01*
X013081Y013554D01*
X012892Y013554D01*
X012717Y013481D01*
X012583Y013348D01*
X012511Y013173D01*
X012511Y012984D01*
X012583Y012809D01*
X012717Y012676D01*
X012892Y012603D01*
X013081Y012603D01*
X013256Y012676D01*
X013389Y012809D01*
X013462Y012984D01*
X013462Y013173D01*
X013462Y013007D02*
X013511Y013007D01*
X013462Y013007D01*
X013406Y012849D02*
X013567Y012849D01*
X013406Y012849D01*
X013270Y012690D02*
X013703Y012690D01*
X013270Y012690D01*
X012703Y012690D02*
X012270Y012690D01*
X012703Y012690D01*
X012567Y012849D02*
X012406Y012849D01*
X012567Y012849D01*
X012511Y013007D02*
X012462Y013007D01*
X012511Y013007D01*
X012462Y012984D02*
X012389Y012809D01*
X012256Y012676D01*
X012081Y012603D01*
X011892Y012603D01*
X011717Y012676D01*
X011583Y012809D01*
X011511Y012984D01*
X011511Y013173D01*
X011583Y013348D01*
X011717Y013481D01*
X011892Y013554D01*
X012081Y013554D01*
X012256Y013481D01*
X012389Y013348D01*
X012462Y013173D01*
X012462Y012984D01*
X012389Y012809D01*
X012256Y012676D01*
X012081Y012603D01*
X011892Y012603D01*
X011717Y012676D01*
X011583Y012809D01*
X011511Y012984D01*
X011511Y013173D01*
X011583Y013348D01*
X011717Y013481D01*
X011892Y013554D01*
X012081Y013554D01*
X012256Y013481D01*
X012389Y013348D01*
X012462Y013173D01*
X012462Y012984D01*
X012462Y013166D02*
X012511Y013166D01*
X012462Y013166D01*
X012399Y013324D02*
X012574Y013324D01*
X012399Y013324D01*
X012253Y013483D02*
X012720Y013483D01*
X012253Y013483D01*
X011720Y013483D02*
X010253Y013483D01*
X010720Y013483D01*
X010717Y013481D02*
X010583Y013348D01*
X010511Y013173D01*
X010511Y012984D01*
X010583Y012809D01*
X010717Y012676D01*
X010892Y012603D01*
X011081Y012603D01*
X011256Y012676D01*
X011389Y012809D01*
X011462Y012984D01*
X011462Y013173D01*
X011389Y013348D01*
X011256Y013481D01*
X011081Y013554D01*
X010892Y013554D01*
X010717Y013481D01*
X010574Y013324D02*
X010399Y013324D01*
X011574Y013324D01*
X011399Y013324D01*
X011462Y013166D02*
X011511Y013166D01*
X010462Y013166D01*
X010511Y013166D01*
X010462Y013173D02*
X010462Y012984D01*
X010389Y012809D01*
X010256Y012676D01*
X010081Y012603D01*
X009892Y012603D01*
X009717Y012676D01*
X009583Y012809D01*
X009511Y012984D01*
X009511Y013173D01*
X009583Y013348D01*
X009717Y013481D01*
X009892Y013554D01*
X010081Y013554D01*
X010256Y013481D01*
X010389Y013348D01*
X010462Y013173D01*
X010389Y013348D01*
X010256Y013481D01*
X010081Y013554D01*
X009892Y013554D01*
X009717Y013481D01*
X009583Y013348D01*
X009511Y013173D01*
X009511Y012984D01*
X009583Y012809D01*
X009717Y012676D01*
X009892Y012603D01*
X010081Y012603D01*
X010256Y012676D01*
X010389Y012809D01*
X010462Y012984D01*
X010462Y013173D01*
X010462Y013007D02*
X011511Y013007D01*
X011462Y013007D01*
X011406Y012849D02*
X011567Y012849D01*
X010406Y012849D01*
X010567Y012849D01*
X010511Y013007D02*
X010462Y013007D01*
X010270Y012690D02*
X011703Y012690D01*
X011270Y012690D01*
X010703Y012690D02*
X010270Y012690D01*
X009703Y012690D02*
X009270Y012690D01*
X009703Y012690D01*
X009567Y012849D02*
X009406Y012849D01*
X009567Y012849D01*
X009511Y013007D02*
X009462Y013007D01*
X009511Y013007D01*
X009462Y012984D02*
X009389Y012809D01*
X009256Y012676D01*
X009081Y012603D01*
X008892Y012603D01*
X008717Y012676D01*
X008583Y012809D01*
X008511Y012984D01*
X008511Y013173D01*
X008583Y013348D01*
X008717Y013481D01*
X008892Y013554D01*
X009081Y013554D01*
X009256Y013481D01*
X009389Y013348D01*
X009462Y013173D01*
X009462Y012984D01*
X009389Y012809D01*
X009256Y012676D01*
X009081Y012603D01*
X008892Y012603D01*
X008717Y012676D01*
X008583Y012809D01*
X008511Y012984D01*
X008511Y013173D01*
X008583Y013348D01*
X008717Y013481D01*
X008892Y013554D01*
X009081Y013554D01*
X009256Y013481D01*
X009389Y013348D01*
X009462Y013173D01*
X009462Y012984D01*
X009462Y013166D02*
X009511Y013166D01*
X009462Y013166D01*
X009399Y013324D02*
X009574Y013324D01*
X009399Y013324D01*
X009253Y013483D02*
X009720Y013483D01*
X009253Y013483D01*
X008720Y013483D02*
X008253Y013483D01*
X008720Y013483D01*
X008574Y013324D02*
X008399Y013324D01*
X008574Y013324D01*
X008511Y013166D02*
X008462Y013166D01*
X008511Y013166D01*
X008462Y013173D02*
X008389Y013348D01*
X008256Y013481D01*
X008081Y013554D01*
X007892Y013554D01*
X007717Y013481D01*
X007583Y013348D01*
X007511Y013173D01*
X007511Y012984D01*
X007583Y012809D01*
X007717Y012676D01*
X007892Y012603D01*
X008081Y012603D01*
X008256Y012676D01*
X008389Y012809D01*
X008462Y012984D01*
X008462Y013173D01*
X008389Y013348D01*
X008256Y013481D01*
X008081Y013554D01*
X007892Y013554D01*
X007717Y013481D01*
X007583Y013348D01*
X007511Y013173D01*
X007511Y012984D01*
X007583Y012809D01*
X007717Y012676D01*
X007892Y012603D01*
X008081Y012603D01*
X008256Y012676D01*
X008389Y012809D01*
X008462Y012984D01*
X008462Y013173D01*
X008462Y013007D02*
X008511Y013007D01*
X008462Y013007D01*
X008406Y012849D02*
X008567Y012849D01*
X008406Y012849D01*
X008270Y012690D02*
X008703Y012690D01*
X008270Y012690D01*
X007703Y012690D02*
X007270Y012690D01*
X007703Y012690D01*
X007567Y012849D02*
X007406Y012849D01*
X007567Y012849D01*
X007511Y013007D02*
X007462Y013007D01*
X007511Y013007D01*
X007462Y012984D02*
X007389Y012809D01*
X007256Y012676D01*
X007081Y012603D01*
X006892Y012603D01*
X006717Y012676D01*
X006583Y012809D01*
X006511Y012984D01*
X006511Y013173D01*
X006583Y013348D01*
X006717Y013481D01*
X006892Y013554D01*
X007081Y013554D01*
X007256Y013481D01*
X007389Y013348D01*
X007462Y013173D01*
X007462Y012984D01*
X007389Y012809D01*
X007256Y012676D01*
X007081Y012603D01*
X006892Y012603D01*
X006717Y012676D01*
X006583Y012809D01*
X006511Y012984D01*
X006511Y013173D01*
X006583Y013348D01*
X006717Y013481D01*
X006892Y013554D01*
X007081Y013554D01*
X007256Y013481D01*
X007389Y013348D01*
X007462Y013173D01*
X007462Y012984D01*
X007462Y013166D02*
X007511Y013166D01*
X007462Y013166D01*
X007399Y013324D02*
X007574Y013324D01*
X007399Y013324D01*
X007253Y013483D02*
X007720Y013483D01*
X007253Y013483D01*
X006720Y013483D02*
X006253Y013483D01*
X006720Y013483D01*
X006574Y013324D02*
X006399Y013324D01*
X006574Y013324D01*
X006511Y013166D02*
X006462Y013166D01*
X006511Y013166D01*
X006462Y013173D02*
X006462Y012984D01*
X006389Y012809D01*
X006256Y012676D01*
X006081Y012603D01*
X005892Y012603D01*
X005717Y012676D01*
X005583Y012809D01*
X005511Y012984D01*
X005511Y013173D01*
X005583Y013348D01*
X005717Y013481D01*
X005892Y013554D01*
X006081Y013554D01*
X006256Y013481D01*
X006389Y013348D01*
X006462Y013173D01*
X006389Y013348D01*
X006256Y013481D01*
X006081Y013554D01*
X005892Y013554D01*
X005717Y013481D01*
X005583Y013348D01*
X005511Y013173D01*
X005511Y012984D01*
X005583Y012809D01*
X005717Y012676D01*
X005892Y012603D01*
X006081Y012603D01*
X006256Y012676D01*
X006389Y012809D01*
X006462Y012984D01*
X006462Y013173D01*
X006462Y013007D02*
X006511Y013007D01*
X006462Y013007D01*
X006406Y012849D02*
X006567Y012849D01*
X006406Y012849D01*
X006270Y012690D02*
X006703Y012690D01*
X006270Y012690D01*
X005703Y012690D02*
X005270Y012690D01*
X005703Y012690D01*
X005567Y012849D02*
X005406Y012849D01*
X005567Y012849D01*
X005511Y013007D02*
X005462Y013007D01*
X005511Y013007D01*
X005462Y012984D02*
X005389Y012809D01*
X005256Y012676D01*
X005081Y012603D01*
X004892Y012603D01*
X004717Y012676D01*
X004583Y012809D01*
X004511Y012984D01*
X004511Y013173D01*
X004583Y013348D01*
X004717Y013481D01*
X004892Y013554D01*
X005081Y013554D01*
X005256Y013481D01*
X005389Y013348D01*
X005462Y013173D01*
X005462Y012984D01*
X005389Y012809D01*
X005256Y012676D01*
X005081Y012603D01*
X004892Y012603D01*
X004717Y012676D01*
X004583Y012809D01*
X004511Y012984D01*
X004511Y013173D01*
X004583Y013348D01*
X004717Y013481D01*
X004892Y013554D01*
X005081Y013554D01*
X005256Y013481D01*
X005389Y013348D01*
X005462Y013173D01*
X005462Y012984D01*
X005462Y013166D02*
X005511Y013166D01*
X005462Y013166D01*
X005399Y013324D02*
X005574Y013324D01*
X005399Y013324D01*
X005253Y013483D02*
X005720Y013483D01*
X005253Y013483D01*
X004720Y013483D02*
X004419Y013483D01*
X004720Y013483D01*
X004574Y013324D02*
X004399Y013324D01*
X004574Y013324D01*
X004511Y013166D02*
X004462Y013166D01*
X004511Y013166D01*
X004511Y013007D02*
X004462Y013007D01*
X004511Y013007D01*
X004567Y012849D02*
X004406Y012849D01*
X004567Y012849D01*
X004703Y012690D02*
X004270Y012690D01*
X004703Y012690D01*
X004636Y012056D02*
X003323Y012056D01*
X004636Y012056D01*
X004502Y011898D02*
X003293Y011898D01*
X004502Y011898D01*
X004437Y011739D02*
X003211Y011739D01*
X004437Y011739D01*
X004436Y011581D02*
X003008Y011581D01*
X004436Y011581D01*
X004476Y011422D02*
X002439Y011422D01*
X004476Y011422D01*
X004573Y011264D02*
X002439Y011264D01*
X004573Y011264D01*
X004813Y011105D02*
X002439Y011105D01*
X004813Y011105D01*
X005160Y011105D02*
X005200Y011105D01*
X005160Y011105D01*
X005191Y010947D02*
X002503Y010947D01*
X005191Y010947D01*
X005289Y010788D02*
X002596Y010788D01*
X005289Y010788D01*
X005096Y010580D02*
X004877Y010580D01*
X004675Y010496D01*
X004520Y010342D01*
X004436Y010139D01*
X004436Y009921D01*
X004520Y009718D01*
X004675Y009564D01*
X004877Y009480D01*
X005096Y009480D01*
X005298Y009564D01*
X005453Y009718D01*
X005466Y009750D01*
X005520Y009618D01*
X005675Y009464D01*
X005877Y009380D01*
X006096Y009380D01*
X006298Y009464D01*
X006453Y009618D01*
X006507Y009750D01*
X006520Y009718D01*
X006675Y009564D01*
X006877Y009480D01*
X007096Y009480D01*
X007298Y009564D01*
X007453Y009718D01*
X007466Y009750D01*
X007520Y009618D01*
X007675Y009464D01*
X007877Y009380D01*
X008096Y009380D01*
X008298Y009464D01*
X008453Y009618D01*
X008507Y009750D01*
X008520Y009718D01*
X008675Y009564D01*
X008877Y009480D01*
X009096Y009480D01*
X009298Y009564D01*
X009453Y009718D01*
X009466Y009750D01*
X009520Y009618D01*
X009675Y009464D01*
X009877Y009380D01*
X010096Y009380D01*
X010298Y009464D01*
X010453Y009618D01*
X010507Y009750D01*
X010520Y009718D01*
X010675Y009564D01*
X010877Y009480D01*
X011096Y009480D01*
X011298Y009564D01*
X011453Y009718D01*
X011466Y009750D01*
X011520Y009618D01*
X011675Y009464D01*
X011877Y009380D01*
X012096Y009380D01*
X012298Y009464D01*
X012453Y009618D01*
X012507Y009750D01*
X012520Y009718D01*
X012675Y009564D01*
X012877Y009480D01*
X013096Y009480D01*
X013298Y009564D01*
X013453Y009718D01*
X013466Y009750D01*
X013520Y009618D01*
X013675Y009464D01*
X013877Y009380D01*
X014096Y009380D01*
X014298Y009464D01*
X014453Y009618D01*
X014507Y009750D01*
X014520Y009718D01*
X014675Y009564D01*
X014877Y009480D01*
X015096Y009480D01*
X015298Y009564D01*
X015453Y009718D01*
X015466Y009750D01*
X015520Y009618D01*
X015675Y009464D01*
X015877Y009380D01*
X016096Y009380D01*
X016298Y009464D01*
X016453Y009618D01*
X016536Y009821D01*
X016536Y010039D01*
X016453Y010242D01*
X016298Y010396D01*
X016096Y010480D01*
X015877Y010480D01*
X015675Y010396D01*
X015520Y010242D01*
X015507Y010210D01*
X015453Y010342D01*
X015298Y010496D01*
X015096Y010580D01*
X014877Y010580D01*
X014675Y010496D01*
X014520Y010342D01*
X014466Y010210D01*
X014453Y010242D01*
X014298Y010396D01*
X014096Y010480D01*
X013877Y010480D01*
X013675Y010396D01*
X013520Y010242D01*
X013507Y010210D01*
X013453Y010342D01*
X013298Y010496D01*
X013096Y010580D01*
X012877Y010580D01*
X012675Y010496D01*
X012520Y010342D01*
X012466Y010210D01*
X012453Y010242D01*
X012298Y010396D01*
X012096Y010480D01*
X011877Y010480D01*
X011675Y010396D01*
X011520Y010242D01*
X011507Y010210D01*
X011453Y010342D01*
X011298Y010496D01*
X011096Y010580D01*
X010877Y010580D01*
X010675Y010496D01*
X010520Y010342D01*
X010466Y010210D01*
X010453Y010242D01*
X010298Y010396D01*
X010096Y010480D01*
X009877Y010480D01*
X009675Y010396D01*
X009520Y010242D01*
X009507Y010210D01*
X009453Y010342D01*
X009298Y010496D01*
X009096Y010580D01*
X008877Y010580D01*
X008675Y010496D01*
X008520Y010342D01*
X008466Y010210D01*
X008453Y010242D01*
X008298Y010396D01*
X008096Y010480D01*
X007877Y010480D01*
X007675Y010396D01*
X007520Y010242D01*
X007507Y010210D01*
X007453Y010342D01*
X007298Y010496D01*
X007096Y010580D01*
X006877Y010580D01*
X006675Y010496D01*
X006520Y010342D01*
X006466Y010210D01*
X006453Y010242D01*
X006298Y010396D01*
X006096Y010480D01*
X005877Y010480D01*
X005675Y010396D01*
X005520Y010242D01*
X005507Y010210D01*
X005453Y010342D01*
X005298Y010496D01*
X005096Y010580D01*
X004877Y010580D01*
X004675Y010496D01*
X004520Y010342D01*
X004436Y010139D01*
X004436Y009921D01*
X004520Y009718D01*
X004675Y009564D01*
X004877Y009480D01*
X005096Y009480D01*
X005298Y009564D01*
X005453Y009718D01*
X005466Y009750D01*
X005520Y009618D01*
X005675Y009464D01*
X005877Y009380D01*
X006096Y009380D01*
X006298Y009464D01*
X006453Y009618D01*
X006507Y009750D01*
X006520Y009718D01*
X006675Y009564D01*
X006877Y009480D01*
X007096Y009480D01*
X007298Y009564D01*
X007453Y009718D01*
X007466Y009750D01*
X007520Y009618D01*
X007675Y009464D01*
X007877Y009380D01*
X008096Y009380D01*
X008298Y009464D01*
X008453Y009618D01*
X008507Y009750D01*
X008520Y009718D01*
X008675Y009564D01*
X008877Y009480D01*
X009096Y009480D01*
X009298Y009564D01*
X009453Y009718D01*
X009466Y009750D01*
X009520Y009618D01*
X009675Y009464D01*
X009877Y009380D01*
X010096Y009380D01*
X010298Y009464D01*
X010453Y009618D01*
X010507Y009750D01*
X010520Y009718D01*
X010675Y009564D01*
X010877Y009480D01*
X011096Y009480D01*
X011298Y009564D01*
X011453Y009718D01*
X011466Y009750D01*
X011520Y009618D01*
X011675Y009464D01*
X011877Y009380D01*
X012096Y009380D01*
X012298Y009464D01*
X012453Y009618D01*
X012507Y009750D01*
X012520Y009718D01*
X012675Y009564D01*
X012877Y009480D01*
X013096Y009480D01*
X013298Y009564D01*
X013453Y009718D01*
X013466Y009750D01*
X013520Y009618D01*
X013675Y009464D01*
X013877Y009380D01*
X014096Y009380D01*
X014298Y009464D01*
X014453Y009618D01*
X014507Y009750D01*
X014520Y009718D01*
X014675Y009564D01*
X014877Y009480D01*
X015096Y009480D01*
X015298Y009564D01*
X015453Y009718D01*
X015466Y009750D01*
X015520Y009618D01*
X015675Y009464D01*
X015877Y009380D01*
X016096Y009380D01*
X016298Y009464D01*
X016453Y009618D01*
X016536Y009821D01*
X016536Y010039D01*
X016453Y010242D01*
X016298Y010396D01*
X016096Y010480D01*
X015877Y010480D01*
X015675Y010396D01*
X015520Y010242D01*
X015507Y010210D01*
X015453Y010342D01*
X015298Y010496D01*
X015096Y010580D01*
X014877Y010580D01*
X014675Y010496D01*
X014520Y010342D01*
X014466Y010210D01*
X014453Y010242D01*
X014298Y010396D01*
X014096Y010480D01*
X013877Y010480D01*
X013675Y010396D01*
X013520Y010242D01*
X013507Y010210D01*
X013453Y010342D01*
X013298Y010496D01*
X013096Y010580D01*
X012877Y010580D01*
X012675Y010496D01*
X012520Y010342D01*
X012466Y010210D01*
X012453Y010242D01*
X012298Y010396D01*
X012096Y010480D01*
X011877Y010480D01*
X011675Y010396D01*
X011520Y010242D01*
X011507Y010210D01*
X011453Y010342D01*
X011298Y010496D01*
X011096Y010580D01*
X010877Y010580D01*
X010675Y010496D01*
X010520Y010342D01*
X010466Y010210D01*
X010453Y010242D01*
X010298Y010396D01*
X010096Y010480D01*
X009877Y010480D01*
X009675Y010396D01*
X009520Y010242D01*
X009507Y010210D01*
X009453Y010342D01*
X009298Y010496D01*
X009096Y010580D01*
X008877Y010580D01*
X008675Y010496D01*
X008520Y010342D01*
X008466Y010210D01*
X008453Y010242D01*
X008298Y010396D01*
X008096Y010480D01*
X007877Y010480D01*
X007675Y010396D01*
X007520Y010242D01*
X007507Y010210D01*
X007453Y010342D01*
X007298Y010496D01*
X007096Y010580D01*
X006877Y010580D01*
X006675Y010496D01*
X006520Y010342D01*
X006466Y010210D01*
X006453Y010242D01*
X006298Y010396D01*
X006096Y010480D01*
X005877Y010480D01*
X005675Y010396D01*
X005520Y010242D01*
X005507Y010210D01*
X005453Y010342D01*
X005298Y010496D01*
X005096Y010580D01*
X005323Y010471D02*
X005855Y010471D01*
X005323Y010471D01*
X005465Y010313D02*
X005591Y010313D01*
X005465Y010313D01*
X005495Y009679D02*
X005413Y009679D01*
X005495Y009679D01*
X005618Y009520D02*
X005192Y009520D01*
X005618Y009520D01*
X005892Y008955D02*
X005717Y008883D01*
X005583Y008749D01*
X005511Y008575D01*
X005511Y008385D01*
X005583Y008211D01*
X005717Y008077D01*
X005892Y008005D01*
X006081Y008005D01*
X006256Y008077D01*
X006389Y008211D01*
X006462Y008385D01*
X006462Y008575D01*
X006389Y008749D01*
X006256Y008883D01*
X006081Y008955D01*
X005892Y008955D01*
X005717Y008883D01*
X005583Y008749D01*
X005511Y008575D01*
X005511Y008385D01*
X005583Y008211D01*
X005717Y008077D01*
X005892Y008005D01*
X006081Y008005D01*
X006256Y008077D01*
X006389Y008211D01*
X006462Y008385D01*
X006462Y008575D01*
X006389Y008749D01*
X006256Y008883D01*
X006081Y008955D01*
X005892Y008955D01*
X005725Y008886D02*
X005248Y008886D01*
X005725Y008886D01*
X005574Y008728D02*
X005398Y008728D01*
X005574Y008728D01*
X005511Y008569D02*
X005462Y008569D01*
X005511Y008569D01*
X005462Y008575D02*
X005389Y008749D01*
X005256Y008883D01*
X005081Y008955D01*
X004892Y008955D01*
X004717Y008883D01*
X004583Y008749D01*
X004511Y008575D01*
X004511Y008385D01*
X004583Y008211D01*
X004717Y008077D01*
X004892Y008005D01*
X005081Y008005D01*
X005256Y008077D01*
X005389Y008211D01*
X005462Y008385D01*
X005462Y008575D01*
X005389Y008749D01*
X005256Y008883D01*
X005081Y008955D01*
X004892Y008955D01*
X004717Y008883D01*
X004583Y008749D01*
X004511Y008575D01*
X004511Y008385D01*
X004583Y008211D01*
X004717Y008077D01*
X004892Y008005D01*
X005081Y008005D01*
X005256Y008077D01*
X005389Y008211D01*
X005462Y008385D01*
X005462Y008575D01*
X005462Y008411D02*
X005511Y008411D01*
X005462Y008411D01*
X005406Y008252D02*
X005566Y008252D01*
X005406Y008252D01*
X005272Y008094D02*
X005701Y008094D01*
X005272Y008094D01*
X004701Y008094D02*
X004272Y008094D01*
X004701Y008094D01*
X004566Y008252D02*
X004406Y008252D01*
X004566Y008252D01*
X004511Y008411D02*
X004462Y008411D01*
X004511Y008411D01*
X004462Y008385D02*
X004389Y008211D01*
X004256Y008077D01*
X004081Y008005D01*
X003892Y008005D01*
X003717Y008077D01*
X003583Y008211D01*
X003511Y008385D01*
X003511Y008575D01*
X003583Y008749D01*
X003717Y008883D01*
X003892Y008955D01*
X004081Y008955D01*
X004256Y008883D01*
X004389Y008749D01*
X004462Y008575D01*
X004462Y008385D01*
X004389Y008211D01*
X004256Y008077D01*
X004081Y008005D01*
X003892Y008005D01*
X003717Y008077D01*
X003583Y008211D01*
X003511Y008385D01*
X003511Y008575D01*
X003583Y008749D01*
X003717Y008883D01*
X003892Y008955D01*
X004081Y008955D01*
X004256Y008883D01*
X004389Y008749D01*
X004462Y008575D01*
X004462Y008385D01*
X004462Y008569D02*
X004511Y008569D01*
X004462Y008569D01*
X004398Y008728D02*
X004574Y008728D01*
X004398Y008728D01*
X004248Y008886D02*
X004725Y008886D01*
X004248Y008886D01*
X003725Y008886D02*
X003144Y008886D01*
X003265Y008728D02*
X003574Y008728D01*
X002439Y008728D01*
X002439Y008886D02*
X003725Y008886D01*
X003511Y008569D02*
X003323Y008569D01*
X003323Y008411D02*
X003511Y008411D01*
X002439Y008411D01*
X002439Y008569D02*
X003511Y008569D01*
X003566Y008252D02*
X003273Y008252D01*
X003164Y008094D02*
X003701Y008094D01*
X002439Y008094D01*
X002439Y008252D02*
X003566Y008252D01*
X002550Y007935D02*
X002439Y007935D01*
X002439Y009679D02*
X004560Y009679D01*
X003386Y009679D01*
X003293Y009837D02*
X004471Y009837D01*
X002439Y009837D01*
X002452Y009837D01*
X002439Y009996D02*
X002680Y009996D01*
X002439Y009996D02*
X004436Y009996D01*
X003065Y009996D01*
X002439Y010154D02*
X004442Y010154D01*
X002439Y010154D01*
X002439Y010313D02*
X004508Y010313D01*
X002439Y010313D01*
X002439Y010471D02*
X004649Y010471D01*
X002439Y010471D01*
X002491Y010598D02*
X002491Y010598D01*
X002439Y011581D02*
X002537Y011581D01*
X002439Y011581D01*
X003311Y012215D02*
X018534Y012215D01*
X003311Y012215D01*
X003492Y012373D02*
X018547Y012373D01*
X003492Y012373D01*
X003684Y012532D02*
X018615Y012532D01*
X003684Y012532D01*
X003511Y013007D02*
X003423Y013007D01*
X003511Y013007D01*
X003511Y013166D02*
X003423Y013166D01*
X003511Y013166D01*
X003574Y013324D02*
X003366Y013324D01*
X003574Y013324D01*
X003720Y013483D02*
X003246Y013483D01*
X003720Y013483D01*
X003986Y013641D02*
X003113Y013641D01*
X003986Y013641D01*
X004057Y013800D02*
X003252Y013800D01*
X004057Y013800D01*
X004085Y013958D02*
X003318Y013958D01*
X004085Y013958D01*
X004122Y014117D02*
X003323Y014117D01*
X004122Y014117D01*
X002559Y015543D02*
X002439Y015543D01*
X005337Y012056D02*
X005823Y012056D01*
X005337Y012056D01*
X005470Y011898D02*
X005578Y011898D01*
X005470Y011898D01*
X006150Y012056D02*
X006636Y012056D01*
X006150Y012056D01*
X006395Y011898D02*
X006502Y011898D01*
X006395Y011898D01*
X007026Y011078D02*
X007096Y011078D01*
X007298Y011162D01*
X007453Y011317D01*
X007466Y011348D01*
X007520Y011217D01*
X007675Y011062D01*
X007877Y010978D01*
X008096Y010978D01*
X008298Y011062D01*
X008453Y011217D01*
X008507Y011348D01*
X008520Y011317D01*
X008675Y011162D01*
X008877Y011078D01*
X009096Y011078D01*
X009298Y011162D01*
X009453Y011317D01*
X009466Y011348D01*
X009453Y011317D01*
X009298Y011162D01*
X009096Y011078D01*
X008877Y011078D01*
X008675Y011162D01*
X008520Y011317D01*
X008507Y011348D01*
X008453Y011217D01*
X008298Y011062D01*
X008096Y010978D01*
X007877Y010978D01*
X007675Y011062D01*
X007520Y011217D01*
X007466Y011348D01*
X007453Y011317D01*
X007298Y011162D01*
X007096Y011078D01*
X007026Y011078D01*
X006868Y010915D01*
X007026Y011078D01*
X007160Y011105D02*
X007632Y011105D01*
X007160Y011105D01*
X007399Y011264D02*
X007501Y011264D01*
X007399Y011264D01*
X006899Y010947D02*
X014016Y010947D01*
X006899Y010947D01*
X006568Y010788D02*
X014283Y010788D01*
X006568Y010788D01*
X006649Y010471D02*
X006117Y010471D01*
X006649Y010471D01*
X006508Y010313D02*
X006382Y010313D01*
X006508Y010313D01*
X006477Y009679D02*
X006560Y009679D01*
X006477Y009679D01*
X006354Y009520D02*
X006780Y009520D01*
X006354Y009520D01*
X006248Y008886D02*
X006725Y008886D01*
X006248Y008886D01*
X006398Y008728D02*
X006574Y008728D01*
X006398Y008728D01*
X006462Y008569D02*
X006511Y008569D01*
X006462Y008569D01*
X006511Y008575D02*
X006511Y008385D01*
X006583Y008211D01*
X006717Y008077D01*
X006892Y008005D01*
X007081Y008005D01*
X007256Y008077D01*
X007389Y008211D01*
X007462Y008385D01*
X007462Y008575D01*
X007389Y008749D01*
X007256Y008883D01*
X007081Y008955D01*
X006892Y008955D01*
X006717Y008883D01*
X006583Y008749D01*
X006511Y008575D01*
X006511Y008385D01*
X006583Y008211D01*
X006717Y008077D01*
X006892Y008005D01*
X007081Y008005D01*
X007256Y008077D01*
X007389Y008211D01*
X007462Y008385D01*
X007462Y008575D01*
X007389Y008749D01*
X007256Y008883D01*
X007081Y008955D01*
X006892Y008955D01*
X006717Y008883D01*
X006583Y008749D01*
X006511Y008575D01*
X006511Y008411D02*
X006462Y008411D01*
X006511Y008411D01*
X006566Y008252D02*
X006406Y008252D01*
X006566Y008252D01*
X006701Y008094D02*
X006272Y008094D01*
X006701Y008094D01*
X007272Y008094D02*
X007701Y008094D01*
X007272Y008094D01*
X007406Y008252D02*
X007566Y008252D01*
X007406Y008252D01*
X007462Y008411D02*
X007511Y008411D01*
X007462Y008411D01*
X007511Y008385D02*
X007583Y008211D01*
X007717Y008077D01*
X007892Y008005D01*
X008081Y008005D01*
X008256Y008077D01*
X008389Y008211D01*
X008462Y008385D01*
X008462Y008575D01*
X008389Y008749D01*
X008256Y008883D01*
X008081Y008955D01*
X007892Y008955D01*
X007717Y008883D01*
X007583Y008749D01*
X007511Y008575D01*
X007511Y008385D01*
X007583Y008211D01*
X007717Y008077D01*
X007892Y008005D01*
X008081Y008005D01*
X008256Y008077D01*
X008389Y008211D01*
X008462Y008385D01*
X008462Y008575D01*
X008389Y008749D01*
X008256Y008883D01*
X008081Y008955D01*
X007892Y008955D01*
X007717Y008883D01*
X007583Y008749D01*
X007511Y008575D01*
X007511Y008385D01*
X007511Y008569D02*
X007462Y008569D01*
X007511Y008569D01*
X007574Y008728D02*
X007398Y008728D01*
X007574Y008728D01*
X007725Y008886D02*
X007248Y008886D01*
X007725Y008886D01*
X008248Y008886D02*
X008725Y008886D01*
X008248Y008886D01*
X008398Y008728D02*
X008574Y008728D01*
X008398Y008728D01*
X008462Y008569D02*
X008511Y008569D01*
X008462Y008569D01*
X008511Y008575D02*
X008511Y008385D01*
X008583Y008211D01*
X008717Y008077D01*
X008892Y008005D01*
X009081Y008005D01*
X009256Y008077D01*
X009389Y008211D01*
X009462Y008385D01*
X009462Y008575D01*
X009389Y008749D01*
X009256Y008883D01*
X009081Y008955D01*
X008892Y008955D01*
X008717Y008883D01*
X008583Y008749D01*
X008511Y008575D01*
X008511Y008385D01*
X008583Y008211D01*
X008717Y008077D01*
X008892Y008005D01*
X009081Y008005D01*
X009256Y008077D01*
X009389Y008211D01*
X009462Y008385D01*
X009462Y008575D01*
X009389Y008749D01*
X009256Y008883D01*
X009081Y008955D01*
X008892Y008955D01*
X008717Y008883D01*
X008583Y008749D01*
X008511Y008575D01*
X008511Y008411D02*
X008462Y008411D01*
X008511Y008411D01*
X008566Y008252D02*
X008406Y008252D01*
X008566Y008252D01*
X008701Y008094D02*
X008272Y008094D01*
X008701Y008094D01*
X009272Y008094D02*
X009701Y008094D01*
X009717Y008077D02*
X009892Y008005D01*
X010081Y008005D01*
X010256Y008077D01*
X010389Y008211D01*
X010462Y008385D01*
X010462Y008575D01*
X010389Y008749D01*
X010256Y008883D01*
X010081Y008955D01*
X009892Y008955D01*
X009717Y008883D01*
X009583Y008749D01*
X009511Y008575D01*
X009511Y008385D01*
X009583Y008211D01*
X009717Y008077D01*
X009566Y008252D02*
X009406Y008252D01*
X010566Y008252D01*
X010406Y008252D01*
X010462Y008411D02*
X010511Y008411D01*
X009462Y008411D01*
X009511Y008411D01*
X009511Y008569D02*
X009462Y008569D01*
X010511Y008569D01*
X010462Y008569D01*
X010511Y008575D02*
X010511Y008385D01*
X010583Y008211D01*
X010717Y008077D01*
X010892Y008005D01*
X011081Y008005D01*
X011256Y008077D01*
X011389Y008211D01*
X011462Y008385D01*
X011462Y008575D01*
X011389Y008749D01*
X011256Y008883D01*
X011081Y008955D01*
X010892Y008955D01*
X010717Y008883D01*
X010583Y008749D01*
X010511Y008575D01*
X010511Y008385D01*
X010583Y008211D01*
X010717Y008077D01*
X010892Y008005D01*
X011081Y008005D01*
X011256Y008077D01*
X011389Y008211D01*
X011462Y008385D01*
X011462Y008575D01*
X011389Y008749D01*
X011256Y008883D01*
X011081Y008955D01*
X010892Y008955D01*
X010717Y008883D01*
X010583Y008749D01*
X010511Y008575D01*
X010574Y008728D02*
X010398Y008728D01*
X010574Y008728D02*
X009398Y008728D01*
X009574Y008728D01*
X009725Y008886D02*
X009248Y008886D01*
X010725Y008886D01*
X010248Y008886D01*
X010354Y009520D02*
X010780Y009520D01*
X010354Y009520D01*
X010477Y009679D02*
X010560Y009679D01*
X010477Y009679D01*
X010508Y010313D02*
X010382Y010313D01*
X010508Y010313D01*
X010649Y010471D02*
X010117Y010471D01*
X010649Y010471D01*
X010813Y011105D02*
X010341Y011105D01*
X010813Y011105D01*
X010573Y011264D02*
X010472Y011264D01*
X010573Y011264D01*
X011160Y011105D02*
X011632Y011105D01*
X011160Y011105D01*
X011399Y011264D02*
X011501Y011264D01*
X011399Y011264D01*
X011470Y011898D02*
X011578Y011898D01*
X011470Y011898D01*
X011337Y012056D02*
X011823Y012056D01*
X011337Y012056D01*
X010636Y012056D02*
X010150Y012056D01*
X010636Y012056D01*
X010502Y011898D02*
X010395Y011898D01*
X010502Y011898D01*
X009823Y012056D02*
X009337Y012056D01*
X009823Y012056D01*
X009578Y011898D02*
X009470Y011898D01*
X009578Y011898D01*
X009501Y011264D02*
X009399Y011264D01*
X009501Y011264D01*
X009632Y011105D02*
X009160Y011105D01*
X009632Y011105D01*
X009855Y010471D02*
X009323Y010471D01*
X009855Y010471D01*
X009591Y010313D02*
X009465Y010313D01*
X009591Y010313D01*
X009495Y009679D02*
X009413Y009679D01*
X009495Y009679D01*
X009618Y009520D02*
X009192Y009520D01*
X009618Y009520D01*
X008780Y009520D02*
X008354Y009520D01*
X008780Y009520D01*
X008560Y009679D02*
X008477Y009679D01*
X008560Y009679D01*
X008508Y010313D02*
X008382Y010313D01*
X008508Y010313D01*
X008649Y010471D02*
X008117Y010471D01*
X008649Y010471D01*
X008813Y011105D02*
X008341Y011105D01*
X008813Y011105D01*
X008573Y011264D02*
X008472Y011264D01*
X008573Y011264D01*
X008502Y011898D02*
X008395Y011898D01*
X008502Y011898D01*
X008636Y012056D02*
X008150Y012056D01*
X008636Y012056D01*
X007823Y012056D02*
X007337Y012056D01*
X007823Y012056D01*
X007578Y011898D02*
X007470Y011898D01*
X007578Y011898D01*
X007323Y010471D02*
X007855Y010471D01*
X007323Y010471D01*
X007465Y010313D02*
X007591Y010313D01*
X007465Y010313D01*
X007495Y009679D02*
X007413Y009679D01*
X007495Y009679D01*
X007618Y009520D02*
X007192Y009520D01*
X007618Y009520D01*
X009272Y008094D02*
X010701Y008094D01*
X010272Y008094D01*
X011272Y008094D02*
X011701Y008094D01*
X011272Y008094D01*
X011406Y008252D02*
X011566Y008252D01*
X011406Y008252D01*
X011462Y008411D02*
X011511Y008411D01*
X011462Y008411D01*
X011511Y008385D02*
X011583Y008211D01*
X011717Y008077D01*
X011892Y008005D01*
X012081Y008005D01*
X012256Y008077D01*
X012389Y008211D01*
X012462Y008385D01*
X012462Y008575D01*
X012389Y008749D01*
X012256Y008883D01*
X012081Y008955D01*
X011892Y008955D01*
X011717Y008883D01*
X011583Y008749D01*
X011511Y008575D01*
X011511Y008385D01*
X011583Y008211D01*
X011717Y008077D01*
X011892Y008005D01*
X012081Y008005D01*
X012256Y008077D01*
X012389Y008211D01*
X012462Y008385D01*
X012462Y008575D01*
X012389Y008749D01*
X012256Y008883D01*
X012081Y008955D01*
X011892Y008955D01*
X011717Y008883D01*
X011583Y008749D01*
X011511Y008575D01*
X011511Y008385D01*
X011511Y008569D02*
X011462Y008569D01*
X011511Y008569D01*
X011574Y008728D02*
X011398Y008728D01*
X011574Y008728D01*
X011725Y008886D02*
X011248Y008886D01*
X011725Y008886D01*
X012248Y008886D02*
X012725Y008886D01*
X012248Y008886D01*
X012398Y008728D02*
X012574Y008728D01*
X012398Y008728D01*
X012462Y008569D02*
X012511Y008569D01*
X012462Y008569D01*
X012511Y008575D02*
X012511Y008385D01*
X012583Y008211D01*
X012717Y008077D01*
X012892Y008005D01*
X013081Y008005D01*
X013256Y008077D01*
X013389Y008211D01*
X013462Y008385D01*
X013462Y008575D01*
X013389Y008749D01*
X013256Y008883D01*
X013081Y008955D01*
X012892Y008955D01*
X012717Y008883D01*
X012583Y008749D01*
X012511Y008575D01*
X012511Y008385D01*
X012583Y008211D01*
X012717Y008077D01*
X012892Y008005D01*
X013081Y008005D01*
X013256Y008077D01*
X013389Y008211D01*
X013462Y008385D01*
X013462Y008575D01*
X013389Y008749D01*
X013256Y008883D01*
X013081Y008955D01*
X012892Y008955D01*
X012717Y008883D01*
X012583Y008749D01*
X012511Y008575D01*
X012511Y008411D02*
X012462Y008411D01*
X012511Y008411D01*
X012566Y008252D02*
X012406Y008252D01*
X012566Y008252D01*
X012701Y008094D02*
X012272Y008094D01*
X012701Y008094D01*
X013272Y008094D02*
X013701Y008094D01*
X013272Y008094D01*
X013406Y008252D02*
X013566Y008252D01*
X013406Y008252D01*
X013462Y008411D02*
X013511Y008411D01*
X013462Y008411D01*
X013511Y008385D02*
X013583Y008211D01*
X013717Y008077D01*
X013892Y008005D01*
X014081Y008005D01*
X014256Y008077D01*
X014389Y008211D01*
X014462Y008385D01*
X014462Y008575D01*
X014389Y008749D01*
X014256Y008883D01*
X014081Y008955D01*
X013892Y008955D01*
X013717Y008883D01*
X013583Y008749D01*
X013511Y008575D01*
X013511Y008385D01*
X013583Y008211D01*
X013717Y008077D01*
X013892Y008005D01*
X014081Y008005D01*
X014256Y008077D01*
X014389Y008211D01*
X014462Y008385D01*
X014462Y008575D01*
X014389Y008749D01*
X014256Y008883D01*
X014081Y008955D01*
X013892Y008955D01*
X013717Y008883D01*
X013583Y008749D01*
X013511Y008575D01*
X013511Y008385D01*
X013511Y008569D02*
X013462Y008569D01*
X013511Y008569D01*
X013574Y008728D02*
X013398Y008728D01*
X013574Y008728D01*
X013725Y008886D02*
X013248Y008886D01*
X013725Y008886D01*
X014248Y008886D02*
X014725Y008886D01*
X014248Y008886D01*
X014398Y008728D02*
X014574Y008728D01*
X014398Y008728D01*
X014462Y008569D02*
X014511Y008569D01*
X014462Y008569D01*
X014511Y008575D02*
X014511Y008385D01*
X014583Y008211D01*
X014717Y008077D01*
X014892Y008005D01*
X015081Y008005D01*
X015256Y008077D01*
X015389Y008211D01*
X015462Y008385D01*
X015462Y008575D01*
X015389Y008749D01*
X015256Y008883D01*
X015081Y008955D01*
X014892Y008955D01*
X014717Y008883D01*
X014583Y008749D01*
X014511Y008575D01*
X014511Y008385D01*
X014583Y008211D01*
X014717Y008077D01*
X014892Y008005D01*
X015081Y008005D01*
X015256Y008077D01*
X015389Y008211D01*
X015462Y008385D01*
X015462Y008575D01*
X015389Y008749D01*
X015256Y008883D01*
X015081Y008955D01*
X014892Y008955D01*
X014717Y008883D01*
X014583Y008749D01*
X014511Y008575D01*
X014511Y008411D02*
X014462Y008411D01*
X014511Y008411D01*
X014566Y008252D02*
X014406Y008252D01*
X014566Y008252D01*
X014701Y008094D02*
X014272Y008094D01*
X014701Y008094D01*
X015272Y008094D02*
X015701Y008094D01*
X015272Y008094D01*
X015406Y008252D02*
X015566Y008252D01*
X015406Y008252D01*
X015462Y008411D02*
X015511Y008411D01*
X015462Y008411D01*
X015511Y008385D02*
X015583Y008211D01*
X015717Y008077D01*
X015892Y008005D01*
X016081Y008005D01*
X016256Y008077D01*
X016389Y008211D01*
X016462Y008385D01*
X016462Y008575D01*
X016389Y008749D01*
X016256Y008883D01*
X016081Y008955D01*
X015892Y008955D01*
X015717Y008883D01*
X015583Y008749D01*
X015511Y008575D01*
X015511Y008385D01*
X015583Y008211D01*
X015717Y008077D01*
X015892Y008005D01*
X016081Y008005D01*
X016256Y008077D01*
X016389Y008211D01*
X016462Y008385D01*
X016462Y008575D01*
X016389Y008749D01*
X016256Y008883D01*
X016081Y008955D01*
X015892Y008955D01*
X015717Y008883D01*
X015583Y008749D01*
X015511Y008575D01*
X015511Y008385D01*
X015511Y008569D02*
X015462Y008569D01*
X015511Y008569D01*
X015574Y008728D02*
X015398Y008728D01*
X015574Y008728D01*
X015725Y008886D02*
X015248Y008886D01*
X015725Y008886D01*
X016248Y008886D02*
X016725Y008886D01*
X016248Y008886D01*
X016398Y008728D02*
X016574Y008728D01*
X016398Y008728D01*
X016462Y008569D02*
X016511Y008569D01*
X016462Y008569D01*
X016511Y008575D02*
X016511Y008385D01*
X016583Y008211D01*
X016717Y008077D01*
X016892Y008005D01*
X017081Y008005D01*
X017256Y008077D01*
X017389Y008211D01*
X017462Y008385D01*
X017462Y008575D01*
X017389Y008749D01*
X017256Y008883D01*
X017081Y008955D01*
X016892Y008955D01*
X016717Y008883D01*
X016583Y008749D01*
X016511Y008575D01*
X016511Y008385D01*
X016583Y008211D01*
X016717Y008077D01*
X016892Y008005D01*
X017081Y008005D01*
X017256Y008077D01*
X017389Y008211D01*
X017462Y008385D01*
X017462Y008575D01*
X017389Y008749D01*
X017256Y008883D01*
X017081Y008955D01*
X016892Y008955D01*
X016717Y008883D01*
X016583Y008749D01*
X016511Y008575D01*
X016511Y008411D02*
X016462Y008411D01*
X016511Y008411D01*
X016566Y008252D02*
X016406Y008252D01*
X016566Y008252D01*
X016701Y008094D02*
X016272Y008094D01*
X016701Y008094D01*
X016818Y007301D02*
X021764Y007301D01*
X021764Y007143D02*
X016950Y007143D01*
X016968Y006984D02*
X018745Y006984D01*
X018755Y006994D02*
X018611Y006851D01*
X018534Y006663D01*
X018534Y006460D01*
X018611Y006273D01*
X018755Y006130D01*
X018942Y006052D01*
X019145Y006052D01*
X019333Y006130D01*
X019476Y006273D01*
X019554Y006460D01*
X019554Y006663D01*
X019476Y006851D01*
X019333Y006994D01*
X019145Y007072D01*
X018942Y007072D01*
X018755Y006994D01*
X018601Y006826D02*
X016880Y006826D01*
X016834Y006677D02*
X016834Y006677D01*
X016833Y006667D02*
X018535Y006667D01*
X018534Y006509D02*
X016811Y006509D01*
X016789Y006350D02*
X018580Y006350D01*
X018693Y006192D02*
X016768Y006192D01*
X016511Y005399D02*
X016462Y005399D01*
X016402Y005241D02*
X016571Y005241D01*
X016712Y005082D02*
X016260Y005082D01*
X015712Y005082D02*
X015260Y005082D01*
X015256Y005077D02*
X015389Y005211D01*
X015462Y005385D01*
X015462Y005575D01*
X015389Y005749D01*
X015256Y005883D01*
X015081Y005955D01*
X014892Y005955D01*
X014717Y005883D01*
X014583Y005749D01*
X014511Y005575D01*
X014511Y005385D01*
X014583Y005211D01*
X014717Y005077D01*
X014892Y005005D01*
X015081Y005005D01*
X015256Y005077D01*
X015402Y005241D02*
X015571Y005241D01*
X015511Y005399D02*
X015462Y005399D01*
X015462Y005558D02*
X015511Y005558D01*
X015570Y005716D02*
X015403Y005716D01*
X015264Y005875D02*
X015709Y005875D01*
X014709Y005875D02*
X014264Y005875D01*
X014256Y005883D02*
X014081Y005955D01*
X013892Y005955D01*
X013717Y005883D01*
X013583Y005749D01*
X013511Y005575D01*
X013511Y005385D01*
X013583Y005211D01*
X013717Y005077D01*
X013892Y005005D01*
X014081Y005005D01*
X014256Y005077D01*
X014389Y005211D01*
X014462Y005385D01*
X014462Y005575D01*
X014389Y005749D01*
X014256Y005883D01*
X014403Y005716D02*
X014570Y005716D01*
X014511Y005558D02*
X014462Y005558D01*
X014462Y005399D02*
X014511Y005399D01*
X014571Y005241D02*
X014402Y005241D01*
X014260Y005082D02*
X014712Y005082D01*
X014626Y004448D02*
X014173Y004448D01*
X014405Y004290D02*
X014498Y004290D01*
X013800Y004448D02*
X013346Y004448D01*
X013474Y004290D02*
X013568Y004290D01*
X013712Y005082D02*
X013260Y005082D01*
X013256Y005077D02*
X013389Y005211D01*
X013462Y005385D01*
X013462Y005575D01*
X013389Y005749D01*
X013256Y005883D01*
X013081Y005955D01*
X012892Y005955D01*
X012717Y005883D01*
X012583Y005749D01*
X012511Y005575D01*
X012511Y005385D01*
X012583Y005211D01*
X012717Y005077D01*
X012892Y005005D01*
X013081Y005005D01*
X013256Y005077D01*
X013402Y005241D02*
X013571Y005241D01*
X013511Y005399D02*
X013462Y005399D01*
X013462Y005558D02*
X013511Y005558D01*
X013570Y005716D02*
X013403Y005716D01*
X013264Y005875D02*
X013709Y005875D01*
X012709Y005875D02*
X012264Y005875D01*
X012256Y005883D02*
X012081Y005955D01*
X011892Y005955D01*
X011717Y005883D01*
X011583Y005749D01*
X011511Y005575D01*
X011511Y005385D01*
X011583Y005211D01*
X011717Y005077D01*
X011892Y005005D01*
X012081Y005005D01*
X012256Y005077D01*
X012389Y005211D01*
X012462Y005385D01*
X012462Y005575D01*
X012389Y005749D01*
X012256Y005883D01*
X012403Y005716D02*
X012570Y005716D01*
X012511Y005558D02*
X012462Y005558D01*
X012462Y005399D02*
X012511Y005399D01*
X012571Y005241D02*
X012402Y005241D01*
X012260Y005082D02*
X012712Y005082D01*
X012626Y004448D02*
X012173Y004448D01*
X012405Y004290D02*
X012498Y004290D01*
X011800Y004448D02*
X011346Y004448D01*
X011474Y004290D02*
X011568Y004290D01*
X011712Y005082D02*
X010260Y005082D01*
X010256Y005077D02*
X010389Y005211D01*
X010462Y005385D01*
X010462Y005575D01*
X010389Y005749D01*
X010256Y005883D01*
X010081Y005955D01*
X009892Y005955D01*
X009717Y005883D01*
X009583Y005749D01*
X009511Y005575D01*
X009511Y005385D01*
X009583Y005211D01*
X009717Y005077D01*
X009892Y005005D01*
X010081Y005005D01*
X010256Y005077D01*
X010402Y005241D02*
X011571Y005241D01*
X011511Y005399D02*
X010462Y005399D01*
X010462Y005558D02*
X011511Y005558D01*
X011570Y005716D02*
X010403Y005716D01*
X010264Y005875D02*
X011709Y005875D01*
X010626Y004448D02*
X010173Y004448D01*
X010405Y004290D02*
X010498Y004290D01*
X009800Y004448D02*
X009346Y004448D01*
X009474Y004290D02*
X009568Y004290D01*
X009712Y005082D02*
X009260Y005082D01*
X009256Y005077D02*
X009389Y005211D01*
X009462Y005385D01*
X009462Y005575D01*
X009389Y005749D01*
X009256Y005883D01*
X009081Y005955D01*
X008892Y005955D01*
X008717Y005883D01*
X008583Y005749D01*
X008511Y005575D01*
X008511Y005385D01*
X008583Y005211D01*
X008717Y005077D01*
X008892Y005005D01*
X009081Y005005D01*
X009256Y005077D01*
X009402Y005241D02*
X009571Y005241D01*
X009511Y005399D02*
X009462Y005399D01*
X009462Y005558D02*
X009511Y005558D01*
X009570Y005716D02*
X009403Y005716D01*
X009264Y005875D02*
X009709Y005875D01*
X008709Y005875D02*
X008264Y005875D01*
X008256Y005883D02*
X008081Y005955D01*
X007892Y005955D01*
X007717Y005883D01*
X007583Y005749D01*
X007511Y005575D01*
X007511Y005385D01*
X007583Y005211D01*
X007717Y005077D01*
X007892Y005005D01*
X008081Y005005D01*
X008256Y005077D01*
X008389Y005211D01*
X008462Y005385D01*
X008462Y005575D01*
X008389Y005749D01*
X008256Y005883D01*
X008403Y005716D02*
X008570Y005716D01*
X008511Y005558D02*
X008462Y005558D01*
X008462Y005399D02*
X008511Y005399D01*
X008571Y005241D02*
X008402Y005241D01*
X008260Y005082D02*
X008712Y005082D01*
X008626Y004448D02*
X008173Y004448D01*
X008405Y004290D02*
X008498Y004290D01*
X007800Y004448D02*
X007346Y004448D01*
X007474Y004290D02*
X007568Y004290D01*
X007712Y005082D02*
X007260Y005082D01*
X007402Y005241D02*
X007571Y005241D01*
X007511Y005399D02*
X007462Y005399D01*
X007462Y005558D02*
X007511Y005558D01*
X007570Y005716D02*
X007403Y005716D01*
X007264Y005875D02*
X007709Y005875D01*
X011192Y009520D02*
X011618Y009520D01*
X011192Y009520D01*
X011413Y009679D02*
X011495Y009679D01*
X011413Y009679D01*
X011465Y010313D02*
X011591Y010313D01*
X011465Y010313D01*
X011323Y010471D02*
X011855Y010471D01*
X011323Y010471D01*
X012117Y010471D02*
X012649Y010471D01*
X012117Y010471D01*
X012382Y010313D02*
X012508Y010313D01*
X012382Y010313D01*
X012477Y009679D02*
X012560Y009679D01*
X012477Y009679D01*
X012354Y009520D02*
X012780Y009520D01*
X012354Y009520D01*
X013192Y009520D02*
X013618Y009520D01*
X013192Y009520D01*
X013413Y009679D02*
X013495Y009679D01*
X013413Y009679D01*
X013465Y010313D02*
X013591Y010313D01*
X013465Y010313D01*
X013323Y010471D02*
X013855Y010471D01*
X013323Y010471D01*
X013160Y011105D02*
X013632Y011105D01*
X013160Y011105D01*
X013399Y011264D02*
X013501Y011264D01*
X013399Y011264D01*
X012813Y011105D02*
X012341Y011105D01*
X012813Y011105D01*
X012573Y011264D02*
X012472Y011264D01*
X012573Y011264D01*
X012502Y011898D02*
X012395Y011898D01*
X012502Y011898D01*
X012636Y012056D02*
X012150Y012056D01*
X012636Y012056D01*
X013337Y012056D02*
X013823Y012056D01*
X013337Y012056D01*
X013470Y011898D02*
X013578Y011898D01*
X013470Y011898D01*
X014150Y012056D02*
X014636Y012056D01*
X014150Y012056D01*
X014395Y011898D02*
X014502Y011898D01*
X014395Y011898D01*
X015337Y012056D02*
X018568Y012056D01*
X016150Y012056D01*
X016395Y011898D02*
X018664Y011898D01*
X015470Y011898D01*
X015578Y011898D01*
X015337Y012056D02*
X015823Y012056D01*
X016270Y012690D02*
X016703Y012690D01*
X016270Y012690D01*
X016406Y012849D02*
X016567Y012849D01*
X016406Y012849D01*
X016462Y013007D02*
X016511Y013007D01*
X016462Y013007D01*
X017270Y012690D02*
X018800Y012690D01*
X017270Y012690D01*
X018534Y012341D02*
X018534Y012138D01*
X018611Y011950D01*
X018755Y011807D01*
X018942Y011729D01*
X019145Y011729D01*
X019333Y011807D01*
X019476Y011950D01*
X019554Y012138D01*
X019554Y012341D01*
X019476Y012528D01*
X019333Y012671D01*
X019145Y012749D01*
X018942Y012749D01*
X018755Y012671D01*
X018611Y012528D01*
X018534Y012341D01*
X018534Y012138D01*
X018611Y011950D01*
X018755Y011807D01*
X018942Y011729D01*
X019145Y011729D01*
X019333Y011807D01*
X019476Y011950D01*
X019554Y012138D01*
X019554Y012341D01*
X019476Y012528D01*
X019333Y012671D01*
X019145Y012749D01*
X018942Y012749D01*
X018755Y012671D01*
X018611Y012528D01*
X018534Y012341D01*
X018942Y013650D02*
X019145Y013650D01*
X019333Y013728D01*
X019476Y013871D01*
X019554Y014059D01*
X019554Y014262D01*
X019476Y014449D01*
X019333Y014593D01*
X019145Y014670D01*
X018942Y014670D01*
X018755Y014593D01*
X018611Y014449D01*
X018534Y014262D01*
X018534Y014059D01*
X018611Y013871D01*
X018755Y013728D01*
X018942Y013650D01*
X019145Y013650D01*
X019333Y013728D01*
X019476Y013871D01*
X019554Y014059D01*
X019554Y014262D01*
X019476Y014449D01*
X019333Y014593D01*
X019145Y014670D01*
X018942Y014670D01*
X018755Y014593D01*
X018611Y014449D01*
X018534Y014262D01*
X018534Y014059D01*
X018611Y013871D01*
X018755Y013728D01*
X018942Y013650D01*
X015855Y010471D02*
X015323Y010471D01*
X015855Y010471D01*
X015591Y010313D02*
X015465Y010313D01*
X015591Y010313D01*
X015495Y009679D02*
X015413Y009679D01*
X015495Y009679D01*
X015618Y009520D02*
X015192Y009520D01*
X015618Y009520D01*
X014780Y009520D02*
X014354Y009520D01*
X014780Y009520D01*
X014560Y009679D02*
X014477Y009679D01*
X014560Y009679D01*
X014508Y010313D02*
X014382Y010313D01*
X014508Y010313D01*
X014649Y010471D02*
X014117Y010471D01*
X014649Y010471D01*
X011720Y013483D02*
X011253Y013483D01*
X011282Y015702D02*
X011691Y015702D01*
X011282Y015702D01*
X011410Y015860D02*
X011562Y015860D01*
X011410Y015860D01*
X011462Y016019D02*
X011511Y016019D01*
X011462Y016019D01*
X011460Y016177D02*
X011513Y016177D01*
X011460Y016177D01*
X011394Y016336D02*
X011578Y016336D01*
X011394Y016336D01*
X011225Y016494D02*
X011748Y016494D01*
X011225Y016494D01*
X013215Y017128D02*
X013609Y017128D01*
X013215Y017128D01*
X013422Y017287D02*
X013491Y017287D01*
X013422Y017287D01*
X013461Y017921D02*
X013601Y017921D01*
X013461Y017921D01*
X013314Y018079D02*
X014659Y018079D01*
X013314Y018079D01*
X014372Y017921D02*
X014512Y017921D01*
X014372Y017921D01*
X014481Y017287D02*
X014550Y017287D01*
X014481Y017287D01*
X014364Y017128D02*
X014757Y017128D01*
X014364Y017128D01*
X015215Y017128D02*
X015609Y017128D01*
X015215Y017128D01*
X015422Y017287D02*
X015491Y017287D01*
X015422Y017287D01*
X015461Y017921D02*
X015601Y017921D01*
X015461Y017921D01*
X019343Y006984D02*
X021764Y006984D01*
X021764Y006826D02*
X019487Y006826D01*
X019552Y006667D02*
X021764Y006667D01*
X021764Y006509D02*
X019554Y006509D01*
X019508Y006350D02*
X021764Y006350D01*
X021764Y006192D02*
X019395Y006192D01*
X019311Y005082D02*
X021764Y005082D01*
X021764Y004924D02*
X019479Y004924D01*
X019544Y004765D02*
X021764Y004765D01*
X021764Y004607D02*
X019554Y004607D01*
X019516Y004448D02*
X021764Y004448D01*
X021764Y004290D02*
X019414Y004290D01*
X019146Y004131D02*
X021764Y004131D01*
X021764Y003973D02*
X015536Y003973D01*
X015536Y004131D02*
X018941Y004131D01*
X018674Y004290D02*
X015474Y004290D01*
X015346Y004448D02*
X018572Y004448D01*
X016841Y003497D02*
X021764Y003497D01*
X021764Y003656D02*
X016735Y003656D01*
X016365Y003656D02*
X015390Y003656D01*
X015492Y003814D02*
X021764Y003814D01*
D16*
X016491Y005739D02*
X016530Y006174D01*
X016589Y006608D01*
X016668Y007038D01*
X013986Y003930D02*
X013988Y003884D01*
X013994Y003839D01*
X014004Y003794D01*
X014017Y003750D01*
X014034Y003708D01*
X014054Y003667D01*
X014077Y003627D01*
X014104Y003590D01*
X014134Y003555D01*
X014166Y003523D01*
X014201Y003494D01*
X014239Y003467D01*
X014278Y003444D01*
X014319Y003424D01*
X014362Y003407D01*
X014406Y003394D01*
X014451Y003385D01*
X014496Y003379D01*
X014542Y003377D01*
X016274Y003377D01*
X016550Y003416D01*
X016274Y010975D02*
X014542Y010975D01*
X014496Y010977D01*
X014451Y010983D01*
X014406Y010992D01*
X014362Y011005D01*
X014319Y011022D01*
X014278Y011042D01*
X014239Y011065D01*
X014201Y011092D01*
X014166Y011121D01*
X014134Y011153D01*
X014104Y011188D01*
X014077Y011225D01*
X014054Y011265D01*
X014034Y011306D01*
X014017Y011348D01*
X014004Y011392D01*
X013994Y011437D01*
X013988Y011482D01*
X013986Y011528D01*
X016274Y010975D02*
X016550Y011015D01*
X016491Y013338D02*
X016530Y013773D01*
X016589Y014207D01*
X016668Y014637D01*
X006987Y011629D02*
X006986Y011581D01*
X006982Y011534D01*
X006974Y011487D01*
X006963Y011441D01*
X006947Y011395D01*
X006928Y011352D01*
X006906Y011310D01*
X006880Y011270D01*
X006852Y011232D01*
X006820Y011196D01*
X006785Y011163D01*
X006749Y011133D01*
X006709Y011106D01*
X006668Y011082D01*
X006625Y011062D01*
X006580Y011045D01*
X006535Y011032D01*
X006488Y011023D01*
X006441Y011017D01*
X006393Y011015D01*
X005487Y011015D01*
X003986Y013078D02*
X004385Y013967D01*
X003986Y013078D02*
X002773Y012078D01*
X004385Y006369D02*
X003986Y005480D01*
X002773Y004480D01*
X005487Y003416D02*
X006393Y003416D01*
X006441Y003418D01*
X006488Y003424D01*
X006535Y003433D01*
X006580Y003446D01*
X006625Y003463D01*
X006668Y003483D01*
X006709Y003507D01*
X006749Y003534D01*
X006785Y003564D01*
X006820Y003597D01*
X006852Y003633D01*
X006880Y003671D01*
X006906Y003711D01*
X006928Y003753D01*
X006947Y003796D01*
X006963Y003842D01*
X006974Y003888D01*
X006982Y003935D01*
X006986Y003982D01*
X006987Y004030D01*
D17*
X005487Y003416D03*
X004385Y006369D03*
X005487Y011015D03*
X004385Y013967D03*
X016491Y013337D03*
X016668Y014637D03*
X016550Y011015D03*
X016668Y007038D03*
X016491Y005739D03*
X016550Y003416D03*
M02*
