G75*
G70*
%OFA0B0*%
%FSLAX24Y24*%
%IPPOS*%
%LPD*%
%AMOC8*
5,1,8,0,0,1.08239X$1,22.5*
%
%ADD10C,0.0000*%
%ADD11C,0.0631*%
%ADD12C,0.0700*%
%ADD13C,0.0780*%
D10*
X002416Y003180D02*
X002416Y003180D01*
X002259Y003337D01*
X002259Y003338D02*
X002259Y010621D01*
X002416Y010778D01*
X002259Y010936D01*
X002259Y010937D02*
X002259Y018219D01*
X002416Y018377D01*
X021786Y018377D01*
X021944Y018219D01*
X021944Y010936D01*
X021786Y010778D01*
X021944Y010621D01*
X021944Y003337D01*
X021944Y003337D01*
X021786Y003180D01*
X021785Y003180D02*
X002416Y003180D01*
X002416Y010778D02*
X002416Y010778D01*
X021944Y010935D02*
X021944Y010936D01*
D11*
X016986Y013078D03*
X015986Y013078D03*
X014986Y013078D03*
X013986Y013078D03*
X012986Y013078D03*
X011986Y013078D03*
X010986Y013078D03*
X009986Y013078D03*
X008986Y013078D03*
X007986Y013078D03*
X006986Y013078D03*
X005986Y013078D03*
X004986Y013078D03*
X003986Y013078D03*
X003986Y016078D03*
X004986Y016078D03*
X005986Y016078D03*
X006986Y016078D03*
X007986Y016078D03*
X008986Y016078D03*
X009986Y016078D03*
X010986Y016078D03*
X011986Y016078D03*
X012986Y016078D03*
X013986Y016078D03*
X014986Y016078D03*
X015986Y016078D03*
X016986Y016078D03*
X016986Y008480D03*
X015986Y008480D03*
X014986Y008480D03*
X013986Y008480D03*
X012986Y008480D03*
X011986Y008480D03*
X010986Y008480D03*
X009986Y008480D03*
X008986Y008480D03*
X007986Y008480D03*
X006986Y008480D03*
X005986Y008480D03*
X004986Y008480D03*
X003986Y008480D03*
X003986Y005480D03*
X004986Y005480D03*
X005986Y005480D03*
X006986Y005480D03*
X007986Y005480D03*
X008986Y005480D03*
X009986Y005480D03*
X010986Y005480D03*
X011986Y005480D03*
X012986Y005480D03*
X013986Y005480D03*
X014986Y005480D03*
X015986Y005480D03*
X016986Y005480D03*
D12*
X019044Y004641D03*
X019044Y006562D03*
X019044Y012239D03*
X019044Y014160D03*
D13*
X016632Y011628D03*
X015632Y011528D03*
X014632Y011628D03*
X013632Y011528D03*
X012632Y011628D03*
X011632Y011528D03*
X010632Y011628D03*
X009632Y011528D03*
X008632Y011628D03*
X007632Y011528D03*
X006632Y011628D03*
X005632Y011528D03*
X004632Y011628D03*
X004632Y010030D03*
X005632Y009930D03*
X006632Y010030D03*
X007632Y009930D03*
X008632Y010030D03*
X009632Y009930D03*
X010632Y010030D03*
X011632Y009930D03*
X012632Y010030D03*
X013632Y009930D03*
X014632Y010030D03*
X015632Y009930D03*
X016632Y004030D03*
X015632Y003930D03*
X014632Y004030D03*
X013632Y003930D03*
X012632Y004030D03*
X011632Y003930D03*
X010632Y004030D03*
X009632Y003930D03*
X008632Y004030D03*
X007632Y003930D03*
X006632Y004030D03*
X005632Y003930D03*
X004632Y004030D03*
X002773Y004480D03*
X002873Y005480D03*
X002773Y006480D03*
X002873Y007480D03*
X002773Y008480D03*
X002873Y009480D03*
X002773Y012078D03*
X002873Y013078D03*
X002773Y014078D03*
X002873Y015078D03*
X002773Y016078D03*
X002873Y017078D03*
X004632Y017628D03*
X005632Y017528D03*
X006632Y017628D03*
X007632Y017528D03*
X008632Y017628D03*
X009632Y017528D03*
X010632Y017628D03*
X011632Y017528D03*
X012632Y017628D03*
X013632Y017528D03*
X014632Y017628D03*
X015632Y017528D03*
M02*
