G75*
G70*
%OFA0B0*%
%FSLAX24Y24*%
%IPPOS*%
%LPD*%
%AMOC8*
5,1,8,0,0,1.08239X$1,22.5*
%
%ADD10C,0.0000*%
%ADD11C,0.0591*%
%ADD12C,0.0660*%
%ADD13C,0.0740*%
%ADD14C,0.0356*%
%ADD15C,0.0160*%
%ADD16C,0.0100*%
%ADD17C,0.0240*%
D10*
X002416Y003180D02*
X002416Y003180D01*
X002259Y003337D01*
X002259Y003338D02*
X002259Y010621D01*
X002416Y010778D01*
X002259Y010936D01*
X002259Y010937D02*
X002259Y018219D01*
X002416Y018377D01*
X021786Y018377D01*
X021944Y018219D01*
X021944Y010936D01*
X021786Y010778D01*
X021944Y010621D01*
X021944Y003337D01*
X021944Y003337D01*
X021786Y003180D01*
X021785Y003180D02*
X002416Y003180D01*
X002416Y010778D02*
X002416Y010778D01*
X021944Y010935D02*
X021944Y010936D01*
D11*
X016986Y013078D03*
X015986Y013078D03*
X014986Y013078D03*
X013986Y013078D03*
X012986Y013078D03*
X011986Y013078D03*
X010986Y013078D03*
X009986Y013078D03*
X008986Y013078D03*
X007986Y013078D03*
X006986Y013078D03*
X005986Y013078D03*
X004986Y013078D03*
X003986Y013078D03*
X003986Y016078D03*
X004986Y016078D03*
X005986Y016078D03*
X006986Y016078D03*
X007986Y016078D03*
X008986Y016078D03*
X009986Y016078D03*
X010986Y016078D03*
X011986Y016078D03*
X012986Y016078D03*
X013986Y016078D03*
X014986Y016078D03*
X015986Y016078D03*
X016986Y016078D03*
X016986Y008480D03*
X015986Y008480D03*
X014986Y008480D03*
X013986Y008480D03*
X012986Y008480D03*
X011986Y008480D03*
X010986Y008480D03*
X009986Y008480D03*
X008986Y008480D03*
X007986Y008480D03*
X006986Y008480D03*
X005986Y008480D03*
X004986Y008480D03*
X003986Y008480D03*
X003986Y005480D03*
X004986Y005480D03*
X005986Y005480D03*
X006986Y005480D03*
X007986Y005480D03*
X008986Y005480D03*
X009986Y005480D03*
X010986Y005480D03*
X011986Y005480D03*
X012986Y005480D03*
X013986Y005480D03*
X014986Y005480D03*
X015986Y005480D03*
X016986Y005480D03*
D12*
X019044Y004641D03*
X019044Y006562D03*
X019044Y012239D03*
X019044Y014160D03*
D13*
X016632Y011628D03*
X015632Y011528D03*
X014632Y011628D03*
X013632Y011528D03*
X012632Y011628D03*
X011632Y011528D03*
X010632Y011628D03*
X009632Y011528D03*
X008632Y011628D03*
X007632Y011528D03*
X006632Y011628D03*
X005632Y011528D03*
X004632Y011628D03*
X004632Y010030D03*
X005632Y009930D03*
X006632Y010030D03*
X007632Y009930D03*
X008632Y010030D03*
X009632Y009930D03*
X010632Y010030D03*
X011632Y009930D03*
X012632Y010030D03*
X013632Y009930D03*
X014632Y010030D03*
X015632Y009930D03*
X016632Y004030D03*
X015632Y003930D03*
X014632Y004030D03*
X013632Y003930D03*
X012632Y004030D03*
X011632Y003930D03*
X010632Y004030D03*
X009632Y003930D03*
X008632Y004030D03*
X007632Y003930D03*
X006632Y004030D03*
X005632Y003930D03*
X004632Y004030D03*
X002773Y004480D03*
X002873Y005480D03*
X002773Y006480D03*
X002873Y007480D03*
X002773Y008480D03*
X002873Y009480D03*
X002773Y012078D03*
X002873Y013078D03*
X002773Y014078D03*
X002873Y015078D03*
X002773Y016078D03*
X002873Y017078D03*
X004632Y017628D03*
X005632Y017528D03*
X006632Y017628D03*
X007632Y017528D03*
X008632Y017628D03*
X009632Y017528D03*
X010632Y017628D03*
X011632Y017528D03*
X012632Y017628D03*
X013632Y017528D03*
X014632Y017628D03*
X015632Y017528D03*
D14*
X013268Y014773D03*
X008089Y014482D03*
X013268Y007174D03*
X008089Y006884D03*
X019861Y010109D03*
X021430Y011450D03*
X020452Y013180D03*
X019861Y017708D03*
X020452Y005582D03*
X021430Y003852D03*
D15*
X021764Y003816D02*
X015138Y003816D01*
X015098Y003718D02*
X015182Y003921D01*
X015182Y004139D01*
X015098Y004342D01*
X014944Y004496D01*
X014741Y004580D01*
X014523Y004580D01*
X014320Y004496D01*
X014166Y004342D01*
X014111Y004210D01*
X014098Y004242D01*
X013944Y004396D01*
X013741Y004480D01*
X013523Y004480D01*
X013320Y004396D01*
X013166Y004242D01*
X013153Y004210D01*
X013098Y004342D01*
X012944Y004496D01*
X012741Y004580D01*
X012523Y004580D01*
X012320Y004496D01*
X012166Y004342D01*
X012111Y004210D01*
X012098Y004242D01*
X011944Y004396D01*
X011741Y004480D01*
X011523Y004480D01*
X011320Y004396D01*
X011166Y004242D01*
X011153Y004210D01*
X011098Y004342D01*
X010944Y004496D01*
X010741Y004580D01*
X010523Y004580D01*
X010320Y004496D01*
X010166Y004342D01*
X010111Y004210D01*
X010098Y004242D01*
X009944Y004396D01*
X009741Y004480D01*
X009523Y004480D01*
X009320Y004396D01*
X009166Y004242D01*
X009153Y004210D01*
X009098Y004342D01*
X008944Y004496D01*
X008741Y004580D01*
X008523Y004580D01*
X008320Y004496D01*
X008166Y004342D01*
X008111Y004210D01*
X008098Y004242D01*
X007944Y004396D01*
X007741Y004480D01*
X007523Y004480D01*
X007320Y004396D01*
X007166Y004242D01*
X007153Y004210D01*
X007098Y004342D01*
X006944Y004496D01*
X006741Y004580D01*
X006523Y004580D01*
X006320Y004496D01*
X006166Y004342D01*
X006111Y004210D01*
X006098Y004242D01*
X005944Y004396D01*
X005741Y004480D01*
X005523Y004480D01*
X005320Y004396D01*
X005166Y004242D01*
X005153Y004210D01*
X005098Y004342D01*
X004944Y004496D01*
X004741Y004580D01*
X004523Y004580D01*
X004320Y004496D01*
X004166Y004342D01*
X004082Y004139D01*
X004082Y003921D01*
X004166Y003718D01*
X004320Y003564D01*
X004523Y003480D01*
X004741Y003480D01*
X004854Y003527D01*
X004833Y003476D01*
X004833Y003360D01*
X002491Y003360D01*
X002439Y003412D01*
X002439Y004036D01*
X002461Y004014D01*
X002663Y003930D01*
X002882Y003930D01*
X003084Y004014D01*
X003239Y004168D01*
X003323Y004371D01*
X003323Y004589D01*
X003308Y004623D01*
X003811Y005038D01*
X003892Y005005D01*
X004081Y005005D01*
X004256Y005077D01*
X004389Y005211D01*
X004462Y005385D01*
X004462Y005575D01*
X004389Y005749D01*
X004368Y005770D01*
X004516Y006098D01*
X004555Y006115D01*
X004639Y006199D01*
X004685Y006309D01*
X004685Y006429D01*
X004639Y006539D01*
X004555Y006623D01*
X004444Y006669D01*
X004325Y006669D01*
X004215Y006623D01*
X004130Y006539D01*
X004085Y006429D01*
X004085Y006309D01*
X004095Y006285D01*
X003947Y005955D01*
X003892Y005955D01*
X003717Y005883D01*
X003583Y005749D01*
X003511Y005575D01*
X003511Y005386D01*
X003387Y005284D01*
X003423Y005371D01*
X003423Y005589D01*
X003339Y005792D01*
X003184Y005946D01*
X003053Y006001D01*
X003084Y006014D01*
X003239Y006168D01*
X003323Y006371D01*
X003323Y006589D01*
X003239Y006792D01*
X003084Y006946D01*
X003053Y006959D01*
X003184Y007014D01*
X003339Y007168D01*
X003423Y007371D01*
X003423Y007589D01*
X003339Y007792D01*
X003184Y007946D01*
X003053Y008001D01*
X003084Y008014D01*
X003239Y008168D01*
X003323Y008371D01*
X003323Y008589D01*
X003239Y008792D01*
X003084Y008946D01*
X003053Y008959D01*
X003184Y009014D01*
X003339Y009168D01*
X003423Y009371D01*
X003423Y009589D01*
X003339Y009792D01*
X003184Y009946D01*
X002982Y010030D01*
X002763Y010030D01*
X002561Y009946D01*
X002439Y009824D01*
X002439Y010546D01*
X002491Y010598D01*
X002596Y010704D01*
X002596Y010853D01*
X002439Y011010D01*
X002439Y011634D01*
X002461Y011612D01*
X002663Y011528D01*
X002882Y011528D01*
X003084Y011612D01*
X003239Y011767D01*
X003323Y011969D01*
X003323Y012188D01*
X003308Y012222D01*
X003811Y012636D01*
X003892Y012603D01*
X004081Y012603D01*
X004256Y012676D01*
X004389Y012809D01*
X004462Y012984D01*
X004462Y013173D01*
X004389Y013348D01*
X004368Y013369D01*
X004516Y013697D01*
X004555Y013713D01*
X004639Y013797D01*
X004685Y013908D01*
X004685Y014027D01*
X004639Y014137D01*
X004555Y014222D01*
X004444Y014267D01*
X004325Y014267D01*
X004215Y014222D01*
X004130Y014137D01*
X004085Y014027D01*
X004085Y013908D01*
X004095Y013883D01*
X003947Y013554D01*
X003892Y013554D01*
X003717Y013481D01*
X003583Y013348D01*
X003511Y013173D01*
X003511Y012985D01*
X003387Y012882D01*
X003423Y012969D01*
X003423Y013188D01*
X003339Y013390D01*
X003184Y013545D01*
X003053Y013599D01*
X003084Y013612D01*
X003239Y013767D01*
X003323Y013969D01*
X003323Y014188D01*
X003239Y014390D01*
X003084Y014545D01*
X003053Y014558D01*
X003184Y014612D01*
X003339Y014767D01*
X003423Y014969D01*
X003423Y015188D01*
X003339Y015390D01*
X003184Y015545D01*
X002982Y015628D01*
X002763Y015628D01*
X002561Y015545D01*
X002439Y015423D01*
X002439Y018145D01*
X002491Y018197D01*
X021712Y018197D01*
X021764Y018145D01*
X021764Y011010D01*
X021606Y010853D01*
X021606Y010704D01*
X021712Y010598D01*
X021764Y010546D01*
X021764Y007778D01*
X003344Y007778D01*
X003339Y007792D01*
X003184Y007946D01*
X002982Y008030D01*
X002763Y008030D01*
X002561Y007946D01*
X002439Y007824D01*
X002439Y010546D01*
X002491Y010598D01*
X002491Y010598D01*
X002596Y010704D01*
X002596Y010853D01*
X002439Y011010D01*
X002439Y011634D01*
X002461Y011612D01*
X002663Y011528D01*
X002882Y011528D01*
X003084Y011612D01*
X003239Y011767D01*
X003323Y011969D01*
X003323Y012188D01*
X003308Y012222D01*
X003811Y012636D01*
X003892Y012603D01*
X004081Y012603D01*
X004256Y012676D01*
X004389Y012809D01*
X004462Y012984D01*
X004462Y013173D01*
X004389Y013348D01*
X004368Y013369D01*
X004516Y013697D01*
X004555Y013713D01*
X004639Y013797D01*
X004685Y013908D01*
X004685Y014027D01*
X004639Y014137D01*
X004555Y014222D01*
X004444Y014267D01*
X004325Y014267D01*
X004215Y014222D01*
X004130Y014137D01*
X004085Y014027D01*
X004085Y013908D01*
X004095Y013883D01*
X003947Y013554D01*
X003892Y013554D01*
X003717Y013481D01*
X003583Y013348D01*
X003511Y013173D01*
X003511Y012985D01*
X003387Y012882D01*
X003423Y012969D01*
X003423Y013188D01*
X003339Y013390D01*
X003184Y013545D01*
X003053Y013599D01*
X003084Y013612D01*
X003239Y013767D01*
X003323Y013969D01*
X003323Y014188D01*
X003239Y014390D01*
X003084Y014545D01*
X003053Y014558D01*
X003184Y014612D01*
X003339Y014767D01*
X003423Y014969D01*
X003423Y015188D01*
X003339Y015390D01*
X003184Y015545D01*
X003053Y015599D01*
X003084Y015612D01*
X003239Y015767D01*
X003323Y015969D01*
X003323Y016188D01*
X003239Y016390D01*
X003084Y016545D01*
X003053Y016558D01*
X003184Y016612D01*
X003339Y016767D01*
X003423Y016969D01*
X003423Y017188D01*
X003339Y017390D01*
X003184Y017545D01*
X002982Y017628D01*
X002763Y017628D01*
X002561Y017545D01*
X002439Y017422D01*
X002439Y018145D01*
X002491Y018197D01*
X021712Y018197D01*
X021764Y018145D01*
X021764Y011581D01*
X021734Y011653D01*
X021633Y011754D01*
X021502Y011808D01*
X021359Y011808D01*
X021228Y011754D01*
X021127Y011653D01*
X021072Y011521D01*
X021072Y011379D01*
X021127Y011247D01*
X021228Y011146D01*
X021359Y011092D01*
X021502Y011092D01*
X021633Y011146D01*
X021734Y011247D01*
X021764Y011319D01*
X021764Y011010D01*
X021606Y010853D01*
X021606Y010704D01*
X021712Y010598D01*
X021712Y010598D01*
X021764Y010546D01*
X021764Y003412D01*
X021712Y003360D01*
X016323Y003360D01*
X016338Y003396D01*
X016338Y003515D01*
X016293Y003626D01*
X016208Y003710D01*
X016098Y003756D01*
X015979Y003756D01*
X015868Y003710D01*
X015784Y003626D01*
X015776Y003607D01*
X014987Y003607D01*
X015098Y003718D01*
X015037Y003657D02*
X015815Y003657D01*
X016261Y003657D02*
X021764Y003657D01*
X021764Y003499D02*
X016338Y003499D01*
X015182Y003974D02*
X021764Y003974D01*
X021764Y004133D02*
X019150Y004133D01*
X019145Y004131D02*
X019333Y004208D01*
X019476Y004352D01*
X019554Y004539D01*
X019554Y004742D01*
X019476Y004930D01*
X019333Y005073D01*
X019145Y005151D01*
X018942Y005151D01*
X018755Y005073D01*
X018611Y004930D01*
X018534Y004742D01*
X018534Y004539D01*
X018611Y004352D01*
X018755Y004208D01*
X018942Y004131D01*
X019145Y004131D01*
X018938Y004133D02*
X015182Y004133D01*
X015119Y004291D02*
X018672Y004291D01*
X018571Y004450D02*
X014990Y004450D01*
X015081Y005005D02*
X015256Y005077D01*
X015389Y005211D01*
X015462Y005385D01*
X015462Y005575D01*
X015389Y005749D01*
X015256Y005883D01*
X015081Y005955D01*
X014892Y005955D01*
X014717Y005883D01*
X014583Y005749D01*
X014511Y005575D01*
X014511Y005385D01*
X014583Y005211D01*
X014717Y005077D01*
X014892Y005005D01*
X015081Y005005D01*
X015262Y005084D02*
X015711Y005084D01*
X015717Y005077D02*
X015892Y005005D01*
X016081Y005005D01*
X016256Y005077D01*
X016389Y005211D01*
X016462Y005385D01*
X016462Y005439D01*
X016511Y005439D01*
X016511Y005385D01*
X016583Y005211D01*
X016717Y005077D01*
X016892Y005005D01*
X017081Y005005D01*
X017256Y005077D01*
X017389Y005211D01*
X017462Y005385D01*
X017462Y005575D01*
X017389Y005749D01*
X017256Y005883D01*
X017081Y005955D01*
X016892Y005955D01*
X016750Y005897D01*
X016745Y005909D01*
X016737Y005917D01*
X016747Y006043D01*
X016834Y006677D01*
X016858Y006804D01*
X016923Y006868D01*
X016968Y006979D01*
X016968Y007098D01*
X016923Y007208D01*
X016838Y007293D01*
X016728Y007338D01*
X016609Y007338D01*
X016498Y007293D01*
X016414Y007208D01*
X016368Y007098D01*
X016368Y006979D01*
X016403Y006894D01*
X016375Y006756D01*
X016284Y006090D01*
X016274Y005947D01*
X016237Y005909D01*
X016230Y005893D01*
X016081Y005955D01*
X015892Y005955D01*
X015717Y005883D01*
X015583Y005749D01*
X015511Y005575D01*
X015511Y005385D01*
X015583Y005211D01*
X015717Y005077D01*
X015570Y005242D02*
X015402Y005242D01*
X015462Y005401D02*
X015511Y005401D01*
X015511Y005559D02*
X015462Y005559D01*
X015402Y005718D02*
X015570Y005718D01*
X015710Y005876D02*
X015262Y005876D01*
X014710Y005876D02*
X014262Y005876D01*
X014256Y005883D02*
X014081Y005955D01*
X013892Y005955D01*
X013717Y005883D01*
X013583Y005749D01*
X013511Y005575D01*
X013511Y005385D01*
X013583Y005211D01*
X013717Y005077D01*
X013892Y005005D01*
X014081Y005005D01*
X014256Y005077D01*
X014389Y005211D01*
X014462Y005385D01*
X014462Y005575D01*
X014389Y005749D01*
X014256Y005883D01*
X014402Y005718D02*
X014570Y005718D01*
X014511Y005559D02*
X014462Y005559D01*
X014462Y005401D02*
X014511Y005401D01*
X014570Y005242D02*
X014402Y005242D01*
X014262Y005084D02*
X014711Y005084D01*
X014274Y004450D02*
X013815Y004450D01*
X014049Y004291D02*
X014145Y004291D01*
X013711Y005084D02*
X013262Y005084D01*
X013256Y005077D02*
X013389Y005211D01*
X013462Y005385D01*
X013462Y005575D01*
X013389Y005749D01*
X013256Y005883D01*
X013081Y005955D01*
X012892Y005955D01*
X012717Y005883D01*
X012583Y005749D01*
X012511Y005575D01*
X012511Y005385D01*
X012583Y005211D01*
X012717Y005077D01*
X012892Y005005D01*
X013081Y005005D01*
X013256Y005077D01*
X013402Y005242D02*
X013570Y005242D01*
X013511Y005401D02*
X013462Y005401D01*
X013462Y005559D02*
X013511Y005559D01*
X013570Y005718D02*
X013402Y005718D01*
X013262Y005876D02*
X013710Y005876D01*
X012710Y005876D02*
X012262Y005876D01*
X012256Y005883D02*
X012081Y005955D01*
X011892Y005955D01*
X011717Y005883D01*
X011583Y005749D01*
X011511Y005575D01*
X011511Y005385D01*
X011583Y005211D01*
X011717Y005077D01*
X011892Y005005D01*
X012081Y005005D01*
X012256Y005077D01*
X012389Y005211D01*
X012462Y005385D01*
X012462Y005575D01*
X012389Y005749D01*
X012256Y005883D01*
X012402Y005718D02*
X012570Y005718D01*
X012511Y005559D02*
X012462Y005559D01*
X012462Y005401D02*
X012511Y005401D01*
X012570Y005242D02*
X012402Y005242D01*
X012262Y005084D02*
X012711Y005084D01*
X012990Y004450D02*
X013449Y004450D01*
X013215Y004291D02*
X013119Y004291D01*
X012274Y004450D02*
X011815Y004450D01*
X012049Y004291D02*
X012145Y004291D01*
X011711Y005084D02*
X010262Y005084D01*
X010256Y005077D02*
X010389Y005211D01*
X010462Y005385D01*
X010462Y005575D01*
X010389Y005749D01*
X010256Y005883D01*
X010081Y005955D01*
X009892Y005955D01*
X009717Y005883D01*
X009583Y005749D01*
X009511Y005575D01*
X009511Y005385D01*
X009583Y005211D01*
X009717Y005077D01*
X009892Y005005D01*
X010081Y005005D01*
X010256Y005077D01*
X010402Y005242D02*
X011570Y005242D01*
X011511Y005401D02*
X010462Y005401D01*
X010462Y005559D02*
X011511Y005559D01*
X011570Y005718D02*
X010402Y005718D01*
X010262Y005876D02*
X011710Y005876D01*
X011449Y004450D02*
X010990Y004450D01*
X011119Y004291D02*
X011215Y004291D01*
X010274Y004450D02*
X009815Y004450D01*
X010049Y004291D02*
X010145Y004291D01*
X009449Y004450D02*
X008990Y004450D01*
X009119Y004291D02*
X009215Y004291D01*
X009081Y005005D02*
X009256Y005077D01*
X009389Y005211D01*
X009462Y005385D01*
X009462Y005575D01*
X009389Y005749D01*
X009256Y005883D01*
X009081Y005955D01*
X008892Y005955D01*
X008717Y005883D01*
X008583Y005749D01*
X008511Y005575D01*
X008511Y005385D01*
X008583Y005211D01*
X008717Y005077D01*
X008892Y005005D01*
X009081Y005005D01*
X009262Y005084D02*
X009711Y005084D01*
X009570Y005242D02*
X009402Y005242D01*
X009462Y005401D02*
X009511Y005401D01*
X009511Y005559D02*
X009462Y005559D01*
X009402Y005718D02*
X009570Y005718D01*
X009710Y005876D02*
X009262Y005876D01*
X008710Y005876D02*
X008262Y005876D01*
X008256Y005883D02*
X008081Y005955D01*
X007892Y005955D01*
X007717Y005883D01*
X007583Y005749D01*
X007511Y005575D01*
X007511Y005385D01*
X007583Y005211D01*
X007717Y005077D01*
X007892Y005005D01*
X008081Y005005D01*
X008256Y005077D01*
X008389Y005211D01*
X008462Y005385D01*
X008462Y005575D01*
X008389Y005749D01*
X008256Y005883D01*
X008402Y005718D02*
X008570Y005718D01*
X008511Y005559D02*
X008462Y005559D01*
X008462Y005401D02*
X008511Y005401D01*
X008570Y005242D02*
X008402Y005242D01*
X008262Y005084D02*
X008711Y005084D01*
X008274Y004450D02*
X007815Y004450D01*
X008049Y004291D02*
X008145Y004291D01*
X007711Y005084D02*
X007262Y005084D01*
X007256Y005077D02*
X007389Y005211D01*
X007462Y005385D01*
X007462Y005575D01*
X007389Y005749D01*
X007256Y005883D01*
X007081Y005955D01*
X006892Y005955D01*
X006717Y005883D01*
X006583Y005749D01*
X006511Y005575D01*
X006511Y005385D01*
X006583Y005211D01*
X006717Y005077D01*
X006892Y005005D01*
X007081Y005005D01*
X007256Y005077D01*
X007402Y005242D02*
X007570Y005242D01*
X007511Y005401D02*
X007462Y005401D01*
X007462Y005559D02*
X007511Y005559D01*
X007570Y005718D02*
X007402Y005718D01*
X007262Y005876D02*
X007710Y005876D01*
X006710Y005876D02*
X006262Y005876D01*
X006256Y005883D02*
X006081Y005955D01*
X005892Y005955D01*
X005717Y005883D01*
X005583Y005749D01*
X005511Y005575D01*
X005511Y005385D01*
X005583Y005211D01*
X005717Y005077D01*
X005892Y005005D01*
X006081Y005005D01*
X006256Y005077D01*
X006389Y005211D01*
X006462Y005385D01*
X006462Y005575D01*
X006389Y005749D01*
X006256Y005883D01*
X006402Y005718D02*
X006570Y005718D01*
X006511Y005559D02*
X006462Y005559D01*
X006462Y005401D02*
X006511Y005401D01*
X006570Y005242D02*
X006402Y005242D01*
X006262Y005084D02*
X006711Y005084D01*
X006990Y004450D02*
X007449Y004450D01*
X007215Y004291D02*
X007119Y004291D01*
X006274Y004450D02*
X005815Y004450D01*
X006049Y004291D02*
X006145Y004291D01*
X005449Y004450D02*
X004990Y004450D01*
X005119Y004291D02*
X005215Y004291D01*
X005081Y005005D02*
X005256Y005077D01*
X005389Y005211D01*
X005462Y005385D01*
X005462Y005575D01*
X005389Y005749D01*
X005256Y005883D01*
X005081Y005955D01*
X004892Y005955D01*
X004717Y005883D01*
X004583Y005749D01*
X004511Y005575D01*
X004511Y005385D01*
X004583Y005211D01*
X004717Y005077D01*
X004892Y005005D01*
X005081Y005005D01*
X005262Y005084D02*
X005711Y005084D01*
X005570Y005242D02*
X005402Y005242D01*
X005462Y005401D02*
X005511Y005401D01*
X005511Y005559D02*
X005462Y005559D01*
X005402Y005718D02*
X005570Y005718D01*
X005710Y005876D02*
X005262Y005876D01*
X004710Y005876D02*
X004416Y005876D01*
X004402Y005718D02*
X004570Y005718D01*
X004511Y005559D02*
X004462Y005559D01*
X004462Y005401D02*
X004511Y005401D01*
X004570Y005242D02*
X004402Y005242D01*
X004262Y005084D02*
X004711Y005084D01*
X004274Y004450D02*
X003323Y004450D01*
X003315Y004608D02*
X018534Y004608D01*
X018544Y004767D02*
X003482Y004767D01*
X003674Y004925D02*
X018610Y004925D01*
X018780Y005084D02*
X017262Y005084D01*
X017402Y005242D02*
X021764Y005242D01*
X021764Y005084D02*
X019307Y005084D01*
X019478Y004925D02*
X021764Y004925D01*
X021764Y004767D02*
X019544Y004767D01*
X019554Y004608D02*
X021764Y004608D01*
X021764Y004450D02*
X019517Y004450D01*
X019415Y004291D02*
X021764Y004291D01*
X021764Y005401D02*
X017462Y005401D01*
X017462Y005559D02*
X021764Y005559D01*
X021764Y005718D02*
X017402Y005718D01*
X017262Y005876D02*
X021764Y005876D01*
X021764Y006035D02*
X016747Y006035D01*
X016768Y006193D02*
X018691Y006193D01*
X018755Y006130D02*
X018942Y006052D01*
X019145Y006052D01*
X019333Y006130D01*
X019476Y006273D01*
X019554Y006460D01*
X019554Y006663D01*
X019476Y006851D01*
X019333Y006994D01*
X019145Y007072D01*
X018942Y007072D01*
X018755Y006994D01*
X018611Y006851D01*
X018534Y006663D01*
X018534Y006460D01*
X018611Y006273D01*
X018755Y006130D01*
X018579Y006352D02*
X016790Y006352D01*
X016811Y006510D02*
X018534Y006510D01*
X018536Y006669D02*
X016833Y006669D01*
X016881Y006827D02*
X018602Y006827D01*
X018746Y006986D02*
X016968Y006986D01*
X016949Y007144D02*
X021764Y007144D01*
X021764Y006986D02*
X019341Y006986D01*
X019486Y006827D02*
X021764Y006827D01*
X021764Y006669D02*
X019552Y006669D01*
X019554Y006510D02*
X021764Y006510D01*
X021764Y006352D02*
X019509Y006352D01*
X019396Y006193D02*
X021764Y006193D01*
X021764Y007303D02*
X016814Y007303D01*
X016522Y007303D02*
X003394Y007303D01*
X003423Y007461D02*
X021764Y007461D01*
X021764Y007620D02*
X003410Y007620D01*
X003344Y007778D02*
X021764Y007778D01*
X021764Y007937D02*
X003194Y007937D01*
X021764Y007937D01*
X021764Y008095D02*
X017274Y008095D01*
X021764Y008095D01*
X021764Y008254D02*
X017407Y008254D01*
X021764Y008254D01*
X021764Y008412D02*
X017462Y008412D01*
X021764Y008412D01*
X021764Y008571D02*
X017462Y008571D01*
X021764Y008571D01*
X021764Y008729D02*
X017398Y008729D01*
X021764Y008729D01*
X021764Y008888D02*
X017244Y008888D01*
X021764Y008888D01*
X021764Y009046D02*
X003216Y009046D01*
X003143Y008888D02*
X003728Y008888D01*
X002439Y008888D01*
X002439Y009046D02*
X021764Y009046D01*
X021764Y009205D02*
X003354Y009205D01*
X003419Y009363D02*
X021764Y009363D01*
X002439Y009363D01*
X002439Y009205D02*
X021764Y009205D01*
X021764Y009522D02*
X016001Y009522D01*
X021764Y009522D01*
X021764Y009680D02*
X016124Y009680D01*
X021764Y009680D01*
X021764Y009839D02*
X020097Y009839D01*
X020064Y009806D02*
X020165Y009906D01*
X020219Y010038D01*
X020219Y010180D01*
X020165Y010312D01*
X020064Y010413D01*
X019932Y010467D01*
X019790Y010467D01*
X019658Y010413D01*
X019558Y010312D01*
X019503Y010180D01*
X019503Y010038D01*
X019558Y009906D01*
X019658Y009806D01*
X019790Y009751D01*
X019932Y009751D01*
X020064Y009806D01*
X020202Y009997D02*
X021764Y009997D01*
X016182Y009997D01*
X019520Y009997D01*
X019503Y010156D02*
X016134Y010156D01*
X021764Y010156D01*
X020219Y010156D01*
X020163Y010314D02*
X021764Y010314D01*
X016026Y010314D01*
X019560Y010314D01*
X019625Y009839D02*
X016182Y009839D01*
X021764Y009839D01*
X021764Y010473D02*
X015759Y010473D01*
X021764Y010473D01*
X021712Y010598D02*
X021712Y010598D01*
X021679Y010631D02*
X002523Y010631D01*
X021679Y010631D01*
X021606Y010790D02*
X016184Y010790D01*
X021606Y010790D01*
X021701Y010948D02*
X016319Y010948D01*
X021701Y010948D01*
X021764Y011107D02*
X021537Y011107D01*
X021324Y011107D02*
X016809Y011107D01*
X016741Y011078D02*
X016944Y011162D01*
X017098Y011317D01*
X017182Y011519D01*
X017182Y011738D01*
X017098Y011940D01*
X016944Y012095D01*
X016741Y012178D01*
X016523Y012178D01*
X016320Y012095D01*
X016166Y011940D01*
X016111Y011809D01*
X016098Y011840D01*
X015944Y011995D01*
X015741Y012078D01*
X015523Y012078D01*
X015320Y011995D01*
X015166Y011840D01*
X015153Y011809D01*
X015098Y011940D01*
X014944Y012095D01*
X014741Y012178D01*
X014523Y012178D01*
X014320Y012095D01*
X014166Y011940D01*
X014111Y011809D01*
X014098Y011840D01*
X013944Y011995D01*
X013741Y012078D01*
X013523Y012078D01*
X013320Y011995D01*
X013166Y011840D01*
X013153Y011809D01*
X013098Y011940D01*
X012944Y012095D01*
X012741Y012178D01*
X012523Y012178D01*
X012320Y012095D01*
X012166Y011940D01*
X012111Y011809D01*
X012098Y011840D01*
X011944Y011995D01*
X011741Y012078D01*
X011523Y012078D01*
X011320Y011995D01*
X011166Y011840D01*
X011153Y011809D01*
X011098Y011940D01*
X010944Y012095D01*
X010741Y012178D01*
X010523Y012178D01*
X010320Y012095D01*
X010166Y011940D01*
X010111Y011809D01*
X010098Y011840D01*
X009944Y011995D01*
X009741Y012078D01*
X009523Y012078D01*
X009320Y011995D01*
X009166Y011840D01*
X009153Y011809D01*
X009098Y011940D01*
X008944Y012095D01*
X008741Y012178D01*
X008523Y012178D01*
X008320Y012095D01*
X008166Y011940D01*
X008111Y011809D01*
X008098Y011840D01*
X007944Y011995D01*
X007741Y012078D01*
X007523Y012078D01*
X007320Y011995D01*
X007166Y011840D01*
X007153Y011809D01*
X007098Y011940D01*
X006944Y012095D01*
X006741Y012178D01*
X006523Y012178D01*
X006320Y012095D01*
X006166Y011940D01*
X006111Y011809D01*
X006098Y011840D01*
X005944Y011995D01*
X005741Y012078D01*
X005523Y012078D01*
X005320Y011995D01*
X005166Y011840D01*
X005153Y011809D01*
X005098Y011940D01*
X004944Y012095D01*
X004741Y012178D01*
X004523Y012178D01*
X004320Y012095D01*
X004166Y011940D01*
X004082Y011738D01*
X004082Y011519D01*
X004166Y011317D01*
X004320Y011162D01*
X004523Y011078D01*
X004741Y011078D01*
X004854Y011125D01*
X004833Y011074D01*
X004833Y010955D01*
X004878Y010845D01*
X004963Y010760D01*
X005073Y010715D01*
X005192Y010715D01*
X005303Y010760D01*
X005327Y010785D01*
X006076Y010785D01*
X006087Y010776D01*
X006169Y010785D01*
X006252Y010785D01*
X006262Y010795D01*
X006337Y010803D01*
X006610Y010956D01*
X006610Y010956D01*
X006610Y010956D01*
X006337Y010803D01*
X006337Y010803D01*
X006337Y010803D01*
X006262Y010795D01*
X006252Y010785D01*
X006169Y010785D01*
X006087Y010776D01*
X006076Y010785D01*
X005327Y010785D01*
X005303Y010760D01*
X005192Y010715D01*
X005073Y010715D01*
X004963Y010760D01*
X004878Y010845D01*
X004833Y010955D01*
X004833Y011074D01*
X004854Y011125D01*
X004741Y011078D01*
X004523Y011078D01*
X004320Y011162D01*
X004166Y011317D01*
X004082Y011519D01*
X004082Y011738D01*
X004166Y011940D01*
X004320Y012095D01*
X004523Y012178D01*
X004741Y012178D01*
X004944Y012095D01*
X005098Y011940D01*
X005153Y011809D01*
X005166Y011840D01*
X005320Y011995D01*
X005523Y012078D01*
X005741Y012078D01*
X005944Y011995D01*
X006098Y011840D01*
X006111Y011809D01*
X006166Y011940D01*
X006320Y012095D01*
X006523Y012178D01*
X006741Y012178D01*
X006944Y012095D01*
X007098Y011940D01*
X007153Y011809D01*
X007166Y011840D01*
X007320Y011995D01*
X007523Y012078D01*
X007741Y012078D01*
X007944Y011995D01*
X008098Y011840D01*
X008111Y011809D01*
X008166Y011940D01*
X008320Y012095D01*
X008523Y012178D01*
X008741Y012178D01*
X008944Y012095D01*
X009098Y011940D01*
X009153Y011809D01*
X009166Y011840D01*
X009320Y011995D01*
X009523Y012078D01*
X009741Y012078D01*
X009944Y011995D01*
X010098Y011840D01*
X010111Y011809D01*
X010166Y011940D01*
X010320Y012095D01*
X010523Y012178D01*
X010741Y012178D01*
X010944Y012095D01*
X011098Y011940D01*
X011153Y011809D01*
X011166Y011840D01*
X011320Y011995D01*
X011523Y012078D01*
X011741Y012078D01*
X011944Y011995D01*
X012098Y011840D01*
X012111Y011809D01*
X012166Y011940D01*
X012320Y012095D01*
X012523Y012178D01*
X012741Y012178D01*
X012944Y012095D01*
X013098Y011940D01*
X013153Y011809D01*
X013166Y011840D01*
X013320Y011995D01*
X013523Y012078D01*
X013741Y012078D01*
X013944Y011995D01*
X014098Y011840D01*
X014111Y011809D01*
X014166Y011940D01*
X014320Y012095D01*
X014523Y012178D01*
X014741Y012178D01*
X014944Y012095D01*
X015098Y011940D01*
X015182Y011738D01*
X015182Y011519D01*
X015098Y011317D01*
X014987Y011205D01*
X015776Y011205D01*
X015784Y011224D01*
X015868Y011308D01*
X015979Y011354D01*
X016098Y011354D01*
X016208Y011308D01*
X016293Y011224D01*
X016338Y011114D01*
X016338Y010994D01*
X016293Y010884D01*
X016208Y010800D01*
X016174Y010785D01*
X016134Y010745D01*
X014317Y010745D01*
X014161Y010730D01*
X014161Y010730D01*
X014317Y010745D01*
X016134Y010745D01*
X016174Y010785D01*
X016208Y010800D01*
X016293Y010884D01*
X016338Y010994D01*
X016338Y011114D01*
X016317Y011166D01*
X016320Y011162D01*
X016523Y011078D01*
X016741Y011078D01*
X016455Y011107D02*
X016338Y011107D01*
X021764Y011107D01*
X021764Y011265D02*
X016251Y011265D01*
X015825Y011265D02*
X015046Y011265D01*
X015142Y011424D02*
X021764Y011424D01*
X021764Y011582D02*
X015182Y011582D01*
X015181Y011741D02*
X018914Y011741D01*
X017181Y011741D01*
X017182Y011582D02*
X021097Y011582D01*
X021072Y011424D02*
X017142Y011424D01*
X017046Y011265D02*
X021119Y011265D01*
X021214Y011741D02*
X019173Y011741D01*
X021764Y011741D01*
X021646Y011741D01*
X021764Y011899D02*
X019425Y011899D01*
X021764Y011899D01*
X021764Y012058D02*
X019521Y012058D01*
X021764Y012058D01*
X021764Y012216D02*
X019554Y012216D01*
X021764Y012216D01*
X021764Y012375D02*
X019540Y012375D01*
X021764Y012375D01*
X021764Y012533D02*
X019471Y012533D01*
X021764Y012533D01*
X021764Y012692D02*
X019284Y012692D01*
X021764Y012692D01*
X021764Y012850D02*
X017406Y012850D01*
X020312Y012850D01*
X020249Y012876D02*
X020380Y012822D01*
X020523Y012822D01*
X020655Y012876D01*
X020755Y012977D01*
X020810Y013109D01*
X020810Y013251D01*
X020755Y013383D01*
X020655Y013484D01*
X020523Y013538D01*
X020380Y013538D01*
X020249Y013484D01*
X020148Y013383D01*
X020094Y013251D01*
X020094Y013109D01*
X020148Y012977D01*
X020249Y012876D01*
X020135Y013009D02*
X017462Y013009D01*
X021764Y013009D01*
X020768Y013009D01*
X020810Y013167D02*
X021764Y013167D01*
X017462Y013167D01*
X020094Y013167D01*
X020124Y013326D02*
X017398Y013326D01*
X021764Y013326D01*
X020779Y013326D01*
X020653Y013484D02*
X021764Y013484D01*
X017249Y013484D01*
X020250Y013484D01*
X020591Y012850D02*
X021764Y012850D01*
X021764Y013643D02*
X016748Y013643D01*
X021764Y013643D01*
X021764Y013801D02*
X019406Y013801D01*
X021764Y013801D01*
X021764Y013960D02*
X019513Y013960D01*
X021764Y013960D01*
X021764Y014118D02*
X019554Y014118D01*
X021764Y014118D01*
X021764Y014277D02*
X019548Y014277D01*
X021764Y014277D01*
X021764Y014435D02*
X019482Y014435D01*
X021764Y014435D01*
X021764Y014594D02*
X019330Y014594D01*
X021764Y014594D01*
X021764Y014752D02*
X016945Y014752D01*
X021764Y014752D01*
X021764Y014911D02*
X016791Y014911D01*
X021764Y014911D01*
X021764Y015069D02*
X003423Y015069D01*
X013058Y015069D01*
X013065Y015077D02*
X012965Y014976D01*
X012910Y014844D01*
X012910Y014702D01*
X012965Y014570D01*
X013065Y014469D01*
X013197Y014415D01*
X013339Y014415D01*
X013471Y014469D01*
X013572Y014570D01*
X013626Y014702D01*
X013626Y014844D01*
X013572Y014976D01*
X013471Y015077D01*
X013339Y015131D01*
X013197Y015131D01*
X013065Y015077D01*
X012938Y014911D02*
X003398Y014911D01*
X016546Y014911D01*
X013599Y014911D01*
X013626Y014752D02*
X016391Y014752D01*
X003324Y014752D01*
X007853Y014752D01*
X007887Y014786D02*
X007786Y014685D01*
X007731Y014554D01*
X007731Y014411D01*
X007786Y014280D01*
X007887Y014179D01*
X008018Y014124D01*
X008161Y014124D01*
X008292Y014179D01*
X008393Y014280D01*
X008448Y014411D01*
X008448Y014554D01*
X008393Y014685D01*
X008292Y014786D01*
X008161Y014840D01*
X008018Y014840D01*
X007887Y014786D01*
X007748Y014594D02*
X003139Y014594D01*
X016368Y014594D01*
X013582Y014594D01*
X013388Y014435D02*
X016392Y014435D01*
X003194Y014435D01*
X007731Y014435D01*
X007789Y014277D02*
X003286Y014277D01*
X016364Y014277D01*
X008390Y014277D01*
X008448Y014435D02*
X013148Y014435D01*
X012955Y014594D02*
X008431Y014594D01*
X008326Y014752D02*
X012910Y014752D01*
X012892Y015603D02*
X013081Y015603D01*
X013256Y015676D01*
X013389Y015809D01*
X013462Y015984D01*
X013462Y016173D01*
X013389Y016348D01*
X013256Y016481D01*
X013081Y016554D01*
X012892Y016554D01*
X012717Y016481D01*
X012583Y016348D01*
X012511Y016173D01*
X012511Y015984D01*
X012583Y015809D01*
X012717Y015676D01*
X012892Y015603D01*
X013081Y015603D01*
X013256Y015676D01*
X013389Y015809D01*
X013462Y015984D01*
X013462Y016173D01*
X013389Y016348D01*
X013256Y016481D01*
X013081Y016554D01*
X012892Y016554D01*
X012717Y016481D01*
X012583Y016348D01*
X012511Y016173D01*
X012511Y015984D01*
X012583Y015809D01*
X012717Y015676D01*
X012892Y015603D01*
X012689Y015703D02*
X012283Y015703D01*
X012689Y015703D01*
X012562Y015862D02*
X012411Y015862D01*
X012562Y015862D01*
X012462Y015984D02*
X012389Y015809D01*
X012256Y015676D01*
X012081Y015603D01*
X011892Y015603D01*
X011717Y015676D01*
X011583Y015809D01*
X011511Y015984D01*
X011511Y016173D01*
X011583Y016348D01*
X011717Y016481D01*
X011892Y016554D01*
X012081Y016554D01*
X012256Y016481D01*
X012389Y016348D01*
X012462Y016173D01*
X012462Y015984D01*
X012389Y015809D01*
X012256Y015676D01*
X012081Y015603D01*
X011892Y015603D01*
X011717Y015676D01*
X011583Y015809D01*
X011511Y015984D01*
X011511Y016173D01*
X011583Y016348D01*
X011717Y016481D01*
X011892Y016554D01*
X012081Y016554D01*
X012256Y016481D01*
X012389Y016348D01*
X012462Y016173D01*
X012462Y015984D01*
X012462Y016020D02*
X012511Y016020D01*
X012462Y016020D01*
X012459Y016179D02*
X012513Y016179D01*
X012459Y016179D01*
X012394Y016337D02*
X012579Y016337D01*
X012394Y016337D01*
X012221Y016496D02*
X012751Y016496D01*
X012221Y016496D01*
X011751Y016496D02*
X011221Y016496D01*
X011751Y016496D01*
X011579Y016337D02*
X011394Y016337D01*
X011579Y016337D01*
X011513Y016179D02*
X011459Y016179D01*
X011513Y016179D01*
X011462Y016173D02*
X011389Y016348D01*
X011256Y016481D01*
X011081Y016554D01*
X010892Y016554D01*
X010717Y016481D01*
X010583Y016348D01*
X010511Y016173D01*
X010511Y015984D01*
X010583Y015809D01*
X010717Y015676D01*
X010892Y015603D01*
X011081Y015603D01*
X011256Y015676D01*
X011389Y015809D01*
X011462Y015984D01*
X011462Y016173D01*
X011389Y016348D01*
X011256Y016481D01*
X011081Y016554D01*
X010892Y016554D01*
X010717Y016481D01*
X010583Y016348D01*
X010511Y016173D01*
X010511Y015984D01*
X010583Y015809D01*
X010717Y015676D01*
X010892Y015603D01*
X011081Y015603D01*
X011256Y015676D01*
X011389Y015809D01*
X011462Y015984D01*
X011462Y016173D01*
X011462Y016020D02*
X011511Y016020D01*
X011462Y016020D01*
X011411Y015862D02*
X011562Y015862D01*
X011411Y015862D01*
X011283Y015703D02*
X011689Y015703D01*
X011283Y015703D01*
X010689Y015703D02*
X009283Y015703D01*
X009689Y015703D01*
X009717Y015676D02*
X009583Y015809D01*
X009511Y015984D01*
X009511Y016173D01*
X009583Y016348D01*
X009717Y016481D01*
X009892Y016554D01*
X010081Y016554D01*
X010256Y016481D01*
X010389Y016348D01*
X010462Y016173D01*
X010462Y015984D01*
X010389Y015809D01*
X010256Y015676D01*
X010081Y015603D01*
X009892Y015603D01*
X009717Y015676D01*
X009562Y015862D02*
X009411Y015862D01*
X010562Y015862D01*
X010411Y015862D01*
X010462Y016020D02*
X010511Y016020D01*
X009462Y016020D01*
X009511Y016020D01*
X009462Y015984D02*
X009389Y015809D01*
X009256Y015676D01*
X009081Y015603D01*
X008892Y015603D01*
X008717Y015676D01*
X008583Y015809D01*
X008511Y015984D01*
X008511Y016173D01*
X008583Y016348D01*
X008717Y016481D01*
X008892Y016554D01*
X009081Y016554D01*
X009256Y016481D01*
X009389Y016348D01*
X009462Y016173D01*
X009462Y015984D01*
X009389Y015809D01*
X009256Y015676D01*
X009081Y015603D01*
X008892Y015603D01*
X008717Y015676D01*
X008583Y015809D01*
X008511Y015984D01*
X008511Y016173D01*
X008583Y016348D01*
X008717Y016481D01*
X008892Y016554D01*
X009081Y016554D01*
X009256Y016481D01*
X009389Y016348D01*
X009462Y016173D01*
X009462Y015984D01*
X009459Y016179D02*
X010513Y016179D01*
X010459Y016179D01*
X010394Y016337D02*
X010579Y016337D01*
X009394Y016337D01*
X009579Y016337D01*
X009513Y016179D02*
X009459Y016179D01*
X009221Y016496D02*
X010751Y016496D01*
X010221Y016496D01*
X009751Y016496D02*
X009221Y016496D01*
X008751Y016496D02*
X008221Y016496D01*
X008751Y016496D01*
X008579Y016337D02*
X008394Y016337D01*
X008579Y016337D01*
X008513Y016179D02*
X008459Y016179D01*
X008513Y016179D01*
X008462Y016173D02*
X008389Y016348D01*
X008256Y016481D01*
X008081Y016554D01*
X007892Y016554D01*
X007717Y016481D01*
X007583Y016348D01*
X007511Y016173D01*
X007511Y015984D01*
X007583Y015809D01*
X007717Y015676D01*
X007892Y015603D01*
X008081Y015603D01*
X008256Y015676D01*
X008389Y015809D01*
X008462Y015984D01*
X008462Y016173D01*
X008389Y016348D01*
X008256Y016481D01*
X008081Y016554D01*
X007892Y016554D01*
X007717Y016481D01*
X007583Y016348D01*
X007511Y016173D01*
X007511Y015984D01*
X007583Y015809D01*
X007717Y015676D01*
X007892Y015603D01*
X008081Y015603D01*
X008256Y015676D01*
X008389Y015809D01*
X008462Y015984D01*
X008462Y016173D01*
X008462Y016020D02*
X008511Y016020D01*
X008462Y016020D01*
X008411Y015862D02*
X008562Y015862D01*
X008411Y015862D01*
X008283Y015703D02*
X008689Y015703D01*
X008283Y015703D01*
X007689Y015703D02*
X007283Y015703D01*
X007689Y015703D01*
X007562Y015862D02*
X007411Y015862D01*
X007562Y015862D01*
X007462Y015984D02*
X007389Y015809D01*
X007256Y015676D01*
X007081Y015603D01*
X006892Y015603D01*
X006717Y015676D01*
X006583Y015809D01*
X006511Y015984D01*
X006511Y016173D01*
X006583Y016348D01*
X006717Y016481D01*
X006892Y016554D01*
X007081Y016554D01*
X007256Y016481D01*
X007389Y016348D01*
X007462Y016173D01*
X007462Y015984D01*
X007389Y015809D01*
X007256Y015676D01*
X007081Y015603D01*
X006892Y015603D01*
X006717Y015676D01*
X006583Y015809D01*
X006511Y015984D01*
X006511Y016173D01*
X006583Y016348D01*
X006717Y016481D01*
X006892Y016554D01*
X007081Y016554D01*
X007256Y016481D01*
X007389Y016348D01*
X007462Y016173D01*
X007462Y015984D01*
X007462Y016020D02*
X007511Y016020D01*
X007462Y016020D01*
X007459Y016179D02*
X007513Y016179D01*
X007459Y016179D01*
X007394Y016337D02*
X007579Y016337D01*
X007394Y016337D01*
X007221Y016496D02*
X007751Y016496D01*
X007221Y016496D01*
X006751Y016496D02*
X006221Y016496D01*
X006751Y016496D01*
X006579Y016337D02*
X006394Y016337D01*
X006579Y016337D01*
X006513Y016179D02*
X006459Y016179D01*
X006513Y016179D01*
X006462Y016173D02*
X006389Y016348D01*
X006256Y016481D01*
X006081Y016554D01*
X005892Y016554D01*
X005717Y016481D01*
X005583Y016348D01*
X005511Y016173D01*
X005511Y015984D01*
X005583Y015809D01*
X005717Y015676D01*
X005892Y015603D01*
X006081Y015603D01*
X006256Y015676D01*
X006389Y015809D01*
X006462Y015984D01*
X006462Y016173D01*
X006389Y016348D01*
X006256Y016481D01*
X006081Y016554D01*
X005892Y016554D01*
X005717Y016481D01*
X005583Y016348D01*
X005511Y016173D01*
X005511Y015984D01*
X005583Y015809D01*
X005717Y015676D01*
X005892Y015603D01*
X006081Y015603D01*
X006256Y015676D01*
X006389Y015809D01*
X006462Y015984D01*
X006462Y016173D01*
X006462Y016020D02*
X006511Y016020D01*
X006462Y016020D01*
X006411Y015862D02*
X006562Y015862D01*
X006411Y015862D01*
X006283Y015703D02*
X006689Y015703D01*
X006283Y015703D01*
X005689Y015703D02*
X005283Y015703D01*
X005689Y015703D01*
X005562Y015862D02*
X005411Y015862D01*
X005562Y015862D01*
X005462Y015984D02*
X005389Y015809D01*
X005256Y015676D01*
X005081Y015603D01*
X004892Y015603D01*
X004717Y015676D01*
X004583Y015809D01*
X004511Y015984D01*
X004511Y016173D01*
X004583Y016348D01*
X004717Y016481D01*
X004892Y016554D01*
X005081Y016554D01*
X005256Y016481D01*
X005389Y016348D01*
X005462Y016173D01*
X005462Y015984D01*
X005389Y015809D01*
X005256Y015676D01*
X005081Y015603D01*
X004892Y015603D01*
X004717Y015676D01*
X004583Y015809D01*
X004511Y015984D01*
X004511Y016173D01*
X004583Y016348D01*
X004717Y016481D01*
X004892Y016554D01*
X005081Y016554D01*
X005256Y016481D01*
X005389Y016348D01*
X005462Y016173D01*
X005462Y015984D01*
X005462Y016020D02*
X005511Y016020D01*
X005462Y016020D01*
X005459Y016179D02*
X005513Y016179D01*
X005459Y016179D01*
X005394Y016337D02*
X005579Y016337D01*
X005394Y016337D01*
X005221Y016496D02*
X005751Y016496D01*
X005221Y016496D01*
X004751Y016496D02*
X004221Y016496D01*
X004751Y016496D01*
X004579Y016337D02*
X004394Y016337D01*
X004579Y016337D01*
X004513Y016179D02*
X004459Y016179D01*
X004513Y016179D01*
X004462Y016173D02*
X004389Y016348D01*
X004256Y016481D01*
X004081Y016554D01*
X003892Y016554D01*
X003717Y016481D01*
X003583Y016348D01*
X003511Y016173D01*
X003511Y015984D01*
X003583Y015809D01*
X003717Y015676D01*
X003892Y015603D01*
X004081Y015603D01*
X004256Y015676D01*
X004389Y015809D01*
X004462Y015984D01*
X004462Y016173D01*
X004389Y016348D01*
X004256Y016481D01*
X004081Y016554D01*
X003892Y016554D01*
X003717Y016481D01*
X003583Y016348D01*
X003511Y016173D01*
X003511Y015984D01*
X003583Y015809D01*
X003717Y015676D01*
X003892Y015603D01*
X004081Y015603D01*
X004256Y015676D01*
X004389Y015809D01*
X004462Y015984D01*
X004462Y016173D01*
X004462Y016020D02*
X004511Y016020D01*
X004462Y016020D01*
X004411Y015862D02*
X004562Y015862D01*
X004411Y015862D01*
X004283Y015703D02*
X004689Y015703D01*
X004283Y015703D01*
X003689Y015703D02*
X002439Y015703D01*
X002439Y015545D02*
X002561Y015545D01*
X002439Y015862D02*
X003562Y015862D01*
X003278Y015862D01*
X003323Y016020D02*
X003511Y016020D01*
X002439Y016020D01*
X002439Y016179D02*
X003513Y016179D01*
X003323Y016179D01*
X003261Y016337D02*
X003579Y016337D01*
X002439Y016337D01*
X002439Y016496D02*
X003751Y016496D01*
X003133Y016496D01*
X003226Y016654D02*
X021764Y016654D01*
X002439Y016654D01*
X002439Y016813D02*
X021764Y016813D01*
X003358Y016813D01*
X003423Y016971D02*
X021764Y016971D01*
X002439Y016971D01*
X002439Y017130D02*
X004399Y017130D01*
X003423Y017130D01*
X003381Y017288D02*
X004194Y017288D01*
X002439Y017288D01*
X002439Y017447D02*
X004112Y017447D01*
X003282Y017447D01*
X003038Y017605D02*
X004082Y017605D01*
X002439Y017605D01*
X002707Y017605D01*
X002463Y017447D02*
X002439Y017447D01*
X002439Y017764D02*
X004093Y017764D01*
X002439Y017764D01*
X002439Y017922D02*
X004158Y017922D01*
X002439Y017922D01*
X002439Y018081D02*
X004306Y018081D01*
X002439Y018081D01*
X004082Y017738D02*
X004082Y017519D01*
X004166Y017317D01*
X004320Y017162D01*
X004523Y017078D01*
X004741Y017078D01*
X004944Y017162D01*
X005098Y017317D01*
X005111Y017348D01*
X005166Y017217D01*
X005320Y017062D01*
X005523Y016978D01*
X005741Y016978D01*
X005944Y017062D01*
X006098Y017217D01*
X006153Y017348D01*
X006166Y017317D01*
X006320Y017162D01*
X006523Y017078D01*
X006741Y017078D01*
X006944Y017162D01*
X007098Y017317D01*
X007111Y017348D01*
X007166Y017217D01*
X007320Y017062D01*
X007523Y016978D01*
X007741Y016978D01*
X007944Y017062D01*
X008098Y017217D01*
X008153Y017348D01*
X008166Y017317D01*
X008320Y017162D01*
X008523Y017078D01*
X008741Y017078D01*
X008944Y017162D01*
X009098Y017317D01*
X009111Y017348D01*
X009166Y017217D01*
X009320Y017062D01*
X009523Y016978D01*
X009741Y016978D01*
X009944Y017062D01*
X010098Y017217D01*
X010153Y017348D01*
X010166Y017317D01*
X010320Y017162D01*
X010523Y017078D01*
X010741Y017078D01*
X010944Y017162D01*
X011098Y017317D01*
X011111Y017348D01*
X011166Y017217D01*
X011320Y017062D01*
X011523Y016978D01*
X011741Y016978D01*
X011944Y017062D01*
X012098Y017217D01*
X012153Y017348D01*
X012166Y017317D01*
X012320Y017162D01*
X012523Y017078D01*
X012741Y017078D01*
X012944Y017162D01*
X013098Y017317D01*
X013111Y017348D01*
X013166Y017217D01*
X013320Y017062D01*
X013523Y016978D01*
X013741Y016978D01*
X013944Y017062D01*
X014098Y017217D01*
X014153Y017348D01*
X014166Y017317D01*
X014320Y017162D01*
X014523Y017078D01*
X014741Y017078D01*
X014944Y017162D01*
X015098Y017317D01*
X015111Y017348D01*
X015166Y017217D01*
X015320Y017062D01*
X015523Y016978D01*
X015741Y016978D01*
X015944Y017062D01*
X016098Y017217D01*
X016182Y017419D01*
X016182Y017638D01*
X016098Y017840D01*
X015944Y017995D01*
X015741Y018078D01*
X015523Y018078D01*
X015320Y017995D01*
X015166Y017840D01*
X015153Y017809D01*
X015098Y017940D01*
X014944Y018095D01*
X014741Y018178D01*
X014523Y018178D01*
X014320Y018095D01*
X014166Y017940D01*
X014111Y017809D01*
X014098Y017840D01*
X013944Y017995D01*
X013741Y018078D01*
X013523Y018078D01*
X013320Y017995D01*
X013166Y017840D01*
X013153Y017809D01*
X013098Y017940D01*
X012944Y018095D01*
X012741Y018178D01*
X012523Y018178D01*
X012320Y018095D01*
X012166Y017940D01*
X012111Y017809D01*
X012098Y017840D01*
X011944Y017995D01*
X011741Y018078D01*
X011523Y018078D01*
X011320Y017995D01*
X011166Y017840D01*
X011153Y017809D01*
X011098Y017940D01*
X010944Y018095D01*
X010741Y018178D01*
X010523Y018178D01*
X010320Y018095D01*
X010166Y017940D01*
X010111Y017809D01*
X010098Y017840D01*
X009944Y017995D01*
X009741Y018078D01*
X009523Y018078D01*
X009320Y017995D01*
X009166Y017840D01*
X009153Y017809D01*
X009098Y017940D01*
X008944Y018095D01*
X008741Y018178D01*
X008523Y018178D01*
X008320Y018095D01*
X008166Y017940D01*
X008111Y017809D01*
X008098Y017840D01*
X007944Y017995D01*
X007741Y018078D01*
X007523Y018078D01*
X007320Y017995D01*
X007166Y017840D01*
X007153Y017809D01*
X007098Y017940D01*
X006944Y018095D01*
X006741Y018178D01*
X006523Y018178D01*
X006320Y018095D01*
X006166Y017940D01*
X006111Y017809D01*
X006098Y017840D01*
X005944Y017995D01*
X005741Y018078D01*
X005523Y018078D01*
X005320Y017995D01*
X005166Y017840D01*
X005153Y017809D01*
X005098Y017940D01*
X004944Y018095D01*
X004741Y018178D01*
X004523Y018178D01*
X004320Y018095D01*
X004166Y017940D01*
X004082Y017738D01*
X004082Y017519D01*
X004166Y017317D01*
X004320Y017162D01*
X004523Y017078D01*
X004741Y017078D01*
X004944Y017162D01*
X005098Y017317D01*
X005111Y017348D01*
X005166Y017217D01*
X005320Y017062D01*
X005523Y016978D01*
X005741Y016978D01*
X005944Y017062D01*
X006098Y017217D01*
X006153Y017348D01*
X006166Y017317D01*
X006320Y017162D01*
X006523Y017078D01*
X006741Y017078D01*
X006944Y017162D01*
X007098Y017317D01*
X007111Y017348D01*
X007166Y017217D01*
X007320Y017062D01*
X007523Y016978D01*
X007741Y016978D01*
X007944Y017062D01*
X008098Y017217D01*
X008153Y017348D01*
X008166Y017317D01*
X008320Y017162D01*
X008523Y017078D01*
X008741Y017078D01*
X008944Y017162D01*
X009098Y017317D01*
X009111Y017348D01*
X009166Y017217D01*
X009320Y017062D01*
X009523Y016978D01*
X009741Y016978D01*
X009944Y017062D01*
X010098Y017217D01*
X010153Y017348D01*
X010166Y017317D01*
X010320Y017162D01*
X010523Y017078D01*
X010741Y017078D01*
X010944Y017162D01*
X011098Y017317D01*
X011111Y017348D01*
X011166Y017217D01*
X011320Y017062D01*
X011523Y016978D01*
X011741Y016978D01*
X011944Y017062D01*
X012098Y017217D01*
X012153Y017348D01*
X012166Y017317D01*
X012320Y017162D01*
X012523Y017078D01*
X012741Y017078D01*
X012944Y017162D01*
X013098Y017317D01*
X013111Y017348D01*
X013166Y017217D01*
X013320Y017062D01*
X013523Y016978D01*
X013741Y016978D01*
X013944Y017062D01*
X014098Y017217D01*
X014153Y017348D01*
X014166Y017317D01*
X014320Y017162D01*
X014523Y017078D01*
X014741Y017078D01*
X014944Y017162D01*
X015098Y017317D01*
X015111Y017348D01*
X015166Y017217D01*
X015320Y017062D01*
X015523Y016978D01*
X015741Y016978D01*
X015944Y017062D01*
X016098Y017217D01*
X016182Y017419D01*
X016182Y017638D01*
X016098Y017840D01*
X015944Y017995D01*
X015741Y018078D01*
X015523Y018078D01*
X015320Y017995D01*
X015166Y017840D01*
X015153Y017809D01*
X015098Y017940D01*
X014944Y018095D01*
X014741Y018178D01*
X014523Y018178D01*
X014320Y018095D01*
X014166Y017940D01*
X014111Y017809D01*
X014098Y017840D01*
X013944Y017995D01*
X013741Y018078D01*
X013523Y018078D01*
X013320Y017995D01*
X013166Y017840D01*
X013153Y017809D01*
X013098Y017940D01*
X012944Y018095D01*
X012741Y018178D01*
X012523Y018178D01*
X012320Y018095D01*
X012166Y017940D01*
X012111Y017809D01*
X012098Y017840D01*
X011944Y017995D01*
X011741Y018078D01*
X011523Y018078D01*
X011320Y017995D01*
X011166Y017840D01*
X011153Y017809D01*
X011098Y017940D01*
X010944Y018095D01*
X010741Y018178D01*
X010523Y018178D01*
X010320Y018095D01*
X010166Y017940D01*
X010111Y017809D01*
X010098Y017840D01*
X009944Y017995D01*
X009741Y018078D01*
X009523Y018078D01*
X009320Y017995D01*
X009166Y017840D01*
X009153Y017809D01*
X009098Y017940D01*
X008944Y018095D01*
X008741Y018178D01*
X008523Y018178D01*
X008320Y018095D01*
X008166Y017940D01*
X008111Y017809D01*
X008098Y017840D01*
X007944Y017995D01*
X007741Y018078D01*
X007523Y018078D01*
X007320Y017995D01*
X007166Y017840D01*
X007153Y017809D01*
X007098Y017940D01*
X006944Y018095D01*
X006741Y018178D01*
X006523Y018178D01*
X006320Y018095D01*
X006166Y017940D01*
X006111Y017809D01*
X006098Y017840D01*
X005944Y017995D01*
X005741Y018078D01*
X005523Y018078D01*
X005320Y017995D01*
X005166Y017840D01*
X005153Y017809D01*
X005098Y017940D01*
X004944Y018095D01*
X004741Y018178D01*
X004523Y018178D01*
X004320Y018095D01*
X004166Y017940D01*
X004082Y017738D01*
X004958Y018081D02*
X006306Y018081D01*
X004958Y018081D01*
X005106Y017922D02*
X005248Y017922D01*
X005106Y017922D01*
X005136Y017288D02*
X005069Y017288D01*
X005136Y017288D01*
X005253Y017130D02*
X004865Y017130D01*
X005253Y017130D01*
X006011Y017130D02*
X006399Y017130D01*
X006011Y017130D01*
X006128Y017288D02*
X006194Y017288D01*
X006128Y017288D01*
X006158Y017922D02*
X006016Y017922D01*
X006158Y017922D01*
X006958Y018081D02*
X008306Y018081D01*
X006958Y018081D01*
X007106Y017922D02*
X007248Y017922D01*
X007106Y017922D01*
X007136Y017288D02*
X007069Y017288D01*
X007136Y017288D01*
X007253Y017130D02*
X006865Y017130D01*
X007253Y017130D01*
X008011Y017130D02*
X008399Y017130D01*
X008011Y017130D01*
X008128Y017288D02*
X008194Y017288D01*
X008128Y017288D01*
X008158Y017922D02*
X008016Y017922D01*
X008158Y017922D01*
X008958Y018081D02*
X010306Y018081D01*
X008958Y018081D01*
X009106Y017922D02*
X009248Y017922D01*
X009106Y017922D01*
X009136Y017288D02*
X009069Y017288D01*
X009136Y017288D01*
X009253Y017130D02*
X008865Y017130D01*
X009253Y017130D01*
X010011Y017130D02*
X010399Y017130D01*
X010011Y017130D01*
X010128Y017288D02*
X010194Y017288D01*
X010128Y017288D01*
X010158Y017922D02*
X010016Y017922D01*
X010158Y017922D01*
X010958Y018081D02*
X012306Y018081D01*
X010958Y018081D01*
X011106Y017922D02*
X011248Y017922D01*
X011106Y017922D01*
X011136Y017288D02*
X011069Y017288D01*
X011136Y017288D01*
X011253Y017130D02*
X010865Y017130D01*
X011253Y017130D01*
X012011Y017130D02*
X012399Y017130D01*
X012011Y017130D01*
X012128Y017288D02*
X012194Y017288D01*
X012128Y017288D01*
X012158Y017922D02*
X012016Y017922D01*
X012158Y017922D01*
X012958Y018081D02*
X014306Y018081D01*
X012958Y018081D01*
X013106Y017922D02*
X013248Y017922D01*
X013106Y017922D01*
X013136Y017288D02*
X013069Y017288D01*
X013136Y017288D01*
X013253Y017130D02*
X012865Y017130D01*
X013253Y017130D01*
X013221Y016496D02*
X013751Y016496D01*
X013221Y016496D01*
X013394Y016337D02*
X013579Y016337D01*
X013394Y016337D01*
X013459Y016179D02*
X013513Y016179D01*
X013459Y016179D01*
X013511Y016173D02*
X013583Y016348D01*
X013717Y016481D01*
X013892Y016554D01*
X014081Y016554D01*
X014256Y016481D01*
X014389Y016348D01*
X014462Y016173D01*
X014462Y015984D01*
X014389Y015809D01*
X014256Y015676D01*
X014081Y015603D01*
X013892Y015603D01*
X013717Y015676D01*
X013583Y015809D01*
X013511Y015984D01*
X013511Y016173D01*
X013511Y015984D01*
X013583Y015809D01*
X013717Y015676D01*
X013892Y015603D01*
X014081Y015603D01*
X014256Y015676D01*
X014389Y015809D01*
X014462Y015984D01*
X014462Y016173D01*
X014389Y016348D01*
X014256Y016481D01*
X014081Y016554D01*
X013892Y016554D01*
X013717Y016481D01*
X013583Y016348D01*
X013511Y016173D01*
X013511Y016020D02*
X013462Y016020D01*
X013511Y016020D01*
X013562Y015862D02*
X013411Y015862D01*
X013562Y015862D01*
X013689Y015703D02*
X013283Y015703D01*
X013689Y015703D01*
X013478Y015069D02*
X021764Y015069D01*
X021764Y015228D02*
X003406Y015228D01*
X021764Y015228D01*
X021764Y015386D02*
X003340Y015386D01*
X021764Y015386D01*
X021764Y015545D02*
X003184Y015545D01*
X021764Y015545D01*
X021764Y015703D02*
X017283Y015703D01*
X021764Y015703D01*
X021764Y015862D02*
X017411Y015862D01*
X021764Y015862D01*
X021764Y016020D02*
X017462Y016020D01*
X021764Y016020D01*
X021764Y016179D02*
X017459Y016179D01*
X021764Y016179D01*
X021764Y016337D02*
X017394Y016337D01*
X021764Y016337D01*
X021764Y016496D02*
X017221Y016496D01*
X021764Y016496D01*
X021764Y017130D02*
X016011Y017130D01*
X021764Y017130D01*
X021764Y017288D02*
X016128Y017288D01*
X021764Y017288D01*
X021764Y017447D02*
X016182Y017447D01*
X019616Y017447D01*
X019658Y017404D02*
X019790Y017349D01*
X019932Y017349D01*
X020064Y017404D01*
X020165Y017505D01*
X020219Y017636D01*
X020219Y017779D01*
X020165Y017910D01*
X020064Y018011D01*
X019932Y018066D01*
X019790Y018066D01*
X019658Y018011D01*
X019558Y017910D01*
X019503Y017779D01*
X019503Y017636D01*
X019558Y017505D01*
X019658Y017404D01*
X019516Y017605D02*
X016182Y017605D01*
X021764Y017605D01*
X020206Y017605D01*
X020219Y017764D02*
X021764Y017764D01*
X016130Y017764D01*
X019503Y017764D01*
X019569Y017922D02*
X016016Y017922D01*
X021764Y017922D01*
X020153Y017922D01*
X020107Y017447D02*
X021764Y017447D01*
X021764Y018081D02*
X014958Y018081D01*
X021764Y018081D01*
X019333Y014593D02*
X019145Y014670D01*
X018942Y014670D01*
X018755Y014593D01*
X018611Y014449D01*
X018534Y014262D01*
X018534Y014059D01*
X018611Y013871D01*
X018755Y013728D01*
X018942Y013650D01*
X019145Y013650D01*
X019333Y013728D01*
X019476Y013871D01*
X019554Y014059D01*
X019554Y014262D01*
X019476Y014449D01*
X019333Y014593D01*
X019145Y014670D01*
X018942Y014670D01*
X018755Y014593D01*
X018611Y014449D01*
X018534Y014262D01*
X018534Y014059D01*
X018611Y013871D01*
X018755Y013728D01*
X018942Y013650D01*
X019145Y013650D01*
X019333Y013728D01*
X019476Y013871D01*
X019554Y014059D01*
X019554Y014262D01*
X019476Y014449D01*
X019333Y014593D01*
X018757Y014594D02*
X016968Y014594D01*
X018757Y014594D01*
X018606Y014435D02*
X016891Y014435D01*
X018606Y014435D01*
X018540Y014277D02*
X016834Y014277D01*
X018540Y014277D01*
X018534Y014118D02*
X016812Y014118D01*
X018534Y014118D01*
X018575Y013960D02*
X016791Y013960D01*
X018575Y013960D01*
X018682Y013801D02*
X016769Y013801D01*
X018682Y013801D01*
X018942Y012749D02*
X018755Y012671D01*
X018611Y012528D01*
X018534Y012341D01*
X018534Y012138D01*
X018611Y011950D01*
X018755Y011807D01*
X018942Y011729D01*
X019145Y011729D01*
X019333Y011807D01*
X019476Y011950D01*
X019554Y012138D01*
X019554Y012341D01*
X019476Y012528D01*
X019333Y012671D01*
X019145Y012749D01*
X018942Y012749D01*
X018755Y012671D01*
X018611Y012528D01*
X018534Y012341D01*
X018534Y012138D01*
X018611Y011950D01*
X018755Y011807D01*
X018942Y011729D01*
X019145Y011729D01*
X019333Y011807D01*
X019476Y011950D01*
X019554Y012138D01*
X019554Y012341D01*
X019476Y012528D01*
X019333Y012671D01*
X019145Y012749D01*
X018942Y012749D01*
X018804Y012692D02*
X017272Y012692D01*
X018804Y012692D01*
X018617Y012533D02*
X003686Y012533D01*
X018617Y012533D01*
X018548Y012375D02*
X003494Y012375D01*
X018548Y012375D01*
X018534Y012216D02*
X003311Y012216D01*
X018534Y012216D01*
X018567Y012058D02*
X014981Y012058D01*
X015472Y012058D01*
X015225Y011899D02*
X015115Y011899D01*
X018662Y011899D01*
X017115Y011899D01*
X016981Y012058D02*
X018567Y012058D01*
X017389Y012809D02*
X017462Y012984D01*
X017462Y013173D01*
X017389Y013348D01*
X017256Y013481D01*
X017081Y013554D01*
X016892Y013554D01*
X016750Y013495D01*
X016745Y013507D01*
X016737Y013516D01*
X016747Y013641D01*
X016747Y013641D01*
X016747Y013641D01*
X016737Y013516D01*
X016745Y013507D01*
X016750Y013495D01*
X016892Y013554D01*
X017081Y013554D01*
X017256Y013481D01*
X017389Y013348D01*
X017462Y013173D01*
X017462Y012984D01*
X017389Y012809D01*
X017256Y012676D01*
X017081Y012603D01*
X016892Y012603D01*
X016717Y012676D01*
X016583Y012809D01*
X016511Y012984D01*
X016511Y013037D01*
X016462Y013037D01*
X016462Y012984D01*
X016389Y012809D01*
X016256Y012676D01*
X016081Y012603D01*
X015892Y012603D01*
X015717Y012676D01*
X015583Y012809D01*
X015511Y012984D01*
X015511Y013173D01*
X015583Y013348D01*
X015717Y013481D01*
X015892Y013554D01*
X016081Y013554D01*
X016230Y013492D01*
X016237Y013507D01*
X016274Y013545D01*
X016284Y013688D01*
X016375Y014354D01*
X016375Y014354D01*
X016284Y013688D01*
X016274Y013545D01*
X016237Y013507D01*
X016230Y013492D01*
X016081Y013554D01*
X015892Y013554D01*
X015717Y013481D01*
X015583Y013348D01*
X015511Y013173D01*
X015511Y012984D01*
X015583Y012809D01*
X015717Y012676D01*
X015892Y012603D01*
X016081Y012603D01*
X016256Y012676D01*
X016389Y012809D01*
X016462Y012984D01*
X016462Y013037D01*
X016511Y013037D01*
X016511Y012984D01*
X016583Y012809D01*
X016717Y012676D01*
X016892Y012603D01*
X017081Y012603D01*
X017256Y012676D01*
X017389Y012809D01*
X016701Y012692D02*
X016272Y012692D01*
X016701Y012692D01*
X016566Y012850D02*
X016406Y012850D01*
X016566Y012850D01*
X016511Y013009D02*
X016462Y013009D01*
X016511Y013009D01*
X016281Y013643D02*
X004491Y013643D01*
X016281Y013643D01*
X016299Y013801D02*
X004641Y013801D01*
X016299Y013801D01*
X016321Y013960D02*
X004685Y013960D01*
X016321Y013960D01*
X016343Y014118D02*
X004647Y014118D01*
X016343Y014118D01*
X016375Y014354D02*
X016375Y014354D01*
X016403Y014492D01*
X016368Y014577D01*
X016368Y014696D01*
X016414Y014807D01*
X016498Y014891D01*
X016609Y014937D01*
X016728Y014937D01*
X016838Y014891D01*
X016923Y014807D01*
X016968Y014696D01*
X016968Y014577D01*
X016923Y014467D01*
X016858Y014402D01*
X016834Y014276D01*
X016747Y013641D01*
X016834Y014276D01*
X016858Y014402D01*
X016923Y014467D01*
X016968Y014577D01*
X016968Y014696D01*
X016923Y014807D01*
X016838Y014891D01*
X016728Y014937D01*
X016609Y014937D01*
X016498Y014891D01*
X016414Y014807D01*
X016368Y014696D01*
X016368Y014577D01*
X016403Y014492D01*
X016375Y014354D01*
X015724Y013484D02*
X015249Y013484D01*
X015724Y013484D01*
X015574Y013326D02*
X015398Y013326D01*
X015574Y013326D01*
X015511Y013167D02*
X015462Y013167D01*
X015511Y013167D01*
X015462Y013173D02*
X015389Y013348D01*
X015256Y013481D01*
X015081Y013554D01*
X014892Y013554D01*
X014717Y013481D01*
X014583Y013348D01*
X014511Y013173D01*
X014511Y012984D01*
X014583Y012809D01*
X014717Y012676D01*
X014892Y012603D01*
X015081Y012603D01*
X015256Y012676D01*
X015389Y012809D01*
X015462Y012984D01*
X015462Y013173D01*
X015389Y013348D01*
X015256Y013481D01*
X015081Y013554D01*
X014892Y013554D01*
X014717Y013481D01*
X014583Y013348D01*
X014511Y013173D01*
X014511Y012984D01*
X014583Y012809D01*
X014717Y012676D01*
X014892Y012603D01*
X015081Y012603D01*
X015256Y012676D01*
X015389Y012809D01*
X015462Y012984D01*
X015462Y013173D01*
X015462Y013009D02*
X015511Y013009D01*
X015462Y013009D01*
X015406Y012850D02*
X015566Y012850D01*
X015406Y012850D01*
X015272Y012692D02*
X015701Y012692D01*
X015272Y012692D01*
X014701Y012692D02*
X014272Y012692D01*
X014701Y012692D01*
X014566Y012850D02*
X014406Y012850D01*
X014566Y012850D01*
X014511Y013009D02*
X014462Y013009D01*
X014511Y013009D01*
X014462Y012984D02*
X014389Y012809D01*
X014256Y012676D01*
X014081Y012603D01*
X013892Y012603D01*
X013717Y012676D01*
X013583Y012809D01*
X013511Y012984D01*
X013511Y013173D01*
X013583Y013348D01*
X013717Y013481D01*
X013892Y013554D01*
X014081Y013554D01*
X014256Y013481D01*
X014389Y013348D01*
X014462Y013173D01*
X014462Y012984D01*
X014389Y012809D01*
X014256Y012676D01*
X014081Y012603D01*
X013892Y012603D01*
X013717Y012676D01*
X013583Y012809D01*
X013511Y012984D01*
X013511Y013173D01*
X013583Y013348D01*
X013717Y013481D01*
X013892Y013554D01*
X014081Y013554D01*
X014256Y013481D01*
X014389Y013348D01*
X014462Y013173D01*
X014462Y012984D01*
X014462Y013167D02*
X014511Y013167D01*
X014462Y013167D01*
X014398Y013326D02*
X014574Y013326D01*
X014398Y013326D01*
X014249Y013484D02*
X014724Y013484D01*
X014249Y013484D01*
X013724Y013484D02*
X013249Y013484D01*
X013724Y013484D01*
X013574Y013326D02*
X013398Y013326D01*
X013574Y013326D01*
X013511Y013167D02*
X013462Y013167D01*
X013511Y013167D01*
X013462Y013173D02*
X013389Y013348D01*
X013256Y013481D01*
X013081Y013554D01*
X012892Y013554D01*
X012717Y013481D01*
X012583Y013348D01*
X012511Y013173D01*
X012511Y012984D01*
X012583Y012809D01*
X012717Y012676D01*
X012892Y012603D01*
X013081Y012603D01*
X013256Y012676D01*
X013389Y012809D01*
X013462Y012984D01*
X013462Y013173D01*
X013389Y013348D01*
X013256Y013481D01*
X013081Y013554D01*
X012892Y013554D01*
X012717Y013481D01*
X012583Y013348D01*
X012511Y013173D01*
X012511Y012984D01*
X012583Y012809D01*
X012717Y012676D01*
X012892Y012603D01*
X013081Y012603D01*
X013256Y012676D01*
X013389Y012809D01*
X013462Y012984D01*
X013462Y013173D01*
X013462Y013009D02*
X013511Y013009D01*
X013462Y013009D01*
X013406Y012850D02*
X013566Y012850D01*
X013406Y012850D01*
X013272Y012692D02*
X013701Y012692D01*
X013272Y012692D01*
X012701Y012692D02*
X012272Y012692D01*
X012701Y012692D01*
X012566Y012850D02*
X012406Y012850D01*
X012566Y012850D01*
X012511Y013009D02*
X012462Y013009D01*
X012511Y013009D01*
X012462Y012984D02*
X012389Y012809D01*
X012256Y012676D01*
X012081Y012603D01*
X011892Y012603D01*
X011717Y012676D01*
X011583Y012809D01*
X011511Y012984D01*
X011511Y013173D01*
X011583Y013348D01*
X011717Y013481D01*
X011892Y013554D01*
X012081Y013554D01*
X012256Y013481D01*
X012389Y013348D01*
X012462Y013173D01*
X012462Y012984D01*
X012389Y012809D01*
X012256Y012676D01*
X012081Y012603D01*
X011892Y012603D01*
X011717Y012676D01*
X011583Y012809D01*
X011511Y012984D01*
X011511Y013173D01*
X011583Y013348D01*
X011717Y013481D01*
X011892Y013554D01*
X012081Y013554D01*
X012256Y013481D01*
X012389Y013348D01*
X012462Y013173D01*
X012462Y012984D01*
X012462Y013167D02*
X012511Y013167D01*
X012462Y013167D01*
X012398Y013326D02*
X012574Y013326D01*
X012398Y013326D01*
X012249Y013484D02*
X012724Y013484D01*
X012249Y013484D01*
X011724Y013484D02*
X010249Y013484D01*
X010724Y013484D01*
X010717Y013481D02*
X010583Y013348D01*
X010511Y013173D01*
X010511Y012984D01*
X010583Y012809D01*
X010717Y012676D01*
X010892Y012603D01*
X011081Y012603D01*
X011256Y012676D01*
X011389Y012809D01*
X011462Y012984D01*
X011462Y013173D01*
X011389Y013348D01*
X011256Y013481D01*
X011081Y013554D01*
X010892Y013554D01*
X010717Y013481D01*
X010574Y013326D02*
X010398Y013326D01*
X011574Y013326D01*
X011398Y013326D01*
X011462Y013167D02*
X011511Y013167D01*
X010462Y013167D01*
X010511Y013167D01*
X010462Y013173D02*
X010389Y013348D01*
X010256Y013481D01*
X010081Y013554D01*
X009892Y013554D01*
X009717Y013481D01*
X009583Y013348D01*
X009511Y013173D01*
X009511Y012984D01*
X009583Y012809D01*
X009717Y012676D01*
X009892Y012603D01*
X010081Y012603D01*
X010256Y012676D01*
X010389Y012809D01*
X010462Y012984D01*
X010462Y013173D01*
X010389Y013348D01*
X010256Y013481D01*
X010081Y013554D01*
X009892Y013554D01*
X009717Y013481D01*
X009583Y013348D01*
X009511Y013173D01*
X009511Y012984D01*
X009583Y012809D01*
X009717Y012676D01*
X009892Y012603D01*
X010081Y012603D01*
X010256Y012676D01*
X010389Y012809D01*
X010462Y012984D01*
X010462Y013173D01*
X010462Y013009D02*
X011511Y013009D01*
X011462Y013009D01*
X011406Y012850D02*
X011566Y012850D01*
X010406Y012850D01*
X010566Y012850D01*
X010511Y013009D02*
X010462Y013009D01*
X010272Y012692D02*
X011701Y012692D01*
X011272Y012692D01*
X010701Y012692D02*
X010272Y012692D01*
X009701Y012692D02*
X009272Y012692D01*
X009701Y012692D01*
X009566Y012850D02*
X009406Y012850D01*
X009566Y012850D01*
X009511Y013009D02*
X009462Y013009D01*
X009511Y013009D01*
X009462Y012984D02*
X009389Y012809D01*
X009256Y012676D01*
X009081Y012603D01*
X008892Y012603D01*
X008717Y012676D01*
X008583Y012809D01*
X008511Y012984D01*
X008511Y013173D01*
X008583Y013348D01*
X008717Y013481D01*
X008892Y013554D01*
X009081Y013554D01*
X009256Y013481D01*
X009389Y013348D01*
X009462Y013173D01*
X009462Y012984D01*
X009389Y012809D01*
X009256Y012676D01*
X009081Y012603D01*
X008892Y012603D01*
X008717Y012676D01*
X008583Y012809D01*
X008511Y012984D01*
X008511Y013173D01*
X008583Y013348D01*
X008717Y013481D01*
X008892Y013554D01*
X009081Y013554D01*
X009256Y013481D01*
X009389Y013348D01*
X009462Y013173D01*
X009462Y012984D01*
X009462Y013167D02*
X009511Y013167D01*
X009462Y013167D01*
X009398Y013326D02*
X009574Y013326D01*
X009398Y013326D01*
X009249Y013484D02*
X009724Y013484D01*
X009249Y013484D01*
X008724Y013484D02*
X008249Y013484D01*
X008724Y013484D01*
X008574Y013326D02*
X008398Y013326D01*
X008574Y013326D01*
X008511Y013167D02*
X008462Y013167D01*
X008511Y013167D01*
X008462Y013173D02*
X008389Y013348D01*
X008256Y013481D01*
X008081Y013554D01*
X007892Y013554D01*
X007717Y013481D01*
X007583Y013348D01*
X007511Y013173D01*
X007511Y012984D01*
X007583Y012809D01*
X007717Y012676D01*
X007892Y012603D01*
X008081Y012603D01*
X008256Y012676D01*
X008389Y012809D01*
X008462Y012984D01*
X008462Y013173D01*
X008389Y013348D01*
X008256Y013481D01*
X008081Y013554D01*
X007892Y013554D01*
X007717Y013481D01*
X007583Y013348D01*
X007511Y013173D01*
X007511Y012984D01*
X007583Y012809D01*
X007717Y012676D01*
X007892Y012603D01*
X008081Y012603D01*
X008256Y012676D01*
X008389Y012809D01*
X008462Y012984D01*
X008462Y013173D01*
X008462Y013009D02*
X008511Y013009D01*
X008462Y013009D01*
X008406Y012850D02*
X008566Y012850D01*
X008406Y012850D01*
X008272Y012692D02*
X008701Y012692D01*
X008272Y012692D01*
X007701Y012692D02*
X007272Y012692D01*
X007701Y012692D01*
X007566Y012850D02*
X007406Y012850D01*
X007566Y012850D01*
X007511Y013009D02*
X007462Y013009D01*
X007511Y013009D01*
X007462Y012984D02*
X007389Y012809D01*
X007256Y012676D01*
X007081Y012603D01*
X006892Y012603D01*
X006717Y012676D01*
X006583Y012809D01*
X006511Y012984D01*
X006511Y013173D01*
X006583Y013348D01*
X006717Y013481D01*
X006892Y013554D01*
X007081Y013554D01*
X007256Y013481D01*
X007389Y013348D01*
X007462Y013173D01*
X007462Y012984D01*
X007389Y012809D01*
X007256Y012676D01*
X007081Y012603D01*
X006892Y012603D01*
X006717Y012676D01*
X006583Y012809D01*
X006511Y012984D01*
X006511Y013173D01*
X006583Y013348D01*
X006717Y013481D01*
X006892Y013554D01*
X007081Y013554D01*
X007256Y013481D01*
X007389Y013348D01*
X007462Y013173D01*
X007462Y012984D01*
X007462Y013167D02*
X007511Y013167D01*
X007462Y013167D01*
X007398Y013326D02*
X007574Y013326D01*
X007398Y013326D01*
X007249Y013484D02*
X007724Y013484D01*
X007249Y013484D01*
X006724Y013484D02*
X006249Y013484D01*
X006724Y013484D01*
X006574Y013326D02*
X006398Y013326D01*
X006574Y013326D01*
X006511Y013167D02*
X006462Y013167D01*
X006511Y013167D01*
X006462Y013173D02*
X006389Y013348D01*
X006256Y013481D01*
X006081Y013554D01*
X005892Y013554D01*
X005717Y013481D01*
X005583Y013348D01*
X005511Y013173D01*
X005511Y012984D01*
X005583Y012809D01*
X005717Y012676D01*
X005892Y012603D01*
X006081Y012603D01*
X006256Y012676D01*
X006389Y012809D01*
X006462Y012984D01*
X006462Y013173D01*
X006389Y013348D01*
X006256Y013481D01*
X006081Y013554D01*
X005892Y013554D01*
X005717Y013481D01*
X005583Y013348D01*
X005511Y013173D01*
X005511Y012984D01*
X005583Y012809D01*
X005717Y012676D01*
X005892Y012603D01*
X006081Y012603D01*
X006256Y012676D01*
X006389Y012809D01*
X006462Y012984D01*
X006462Y013173D01*
X006462Y013009D02*
X006511Y013009D01*
X006462Y013009D01*
X006406Y012850D02*
X006566Y012850D01*
X006406Y012850D01*
X006272Y012692D02*
X006701Y012692D01*
X006272Y012692D01*
X005701Y012692D02*
X005272Y012692D01*
X005701Y012692D01*
X005566Y012850D02*
X005406Y012850D01*
X005566Y012850D01*
X005511Y013009D02*
X005462Y013009D01*
X005511Y013009D01*
X005462Y012984D02*
X005389Y012809D01*
X005256Y012676D01*
X005081Y012603D01*
X004892Y012603D01*
X004717Y012676D01*
X004583Y012809D01*
X004511Y012984D01*
X004511Y013173D01*
X004583Y013348D01*
X004717Y013481D01*
X004892Y013554D01*
X005081Y013554D01*
X005256Y013481D01*
X005389Y013348D01*
X005462Y013173D01*
X005462Y012984D01*
X005389Y012809D01*
X005256Y012676D01*
X005081Y012603D01*
X004892Y012603D01*
X004717Y012676D01*
X004583Y012809D01*
X004511Y012984D01*
X004511Y013173D01*
X004583Y013348D01*
X004717Y013481D01*
X004892Y013554D01*
X005081Y013554D01*
X005256Y013481D01*
X005389Y013348D01*
X005462Y013173D01*
X005462Y012984D01*
X005462Y013167D02*
X005511Y013167D01*
X005462Y013167D01*
X005398Y013326D02*
X005574Y013326D01*
X005398Y013326D01*
X005249Y013484D02*
X005724Y013484D01*
X005249Y013484D01*
X004724Y013484D02*
X004420Y013484D01*
X004724Y013484D01*
X004574Y013326D02*
X004398Y013326D01*
X004574Y013326D01*
X004511Y013167D02*
X004462Y013167D01*
X004511Y013167D01*
X004511Y013009D02*
X004462Y013009D01*
X004511Y013009D01*
X004566Y012850D02*
X004406Y012850D01*
X004566Y012850D01*
X004701Y012692D02*
X004272Y012692D01*
X004701Y012692D01*
X004981Y012058D02*
X005472Y012058D01*
X004981Y012058D01*
X005115Y011899D02*
X005225Y011899D01*
X005115Y011899D01*
X004846Y011107D02*
X004809Y011107D01*
X004846Y011107D01*
X004836Y010948D02*
X002501Y010948D01*
X004836Y010948D01*
X004934Y010790D02*
X002596Y010790D01*
X004934Y010790D01*
X004741Y010580D02*
X004523Y010580D01*
X004320Y010496D01*
X004166Y010342D01*
X004082Y010139D01*
X004082Y009921D01*
X004166Y009718D01*
X004320Y009564D01*
X004523Y009480D01*
X004741Y009480D01*
X004944Y009564D01*
X005098Y009718D01*
X005111Y009750D01*
X005166Y009618D01*
X005320Y009464D01*
X005523Y009380D01*
X005741Y009380D01*
X005944Y009464D01*
X006098Y009618D01*
X006153Y009750D01*
X006166Y009718D01*
X006320Y009564D01*
X006523Y009480D01*
X006741Y009480D01*
X006944Y009564D01*
X007098Y009718D01*
X007111Y009750D01*
X007166Y009618D01*
X007320Y009464D01*
X007523Y009380D01*
X007741Y009380D01*
X007944Y009464D01*
X008098Y009618D01*
X008153Y009750D01*
X008166Y009718D01*
X008320Y009564D01*
X008523Y009480D01*
X008741Y009480D01*
X008944Y009564D01*
X009098Y009718D01*
X009111Y009750D01*
X009166Y009618D01*
X009320Y009464D01*
X009523Y009380D01*
X009741Y009380D01*
X009944Y009464D01*
X010098Y009618D01*
X010153Y009750D01*
X010166Y009718D01*
X010320Y009564D01*
X010523Y009480D01*
X010741Y009480D01*
X010944Y009564D01*
X011098Y009718D01*
X011111Y009750D01*
X011166Y009618D01*
X011320Y009464D01*
X011523Y009380D01*
X011741Y009380D01*
X011944Y009464D01*
X012098Y009618D01*
X012153Y009750D01*
X012166Y009718D01*
X012320Y009564D01*
X012523Y009480D01*
X012741Y009480D01*
X012944Y009564D01*
X013098Y009718D01*
X013111Y009750D01*
X013166Y009618D01*
X013320Y009464D01*
X013523Y009380D01*
X013741Y009380D01*
X013944Y009464D01*
X014098Y009618D01*
X014153Y009750D01*
X014166Y009718D01*
X014320Y009564D01*
X014523Y009480D01*
X014741Y009480D01*
X014944Y009564D01*
X015098Y009718D01*
X015111Y009750D01*
X015166Y009618D01*
X015320Y009464D01*
X015523Y009380D01*
X015741Y009380D01*
X015944Y009464D01*
X016098Y009618D01*
X016182Y009821D01*
X016182Y010039D01*
X016098Y010242D01*
X015944Y010396D01*
X015741Y010480D01*
X015523Y010480D01*
X015320Y010396D01*
X015166Y010242D01*
X015153Y010210D01*
X015098Y010342D01*
X014944Y010496D01*
X014741Y010580D01*
X014523Y010580D01*
X014320Y010496D01*
X014166Y010342D01*
X014111Y010210D01*
X014098Y010242D01*
X013944Y010396D01*
X013741Y010480D01*
X013523Y010480D01*
X013320Y010396D01*
X013166Y010242D01*
X013153Y010210D01*
X013098Y010342D01*
X012944Y010496D01*
X012741Y010580D01*
X012523Y010580D01*
X012320Y010496D01*
X012166Y010342D01*
X012111Y010210D01*
X012098Y010242D01*
X011944Y010396D01*
X011741Y010480D01*
X011523Y010480D01*
X011320Y010396D01*
X011166Y010242D01*
X011153Y010210D01*
X011098Y010342D01*
X010944Y010496D01*
X010741Y010580D01*
X010523Y010580D01*
X010320Y010496D01*
X010166Y010342D01*
X010111Y010210D01*
X010098Y010242D01*
X009944Y010396D01*
X009741Y010480D01*
X009523Y010480D01*
X009320Y010396D01*
X009166Y010242D01*
X009153Y010210D01*
X009098Y010342D01*
X008944Y010496D01*
X008741Y010580D01*
X008523Y010580D01*
X008320Y010496D01*
X008166Y010342D01*
X008111Y010210D01*
X008098Y010242D01*
X007944Y010396D01*
X007741Y010480D01*
X007523Y010480D01*
X007320Y010396D01*
X007166Y010242D01*
X007153Y010210D01*
X007098Y010342D01*
X006944Y010496D01*
X006741Y010580D01*
X006523Y010580D01*
X006320Y010496D01*
X006166Y010342D01*
X006111Y010210D01*
X006098Y010242D01*
X005944Y010396D01*
X005741Y010480D01*
X005523Y010480D01*
X005320Y010396D01*
X005166Y010242D01*
X005153Y010210D01*
X005098Y010342D01*
X004944Y010496D01*
X004741Y010580D01*
X004523Y010580D01*
X004320Y010496D01*
X004166Y010342D01*
X004082Y010139D01*
X004082Y009921D01*
X004166Y009718D01*
X004320Y009564D01*
X004523Y009480D01*
X004741Y009480D01*
X004944Y009564D01*
X005098Y009718D01*
X005111Y009750D01*
X005166Y009618D01*
X005320Y009464D01*
X005523Y009380D01*
X005741Y009380D01*
X005944Y009464D01*
X006098Y009618D01*
X006153Y009750D01*
X006166Y009718D01*
X006320Y009564D01*
X006523Y009480D01*
X006741Y009480D01*
X006944Y009564D01*
X007098Y009718D01*
X007111Y009750D01*
X007166Y009618D01*
X007320Y009464D01*
X007523Y009380D01*
X007741Y009380D01*
X007944Y009464D01*
X008098Y009618D01*
X008153Y009750D01*
X008166Y009718D01*
X008320Y009564D01*
X008523Y009480D01*
X008741Y009480D01*
X008944Y009564D01*
X009098Y009718D01*
X009111Y009750D01*
X009166Y009618D01*
X009320Y009464D01*
X009523Y009380D01*
X009741Y009380D01*
X009944Y009464D01*
X010098Y009618D01*
X010153Y009750D01*
X010166Y009718D01*
X010320Y009564D01*
X010523Y009480D01*
X010741Y009480D01*
X010944Y009564D01*
X011098Y009718D01*
X011111Y009750D01*
X011166Y009618D01*
X011320Y009464D01*
X011523Y009380D01*
X011741Y009380D01*
X011944Y009464D01*
X012098Y009618D01*
X012153Y009750D01*
X012166Y009718D01*
X012320Y009564D01*
X012523Y009480D01*
X012741Y009480D01*
X012944Y009564D01*
X013098Y009718D01*
X013111Y009750D01*
X013166Y009618D01*
X013320Y009464D01*
X013523Y009380D01*
X013741Y009380D01*
X013944Y009464D01*
X014098Y009618D01*
X014153Y009750D01*
X014166Y009718D01*
X014320Y009564D01*
X014523Y009480D01*
X014741Y009480D01*
X014944Y009564D01*
X015098Y009718D01*
X015111Y009750D01*
X015166Y009618D01*
X015320Y009464D01*
X015523Y009380D01*
X015741Y009380D01*
X015944Y009464D01*
X016098Y009618D01*
X016182Y009821D01*
X016182Y010039D01*
X016098Y010242D01*
X015944Y010396D01*
X015741Y010480D01*
X015523Y010480D01*
X015320Y010396D01*
X015166Y010242D01*
X015153Y010210D01*
X015098Y010342D01*
X014944Y010496D01*
X014741Y010580D01*
X014523Y010580D01*
X014320Y010496D01*
X014166Y010342D01*
X014111Y010210D01*
X014098Y010242D01*
X013944Y010396D01*
X013741Y010480D01*
X013523Y010480D01*
X013320Y010396D01*
X013166Y010242D01*
X013153Y010210D01*
X013098Y010342D01*
X012944Y010496D01*
X012741Y010580D01*
X012523Y010580D01*
X012320Y010496D01*
X012166Y010342D01*
X012111Y010210D01*
X012098Y010242D01*
X011944Y010396D01*
X011741Y010480D01*
X011523Y010480D01*
X011320Y010396D01*
X011166Y010242D01*
X011153Y010210D01*
X011098Y010342D01*
X010944Y010496D01*
X010741Y010580D01*
X010523Y010580D01*
X010320Y010496D01*
X010166Y010342D01*
X010111Y010210D01*
X010098Y010242D01*
X009944Y010396D01*
X009741Y010480D01*
X009523Y010480D01*
X009320Y010396D01*
X009166Y010242D01*
X009153Y010210D01*
X009098Y010342D01*
X008944Y010496D01*
X008741Y010580D01*
X008523Y010580D01*
X008320Y010496D01*
X008166Y010342D01*
X008111Y010210D01*
X008098Y010242D01*
X007944Y010396D01*
X007741Y010480D01*
X007523Y010480D01*
X007320Y010396D01*
X007166Y010242D01*
X007153Y010210D01*
X007098Y010342D01*
X006944Y010496D01*
X006741Y010580D01*
X006523Y010580D01*
X006320Y010496D01*
X006166Y010342D01*
X006111Y010210D01*
X006098Y010242D01*
X005944Y010396D01*
X005741Y010480D01*
X005523Y010480D01*
X005320Y010396D01*
X005166Y010242D01*
X005153Y010210D01*
X005098Y010342D01*
X004944Y010496D01*
X004741Y010580D01*
X004967Y010473D02*
X005505Y010473D01*
X004967Y010473D01*
X005110Y010314D02*
X005238Y010314D01*
X005110Y010314D01*
X005140Y009680D02*
X005060Y009680D01*
X005140Y009680D01*
X005263Y009522D02*
X004842Y009522D01*
X005263Y009522D01*
X005081Y008955D02*
X004892Y008955D01*
X004717Y008883D01*
X004583Y008749D01*
X004511Y008575D01*
X004511Y008385D01*
X004583Y008211D01*
X004717Y008077D01*
X004892Y008005D01*
X005081Y008005D01*
X005256Y008077D01*
X005389Y008211D01*
X005462Y008385D01*
X005462Y008575D01*
X005389Y008749D01*
X005256Y008883D01*
X005081Y008955D01*
X004892Y008955D01*
X004717Y008883D01*
X004583Y008749D01*
X004511Y008575D01*
X004511Y008385D01*
X004583Y008211D01*
X004717Y008077D01*
X004892Y008005D01*
X005081Y008005D01*
X005256Y008077D01*
X005389Y008211D01*
X005462Y008385D01*
X005462Y008575D01*
X005389Y008749D01*
X005256Y008883D01*
X005081Y008955D01*
X005244Y008888D02*
X005728Y008888D01*
X005244Y008888D01*
X005398Y008729D02*
X005575Y008729D01*
X005398Y008729D01*
X005462Y008571D02*
X005511Y008571D01*
X005462Y008571D01*
X005511Y008575D02*
X005511Y008385D01*
X005583Y008211D01*
X005717Y008077D01*
X005892Y008005D01*
X006081Y008005D01*
X006256Y008077D01*
X006389Y008211D01*
X006462Y008385D01*
X006462Y008575D01*
X006389Y008749D01*
X006256Y008883D01*
X006081Y008955D01*
X005892Y008955D01*
X005717Y008883D01*
X005583Y008749D01*
X005511Y008575D01*
X005511Y008385D01*
X005583Y008211D01*
X005717Y008077D01*
X005892Y008005D01*
X006081Y008005D01*
X006256Y008077D01*
X006389Y008211D01*
X006462Y008385D01*
X006462Y008575D01*
X006389Y008749D01*
X006256Y008883D01*
X006081Y008955D01*
X005892Y008955D01*
X005717Y008883D01*
X005583Y008749D01*
X005511Y008575D01*
X005511Y008412D02*
X005462Y008412D01*
X005511Y008412D01*
X005566Y008254D02*
X005407Y008254D01*
X005566Y008254D01*
X005699Y008095D02*
X005274Y008095D01*
X005699Y008095D01*
X006274Y008095D02*
X006699Y008095D01*
X006274Y008095D01*
X006407Y008254D02*
X006566Y008254D01*
X006407Y008254D01*
X006462Y008412D02*
X006511Y008412D01*
X006462Y008412D01*
X006511Y008385D02*
X006583Y008211D01*
X006717Y008077D01*
X006892Y008005D01*
X007081Y008005D01*
X007256Y008077D01*
X007389Y008211D01*
X007462Y008385D01*
X007462Y008575D01*
X007389Y008749D01*
X007256Y008883D01*
X007081Y008955D01*
X006892Y008955D01*
X006717Y008883D01*
X006583Y008749D01*
X006511Y008575D01*
X006511Y008385D01*
X006583Y008211D01*
X006717Y008077D01*
X006892Y008005D01*
X007081Y008005D01*
X007256Y008077D01*
X007389Y008211D01*
X007462Y008385D01*
X007462Y008575D01*
X007389Y008749D01*
X007256Y008883D01*
X007081Y008955D01*
X006892Y008955D01*
X006717Y008883D01*
X006583Y008749D01*
X006511Y008575D01*
X006511Y008385D01*
X006511Y008571D02*
X006462Y008571D01*
X006511Y008571D01*
X006575Y008729D02*
X006398Y008729D01*
X006575Y008729D01*
X006728Y008888D02*
X006244Y008888D01*
X006728Y008888D01*
X007244Y008888D02*
X007728Y008888D01*
X007244Y008888D01*
X007398Y008729D02*
X007575Y008729D01*
X007398Y008729D01*
X007462Y008571D02*
X007511Y008571D01*
X007462Y008571D01*
X007511Y008575D02*
X007511Y008385D01*
X007583Y008211D01*
X007717Y008077D01*
X007892Y008005D01*
X008081Y008005D01*
X008256Y008077D01*
X008389Y008211D01*
X008462Y008385D01*
X008462Y008575D01*
X008389Y008749D01*
X008256Y008883D01*
X008081Y008955D01*
X007892Y008955D01*
X007717Y008883D01*
X007583Y008749D01*
X007511Y008575D01*
X007511Y008385D01*
X007583Y008211D01*
X007717Y008077D01*
X007892Y008005D01*
X008081Y008005D01*
X008256Y008077D01*
X008389Y008211D01*
X008462Y008385D01*
X008462Y008575D01*
X008389Y008749D01*
X008256Y008883D01*
X008081Y008955D01*
X007892Y008955D01*
X007717Y008883D01*
X007583Y008749D01*
X007511Y008575D01*
X007511Y008412D02*
X007462Y008412D01*
X007511Y008412D01*
X007566Y008254D02*
X007407Y008254D01*
X007566Y008254D01*
X007699Y008095D02*
X007274Y008095D01*
X007699Y008095D01*
X008274Y008095D02*
X008699Y008095D01*
X008274Y008095D01*
X008407Y008254D02*
X008566Y008254D01*
X008407Y008254D01*
X008462Y008412D02*
X008511Y008412D01*
X008462Y008412D01*
X008511Y008385D02*
X008583Y008211D01*
X008717Y008077D01*
X008892Y008005D01*
X009081Y008005D01*
X009256Y008077D01*
X009389Y008211D01*
X009462Y008385D01*
X009462Y008575D01*
X009389Y008749D01*
X009256Y008883D01*
X009081Y008955D01*
X008892Y008955D01*
X008717Y008883D01*
X008583Y008749D01*
X008511Y008575D01*
X008511Y008385D01*
X008583Y008211D01*
X008717Y008077D01*
X008892Y008005D01*
X009081Y008005D01*
X009256Y008077D01*
X009389Y008211D01*
X009462Y008385D01*
X009462Y008575D01*
X009389Y008749D01*
X009256Y008883D01*
X009081Y008955D01*
X008892Y008955D01*
X008717Y008883D01*
X008583Y008749D01*
X008511Y008575D01*
X008511Y008385D01*
X008511Y008571D02*
X008462Y008571D01*
X008511Y008571D01*
X008575Y008729D02*
X008398Y008729D01*
X008575Y008729D01*
X008728Y008888D02*
X008244Y008888D01*
X008728Y008888D01*
X009244Y008888D02*
X009728Y008888D01*
X009717Y008883D02*
X009892Y008955D01*
X010081Y008955D01*
X010256Y008883D01*
X010389Y008749D01*
X010462Y008575D01*
X010462Y008385D01*
X010389Y008211D01*
X010256Y008077D01*
X010081Y008005D01*
X009892Y008005D01*
X009717Y008077D01*
X009583Y008211D01*
X009511Y008385D01*
X009511Y008575D01*
X009583Y008749D01*
X009717Y008883D01*
X009575Y008729D02*
X009398Y008729D01*
X010575Y008729D01*
X010398Y008729D01*
X010462Y008571D02*
X010511Y008571D01*
X009462Y008571D01*
X009511Y008571D01*
X009511Y008412D02*
X009462Y008412D01*
X010511Y008412D01*
X010462Y008412D01*
X010511Y008385D02*
X010583Y008211D01*
X010717Y008077D01*
X010892Y008005D01*
X011081Y008005D01*
X011256Y008077D01*
X011389Y008211D01*
X011462Y008385D01*
X011462Y008575D01*
X011389Y008749D01*
X011256Y008883D01*
X011081Y008955D01*
X010892Y008955D01*
X010717Y008883D01*
X010583Y008749D01*
X010511Y008575D01*
X010511Y008385D01*
X010583Y008211D01*
X010717Y008077D01*
X010892Y008005D01*
X011081Y008005D01*
X011256Y008077D01*
X011389Y008211D01*
X011462Y008385D01*
X011462Y008575D01*
X011389Y008749D01*
X011256Y008883D01*
X011081Y008955D01*
X010892Y008955D01*
X010717Y008883D01*
X010583Y008749D01*
X010511Y008575D01*
X010511Y008385D01*
X010566Y008254D02*
X010407Y008254D01*
X010566Y008254D02*
X009407Y008254D01*
X009566Y008254D01*
X009699Y008095D02*
X009274Y008095D01*
X010699Y008095D01*
X010274Y008095D01*
X010244Y008888D02*
X010728Y008888D01*
X009244Y008888D01*
X009263Y009522D02*
X008842Y009522D01*
X009263Y009522D01*
X009140Y009680D02*
X009060Y009680D01*
X009140Y009680D01*
X009110Y010314D02*
X009238Y010314D01*
X009110Y010314D01*
X008967Y010473D02*
X009505Y010473D01*
X008967Y010473D01*
X008741Y011078D02*
X008523Y011078D01*
X008320Y011162D01*
X008166Y011317D01*
X008153Y011348D01*
X008166Y011317D01*
X008320Y011162D01*
X008523Y011078D01*
X008741Y011078D01*
X008944Y011162D01*
X009098Y011317D01*
X009111Y011348D01*
X009166Y011217D01*
X009320Y011062D01*
X009523Y010978D01*
X009741Y010978D01*
X009944Y011062D01*
X010098Y011217D01*
X010153Y011348D01*
X010166Y011317D01*
X010320Y011162D01*
X010523Y011078D01*
X010741Y011078D01*
X010944Y011162D01*
X011098Y011317D01*
X011111Y011348D01*
X011166Y011217D01*
X011320Y011062D01*
X011523Y010978D01*
X011741Y010978D01*
X011944Y011062D01*
X012098Y011217D01*
X012153Y011348D01*
X012166Y011317D01*
X012320Y011162D01*
X012523Y011078D01*
X012741Y011078D01*
X012944Y011162D01*
X013098Y011317D01*
X013111Y011348D01*
X013166Y011217D01*
X013320Y011062D01*
X013523Y010978D01*
X013656Y010978D01*
X013839Y010828D01*
X014161Y010730D01*
X014161Y010730D01*
X013839Y010828D01*
X013839Y010828D01*
X013839Y010828D01*
X013656Y010978D01*
X013523Y010978D01*
X013320Y011062D01*
X013166Y011217D01*
X013111Y011348D01*
X013098Y011317D01*
X012944Y011162D01*
X012741Y011078D01*
X012523Y011078D01*
X012320Y011162D01*
X012166Y011317D01*
X012153Y011348D01*
X012098Y011217D01*
X011944Y011062D01*
X011741Y010978D01*
X011523Y010978D01*
X011320Y011062D01*
X011166Y011217D01*
X011111Y011348D01*
X011098Y011317D01*
X010944Y011162D01*
X010741Y011078D01*
X010523Y011078D01*
X010320Y011162D01*
X010166Y011317D01*
X010153Y011348D01*
X010098Y011217D01*
X009944Y011062D01*
X009741Y010978D01*
X009523Y010978D01*
X009320Y011062D01*
X009166Y011217D01*
X009111Y011348D01*
X009098Y011317D01*
X008944Y011162D01*
X008741Y011078D01*
X008809Y011107D02*
X009276Y011107D01*
X008809Y011107D01*
X009046Y011265D02*
X009146Y011265D01*
X009046Y011265D01*
X008455Y011107D02*
X007988Y011107D01*
X008455Y011107D01*
X008217Y011265D02*
X008118Y011265D01*
X008217Y011265D01*
X008153Y011348D02*
X008098Y011217D01*
X008153Y011348D01*
X008098Y011217D02*
X007944Y011062D01*
X007741Y010978D01*
X007523Y010978D01*
X007320Y011062D01*
X007166Y011217D01*
X007111Y011348D01*
X007166Y011217D01*
X007320Y011062D01*
X007523Y010978D01*
X007741Y010978D01*
X007944Y011062D01*
X008098Y011217D01*
X008149Y011899D02*
X008039Y011899D01*
X008149Y011899D01*
X008283Y012058D02*
X007792Y012058D01*
X008283Y012058D01*
X008981Y012058D02*
X009472Y012058D01*
X008981Y012058D01*
X009115Y011899D02*
X009225Y011899D01*
X009115Y011899D01*
X009792Y012058D02*
X010283Y012058D01*
X009792Y012058D01*
X010039Y011899D02*
X010149Y011899D01*
X010039Y011899D01*
X010118Y011265D02*
X010217Y011265D01*
X010118Y011265D01*
X009988Y011107D02*
X010455Y011107D01*
X009988Y011107D01*
X009759Y010473D02*
X010297Y010473D01*
X009759Y010473D01*
X010026Y010314D02*
X010154Y010314D01*
X010026Y010314D01*
X010124Y009680D02*
X010204Y009680D01*
X010124Y009680D01*
X010001Y009522D02*
X010422Y009522D01*
X010001Y009522D01*
X010842Y009522D02*
X011263Y009522D01*
X010842Y009522D01*
X011060Y009680D02*
X011140Y009680D01*
X011060Y009680D01*
X011110Y010314D02*
X011238Y010314D01*
X011110Y010314D01*
X010967Y010473D02*
X011505Y010473D01*
X010967Y010473D01*
X010809Y011107D02*
X011276Y011107D01*
X010809Y011107D01*
X011046Y011265D02*
X011146Y011265D01*
X011046Y011265D01*
X011115Y011899D02*
X011225Y011899D01*
X011115Y011899D01*
X010981Y012058D02*
X011472Y012058D01*
X010981Y012058D01*
X011792Y012058D02*
X012283Y012058D01*
X011792Y012058D01*
X012039Y011899D02*
X012149Y011899D01*
X012039Y011899D01*
X012118Y011265D02*
X012217Y011265D01*
X012118Y011265D01*
X011988Y011107D02*
X012455Y011107D01*
X011988Y011107D01*
X011759Y010473D02*
X012297Y010473D01*
X011759Y010473D01*
X012026Y010314D02*
X012154Y010314D01*
X012026Y010314D01*
X012124Y009680D02*
X012204Y009680D01*
X012124Y009680D01*
X012001Y009522D02*
X012422Y009522D01*
X012001Y009522D01*
X012081Y008955D02*
X011892Y008955D01*
X011717Y008883D01*
X011583Y008749D01*
X011511Y008575D01*
X011511Y008385D01*
X011583Y008211D01*
X011717Y008077D01*
X011892Y008005D01*
X012081Y008005D01*
X012256Y008077D01*
X012389Y008211D01*
X012462Y008385D01*
X012462Y008575D01*
X012389Y008749D01*
X012256Y008883D01*
X012081Y008955D01*
X011892Y008955D01*
X011717Y008883D01*
X011583Y008749D01*
X011511Y008575D01*
X011511Y008385D01*
X011583Y008211D01*
X011717Y008077D01*
X011892Y008005D01*
X012081Y008005D01*
X012256Y008077D01*
X012389Y008211D01*
X012462Y008385D01*
X012462Y008575D01*
X012389Y008749D01*
X012256Y008883D01*
X012081Y008955D01*
X012244Y008888D02*
X012728Y008888D01*
X012244Y008888D01*
X012398Y008729D02*
X012575Y008729D01*
X012398Y008729D01*
X012462Y008571D02*
X012511Y008571D01*
X012462Y008571D01*
X012511Y008575D02*
X012511Y008385D01*
X012583Y008211D01*
X012717Y008077D01*
X012892Y008005D01*
X013081Y008005D01*
X013256Y008077D01*
X013389Y008211D01*
X013462Y008385D01*
X013462Y008575D01*
X013389Y008749D01*
X013256Y008883D01*
X013081Y008955D01*
X012892Y008955D01*
X012717Y008883D01*
X012583Y008749D01*
X012511Y008575D01*
X012511Y008385D01*
X012583Y008211D01*
X012717Y008077D01*
X012892Y008005D01*
X013081Y008005D01*
X013256Y008077D01*
X013389Y008211D01*
X013462Y008385D01*
X013462Y008575D01*
X013389Y008749D01*
X013256Y008883D01*
X013081Y008955D01*
X012892Y008955D01*
X012717Y008883D01*
X012583Y008749D01*
X012511Y008575D01*
X012511Y008412D02*
X012462Y008412D01*
X012511Y008412D01*
X012566Y008254D02*
X012407Y008254D01*
X012566Y008254D01*
X012699Y008095D02*
X012274Y008095D01*
X012699Y008095D01*
X013274Y008095D02*
X013699Y008095D01*
X013274Y008095D01*
X013407Y008254D02*
X013566Y008254D01*
X013407Y008254D01*
X013462Y008412D02*
X013511Y008412D01*
X013462Y008412D01*
X013511Y008385D02*
X013583Y008211D01*
X013717Y008077D01*
X013892Y008005D01*
X014081Y008005D01*
X014256Y008077D01*
X014389Y008211D01*
X014462Y008385D01*
X014462Y008575D01*
X014389Y008749D01*
X014256Y008883D01*
X014081Y008955D01*
X013892Y008955D01*
X013717Y008883D01*
X013583Y008749D01*
X013511Y008575D01*
X013511Y008385D01*
X013583Y008211D01*
X013717Y008077D01*
X013892Y008005D01*
X014081Y008005D01*
X014256Y008077D01*
X014389Y008211D01*
X014462Y008385D01*
X014462Y008575D01*
X014389Y008749D01*
X014256Y008883D01*
X014081Y008955D01*
X013892Y008955D01*
X013717Y008883D01*
X013583Y008749D01*
X013511Y008575D01*
X013511Y008385D01*
X013511Y008571D02*
X013462Y008571D01*
X013511Y008571D01*
X013575Y008729D02*
X013398Y008729D01*
X013575Y008729D01*
X013728Y008888D02*
X013244Y008888D01*
X013728Y008888D01*
X014244Y008888D02*
X014728Y008888D01*
X014244Y008888D01*
X014398Y008729D02*
X014575Y008729D01*
X014398Y008729D01*
X014462Y008571D02*
X014511Y008571D01*
X014462Y008571D01*
X014511Y008575D02*
X014511Y008385D01*
X014583Y008211D01*
X014717Y008077D01*
X014892Y008005D01*
X015081Y008005D01*
X015256Y008077D01*
X015389Y008211D01*
X015462Y008385D01*
X015462Y008575D01*
X015389Y008749D01*
X015256Y008883D01*
X015081Y008955D01*
X014892Y008955D01*
X014717Y008883D01*
X014583Y008749D01*
X014511Y008575D01*
X014511Y008385D01*
X014583Y008211D01*
X014717Y008077D01*
X014892Y008005D01*
X015081Y008005D01*
X015256Y008077D01*
X015389Y008211D01*
X015462Y008385D01*
X015462Y008575D01*
X015389Y008749D01*
X015256Y008883D01*
X015081Y008955D01*
X014892Y008955D01*
X014717Y008883D01*
X014583Y008749D01*
X014511Y008575D01*
X014511Y008412D02*
X014462Y008412D01*
X014511Y008412D01*
X014566Y008254D02*
X014407Y008254D01*
X014566Y008254D01*
X014699Y008095D02*
X014274Y008095D01*
X014699Y008095D01*
X015274Y008095D02*
X015699Y008095D01*
X015274Y008095D01*
X015407Y008254D02*
X015566Y008254D01*
X015407Y008254D01*
X015462Y008412D02*
X015511Y008412D01*
X015462Y008412D01*
X015511Y008385D02*
X015583Y008211D01*
X015717Y008077D01*
X015892Y008005D01*
X016081Y008005D01*
X016256Y008077D01*
X016389Y008211D01*
X016462Y008385D01*
X016462Y008575D01*
X016389Y008749D01*
X016256Y008883D01*
X016081Y008955D01*
X015892Y008955D01*
X015717Y008883D01*
X015583Y008749D01*
X015511Y008575D01*
X015511Y008385D01*
X015583Y008211D01*
X015717Y008077D01*
X015892Y008005D01*
X016081Y008005D01*
X016256Y008077D01*
X016389Y008211D01*
X016462Y008385D01*
X016462Y008575D01*
X016389Y008749D01*
X016256Y008883D01*
X016081Y008955D01*
X015892Y008955D01*
X015717Y008883D01*
X015583Y008749D01*
X015511Y008575D01*
X015511Y008385D01*
X015511Y008571D02*
X015462Y008571D01*
X015511Y008571D01*
X015575Y008729D02*
X015398Y008729D01*
X015575Y008729D01*
X015728Y008888D02*
X015244Y008888D01*
X015728Y008888D01*
X016244Y008888D02*
X016728Y008888D01*
X016244Y008888D01*
X016398Y008729D02*
X016575Y008729D01*
X016398Y008729D01*
X016462Y008571D02*
X016511Y008571D01*
X016462Y008571D01*
X016511Y008575D02*
X016511Y008385D01*
X016583Y008211D01*
X016717Y008077D01*
X016892Y008005D01*
X017081Y008005D01*
X017256Y008077D01*
X017389Y008211D01*
X017462Y008385D01*
X017462Y008575D01*
X017389Y008749D01*
X017256Y008883D01*
X017081Y008955D01*
X016892Y008955D01*
X016717Y008883D01*
X016583Y008749D01*
X016511Y008575D01*
X016511Y008385D01*
X016583Y008211D01*
X016717Y008077D01*
X016892Y008005D01*
X017081Y008005D01*
X017256Y008077D01*
X017389Y008211D01*
X017462Y008385D01*
X017462Y008575D01*
X017389Y008749D01*
X017256Y008883D01*
X017081Y008955D01*
X016892Y008955D01*
X016717Y008883D01*
X016583Y008749D01*
X016511Y008575D01*
X016511Y008412D02*
X016462Y008412D01*
X016511Y008412D01*
X016566Y008254D02*
X016407Y008254D01*
X016566Y008254D01*
X016699Y008095D02*
X016274Y008095D01*
X016699Y008095D01*
X016387Y007144D02*
X003314Y007144D01*
X003116Y006986D02*
X016368Y006986D01*
X016390Y006827D02*
X003203Y006827D01*
X003290Y006669D02*
X004324Y006669D01*
X004445Y006669D02*
X016363Y006669D01*
X016341Y006510D02*
X004651Y006510D01*
X004685Y006352D02*
X016320Y006352D01*
X016298Y006193D02*
X004633Y006193D01*
X004487Y006035D02*
X016280Y006035D01*
X016462Y005401D02*
X016511Y005401D01*
X016570Y005242D02*
X016402Y005242D01*
X016262Y005084D02*
X016711Y005084D01*
X015263Y009522D02*
X014842Y009522D01*
X015263Y009522D01*
X015140Y009680D02*
X015060Y009680D01*
X015140Y009680D01*
X015110Y010314D02*
X015238Y010314D01*
X015110Y010314D01*
X014967Y010473D02*
X015505Y010473D01*
X014967Y010473D01*
X014297Y010473D02*
X013759Y010473D01*
X014297Y010473D01*
X014154Y010314D02*
X014026Y010314D01*
X014154Y010314D01*
X013966Y010790D02*
X006257Y010790D01*
X013966Y010790D01*
X013693Y010948D02*
X006596Y010948D01*
X013693Y010948D01*
X013276Y011107D02*
X012809Y011107D01*
X013276Y011107D01*
X013146Y011265D02*
X013046Y011265D01*
X013146Y011265D01*
X013115Y011899D02*
X013225Y011899D01*
X013115Y011899D01*
X012981Y012058D02*
X013472Y012058D01*
X012981Y012058D01*
X013792Y012058D02*
X014283Y012058D01*
X013792Y012058D01*
X014039Y011899D02*
X014149Y011899D01*
X014039Y011899D01*
X013505Y010473D02*
X012967Y010473D01*
X013505Y010473D01*
X013238Y010314D02*
X013110Y010314D01*
X013238Y010314D01*
X013140Y009680D02*
X013060Y009680D01*
X013140Y009680D01*
X013263Y009522D02*
X012842Y009522D01*
X013263Y009522D01*
X014001Y009522D02*
X014422Y009522D01*
X014001Y009522D01*
X014124Y009680D02*
X014204Y009680D01*
X014124Y009680D01*
X016039Y011899D02*
X016149Y011899D01*
X016283Y012058D02*
X015792Y012058D01*
X015892Y015603D02*
X016081Y015603D01*
X016256Y015676D01*
X016389Y015809D01*
X016462Y015984D01*
X016462Y016173D01*
X016389Y016348D01*
X016256Y016481D01*
X016081Y016554D01*
X015892Y016554D01*
X015717Y016481D01*
X015583Y016348D01*
X015511Y016173D01*
X015511Y015984D01*
X015583Y015809D01*
X015717Y015676D01*
X015892Y015603D01*
X016081Y015603D01*
X016256Y015676D01*
X016389Y015809D01*
X016462Y015984D01*
X016462Y016173D01*
X016389Y016348D01*
X016256Y016481D01*
X016081Y016554D01*
X015892Y016554D01*
X015717Y016481D01*
X015583Y016348D01*
X015511Y016173D01*
X015511Y015984D01*
X015583Y015809D01*
X015717Y015676D01*
X015892Y015603D01*
X015689Y015703D02*
X015283Y015703D01*
X015689Y015703D01*
X015562Y015862D02*
X015411Y015862D01*
X015562Y015862D01*
X015462Y015984D02*
X015389Y015809D01*
X015256Y015676D01*
X015081Y015603D01*
X014892Y015603D01*
X014717Y015676D01*
X014583Y015809D01*
X014511Y015984D01*
X014511Y016173D01*
X014583Y016348D01*
X014717Y016481D01*
X014892Y016554D01*
X015081Y016554D01*
X015256Y016481D01*
X015389Y016348D01*
X015462Y016173D01*
X015462Y015984D01*
X015389Y015809D01*
X015256Y015676D01*
X015081Y015603D01*
X014892Y015603D01*
X014717Y015676D01*
X014583Y015809D01*
X014511Y015984D01*
X014511Y016173D01*
X014583Y016348D01*
X014717Y016481D01*
X014892Y016554D01*
X015081Y016554D01*
X015256Y016481D01*
X015389Y016348D01*
X015462Y016173D01*
X015462Y015984D01*
X015462Y016020D02*
X015511Y016020D01*
X015462Y016020D01*
X015459Y016179D02*
X015513Y016179D01*
X015459Y016179D01*
X015394Y016337D02*
X015579Y016337D01*
X015394Y016337D01*
X015221Y016496D02*
X015751Y016496D01*
X015221Y016496D01*
X014751Y016496D02*
X014221Y016496D01*
X014751Y016496D01*
X014579Y016337D02*
X014394Y016337D01*
X014579Y016337D01*
X014513Y016179D02*
X014459Y016179D01*
X014513Y016179D01*
X014511Y016020D02*
X014462Y016020D01*
X014511Y016020D01*
X014562Y015862D02*
X014411Y015862D01*
X014562Y015862D01*
X014689Y015703D02*
X014283Y015703D01*
X014689Y015703D01*
X014865Y017130D02*
X015253Y017130D01*
X014865Y017130D01*
X015069Y017288D02*
X015136Y017288D01*
X015069Y017288D01*
X015106Y017922D02*
X015248Y017922D01*
X015106Y017922D01*
X014399Y017130D02*
X014011Y017130D01*
X014399Y017130D01*
X014194Y017288D02*
X014128Y017288D01*
X014194Y017288D01*
X014158Y017922D02*
X014016Y017922D01*
X014158Y017922D01*
X016221Y016496D02*
X016751Y016496D01*
X016221Y016496D01*
X016394Y016337D02*
X016579Y016337D01*
X016394Y016337D01*
X016459Y016179D02*
X016513Y016179D01*
X016459Y016179D01*
X016511Y016173D02*
X016511Y015984D01*
X016583Y015809D01*
X016717Y015676D01*
X016892Y015603D01*
X017081Y015603D01*
X017256Y015676D01*
X017389Y015809D01*
X017462Y015984D01*
X017462Y016173D01*
X017389Y016348D01*
X017256Y016481D01*
X017081Y016554D01*
X016892Y016554D01*
X016717Y016481D01*
X016583Y016348D01*
X016511Y016173D01*
X016511Y015984D01*
X016583Y015809D01*
X016717Y015676D01*
X016892Y015603D01*
X017081Y015603D01*
X017256Y015676D01*
X017389Y015809D01*
X017462Y015984D01*
X017462Y016173D01*
X017389Y016348D01*
X017256Y016481D01*
X017081Y016554D01*
X016892Y016554D01*
X016717Y016481D01*
X016583Y016348D01*
X016511Y016173D01*
X016511Y016020D02*
X016462Y016020D01*
X016511Y016020D01*
X016562Y015862D02*
X016411Y015862D01*
X016562Y015862D01*
X016689Y015703D02*
X016283Y015703D01*
X016689Y015703D01*
X011724Y013484D02*
X011249Y013484D01*
X010689Y015703D02*
X010283Y015703D01*
X007472Y012058D02*
X006981Y012058D01*
X007472Y012058D01*
X007225Y011899D02*
X007115Y011899D01*
X007225Y011899D01*
X007111Y011348D02*
X007098Y011317D01*
X006944Y011162D01*
X006741Y011078D01*
X006705Y011078D01*
X006610Y010956D01*
X006705Y011078D01*
X006741Y011078D01*
X006944Y011162D01*
X007098Y011317D01*
X007111Y011348D01*
X007146Y011265D02*
X007046Y011265D01*
X007146Y011265D01*
X007276Y011107D02*
X006809Y011107D01*
X007276Y011107D01*
X007505Y010473D02*
X006967Y010473D01*
X007505Y010473D01*
X007759Y010473D02*
X008297Y010473D01*
X007759Y010473D01*
X008026Y010314D02*
X008154Y010314D01*
X008026Y010314D01*
X008124Y009680D02*
X008204Y009680D01*
X008124Y009680D01*
X008001Y009522D02*
X008422Y009522D01*
X008001Y009522D01*
X007263Y009522D02*
X006842Y009522D01*
X007263Y009522D01*
X007140Y009680D02*
X007060Y009680D01*
X007140Y009680D01*
X007110Y010314D02*
X007238Y010314D01*
X007110Y010314D01*
X006297Y010473D02*
X005759Y010473D01*
X006297Y010473D01*
X006154Y010314D02*
X006026Y010314D01*
X006154Y010314D01*
X006124Y009680D02*
X006204Y009680D01*
X006124Y009680D01*
X006001Y009522D02*
X006422Y009522D01*
X006001Y009522D01*
X004728Y008888D02*
X004244Y008888D01*
X004728Y008888D01*
X004575Y008729D02*
X004398Y008729D01*
X004575Y008729D01*
X004511Y008571D02*
X004462Y008571D01*
X004511Y008571D01*
X004462Y008575D02*
X004389Y008749D01*
X004256Y008883D01*
X004081Y008955D01*
X003892Y008955D01*
X003717Y008883D01*
X003583Y008749D01*
X003511Y008575D01*
X003511Y008385D01*
X003583Y008211D01*
X003717Y008077D01*
X003892Y008005D01*
X004081Y008005D01*
X004256Y008077D01*
X004389Y008211D01*
X004462Y008385D01*
X004462Y008575D01*
X004389Y008749D01*
X004256Y008883D01*
X004081Y008955D01*
X003892Y008955D01*
X003717Y008883D01*
X003583Y008749D01*
X003511Y008575D01*
X003511Y008385D01*
X003583Y008211D01*
X003717Y008077D01*
X003892Y008005D01*
X004081Y008005D01*
X004256Y008077D01*
X004389Y008211D01*
X004462Y008385D01*
X004462Y008575D01*
X004462Y008412D02*
X004511Y008412D01*
X004462Y008412D01*
X004407Y008254D02*
X004566Y008254D01*
X004407Y008254D01*
X004274Y008095D02*
X004699Y008095D01*
X004274Y008095D01*
X003699Y008095D02*
X003165Y008095D01*
X003274Y008254D02*
X003566Y008254D01*
X002439Y008254D01*
X002439Y008412D02*
X003511Y008412D01*
X003323Y008412D01*
X003323Y008571D02*
X003511Y008571D01*
X002439Y008571D01*
X002439Y008729D02*
X003575Y008729D01*
X003265Y008729D01*
X003699Y008095D02*
X002439Y008095D01*
X002439Y007937D02*
X002551Y007937D01*
X003323Y006510D02*
X004118Y006510D01*
X004085Y006352D02*
X003315Y006352D01*
X003249Y006193D02*
X004054Y006193D01*
X003983Y006035D02*
X003105Y006035D01*
X003254Y005876D02*
X003710Y005876D01*
X003570Y005718D02*
X003369Y005718D01*
X003423Y005559D02*
X003511Y005559D01*
X003511Y005401D02*
X003423Y005401D01*
X003290Y004291D02*
X004145Y004291D01*
X004082Y004133D02*
X003203Y004133D01*
X002988Y003974D02*
X004082Y003974D01*
X004125Y003816D02*
X002439Y003816D01*
X002439Y003974D02*
X002557Y003974D01*
X002439Y003657D02*
X004227Y003657D01*
X004478Y003499D02*
X002439Y003499D01*
X004786Y003499D02*
X004842Y003499D01*
X004422Y009522D02*
X002439Y009522D01*
X002439Y009680D02*
X004204Y009680D01*
X003385Y009680D01*
X003423Y009522D02*
X004422Y009522D01*
X004116Y009839D02*
X003292Y009839D01*
X003061Y009997D02*
X004082Y009997D01*
X002439Y009997D01*
X002684Y009997D01*
X002453Y009839D02*
X002439Y009839D01*
X004116Y009839D01*
X004089Y010156D02*
X002439Y010156D01*
X004089Y010156D01*
X004154Y010314D02*
X002439Y010314D01*
X004154Y010314D01*
X004297Y010473D02*
X002439Y010473D01*
X004297Y010473D01*
X004455Y011107D02*
X002439Y011107D01*
X004455Y011107D01*
X004217Y011265D02*
X002439Y011265D01*
X004217Y011265D01*
X004121Y011424D02*
X002439Y011424D01*
X004121Y011424D01*
X004082Y011582D02*
X003011Y011582D01*
X004082Y011582D01*
X004083Y011741D02*
X003212Y011741D01*
X004083Y011741D01*
X004149Y011899D02*
X003294Y011899D01*
X004149Y011899D01*
X004283Y012058D02*
X003323Y012058D01*
X004283Y012058D01*
X003511Y013009D02*
X003423Y013009D01*
X003511Y013009D01*
X003511Y013167D02*
X003423Y013167D01*
X003511Y013167D01*
X003574Y013326D02*
X003365Y013326D01*
X003574Y013326D01*
X003724Y013484D02*
X003245Y013484D01*
X003724Y013484D01*
X003987Y013643D02*
X003115Y013643D01*
X003987Y013643D01*
X004058Y013801D02*
X003253Y013801D01*
X004058Y013801D01*
X004085Y013960D02*
X003319Y013960D01*
X004085Y013960D01*
X004122Y014118D02*
X003323Y014118D01*
X004122Y014118D01*
X003689Y015703D02*
X003175Y015703D01*
X005792Y012058D02*
X006283Y012058D01*
X005792Y012058D01*
X006039Y011899D02*
X006149Y011899D01*
X006039Y011899D01*
X002534Y011582D02*
X002439Y011582D01*
X002534Y011582D01*
X002491Y010598D02*
X002491Y010598D01*
X011244Y008888D02*
X011728Y008888D01*
X011244Y008888D01*
X011398Y008729D02*
X011575Y008729D01*
X011398Y008729D01*
X011462Y008571D02*
X011511Y008571D01*
X011462Y008571D01*
X011462Y008412D02*
X011511Y008412D01*
X011462Y008412D01*
X011407Y008254D02*
X011566Y008254D01*
X011407Y008254D01*
X011274Y008095D02*
X011699Y008095D01*
X011274Y008095D01*
X021741Y011265D02*
X021764Y011265D01*
X021763Y011582D02*
X021764Y011582D01*
D16*
X016491Y013338D02*
X016530Y013773D01*
X016589Y014207D01*
X016668Y014637D01*
X013632Y011529D02*
X013639Y011481D01*
X013649Y011434D01*
X013663Y011388D01*
X013681Y011342D01*
X013702Y011299D01*
X013727Y011257D01*
X013755Y011218D01*
X013785Y011180D01*
X013819Y011145D01*
X013855Y011113D01*
X013894Y011084D01*
X013934Y011058D01*
X013977Y011035D01*
X014021Y011016D01*
X014067Y011000D01*
X014114Y010988D01*
X014161Y010979D01*
X014209Y010974D01*
X014258Y010973D01*
X014306Y010976D01*
X014306Y010975D02*
X016038Y010975D01*
X016038Y011054D01*
X013632Y003930D02*
X013639Y003882D01*
X013649Y003835D01*
X013663Y003789D01*
X013681Y003743D01*
X013702Y003700D01*
X013727Y003658D01*
X013755Y003619D01*
X013785Y003581D01*
X013819Y003546D01*
X013855Y003514D01*
X013894Y003485D01*
X013934Y003459D01*
X013977Y003436D01*
X014021Y003417D01*
X014067Y003401D01*
X014114Y003389D01*
X014161Y003380D01*
X014209Y003375D01*
X014258Y003374D01*
X014306Y003377D01*
X016038Y003377D01*
X016038Y003456D01*
X006156Y003416D02*
X005133Y003416D01*
X006156Y003416D02*
X006201Y003423D01*
X006245Y003434D01*
X006289Y003448D01*
X006331Y003466D01*
X006371Y003488D01*
X006409Y003512D01*
X006445Y003540D01*
X006479Y003571D01*
X006510Y003605D01*
X006537Y003641D01*
X006562Y003679D01*
X006584Y003719D01*
X006602Y003761D01*
X006616Y003804D01*
X006627Y003848D01*
X006634Y003893D01*
X006637Y003939D01*
X006636Y003985D01*
X006632Y004030D01*
X003986Y005480D02*
X004385Y006369D01*
X003986Y005480D02*
X002773Y004480D01*
X005133Y011015D02*
X006156Y011015D01*
X006201Y011022D01*
X006245Y011033D01*
X006289Y011047D01*
X006331Y011065D01*
X006371Y011087D01*
X006409Y011111D01*
X006445Y011139D01*
X006479Y011170D01*
X006510Y011204D01*
X006537Y011240D01*
X006562Y011278D01*
X006584Y011318D01*
X006602Y011360D01*
X006616Y011403D01*
X006627Y011447D01*
X006634Y011492D01*
X006637Y011538D01*
X006636Y011584D01*
X006632Y011629D01*
X003986Y013078D02*
X004385Y013967D01*
X003986Y013078D02*
X002773Y012078D01*
X016668Y007038D02*
X016589Y006608D01*
X016530Y006174D01*
X016491Y005739D01*
D17*
X016491Y005739D03*
X016668Y007038D03*
X016038Y003456D03*
X016038Y011054D03*
X016491Y013337D03*
X016668Y014637D03*
X005133Y011015D03*
X004385Y013967D03*
X004385Y006369D03*
X005133Y003416D03*
M02*
