<?xml version="1.0" encoding="UTF-8" standalone="no"?>
<!-- Created with Inkscape (http://www.inkscape.org/) -->

<svg
   xmlns:dc="http://purl.org/dc/elements/1.1/"
   xmlns:cc="http://creativecommons.org/ns#"
   xmlns:rdf="http://www.w3.org/1999/02/22-rdf-syntax-ns#"
   xmlns:svg="http://www.w3.org/2000/svg"
   xmlns="http://www.w3.org/2000/svg"
   xmlns:sodipodi="http://sodipodi.sourceforge.net/DTD/sodipodi-0.dtd"
   xmlns:inkscape="http://www.inkscape.org/namespaces/inkscape"
   id="svg2985"
   version="1.1"
   inkscape:version="0.48.0 r9654"
   width="242.5"
   height="207.5"
   xml:space="preserve"
   sodipodi:docname="ghettoduino-cream.PDF"><metadata
     id="metadata2991"><rdf:RDF><cc:Work
         rdf:about=""><dc:format>image/svg+xml</dc:format><dc:type
           rdf:resource="http://purl.org/dc/dcmitype/StillImage" /><dc:title></dc:title></cc:Work></rdf:RDF></metadata><defs
     id="defs2989" /><sodipodi:namedview
     pagecolor="#ffffff"
     bordercolor="#666666"
     borderopacity="1"
     objecttolerance="10"
     gridtolerance="10"
     guidetolerance="10"
     inkscape:pageopacity="0"
     inkscape:pageshadow="2"
     inkscape:window-width="640"
     inkscape:window-height="480"
     id="namedview2987"
     showgrid="false"
     inkscape:zoom="1.2578313"
     inkscape:cx="121.25"
     inkscape:cy="103.75"
     inkscape:window-x="0"
     inkscape:window-y="0"
     inkscape:window-maximized="0"
     inkscape:current-layer="g2993" /><g
     id="g2993"
     inkscape:groupmode="layer"
     inkscape:label="ghettoduino-cream"
     transform="matrix(1.25,0,0,-1.25,0,207.5)"><g
       id="g2995"
       transform="scale(0.24,0.24)"><path
         d="m 559.438,272.84 23.5625,0 0,7.62109 -23.5625,0 0,-7.62109 z"
         style="fill:#000000;fill-opacity:1;fill-rule:nonzero;stroke:none"
         id="path2997" /><path
         d="m 559.438,300.008 23.5625,0 0,7.62109 -23.5625,0 0,-7.62109 z"
         style="fill:#000000;fill-opacity:1;fill-rule:nonzero;stroke:none"
         id="path2999" /><path
         d="m 559.438,245.676 23.5625,0 0,7.62109 -23.5625,0 0,-7.62109 z"
         style="fill:#000000;fill-opacity:1;fill-rule:nonzero;stroke:none"
         id="path3001" /><path
         d="m 629.121,259.258 23.5664,0 0,34.7852 -23.5664,0 0,-34.7852 z"
         style="fill:#000000;fill-opacity:1;fill-rule:nonzero;stroke:none"
         id="path3003" /><path
         d="m 610.625,144.445 8.21094,0 0,11.7539 -8.21094,0 0,-11.7539 z"
         style="fill:#000000;fill-opacity:1;fill-rule:nonzero;stroke:none"
         id="path3005" /><path
         d="m 610.625,122.004 8.21094,0 0,11.7539 -8.21094,0 0,-11.7539 z"
         style="fill:#000000;fill-opacity:1;fill-rule:nonzero;stroke:none"
         id="path3007" /><path
         d="m 610.625,179.879 8.21094,0 0,11.7539 -8.21094,0 0,-11.7539 z"
         style="fill:#000000;fill-opacity:1;fill-rule:nonzero;stroke:none"
         id="path3009" /><path
         d="m 610.625,202.316 8.21094,0 0,11.7578 -8.21094,0 0,-11.7578 z"
         style="fill:#000000;fill-opacity:1;fill-rule:nonzero;stroke:none"
         id="path3011" /><path
         d="m 377.949,208.766 10.5703,0 0,10.5742 -10.5703,0 0,-10.5742 z"
         style="fill:#000000;fill-opacity:1;fill-rule:nonzero;stroke:none"
         id="path3013" /><path
         d="m 354.324,208.766 10.5742,0 0,10.5742 -10.5742,0 0,-10.5742 z"
         style="fill:#000000;fill-opacity:1;fill-rule:nonzero;stroke:none"
         id="path3015" /><path
         d="m 275.191,201.23 10.5742,0 0,10.5742 -10.5742,0 0,-10.5742 z"
         style="fill:#000000;fill-opacity:1;fill-rule:nonzero;stroke:none"
         id="path3017" /><path
         d="m 251.57,201.23 10.5742,0 0,10.5742 -10.5742,0 0,-10.5742 z"
         style="fill:#000000;fill-opacity:1;fill-rule:nonzero;stroke:none"
         id="path3019" /><path
         d="m 634.293,162.516 17.6602,0 0,20.0195 -17.6602,0 0,-20.0195 z"
         style="fill:#000000;fill-opacity:1;fill-rule:nonzero;stroke:none"
         id="path3021" /><path
         d="m 634.293,124.719 17.6602,0 0,20.0234 -17.6602,0 0,-20.0234 z"
         style="fill:#000000;fill-opacity:1;fill-rule:nonzero;stroke:none"
         id="path3023" /><path
         d="m 527.969,250.785 17.6563,0 0,20.0234 -17.6563,0 0,-20.0234 z"
         style="fill:#000000;fill-opacity:1;fill-rule:nonzero;stroke:none"
         id="path3025" /><path
         d="m 527.969,288.582 17.6563,0 0,20.0195 -17.6563,0 0,-20.0195 z"
         style="fill:#000000;fill-opacity:1;fill-rule:nonzero;stroke:none"
         id="path3027" /><path
         d="m 171.254,201.137 10.5742,0 0,10.5742 -10.5742,0 0,-10.5742 z"
         style="fill:#000000;fill-opacity:1;fill-rule:nonzero;stroke:none"
         id="path3029" /><path
         d="m 147.633,201.137 10.5742,0 0,10.5742 -10.5742,0 0,-10.5742 z"
         style="fill:#000000;fill-opacity:1;fill-rule:nonzero;stroke:none"
         id="path3031" /></g></g></svg>